G04 #@! TF.GenerationSoftware,KiCad,Pcbnew,5.99.0-unknown-43514a1~86~ubuntu18.04.1*
G04 #@! TF.CreationDate,2020-06-18T19:40:50+01:00*
G04 #@! TF.ProjectId,RADIO,52414449-4f2e-46b6-9963-61645f706362,rev?*
G04 #@! TF.SameCoordinates,Original*
G04 #@! TF.FileFunction,Paste,Top*
G04 #@! TF.FilePolarity,Positive*
%FSLAX46Y46*%
G04 Gerber Fmt 4.6, Leading zero omitted, Abs format (unit mm)*
G04 Created by KiCad (PCBNEW 5.99.0-unknown-43514a1~86~ubuntu18.04.1) date 2020-06-18 19:40:50*
%MOMM*%
%LPD*%
G01*
G04 APERTURE LIST*
G04 APERTURE END LIST*
G36*
X114993671Y-68594030D02*
G01*
X115074777Y-68648223D01*
X115128970Y-68729329D01*
X115148000Y-68825000D01*
X115148000Y-70875000D01*
X115128970Y-70970671D01*
X115074777Y-71051777D01*
X114993671Y-71105970D01*
X114898000Y-71125000D01*
X113323000Y-71125000D01*
X113227329Y-71105970D01*
X113146223Y-71051777D01*
X113092030Y-70970671D01*
X113073000Y-70875000D01*
X113073000Y-68825000D01*
X113092030Y-68729329D01*
X113146223Y-68648223D01*
X113227329Y-68594030D01*
X113323000Y-68575000D01*
X114898000Y-68575000D01*
X114993671Y-68594030D01*
G37*
G36*
X108768671Y-68594030D02*
G01*
X108849777Y-68648223D01*
X108903970Y-68729329D01*
X108923000Y-68825000D01*
X108923000Y-70875000D01*
X108903970Y-70970671D01*
X108849777Y-71051777D01*
X108768671Y-71105970D01*
X108673000Y-71125000D01*
X107098000Y-71125000D01*
X107002329Y-71105970D01*
X106921223Y-71051777D01*
X106867030Y-70970671D01*
X106848000Y-70875000D01*
X106848000Y-68825000D01*
X106867030Y-68729329D01*
X106921223Y-68648223D01*
X107002329Y-68594030D01*
X107098000Y-68575000D01*
X108673000Y-68575000D01*
X108768671Y-68594030D01*
G37*
M02*
