G04 #@! TF.GenerationSoftware,KiCad,Pcbnew,5.99.0-unknown-43514a1~86~ubuntu18.04.1*
G04 #@! TF.CreationDate,2020-02-15T13:45:35+00:00*
G04 #@! TF.ProjectId,RADIO,52414449-4f2e-46b6-9963-61645f706362,rev?*
G04 #@! TF.SameCoordinates,Original*
G04 #@! TF.FileFunction,Soldermask,Bot*
G04 #@! TF.FilePolarity,Negative*
%FSLAX46Y46*%
G04 Gerber Fmt 4.6, Leading zero omitted, Abs format (unit mm)*
G04 Created by KiCad (PCBNEW 5.99.0-unknown-43514a1~86~ubuntu18.04.1) date 2020-02-15 13:45:35*
%MOMM*%
%LPD*%
G01*
G04 APERTURE LIST*
%ADD10C,1.620000*%
%ADD11C,6.400000*%
%ADD12O,1.727200X1.727200*%
%ADD13R,1.727200X1.727200*%
%ADD14C,1.700000*%
%ADD15R,1.524000X1.524000*%
%ADD16R,1.700000X1.700000*%
%ADD17O,1.700000X1.700000*%
G04 APERTURE END LIST*
D10*
X175006000Y-78279000D03*
X180006000Y-75779000D03*
X175006000Y-73279000D03*
X175006000Y-92456000D03*
X180006000Y-89956000D03*
X175006000Y-87456000D03*
X175260000Y-106680000D03*
X180260000Y-104180000D03*
X175260000Y-101680000D03*
D11*
X92710000Y-59690000D03*
X92710000Y-115570000D03*
X184150000Y-59690000D03*
X184150000Y-115570000D03*
D12*
X116840000Y-111760000D03*
X116840000Y-114300000D03*
X114300000Y-111760000D03*
X114300000Y-114300000D03*
X111760000Y-111760000D03*
X111760000Y-114300000D03*
X109220000Y-111760000D03*
X109220000Y-114300000D03*
X106680000Y-111760000D03*
D13*
X106680000Y-114300000D03*
D14*
X144780000Y-114300000D03*
X142240000Y-114300000D03*
X139700000Y-114300000D03*
X137160000Y-114300000D03*
X134620000Y-114300000D03*
X132080000Y-114300000D03*
X144780000Y-111760000D03*
X142240000Y-111760000D03*
X139700000Y-111760000D03*
X137160000Y-111760000D03*
X134620000Y-111760000D03*
D15*
X132080000Y-111760000D03*
D14*
X148590000Y-109220000D03*
X148590000Y-106680000D03*
X148590000Y-104140000D03*
X148590000Y-101600000D03*
X148590000Y-99060000D03*
X148590000Y-96520000D03*
X148590000Y-93980000D03*
X148590000Y-91440000D03*
X148590000Y-88900000D03*
X148590000Y-86360000D03*
X148590000Y-83820000D03*
X148590000Y-81280000D03*
X148590000Y-78740000D03*
D16*
X148590000Y-76200000D03*
D14*
X128270000Y-109220000D03*
X128270000Y-106680000D03*
X128270000Y-104140000D03*
X128270000Y-101600000D03*
X128270000Y-99060000D03*
X128270000Y-96520000D03*
X128270000Y-93980000D03*
X128270000Y-91440000D03*
X128270000Y-88900000D03*
X128270000Y-86360000D03*
X128270000Y-83820000D03*
X128270000Y-81280000D03*
X128270000Y-78740000D03*
X128270000Y-76200000D03*
D17*
X167435000Y-115570000D03*
D16*
X167435000Y-113030000D03*
D12*
X158750000Y-88900000D03*
X161290000Y-88900000D03*
X158750000Y-91440000D03*
X161290000Y-91440000D03*
X158750000Y-93980000D03*
X161290000Y-93980000D03*
X158750000Y-96520000D03*
X161290000Y-96520000D03*
X158750000Y-99060000D03*
X161290000Y-99060000D03*
X158750000Y-101600000D03*
X161290000Y-101600000D03*
X158750000Y-104140000D03*
X161290000Y-104140000D03*
X158750000Y-106680000D03*
X161290000Y-106680000D03*
X158750000Y-109220000D03*
X161290000Y-109220000D03*
X158750000Y-111760000D03*
D13*
X161290000Y-111760000D03*
M02*
