G04 #@! TF.GenerationSoftware,KiCad,Pcbnew,5.99.0-unknown-43514a1~86~ubuntu18.04.1*
G04 #@! TF.CreationDate,2020-06-17T18:51:39+01:00*
G04 #@! TF.ProjectId,RADIO,52414449-4f2e-46b6-9963-61645f706362,rev?*
G04 #@! TF.SameCoordinates,Original*
G04 #@! TF.FileFunction,Soldermask,Bot*
G04 #@! TF.FilePolarity,Negative*
%FSLAX46Y46*%
G04 Gerber Fmt 4.6, Leading zero omitted, Abs format (unit mm)*
G04 Created by KiCad (PCBNEW 5.99.0-unknown-43514a1~86~ubuntu18.04.1) date 2020-06-17 18:51:39*
%MOMM*%
%LPD*%
G01*
G04 APERTURE LIST*
%ADD10C,2.000000*%
%ADD11O,1.700000X1.700000*%
%ADD12R,1.700000X1.700000*%
%ADD13C,3.000000*%
%ADD14O,1.800000X2.600000*%
%ADD15R,1.800000X2.600000*%
%ADD16C,1.700000*%
%ADD17R,1.524000X1.524000*%
%ADD18C,1.620000*%
%ADD19R,2.000000X2.000000*%
%ADD20R,3.000000X2.500000*%
%ADD21C,1.524000*%
%ADD22C,6.400000*%
%ADD23R,1.200000X2.000000*%
G04 APERTURE END LIST*
D10*
X117460000Y-62840000D03*
X121460000Y-62840000D03*
X124460000Y-62840000D03*
X114460000Y-62840000D03*
X119460000Y-57840000D03*
G36*
X109478529Y-65612554D02*
G01*
X109557607Y-65665393D01*
X109610446Y-65744471D01*
X109629000Y-65837750D01*
X109629000Y-66750250D01*
X109610446Y-66843529D01*
X109557607Y-66922607D01*
X109478529Y-66975446D01*
X109385250Y-66994000D01*
X108897750Y-66994000D01*
X108804471Y-66975446D01*
X108725393Y-66922607D01*
X108672554Y-66843529D01*
X108654000Y-66750250D01*
X108654000Y-65837750D01*
X108672554Y-65744471D01*
X108725393Y-65665393D01*
X108804471Y-65612554D01*
X108897750Y-65594000D01*
X109385250Y-65594000D01*
X109478529Y-65612554D01*
G37*
G36*
X107603529Y-65612554D02*
G01*
X107682607Y-65665393D01*
X107735446Y-65744471D01*
X107754000Y-65837750D01*
X107754000Y-66750250D01*
X107735446Y-66843529D01*
X107682607Y-66922607D01*
X107603529Y-66975446D01*
X107510250Y-66994000D01*
X107022750Y-66994000D01*
X106929471Y-66975446D01*
X106850393Y-66922607D01*
X106797554Y-66843529D01*
X106779000Y-66750250D01*
X106779000Y-65837750D01*
X106797554Y-65744471D01*
X106850393Y-65665393D01*
X106929471Y-65612554D01*
X107022750Y-65594000D01*
X107510250Y-65594000D01*
X107603529Y-65612554D01*
G37*
G36*
X104652529Y-79074554D02*
G01*
X104731607Y-79127393D01*
X104784446Y-79206471D01*
X104803000Y-79299750D01*
X104803000Y-80212250D01*
X104784446Y-80305529D01*
X104731607Y-80384607D01*
X104652529Y-80437446D01*
X104559250Y-80456000D01*
X104071750Y-80456000D01*
X103978471Y-80437446D01*
X103899393Y-80384607D01*
X103846554Y-80305529D01*
X103828000Y-80212250D01*
X103828000Y-79299750D01*
X103846554Y-79206471D01*
X103899393Y-79127393D01*
X103978471Y-79074554D01*
X104071750Y-79056000D01*
X104559250Y-79056000D01*
X104652529Y-79074554D01*
G37*
G36*
X102777529Y-79074554D02*
G01*
X102856607Y-79127393D01*
X102909446Y-79206471D01*
X102928000Y-79299750D01*
X102928000Y-80212250D01*
X102909446Y-80305529D01*
X102856607Y-80384607D01*
X102777529Y-80437446D01*
X102684250Y-80456000D01*
X102196750Y-80456000D01*
X102103471Y-80437446D01*
X102024393Y-80384607D01*
X101971554Y-80305529D01*
X101953000Y-80212250D01*
X101953000Y-79299750D01*
X101971554Y-79206471D01*
X102024393Y-79127393D01*
X102103471Y-79074554D01*
X102196750Y-79056000D01*
X102684250Y-79056000D01*
X102777529Y-79074554D01*
G37*
G36*
X98713529Y-79201554D02*
G01*
X98792607Y-79254393D01*
X98845446Y-79333471D01*
X98864000Y-79426750D01*
X98864000Y-80339250D01*
X98845446Y-80432529D01*
X98792607Y-80511607D01*
X98713529Y-80564446D01*
X98620250Y-80583000D01*
X98132750Y-80583000D01*
X98039471Y-80564446D01*
X97960393Y-80511607D01*
X97907554Y-80432529D01*
X97889000Y-80339250D01*
X97889000Y-79426750D01*
X97907554Y-79333471D01*
X97960393Y-79254393D01*
X98039471Y-79201554D01*
X98132750Y-79183000D01*
X98620250Y-79183000D01*
X98713529Y-79201554D01*
G37*
G36*
X100588529Y-79201554D02*
G01*
X100667607Y-79254393D01*
X100720446Y-79333471D01*
X100739000Y-79426750D01*
X100739000Y-80339250D01*
X100720446Y-80432529D01*
X100667607Y-80511607D01*
X100588529Y-80564446D01*
X100495250Y-80583000D01*
X100007750Y-80583000D01*
X99914471Y-80564446D01*
X99835393Y-80511607D01*
X99782554Y-80432529D01*
X99764000Y-80339250D01*
X99764000Y-79426750D01*
X99782554Y-79333471D01*
X99835393Y-79254393D01*
X99914471Y-79201554D01*
X100007750Y-79183000D01*
X100495250Y-79183000D01*
X100588529Y-79201554D01*
G37*
G36*
X98713529Y-81360554D02*
G01*
X98792607Y-81413393D01*
X98845446Y-81492471D01*
X98864000Y-81585750D01*
X98864000Y-82498250D01*
X98845446Y-82591529D01*
X98792607Y-82670607D01*
X98713529Y-82723446D01*
X98620250Y-82742000D01*
X98132750Y-82742000D01*
X98039471Y-82723446D01*
X97960393Y-82670607D01*
X97907554Y-82591529D01*
X97889000Y-82498250D01*
X97889000Y-81585750D01*
X97907554Y-81492471D01*
X97960393Y-81413393D01*
X98039471Y-81360554D01*
X98132750Y-81342000D01*
X98620250Y-81342000D01*
X98713529Y-81360554D01*
G37*
G36*
X100588529Y-81360554D02*
G01*
X100667607Y-81413393D01*
X100720446Y-81492471D01*
X100739000Y-81585750D01*
X100739000Y-82498250D01*
X100720446Y-82591529D01*
X100667607Y-82670607D01*
X100588529Y-82723446D01*
X100495250Y-82742000D01*
X100007750Y-82742000D01*
X99914471Y-82723446D01*
X99835393Y-82670607D01*
X99782554Y-82591529D01*
X99764000Y-82498250D01*
X99764000Y-81585750D01*
X99782554Y-81492471D01*
X99835393Y-81413393D01*
X99914471Y-81360554D01*
X100007750Y-81342000D01*
X100495250Y-81342000D01*
X100588529Y-81360554D01*
G37*
G36*
X112272529Y-97362554D02*
G01*
X112351607Y-97415393D01*
X112404446Y-97494471D01*
X112423000Y-97587750D01*
X112423000Y-98500250D01*
X112404446Y-98593529D01*
X112351607Y-98672607D01*
X112272529Y-98725446D01*
X112179250Y-98744000D01*
X111691750Y-98744000D01*
X111598471Y-98725446D01*
X111519393Y-98672607D01*
X111466554Y-98593529D01*
X111448000Y-98500250D01*
X111448000Y-97587750D01*
X111466554Y-97494471D01*
X111519393Y-97415393D01*
X111598471Y-97362554D01*
X111691750Y-97344000D01*
X112179250Y-97344000D01*
X112272529Y-97362554D01*
G37*
G36*
X110397529Y-97362554D02*
G01*
X110476607Y-97415393D01*
X110529446Y-97494471D01*
X110548000Y-97587750D01*
X110548000Y-98500250D01*
X110529446Y-98593529D01*
X110476607Y-98672607D01*
X110397529Y-98725446D01*
X110304250Y-98744000D01*
X109816750Y-98744000D01*
X109723471Y-98725446D01*
X109644393Y-98672607D01*
X109591554Y-98593529D01*
X109573000Y-98500250D01*
X109573000Y-97587750D01*
X109591554Y-97494471D01*
X109644393Y-97415393D01*
X109723471Y-97362554D01*
X109816750Y-97344000D01*
X110304250Y-97344000D01*
X110397529Y-97362554D01*
G37*
G36*
X146054529Y-70438554D02*
G01*
X146133607Y-70491393D01*
X146186446Y-70570471D01*
X146205000Y-70663750D01*
X146205000Y-71576250D01*
X146186446Y-71669529D01*
X146133607Y-71748607D01*
X146054529Y-71801446D01*
X145961250Y-71820000D01*
X145473750Y-71820000D01*
X145380471Y-71801446D01*
X145301393Y-71748607D01*
X145248554Y-71669529D01*
X145230000Y-71576250D01*
X145230000Y-70663750D01*
X145248554Y-70570471D01*
X145301393Y-70491393D01*
X145380471Y-70438554D01*
X145473750Y-70420000D01*
X145961250Y-70420000D01*
X146054529Y-70438554D01*
G37*
G36*
X144179529Y-70438554D02*
G01*
X144258607Y-70491393D01*
X144311446Y-70570471D01*
X144330000Y-70663750D01*
X144330000Y-71576250D01*
X144311446Y-71669529D01*
X144258607Y-71748607D01*
X144179529Y-71801446D01*
X144086250Y-71820000D01*
X143598750Y-71820000D01*
X143505471Y-71801446D01*
X143426393Y-71748607D01*
X143373554Y-71669529D01*
X143355000Y-71576250D01*
X143355000Y-70663750D01*
X143373554Y-70570471D01*
X143426393Y-70491393D01*
X143505471Y-70438554D01*
X143598750Y-70420000D01*
X144086250Y-70420000D01*
X144179529Y-70438554D01*
G37*
G36*
X144179529Y-66946054D02*
G01*
X144258607Y-66998893D01*
X144311446Y-67077971D01*
X144330000Y-67171250D01*
X144330000Y-68083750D01*
X144311446Y-68177029D01*
X144258607Y-68256107D01*
X144179529Y-68308946D01*
X144086250Y-68327500D01*
X143598750Y-68327500D01*
X143505471Y-68308946D01*
X143426393Y-68256107D01*
X143373554Y-68177029D01*
X143355000Y-68083750D01*
X143355000Y-67171250D01*
X143373554Y-67077971D01*
X143426393Y-66998893D01*
X143505471Y-66946054D01*
X143598750Y-66927500D01*
X144086250Y-66927500D01*
X144179529Y-66946054D01*
G37*
G36*
X146054529Y-66946054D02*
G01*
X146133607Y-66998893D01*
X146186446Y-67077971D01*
X146205000Y-67171250D01*
X146205000Y-68083750D01*
X146186446Y-68177029D01*
X146133607Y-68256107D01*
X146054529Y-68308946D01*
X145961250Y-68327500D01*
X145473750Y-68327500D01*
X145380471Y-68308946D01*
X145301393Y-68256107D01*
X145248554Y-68177029D01*
X145230000Y-68083750D01*
X145230000Y-67171250D01*
X145248554Y-67077971D01*
X145301393Y-66998893D01*
X145380471Y-66946054D01*
X145473750Y-66927500D01*
X145961250Y-66927500D01*
X146054529Y-66946054D01*
G37*
G36*
X175174529Y-67173554D02*
G01*
X175253607Y-67226393D01*
X175306446Y-67305471D01*
X175325000Y-67398750D01*
X175325000Y-67886250D01*
X175306446Y-67979529D01*
X175253607Y-68058607D01*
X175174529Y-68111446D01*
X175081250Y-68130000D01*
X174168750Y-68130000D01*
X174075471Y-68111446D01*
X173996393Y-68058607D01*
X173943554Y-67979529D01*
X173925000Y-67886250D01*
X173925000Y-67398750D01*
X173943554Y-67305471D01*
X173996393Y-67226393D01*
X174075471Y-67173554D01*
X174168750Y-67155000D01*
X175081250Y-67155000D01*
X175174529Y-67173554D01*
G37*
G36*
X175174529Y-69048554D02*
G01*
X175253607Y-69101393D01*
X175306446Y-69180471D01*
X175325000Y-69273750D01*
X175325000Y-69761250D01*
X175306446Y-69854529D01*
X175253607Y-69933607D01*
X175174529Y-69986446D01*
X175081250Y-70005000D01*
X174168750Y-70005000D01*
X174075471Y-69986446D01*
X173996393Y-69933607D01*
X173943554Y-69854529D01*
X173925000Y-69761250D01*
X173925000Y-69273750D01*
X173943554Y-69180471D01*
X173996393Y-69101393D01*
X174075471Y-69048554D01*
X174168750Y-69030000D01*
X175081250Y-69030000D01*
X175174529Y-69048554D01*
G37*
D11*
X180594000Y-121920000D03*
X180594000Y-119380000D03*
D12*
X180594000Y-116840000D03*
G36*
X108386403Y-87595418D02*
G01*
X108435066Y-87627934D01*
X108467582Y-87676597D01*
X108479000Y-87734000D01*
X108479000Y-88034000D01*
X108467582Y-88091403D01*
X108435066Y-88140066D01*
X108386403Y-88172582D01*
X108329000Y-88184000D01*
X106679000Y-88184000D01*
X106621597Y-88172582D01*
X106572934Y-88140066D01*
X106540418Y-88091403D01*
X106529000Y-88034000D01*
X106529000Y-87734000D01*
X106540418Y-87676597D01*
X106572934Y-87627934D01*
X106621597Y-87595418D01*
X106679000Y-87584000D01*
X108329000Y-87584000D01*
X108386403Y-87595418D01*
G37*
G36*
X108386403Y-86325418D02*
G01*
X108435066Y-86357934D01*
X108467582Y-86406597D01*
X108479000Y-86464000D01*
X108479000Y-86764000D01*
X108467582Y-86821403D01*
X108435066Y-86870066D01*
X108386403Y-86902582D01*
X108329000Y-86914000D01*
X106679000Y-86914000D01*
X106621597Y-86902582D01*
X106572934Y-86870066D01*
X106540418Y-86821403D01*
X106529000Y-86764000D01*
X106529000Y-86464000D01*
X106540418Y-86406597D01*
X106572934Y-86357934D01*
X106621597Y-86325418D01*
X106679000Y-86314000D01*
X108329000Y-86314000D01*
X108386403Y-86325418D01*
G37*
G36*
X108386403Y-85055418D02*
G01*
X108435066Y-85087934D01*
X108467582Y-85136597D01*
X108479000Y-85194000D01*
X108479000Y-85494000D01*
X108467582Y-85551403D01*
X108435066Y-85600066D01*
X108386403Y-85632582D01*
X108329000Y-85644000D01*
X106679000Y-85644000D01*
X106621597Y-85632582D01*
X106572934Y-85600066D01*
X106540418Y-85551403D01*
X106529000Y-85494000D01*
X106529000Y-85194000D01*
X106540418Y-85136597D01*
X106572934Y-85087934D01*
X106621597Y-85055418D01*
X106679000Y-85044000D01*
X108329000Y-85044000D01*
X108386403Y-85055418D01*
G37*
G36*
X108386403Y-83785418D02*
G01*
X108435066Y-83817934D01*
X108467582Y-83866597D01*
X108479000Y-83924000D01*
X108479000Y-84224000D01*
X108467582Y-84281403D01*
X108435066Y-84330066D01*
X108386403Y-84362582D01*
X108329000Y-84374000D01*
X106679000Y-84374000D01*
X106621597Y-84362582D01*
X106572934Y-84330066D01*
X106540418Y-84281403D01*
X106529000Y-84224000D01*
X106529000Y-83924000D01*
X106540418Y-83866597D01*
X106572934Y-83817934D01*
X106621597Y-83785418D01*
X106679000Y-83774000D01*
X108329000Y-83774000D01*
X108386403Y-83785418D01*
G37*
G36*
X103436403Y-83785418D02*
G01*
X103485066Y-83817934D01*
X103517582Y-83866597D01*
X103529000Y-83924000D01*
X103529000Y-84224000D01*
X103517582Y-84281403D01*
X103485066Y-84330066D01*
X103436403Y-84362582D01*
X103379000Y-84374000D01*
X101729000Y-84374000D01*
X101671597Y-84362582D01*
X101622934Y-84330066D01*
X101590418Y-84281403D01*
X101579000Y-84224000D01*
X101579000Y-83924000D01*
X101590418Y-83866597D01*
X101622934Y-83817934D01*
X101671597Y-83785418D01*
X101729000Y-83774000D01*
X103379000Y-83774000D01*
X103436403Y-83785418D01*
G37*
G36*
X103436403Y-85055418D02*
G01*
X103485066Y-85087934D01*
X103517582Y-85136597D01*
X103529000Y-85194000D01*
X103529000Y-85494000D01*
X103517582Y-85551403D01*
X103485066Y-85600066D01*
X103436403Y-85632582D01*
X103379000Y-85644000D01*
X101729000Y-85644000D01*
X101671597Y-85632582D01*
X101622934Y-85600066D01*
X101590418Y-85551403D01*
X101579000Y-85494000D01*
X101579000Y-85194000D01*
X101590418Y-85136597D01*
X101622934Y-85087934D01*
X101671597Y-85055418D01*
X101729000Y-85044000D01*
X103379000Y-85044000D01*
X103436403Y-85055418D01*
G37*
G36*
X103436403Y-86325418D02*
G01*
X103485066Y-86357934D01*
X103517582Y-86406597D01*
X103529000Y-86464000D01*
X103529000Y-86764000D01*
X103517582Y-86821403D01*
X103485066Y-86870066D01*
X103436403Y-86902582D01*
X103379000Y-86914000D01*
X101729000Y-86914000D01*
X101671597Y-86902582D01*
X101622934Y-86870066D01*
X101590418Y-86821403D01*
X101579000Y-86764000D01*
X101579000Y-86464000D01*
X101590418Y-86406597D01*
X101622934Y-86357934D01*
X101671597Y-86325418D01*
X101729000Y-86314000D01*
X103379000Y-86314000D01*
X103436403Y-86325418D01*
G37*
G36*
X103436403Y-87595418D02*
G01*
X103485066Y-87627934D01*
X103517582Y-87676597D01*
X103529000Y-87734000D01*
X103529000Y-88034000D01*
X103517582Y-88091403D01*
X103485066Y-88140066D01*
X103436403Y-88172582D01*
X103379000Y-88184000D01*
X101729000Y-88184000D01*
X101671597Y-88172582D01*
X101622934Y-88140066D01*
X101590418Y-88091403D01*
X101579000Y-88034000D01*
X101579000Y-87734000D01*
X101590418Y-87676597D01*
X101622934Y-87627934D01*
X101671597Y-87595418D01*
X101729000Y-87584000D01*
X103379000Y-87584000D01*
X103436403Y-87595418D01*
G37*
G36*
X100588529Y-83519554D02*
G01*
X100667607Y-83572393D01*
X100720446Y-83651471D01*
X100739000Y-83744750D01*
X100739000Y-84657250D01*
X100720446Y-84750529D01*
X100667607Y-84829607D01*
X100588529Y-84882446D01*
X100495250Y-84901000D01*
X100007750Y-84901000D01*
X99914471Y-84882446D01*
X99835393Y-84829607D01*
X99782554Y-84750529D01*
X99764000Y-84657250D01*
X99764000Y-83744750D01*
X99782554Y-83651471D01*
X99835393Y-83572393D01*
X99914471Y-83519554D01*
X100007750Y-83501000D01*
X100495250Y-83501000D01*
X100588529Y-83519554D01*
G37*
G36*
X98713529Y-83519554D02*
G01*
X98792607Y-83572393D01*
X98845446Y-83651471D01*
X98864000Y-83744750D01*
X98864000Y-84657250D01*
X98845446Y-84750529D01*
X98792607Y-84829607D01*
X98713529Y-84882446D01*
X98620250Y-84901000D01*
X98132750Y-84901000D01*
X98039471Y-84882446D01*
X97960393Y-84829607D01*
X97907554Y-84750529D01*
X97889000Y-84657250D01*
X97889000Y-83744750D01*
X97907554Y-83651471D01*
X97960393Y-83572393D01*
X98039471Y-83519554D01*
X98132750Y-83501000D01*
X98620250Y-83501000D01*
X98713529Y-83519554D01*
G37*
G36*
X104652529Y-81360554D02*
G01*
X104731607Y-81413393D01*
X104784446Y-81492471D01*
X104803000Y-81585750D01*
X104803000Y-82498250D01*
X104784446Y-82591529D01*
X104731607Y-82670607D01*
X104652529Y-82723446D01*
X104559250Y-82742000D01*
X104071750Y-82742000D01*
X103978471Y-82723446D01*
X103899393Y-82670607D01*
X103846554Y-82591529D01*
X103828000Y-82498250D01*
X103828000Y-81585750D01*
X103846554Y-81492471D01*
X103899393Y-81413393D01*
X103978471Y-81360554D01*
X104071750Y-81342000D01*
X104559250Y-81342000D01*
X104652529Y-81360554D01*
G37*
G36*
X102777529Y-81360554D02*
G01*
X102856607Y-81413393D01*
X102909446Y-81492471D01*
X102928000Y-81585750D01*
X102928000Y-82498250D01*
X102909446Y-82591529D01*
X102856607Y-82670607D01*
X102777529Y-82723446D01*
X102684250Y-82742000D01*
X102196750Y-82742000D01*
X102103471Y-82723446D01*
X102024393Y-82670607D01*
X101971554Y-82591529D01*
X101953000Y-82498250D01*
X101953000Y-81585750D01*
X101971554Y-81492471D01*
X102024393Y-81413393D01*
X102103471Y-81360554D01*
X102196750Y-81342000D01*
X102684250Y-81342000D01*
X102777529Y-81360554D01*
G37*
G36*
X100588529Y-85678554D02*
G01*
X100667607Y-85731393D01*
X100720446Y-85810471D01*
X100739000Y-85903750D01*
X100739000Y-86816250D01*
X100720446Y-86909529D01*
X100667607Y-86988607D01*
X100588529Y-87041446D01*
X100495250Y-87060000D01*
X100007750Y-87060000D01*
X99914471Y-87041446D01*
X99835393Y-86988607D01*
X99782554Y-86909529D01*
X99764000Y-86816250D01*
X99764000Y-85903750D01*
X99782554Y-85810471D01*
X99835393Y-85731393D01*
X99914471Y-85678554D01*
X100007750Y-85660000D01*
X100495250Y-85660000D01*
X100588529Y-85678554D01*
G37*
G36*
X98713529Y-85678554D02*
G01*
X98792607Y-85731393D01*
X98845446Y-85810471D01*
X98864000Y-85903750D01*
X98864000Y-86816250D01*
X98845446Y-86909529D01*
X98792607Y-86988607D01*
X98713529Y-87041446D01*
X98620250Y-87060000D01*
X98132750Y-87060000D01*
X98039471Y-87041446D01*
X97960393Y-86988607D01*
X97907554Y-86909529D01*
X97889000Y-86816250D01*
X97889000Y-85903750D01*
X97907554Y-85810471D01*
X97960393Y-85731393D01*
X98039471Y-85678554D01*
X98132750Y-85660000D01*
X98620250Y-85660000D01*
X98713529Y-85678554D01*
G37*
D13*
X175926000Y-76835000D03*
X175925480Y-107835700D03*
X100926900Y-107835700D03*
X100926900Y-76835000D03*
D14*
X144526000Y-76835000D03*
X141986000Y-76835000D03*
X139446000Y-76835000D03*
X136906000Y-76835000D03*
X134366000Y-76835000D03*
X131826000Y-76835000D03*
X129286000Y-76835000D03*
X126746000Y-76835000D03*
X124206000Y-76835000D03*
X121666000Y-76835000D03*
X119126000Y-76835000D03*
X116586000Y-76835000D03*
X114046000Y-76835000D03*
X111506000Y-76835000D03*
X108966000Y-76835000D03*
D15*
X106426000Y-76835000D03*
D10*
X164130000Y-121031000D03*
X164130000Y-125531000D03*
X157630000Y-121031000D03*
X157630000Y-125531000D03*
G36*
X173867529Y-138891554D02*
G01*
X173946607Y-138944393D01*
X173999446Y-139023471D01*
X174018000Y-139116750D01*
X174018000Y-140029250D01*
X173999446Y-140122529D01*
X173946607Y-140201607D01*
X173867529Y-140254446D01*
X173774250Y-140273000D01*
X173286750Y-140273000D01*
X173193471Y-140254446D01*
X173114393Y-140201607D01*
X173061554Y-140122529D01*
X173043000Y-140029250D01*
X173043000Y-139116750D01*
X173061554Y-139023471D01*
X173114393Y-138944393D01*
X173193471Y-138891554D01*
X173286750Y-138873000D01*
X173774250Y-138873000D01*
X173867529Y-138891554D01*
G37*
G36*
X171992529Y-138891554D02*
G01*
X172071607Y-138944393D01*
X172124446Y-139023471D01*
X172143000Y-139116750D01*
X172143000Y-140029250D01*
X172124446Y-140122529D01*
X172071607Y-140201607D01*
X171992529Y-140254446D01*
X171899250Y-140273000D01*
X171411750Y-140273000D01*
X171318471Y-140254446D01*
X171239393Y-140201607D01*
X171186554Y-140122529D01*
X171168000Y-140029250D01*
X171168000Y-139116750D01*
X171186554Y-139023471D01*
X171239393Y-138944393D01*
X171318471Y-138891554D01*
X171411750Y-138873000D01*
X171899250Y-138873000D01*
X171992529Y-138891554D01*
G37*
D11*
X106680000Y-149733000D03*
X104140000Y-149733000D03*
X106680000Y-147193000D03*
X104140000Y-147193000D03*
X106680000Y-144653000D03*
X104140000Y-144653000D03*
X106680000Y-142113000D03*
X104140000Y-142113000D03*
X106680000Y-139573000D03*
X104140000Y-139573000D03*
X106680000Y-137033000D03*
X104140000Y-137033000D03*
X106680000Y-134493000D03*
X104140000Y-134493000D03*
X106680000Y-131953000D03*
D12*
X104140000Y-131953000D03*
D16*
X167005000Y-113792000D03*
X164465000Y-113792000D03*
X161925000Y-113792000D03*
X159385000Y-113792000D03*
X156845000Y-113792000D03*
X154305000Y-113792000D03*
X167005000Y-111252000D03*
X164465000Y-111252000D03*
X161925000Y-111252000D03*
X159385000Y-111252000D03*
X156845000Y-111252000D03*
D17*
X154305000Y-111252000D03*
D16*
X170815000Y-108712000D03*
X170815000Y-106172000D03*
X170815000Y-103632000D03*
X170815000Y-101092000D03*
X170815000Y-98552000D03*
X170815000Y-96012000D03*
X170815000Y-93472000D03*
X170815000Y-90932000D03*
X170815000Y-88392000D03*
X170815000Y-85852000D03*
X170815000Y-83312000D03*
X170815000Y-80772000D03*
X170815000Y-78232000D03*
D12*
X170815000Y-75692000D03*
D16*
X150495000Y-108712000D03*
X150495000Y-106172000D03*
X150495000Y-103632000D03*
X150495000Y-101092000D03*
X150495000Y-98552000D03*
X150495000Y-96012000D03*
X150495000Y-93472000D03*
X150495000Y-90932000D03*
X150495000Y-88392000D03*
X150495000Y-85852000D03*
X150495000Y-83312000D03*
X150495000Y-80772000D03*
X150495000Y-78232000D03*
X150495000Y-75692000D03*
D18*
X104394000Y-72136000D03*
X101894000Y-67136000D03*
X99394000Y-72136000D03*
D19*
X145669000Y-125476000D03*
D10*
X145669000Y-122976000D03*
X145669000Y-120476000D03*
D20*
X138169000Y-128576000D03*
X138169000Y-117376000D03*
D10*
X131169000Y-125476000D03*
X131169000Y-120476000D03*
X176680000Y-121031000D03*
X176680000Y-125531000D03*
X170180000Y-121031000D03*
X170180000Y-125531000D03*
X119530000Y-120904000D03*
X119530000Y-125404000D03*
X113030000Y-120904000D03*
X113030000Y-125404000D03*
X106957000Y-120904000D03*
X106957000Y-125404000D03*
X100457000Y-120904000D03*
X100457000Y-125404000D03*
G36*
X173396529Y-117943554D02*
G01*
X173475607Y-117996393D01*
X173528446Y-118075471D01*
X173547000Y-118168750D01*
X173547000Y-118656250D01*
X173528446Y-118749529D01*
X173475607Y-118828607D01*
X173396529Y-118881446D01*
X173303250Y-118900000D01*
X172390750Y-118900000D01*
X172297471Y-118881446D01*
X172218393Y-118828607D01*
X172165554Y-118749529D01*
X172147000Y-118656250D01*
X172147000Y-118168750D01*
X172165554Y-118075471D01*
X172218393Y-117996393D01*
X172297471Y-117943554D01*
X172390750Y-117925000D01*
X173303250Y-117925000D01*
X173396529Y-117943554D01*
G37*
G36*
X173396529Y-116068554D02*
G01*
X173475607Y-116121393D01*
X173528446Y-116200471D01*
X173547000Y-116293750D01*
X173547000Y-116781250D01*
X173528446Y-116874529D01*
X173475607Y-116953607D01*
X173396529Y-117006446D01*
X173303250Y-117025000D01*
X172390750Y-117025000D01*
X172297471Y-117006446D01*
X172218393Y-116953607D01*
X172165554Y-116874529D01*
X172147000Y-116781250D01*
X172147000Y-116293750D01*
X172165554Y-116200471D01*
X172218393Y-116121393D01*
X172297471Y-116068554D01*
X172390750Y-116050000D01*
X173303250Y-116050000D01*
X173396529Y-116068554D01*
G37*
G36*
X137291529Y-89615554D02*
G01*
X137370607Y-89668393D01*
X137423446Y-89747471D01*
X137442000Y-89840750D01*
X137442000Y-90753250D01*
X137423446Y-90846529D01*
X137370607Y-90925607D01*
X137291529Y-90978446D01*
X137198250Y-90997000D01*
X136710750Y-90997000D01*
X136617471Y-90978446D01*
X136538393Y-90925607D01*
X136485554Y-90846529D01*
X136467000Y-90753250D01*
X136467000Y-89840750D01*
X136485554Y-89747471D01*
X136538393Y-89668393D01*
X136617471Y-89615554D01*
X136710750Y-89597000D01*
X137198250Y-89597000D01*
X137291529Y-89615554D01*
G37*
G36*
X135416529Y-89615554D02*
G01*
X135495607Y-89668393D01*
X135548446Y-89747471D01*
X135567000Y-89840750D01*
X135567000Y-90753250D01*
X135548446Y-90846529D01*
X135495607Y-90925607D01*
X135416529Y-90978446D01*
X135323250Y-90997000D01*
X134835750Y-90997000D01*
X134742471Y-90978446D01*
X134663393Y-90925607D01*
X134610554Y-90846529D01*
X134592000Y-90753250D01*
X134592000Y-89840750D01*
X134610554Y-89747471D01*
X134663393Y-89668393D01*
X134742471Y-89615554D01*
X134835750Y-89597000D01*
X135323250Y-89597000D01*
X135416529Y-89615554D01*
G37*
G36*
X171237529Y-117943554D02*
G01*
X171316607Y-117996393D01*
X171369446Y-118075471D01*
X171388000Y-118168750D01*
X171388000Y-118656250D01*
X171369446Y-118749529D01*
X171316607Y-118828607D01*
X171237529Y-118881446D01*
X171144250Y-118900000D01*
X170231750Y-118900000D01*
X170138471Y-118881446D01*
X170059393Y-118828607D01*
X170006554Y-118749529D01*
X169988000Y-118656250D01*
X169988000Y-118168750D01*
X170006554Y-118075471D01*
X170059393Y-117996393D01*
X170138471Y-117943554D01*
X170231750Y-117925000D01*
X171144250Y-117925000D01*
X171237529Y-117943554D01*
G37*
G36*
X171237529Y-116068554D02*
G01*
X171316607Y-116121393D01*
X171369446Y-116200471D01*
X171388000Y-116293750D01*
X171388000Y-116781250D01*
X171369446Y-116874529D01*
X171316607Y-116953607D01*
X171237529Y-117006446D01*
X171144250Y-117025000D01*
X170231750Y-117025000D01*
X170138471Y-117006446D01*
X170059393Y-116953607D01*
X170006554Y-116874529D01*
X169988000Y-116781250D01*
X169988000Y-116293750D01*
X170006554Y-116200471D01*
X170059393Y-116121393D01*
X170138471Y-116068554D01*
X170231750Y-116050000D01*
X171144250Y-116050000D01*
X171237529Y-116068554D01*
G37*
G36*
X137291529Y-87456554D02*
G01*
X137370607Y-87509393D01*
X137423446Y-87588471D01*
X137442000Y-87681750D01*
X137442000Y-88594250D01*
X137423446Y-88687529D01*
X137370607Y-88766607D01*
X137291529Y-88819446D01*
X137198250Y-88838000D01*
X136710750Y-88838000D01*
X136617471Y-88819446D01*
X136538393Y-88766607D01*
X136485554Y-88687529D01*
X136467000Y-88594250D01*
X136467000Y-87681750D01*
X136485554Y-87588471D01*
X136538393Y-87509393D01*
X136617471Y-87456554D01*
X136710750Y-87438000D01*
X137198250Y-87438000D01*
X137291529Y-87456554D01*
G37*
G36*
X135416529Y-87456554D02*
G01*
X135495607Y-87509393D01*
X135548446Y-87588471D01*
X135567000Y-87681750D01*
X135567000Y-88594250D01*
X135548446Y-88687529D01*
X135495607Y-88766607D01*
X135416529Y-88819446D01*
X135323250Y-88838000D01*
X134835750Y-88838000D01*
X134742471Y-88819446D01*
X134663393Y-88766607D01*
X134610554Y-88687529D01*
X134592000Y-88594250D01*
X134592000Y-87681750D01*
X134610554Y-87588471D01*
X134663393Y-87509393D01*
X134742471Y-87456554D01*
X134835750Y-87438000D01*
X135323250Y-87438000D01*
X135416529Y-87456554D01*
G37*
G36*
X133511149Y-106887554D02*
G01*
X133590227Y-106940393D01*
X133643066Y-107019471D01*
X133661620Y-107112750D01*
X133661620Y-108025250D01*
X133643066Y-108118529D01*
X133590227Y-108197607D01*
X133511149Y-108250446D01*
X133417870Y-108269000D01*
X132930370Y-108269000D01*
X132837091Y-108250446D01*
X132758013Y-108197607D01*
X132705174Y-108118529D01*
X132686620Y-108025250D01*
X132686620Y-107112750D01*
X132705174Y-107019471D01*
X132758013Y-106940393D01*
X132837091Y-106887554D01*
X132930370Y-106869000D01*
X133417870Y-106869000D01*
X133511149Y-106887554D01*
G37*
G36*
X131636149Y-106887554D02*
G01*
X131715227Y-106940393D01*
X131768066Y-107019471D01*
X131786620Y-107112750D01*
X131786620Y-108025250D01*
X131768066Y-108118529D01*
X131715227Y-108197607D01*
X131636149Y-108250446D01*
X131542870Y-108269000D01*
X131055370Y-108269000D01*
X130962091Y-108250446D01*
X130883013Y-108197607D01*
X130830174Y-108118529D01*
X130811620Y-108025250D01*
X130811620Y-107112750D01*
X130830174Y-107019471D01*
X130883013Y-106940393D01*
X130962091Y-106887554D01*
X131055370Y-106869000D01*
X131542870Y-106869000D01*
X131636149Y-106887554D01*
G37*
G36*
X133462649Y-96727554D02*
G01*
X133541727Y-96780393D01*
X133594566Y-96859471D01*
X133613120Y-96952750D01*
X133613120Y-97865250D01*
X133594566Y-97958529D01*
X133541727Y-98037607D01*
X133462649Y-98090446D01*
X133369370Y-98109000D01*
X132881870Y-98109000D01*
X132788591Y-98090446D01*
X132709513Y-98037607D01*
X132656674Y-97958529D01*
X132638120Y-97865250D01*
X132638120Y-96952750D01*
X132656674Y-96859471D01*
X132709513Y-96780393D01*
X132788591Y-96727554D01*
X132881870Y-96709000D01*
X133369370Y-96709000D01*
X133462649Y-96727554D01*
G37*
G36*
X131587649Y-96727554D02*
G01*
X131666727Y-96780393D01*
X131719566Y-96859471D01*
X131738120Y-96952750D01*
X131738120Y-97865250D01*
X131719566Y-97958529D01*
X131666727Y-98037607D01*
X131587649Y-98090446D01*
X131494370Y-98109000D01*
X131006870Y-98109000D01*
X130913591Y-98090446D01*
X130834513Y-98037607D01*
X130781674Y-97958529D01*
X130763120Y-97865250D01*
X130763120Y-96952750D01*
X130781674Y-96859471D01*
X130834513Y-96780393D01*
X130913591Y-96727554D01*
X131006870Y-96709000D01*
X131494370Y-96709000D01*
X131587649Y-96727554D01*
G37*
G36*
X133462649Y-99394554D02*
G01*
X133541727Y-99447393D01*
X133594566Y-99526471D01*
X133613120Y-99619750D01*
X133613120Y-100532250D01*
X133594566Y-100625529D01*
X133541727Y-100704607D01*
X133462649Y-100757446D01*
X133369370Y-100776000D01*
X132881870Y-100776000D01*
X132788591Y-100757446D01*
X132709513Y-100704607D01*
X132656674Y-100625529D01*
X132638120Y-100532250D01*
X132638120Y-99619750D01*
X132656674Y-99526471D01*
X132709513Y-99447393D01*
X132788591Y-99394554D01*
X132881870Y-99376000D01*
X133369370Y-99376000D01*
X133462649Y-99394554D01*
G37*
G36*
X131587649Y-99394554D02*
G01*
X131666727Y-99447393D01*
X131719566Y-99526471D01*
X131738120Y-99619750D01*
X131738120Y-100532250D01*
X131719566Y-100625529D01*
X131666727Y-100704607D01*
X131587649Y-100757446D01*
X131494370Y-100776000D01*
X131006870Y-100776000D01*
X130913591Y-100757446D01*
X130834513Y-100704607D01*
X130781674Y-100625529D01*
X130763120Y-100532250D01*
X130763120Y-99619750D01*
X130781674Y-99526471D01*
X130834513Y-99447393D01*
X130913591Y-99394554D01*
X131006870Y-99376000D01*
X131494370Y-99376000D01*
X131587649Y-99394554D01*
G37*
G36*
X133462649Y-101934554D02*
G01*
X133541727Y-101987393D01*
X133594566Y-102066471D01*
X133613120Y-102159750D01*
X133613120Y-103072250D01*
X133594566Y-103165529D01*
X133541727Y-103244607D01*
X133462649Y-103297446D01*
X133369370Y-103316000D01*
X132881870Y-103316000D01*
X132788591Y-103297446D01*
X132709513Y-103244607D01*
X132656674Y-103165529D01*
X132638120Y-103072250D01*
X132638120Y-102159750D01*
X132656674Y-102066471D01*
X132709513Y-101987393D01*
X132788591Y-101934554D01*
X132881870Y-101916000D01*
X133369370Y-101916000D01*
X133462649Y-101934554D01*
G37*
G36*
X131587649Y-101934554D02*
G01*
X131666727Y-101987393D01*
X131719566Y-102066471D01*
X131738120Y-102159750D01*
X131738120Y-103072250D01*
X131719566Y-103165529D01*
X131666727Y-103244607D01*
X131587649Y-103297446D01*
X131494370Y-103316000D01*
X131006870Y-103316000D01*
X130913591Y-103297446D01*
X130834513Y-103244607D01*
X130781674Y-103165529D01*
X130763120Y-103072250D01*
X130763120Y-102159750D01*
X130781674Y-102066471D01*
X130834513Y-101987393D01*
X130913591Y-101934554D01*
X131006870Y-101916000D01*
X131494370Y-101916000D01*
X131587649Y-101934554D01*
G37*
G36*
X133462649Y-104474554D02*
G01*
X133541727Y-104527393D01*
X133594566Y-104606471D01*
X133613120Y-104699750D01*
X133613120Y-105612250D01*
X133594566Y-105705529D01*
X133541727Y-105784607D01*
X133462649Y-105837446D01*
X133369370Y-105856000D01*
X132881870Y-105856000D01*
X132788591Y-105837446D01*
X132709513Y-105784607D01*
X132656674Y-105705529D01*
X132638120Y-105612250D01*
X132638120Y-104699750D01*
X132656674Y-104606471D01*
X132709513Y-104527393D01*
X132788591Y-104474554D01*
X132881870Y-104456000D01*
X133369370Y-104456000D01*
X133462649Y-104474554D01*
G37*
G36*
X131587649Y-104474554D02*
G01*
X131666727Y-104527393D01*
X131719566Y-104606471D01*
X131738120Y-104699750D01*
X131738120Y-105612250D01*
X131719566Y-105705529D01*
X131666727Y-105784607D01*
X131587649Y-105837446D01*
X131494370Y-105856000D01*
X131006870Y-105856000D01*
X130913591Y-105837446D01*
X130834513Y-105784607D01*
X130781674Y-105705529D01*
X130763120Y-105612250D01*
X130763120Y-104699750D01*
X130781674Y-104606471D01*
X130834513Y-104527393D01*
X130913591Y-104474554D01*
X131006870Y-104456000D01*
X131494370Y-104456000D01*
X131587649Y-104474554D01*
G37*
G36*
X135397649Y-106887554D02*
G01*
X135476727Y-106940393D01*
X135529566Y-107019471D01*
X135548120Y-107112750D01*
X135548120Y-108025250D01*
X135529566Y-108118529D01*
X135476727Y-108197607D01*
X135397649Y-108250446D01*
X135304370Y-108269000D01*
X134816870Y-108269000D01*
X134723591Y-108250446D01*
X134644513Y-108197607D01*
X134591674Y-108118529D01*
X134573120Y-108025250D01*
X134573120Y-107112750D01*
X134591674Y-107019471D01*
X134644513Y-106940393D01*
X134723591Y-106887554D01*
X134816870Y-106869000D01*
X135304370Y-106869000D01*
X135397649Y-106887554D01*
G37*
G36*
X137272649Y-106887554D02*
G01*
X137351727Y-106940393D01*
X137404566Y-107019471D01*
X137423120Y-107112750D01*
X137423120Y-108025250D01*
X137404566Y-108118529D01*
X137351727Y-108197607D01*
X137272649Y-108250446D01*
X137179370Y-108269000D01*
X136691870Y-108269000D01*
X136598591Y-108250446D01*
X136519513Y-108197607D01*
X136466674Y-108118529D01*
X136448120Y-108025250D01*
X136448120Y-107112750D01*
X136466674Y-107019471D01*
X136519513Y-106940393D01*
X136598591Y-106887554D01*
X136691870Y-106869000D01*
X137179370Y-106869000D01*
X137272649Y-106887554D01*
G37*
G36*
X135397649Y-96727554D02*
G01*
X135476727Y-96780393D01*
X135529566Y-96859471D01*
X135548120Y-96952750D01*
X135548120Y-97865250D01*
X135529566Y-97958529D01*
X135476727Y-98037607D01*
X135397649Y-98090446D01*
X135304370Y-98109000D01*
X134816870Y-98109000D01*
X134723591Y-98090446D01*
X134644513Y-98037607D01*
X134591674Y-97958529D01*
X134573120Y-97865250D01*
X134573120Y-96952750D01*
X134591674Y-96859471D01*
X134644513Y-96780393D01*
X134723591Y-96727554D01*
X134816870Y-96709000D01*
X135304370Y-96709000D01*
X135397649Y-96727554D01*
G37*
G36*
X137272649Y-96727554D02*
G01*
X137351727Y-96780393D01*
X137404566Y-96859471D01*
X137423120Y-96952750D01*
X137423120Y-97865250D01*
X137404566Y-97958529D01*
X137351727Y-98037607D01*
X137272649Y-98090446D01*
X137179370Y-98109000D01*
X136691870Y-98109000D01*
X136598591Y-98090446D01*
X136519513Y-98037607D01*
X136466674Y-97958529D01*
X136448120Y-97865250D01*
X136448120Y-96952750D01*
X136466674Y-96859471D01*
X136519513Y-96780393D01*
X136598591Y-96727554D01*
X136691870Y-96709000D01*
X137179370Y-96709000D01*
X137272649Y-96727554D01*
G37*
G36*
X135397649Y-99394554D02*
G01*
X135476727Y-99447393D01*
X135529566Y-99526471D01*
X135548120Y-99619750D01*
X135548120Y-100532250D01*
X135529566Y-100625529D01*
X135476727Y-100704607D01*
X135397649Y-100757446D01*
X135304370Y-100776000D01*
X134816870Y-100776000D01*
X134723591Y-100757446D01*
X134644513Y-100704607D01*
X134591674Y-100625529D01*
X134573120Y-100532250D01*
X134573120Y-99619750D01*
X134591674Y-99526471D01*
X134644513Y-99447393D01*
X134723591Y-99394554D01*
X134816870Y-99376000D01*
X135304370Y-99376000D01*
X135397649Y-99394554D01*
G37*
G36*
X137272649Y-99394554D02*
G01*
X137351727Y-99447393D01*
X137404566Y-99526471D01*
X137423120Y-99619750D01*
X137423120Y-100532250D01*
X137404566Y-100625529D01*
X137351727Y-100704607D01*
X137272649Y-100757446D01*
X137179370Y-100776000D01*
X136691870Y-100776000D01*
X136598591Y-100757446D01*
X136519513Y-100704607D01*
X136466674Y-100625529D01*
X136448120Y-100532250D01*
X136448120Y-99619750D01*
X136466674Y-99526471D01*
X136519513Y-99447393D01*
X136598591Y-99394554D01*
X136691870Y-99376000D01*
X137179370Y-99376000D01*
X137272649Y-99394554D01*
G37*
G36*
X135397649Y-101934554D02*
G01*
X135476727Y-101987393D01*
X135529566Y-102066471D01*
X135548120Y-102159750D01*
X135548120Y-103072250D01*
X135529566Y-103165529D01*
X135476727Y-103244607D01*
X135397649Y-103297446D01*
X135304370Y-103316000D01*
X134816870Y-103316000D01*
X134723591Y-103297446D01*
X134644513Y-103244607D01*
X134591674Y-103165529D01*
X134573120Y-103072250D01*
X134573120Y-102159750D01*
X134591674Y-102066471D01*
X134644513Y-101987393D01*
X134723591Y-101934554D01*
X134816870Y-101916000D01*
X135304370Y-101916000D01*
X135397649Y-101934554D01*
G37*
G36*
X137272649Y-101934554D02*
G01*
X137351727Y-101987393D01*
X137404566Y-102066471D01*
X137423120Y-102159750D01*
X137423120Y-103072250D01*
X137404566Y-103165529D01*
X137351727Y-103244607D01*
X137272649Y-103297446D01*
X137179370Y-103316000D01*
X136691870Y-103316000D01*
X136598591Y-103297446D01*
X136519513Y-103244607D01*
X136466674Y-103165529D01*
X136448120Y-103072250D01*
X136448120Y-102159750D01*
X136466674Y-102066471D01*
X136519513Y-101987393D01*
X136598591Y-101934554D01*
X136691870Y-101916000D01*
X137179370Y-101916000D01*
X137272649Y-101934554D01*
G37*
G36*
X135397649Y-104474554D02*
G01*
X135476727Y-104527393D01*
X135529566Y-104606471D01*
X135548120Y-104699750D01*
X135548120Y-105612250D01*
X135529566Y-105705529D01*
X135476727Y-105784607D01*
X135397649Y-105837446D01*
X135304370Y-105856000D01*
X134816870Y-105856000D01*
X134723591Y-105837446D01*
X134644513Y-105784607D01*
X134591674Y-105705529D01*
X134573120Y-105612250D01*
X134573120Y-104699750D01*
X134591674Y-104606471D01*
X134644513Y-104527393D01*
X134723591Y-104474554D01*
X134816870Y-104456000D01*
X135304370Y-104456000D01*
X135397649Y-104474554D01*
G37*
G36*
X137272649Y-104474554D02*
G01*
X137351727Y-104527393D01*
X137404566Y-104606471D01*
X137423120Y-104699750D01*
X137423120Y-105612250D01*
X137404566Y-105705529D01*
X137351727Y-105784607D01*
X137272649Y-105837446D01*
X137179370Y-105856000D01*
X136691870Y-105856000D01*
X136598591Y-105837446D01*
X136519513Y-105784607D01*
X136466674Y-105705529D01*
X136448120Y-105612250D01*
X136448120Y-104699750D01*
X136466674Y-104606471D01*
X136519513Y-104527393D01*
X136598591Y-104474554D01*
X136691870Y-104456000D01*
X137179370Y-104456000D01*
X137272649Y-104474554D01*
G37*
G36*
X166919529Y-117943554D02*
G01*
X166998607Y-117996393D01*
X167051446Y-118075471D01*
X167070000Y-118168750D01*
X167070000Y-118656250D01*
X167051446Y-118749529D01*
X166998607Y-118828607D01*
X166919529Y-118881446D01*
X166826250Y-118900000D01*
X165913750Y-118900000D01*
X165820471Y-118881446D01*
X165741393Y-118828607D01*
X165688554Y-118749529D01*
X165670000Y-118656250D01*
X165670000Y-118168750D01*
X165688554Y-118075471D01*
X165741393Y-117996393D01*
X165820471Y-117943554D01*
X165913750Y-117925000D01*
X166826250Y-117925000D01*
X166919529Y-117943554D01*
G37*
G36*
X166919529Y-116068554D02*
G01*
X166998607Y-116121393D01*
X167051446Y-116200471D01*
X167070000Y-116293750D01*
X167070000Y-116781250D01*
X167051446Y-116874529D01*
X166998607Y-116953607D01*
X166919529Y-117006446D01*
X166826250Y-117025000D01*
X165913750Y-117025000D01*
X165820471Y-117006446D01*
X165741393Y-116953607D01*
X165688554Y-116874529D01*
X165670000Y-116781250D01*
X165670000Y-116293750D01*
X165688554Y-116200471D01*
X165741393Y-116121393D01*
X165820471Y-116068554D01*
X165913750Y-116050000D01*
X166826250Y-116050000D01*
X166919529Y-116068554D01*
G37*
G36*
X162601529Y-117943554D02*
G01*
X162680607Y-117996393D01*
X162733446Y-118075471D01*
X162752000Y-118168750D01*
X162752000Y-118656250D01*
X162733446Y-118749529D01*
X162680607Y-118828607D01*
X162601529Y-118881446D01*
X162508250Y-118900000D01*
X161595750Y-118900000D01*
X161502471Y-118881446D01*
X161423393Y-118828607D01*
X161370554Y-118749529D01*
X161352000Y-118656250D01*
X161352000Y-118168750D01*
X161370554Y-118075471D01*
X161423393Y-117996393D01*
X161502471Y-117943554D01*
X161595750Y-117925000D01*
X162508250Y-117925000D01*
X162601529Y-117943554D01*
G37*
G36*
X162601529Y-116068554D02*
G01*
X162680607Y-116121393D01*
X162733446Y-116200471D01*
X162752000Y-116293750D01*
X162752000Y-116781250D01*
X162733446Y-116874529D01*
X162680607Y-116953607D01*
X162601529Y-117006446D01*
X162508250Y-117025000D01*
X161595750Y-117025000D01*
X161502471Y-117006446D01*
X161423393Y-116953607D01*
X161370554Y-116874529D01*
X161352000Y-116781250D01*
X161352000Y-116293750D01*
X161370554Y-116200471D01*
X161423393Y-116121393D01*
X161502471Y-116068554D01*
X161595750Y-116050000D01*
X162508250Y-116050000D01*
X162601529Y-116068554D01*
G37*
G36*
X158283529Y-117943554D02*
G01*
X158362607Y-117996393D01*
X158415446Y-118075471D01*
X158434000Y-118168750D01*
X158434000Y-118656250D01*
X158415446Y-118749529D01*
X158362607Y-118828607D01*
X158283529Y-118881446D01*
X158190250Y-118900000D01*
X157277750Y-118900000D01*
X157184471Y-118881446D01*
X157105393Y-118828607D01*
X157052554Y-118749529D01*
X157034000Y-118656250D01*
X157034000Y-118168750D01*
X157052554Y-118075471D01*
X157105393Y-117996393D01*
X157184471Y-117943554D01*
X157277750Y-117925000D01*
X158190250Y-117925000D01*
X158283529Y-117943554D01*
G37*
G36*
X158283529Y-116068554D02*
G01*
X158362607Y-116121393D01*
X158415446Y-116200471D01*
X158434000Y-116293750D01*
X158434000Y-116781250D01*
X158415446Y-116874529D01*
X158362607Y-116953607D01*
X158283529Y-117006446D01*
X158190250Y-117025000D01*
X157277750Y-117025000D01*
X157184471Y-117006446D01*
X157105393Y-116953607D01*
X157052554Y-116874529D01*
X157034000Y-116781250D01*
X157034000Y-116293750D01*
X157052554Y-116200471D01*
X157105393Y-116121393D01*
X157184471Y-116068554D01*
X157277750Y-116050000D01*
X158190250Y-116050000D01*
X158283529Y-116068554D01*
G37*
G36*
X153965529Y-117943554D02*
G01*
X154044607Y-117996393D01*
X154097446Y-118075471D01*
X154116000Y-118168750D01*
X154116000Y-118656250D01*
X154097446Y-118749529D01*
X154044607Y-118828607D01*
X153965529Y-118881446D01*
X153872250Y-118900000D01*
X152959750Y-118900000D01*
X152866471Y-118881446D01*
X152787393Y-118828607D01*
X152734554Y-118749529D01*
X152716000Y-118656250D01*
X152716000Y-118168750D01*
X152734554Y-118075471D01*
X152787393Y-117996393D01*
X152866471Y-117943554D01*
X152959750Y-117925000D01*
X153872250Y-117925000D01*
X153965529Y-117943554D01*
G37*
G36*
X153965529Y-116068554D02*
G01*
X154044607Y-116121393D01*
X154097446Y-116200471D01*
X154116000Y-116293750D01*
X154116000Y-116781250D01*
X154097446Y-116874529D01*
X154044607Y-116953607D01*
X153965529Y-117006446D01*
X153872250Y-117025000D01*
X152959750Y-117025000D01*
X152866471Y-117006446D01*
X152787393Y-116953607D01*
X152734554Y-116874529D01*
X152716000Y-116781250D01*
X152716000Y-116293750D01*
X152734554Y-116200471D01*
X152787393Y-116121393D01*
X152866471Y-116068554D01*
X152959750Y-116050000D01*
X153872250Y-116050000D01*
X153965529Y-116068554D01*
G37*
G36*
X164760529Y-116068554D02*
G01*
X164839607Y-116121393D01*
X164892446Y-116200471D01*
X164911000Y-116293750D01*
X164911000Y-116781250D01*
X164892446Y-116874529D01*
X164839607Y-116953607D01*
X164760529Y-117006446D01*
X164667250Y-117025000D01*
X163754750Y-117025000D01*
X163661471Y-117006446D01*
X163582393Y-116953607D01*
X163529554Y-116874529D01*
X163511000Y-116781250D01*
X163511000Y-116293750D01*
X163529554Y-116200471D01*
X163582393Y-116121393D01*
X163661471Y-116068554D01*
X163754750Y-116050000D01*
X164667250Y-116050000D01*
X164760529Y-116068554D01*
G37*
G36*
X164760529Y-117943554D02*
G01*
X164839607Y-117996393D01*
X164892446Y-118075471D01*
X164911000Y-118168750D01*
X164911000Y-118656250D01*
X164892446Y-118749529D01*
X164839607Y-118828607D01*
X164760529Y-118881446D01*
X164667250Y-118900000D01*
X163754750Y-118900000D01*
X163661471Y-118881446D01*
X163582393Y-118828607D01*
X163529554Y-118749529D01*
X163511000Y-118656250D01*
X163511000Y-118168750D01*
X163529554Y-118075471D01*
X163582393Y-117996393D01*
X163661471Y-117943554D01*
X163754750Y-117925000D01*
X164667250Y-117925000D01*
X164760529Y-117943554D01*
G37*
G36*
X160442529Y-116068554D02*
G01*
X160521607Y-116121393D01*
X160574446Y-116200471D01*
X160593000Y-116293750D01*
X160593000Y-116781250D01*
X160574446Y-116874529D01*
X160521607Y-116953607D01*
X160442529Y-117006446D01*
X160349250Y-117025000D01*
X159436750Y-117025000D01*
X159343471Y-117006446D01*
X159264393Y-116953607D01*
X159211554Y-116874529D01*
X159193000Y-116781250D01*
X159193000Y-116293750D01*
X159211554Y-116200471D01*
X159264393Y-116121393D01*
X159343471Y-116068554D01*
X159436750Y-116050000D01*
X160349250Y-116050000D01*
X160442529Y-116068554D01*
G37*
G36*
X160442529Y-117943554D02*
G01*
X160521607Y-117996393D01*
X160574446Y-118075471D01*
X160593000Y-118168750D01*
X160593000Y-118656250D01*
X160574446Y-118749529D01*
X160521607Y-118828607D01*
X160442529Y-118881446D01*
X160349250Y-118900000D01*
X159436750Y-118900000D01*
X159343471Y-118881446D01*
X159264393Y-118828607D01*
X159211554Y-118749529D01*
X159193000Y-118656250D01*
X159193000Y-118168750D01*
X159211554Y-118075471D01*
X159264393Y-117996393D01*
X159343471Y-117943554D01*
X159436750Y-117925000D01*
X160349250Y-117925000D01*
X160442529Y-117943554D01*
G37*
G36*
X156124529Y-116068554D02*
G01*
X156203607Y-116121393D01*
X156256446Y-116200471D01*
X156275000Y-116293750D01*
X156275000Y-116781250D01*
X156256446Y-116874529D01*
X156203607Y-116953607D01*
X156124529Y-117006446D01*
X156031250Y-117025000D01*
X155118750Y-117025000D01*
X155025471Y-117006446D01*
X154946393Y-116953607D01*
X154893554Y-116874529D01*
X154875000Y-116781250D01*
X154875000Y-116293750D01*
X154893554Y-116200471D01*
X154946393Y-116121393D01*
X155025471Y-116068554D01*
X155118750Y-116050000D01*
X156031250Y-116050000D01*
X156124529Y-116068554D01*
G37*
G36*
X156124529Y-117943554D02*
G01*
X156203607Y-117996393D01*
X156256446Y-118075471D01*
X156275000Y-118168750D01*
X156275000Y-118656250D01*
X156256446Y-118749529D01*
X156203607Y-118828607D01*
X156124529Y-118881446D01*
X156031250Y-118900000D01*
X155118750Y-118900000D01*
X155025471Y-118881446D01*
X154946393Y-118828607D01*
X154893554Y-118749529D01*
X154875000Y-118656250D01*
X154875000Y-118168750D01*
X154893554Y-118075471D01*
X154946393Y-117996393D01*
X155025471Y-117943554D01*
X155118750Y-117925000D01*
X156031250Y-117925000D01*
X156124529Y-117943554D01*
G37*
G36*
X151806529Y-116068554D02*
G01*
X151885607Y-116121393D01*
X151938446Y-116200471D01*
X151957000Y-116293750D01*
X151957000Y-116781250D01*
X151938446Y-116874529D01*
X151885607Y-116953607D01*
X151806529Y-117006446D01*
X151713250Y-117025000D01*
X150800750Y-117025000D01*
X150707471Y-117006446D01*
X150628393Y-116953607D01*
X150575554Y-116874529D01*
X150557000Y-116781250D01*
X150557000Y-116293750D01*
X150575554Y-116200471D01*
X150628393Y-116121393D01*
X150707471Y-116068554D01*
X150800750Y-116050000D01*
X151713250Y-116050000D01*
X151806529Y-116068554D01*
G37*
G36*
X151806529Y-117943554D02*
G01*
X151885607Y-117996393D01*
X151938446Y-118075471D01*
X151957000Y-118168750D01*
X151957000Y-118656250D01*
X151938446Y-118749529D01*
X151885607Y-118828607D01*
X151806529Y-118881446D01*
X151713250Y-118900000D01*
X150800750Y-118900000D01*
X150707471Y-118881446D01*
X150628393Y-118828607D01*
X150575554Y-118749529D01*
X150557000Y-118656250D01*
X150557000Y-118168750D01*
X150575554Y-118075471D01*
X150628393Y-117996393D01*
X150707471Y-117943554D01*
X150800750Y-117925000D01*
X151713250Y-117925000D01*
X151806529Y-117943554D01*
G37*
G36*
X137291529Y-85297554D02*
G01*
X137370607Y-85350393D01*
X137423446Y-85429471D01*
X137442000Y-85522750D01*
X137442000Y-86435250D01*
X137423446Y-86528529D01*
X137370607Y-86607607D01*
X137291529Y-86660446D01*
X137198250Y-86679000D01*
X136710750Y-86679000D01*
X136617471Y-86660446D01*
X136538393Y-86607607D01*
X136485554Y-86528529D01*
X136467000Y-86435250D01*
X136467000Y-85522750D01*
X136485554Y-85429471D01*
X136538393Y-85350393D01*
X136617471Y-85297554D01*
X136710750Y-85279000D01*
X137198250Y-85279000D01*
X137291529Y-85297554D01*
G37*
G36*
X135416529Y-85297554D02*
G01*
X135495607Y-85350393D01*
X135548446Y-85429471D01*
X135567000Y-85522750D01*
X135567000Y-86435250D01*
X135548446Y-86528529D01*
X135495607Y-86607607D01*
X135416529Y-86660446D01*
X135323250Y-86679000D01*
X134835750Y-86679000D01*
X134742471Y-86660446D01*
X134663393Y-86607607D01*
X134610554Y-86528529D01*
X134592000Y-86435250D01*
X134592000Y-85522750D01*
X134610554Y-85429471D01*
X134663393Y-85350393D01*
X134742471Y-85297554D01*
X134835750Y-85279000D01*
X135323250Y-85279000D01*
X135416529Y-85297554D01*
G37*
X131350000Y-62840000D03*
X135350000Y-62840000D03*
X138350000Y-62840000D03*
X128350000Y-62840000D03*
X133350000Y-57840000D03*
X103410000Y-62840000D03*
X107410000Y-62840000D03*
X110410000Y-62840000D03*
X100410000Y-62840000D03*
X105410000Y-57840000D03*
D11*
X118110000Y-70993000D03*
D12*
X118110000Y-68453000D03*
D11*
X124333000Y-70993000D03*
D12*
X124333000Y-68453000D03*
G36*
X169078529Y-117943554D02*
G01*
X169157607Y-117996393D01*
X169210446Y-118075471D01*
X169229000Y-118168750D01*
X169229000Y-118656250D01*
X169210446Y-118749529D01*
X169157607Y-118828607D01*
X169078529Y-118881446D01*
X168985250Y-118900000D01*
X168072750Y-118900000D01*
X167979471Y-118881446D01*
X167900393Y-118828607D01*
X167847554Y-118749529D01*
X167829000Y-118656250D01*
X167829000Y-118168750D01*
X167847554Y-118075471D01*
X167900393Y-117996393D01*
X167979471Y-117943554D01*
X168072750Y-117925000D01*
X168985250Y-117925000D01*
X169078529Y-117943554D01*
G37*
G36*
X169078529Y-116068554D02*
G01*
X169157607Y-116121393D01*
X169210446Y-116200471D01*
X169229000Y-116293750D01*
X169229000Y-116781250D01*
X169210446Y-116874529D01*
X169157607Y-116953607D01*
X169078529Y-117006446D01*
X168985250Y-117025000D01*
X168072750Y-117025000D01*
X167979471Y-117006446D01*
X167900393Y-116953607D01*
X167847554Y-116874529D01*
X167829000Y-116781250D01*
X167829000Y-116293750D01*
X167847554Y-116200471D01*
X167900393Y-116121393D01*
X167979471Y-116068554D01*
X168072750Y-116050000D01*
X168985250Y-116050000D01*
X169078529Y-116068554D01*
G37*
G36*
X97794529Y-75518554D02*
G01*
X97873607Y-75571393D01*
X97926446Y-75650471D01*
X97945000Y-75743750D01*
X97945000Y-76656250D01*
X97926446Y-76749529D01*
X97873607Y-76828607D01*
X97794529Y-76881446D01*
X97701250Y-76900000D01*
X97213750Y-76900000D01*
X97120471Y-76881446D01*
X97041393Y-76828607D01*
X96988554Y-76749529D01*
X96970000Y-76656250D01*
X96970000Y-75743750D01*
X96988554Y-75650471D01*
X97041393Y-75571393D01*
X97120471Y-75518554D01*
X97213750Y-75500000D01*
X97701250Y-75500000D01*
X97794529Y-75518554D01*
G37*
G36*
X95919529Y-75518554D02*
G01*
X95998607Y-75571393D01*
X96051446Y-75650471D01*
X96070000Y-75743750D01*
X96070000Y-76656250D01*
X96051446Y-76749529D01*
X95998607Y-76828607D01*
X95919529Y-76881446D01*
X95826250Y-76900000D01*
X95338750Y-76900000D01*
X95245471Y-76881446D01*
X95166393Y-76828607D01*
X95113554Y-76749529D01*
X95095000Y-76656250D01*
X95095000Y-75743750D01*
X95113554Y-75650471D01*
X95166393Y-75571393D01*
X95245471Y-75518554D01*
X95338750Y-75500000D01*
X95826250Y-75500000D01*
X95919529Y-75518554D01*
G37*
G36*
X106460529Y-81360554D02*
G01*
X106539607Y-81413393D01*
X106592446Y-81492471D01*
X106611000Y-81585750D01*
X106611000Y-82498250D01*
X106592446Y-82591529D01*
X106539607Y-82670607D01*
X106460529Y-82723446D01*
X106367250Y-82742000D01*
X105879750Y-82742000D01*
X105786471Y-82723446D01*
X105707393Y-82670607D01*
X105654554Y-82591529D01*
X105636000Y-82498250D01*
X105636000Y-81585750D01*
X105654554Y-81492471D01*
X105707393Y-81413393D01*
X105786471Y-81360554D01*
X105879750Y-81342000D01*
X106367250Y-81342000D01*
X106460529Y-81360554D01*
G37*
G36*
X108335529Y-81360554D02*
G01*
X108414607Y-81413393D01*
X108467446Y-81492471D01*
X108486000Y-81585750D01*
X108486000Y-82498250D01*
X108467446Y-82591529D01*
X108414607Y-82670607D01*
X108335529Y-82723446D01*
X108242250Y-82742000D01*
X107754750Y-82742000D01*
X107661471Y-82723446D01*
X107582393Y-82670607D01*
X107529554Y-82591529D01*
X107511000Y-82498250D01*
X107511000Y-81585750D01*
X107529554Y-81492471D01*
X107582393Y-81413393D01*
X107661471Y-81360554D01*
X107754750Y-81342000D01*
X108242250Y-81342000D01*
X108335529Y-81360554D01*
G37*
G36*
X112145529Y-85678554D02*
G01*
X112224607Y-85731393D01*
X112277446Y-85810471D01*
X112296000Y-85903750D01*
X112296000Y-86816250D01*
X112277446Y-86909529D01*
X112224607Y-86988607D01*
X112145529Y-87041446D01*
X112052250Y-87060000D01*
X111564750Y-87060000D01*
X111471471Y-87041446D01*
X111392393Y-86988607D01*
X111339554Y-86909529D01*
X111321000Y-86816250D01*
X111321000Y-85903750D01*
X111339554Y-85810471D01*
X111392393Y-85731393D01*
X111471471Y-85678554D01*
X111564750Y-85660000D01*
X112052250Y-85660000D01*
X112145529Y-85678554D01*
G37*
G36*
X110270529Y-85678554D02*
G01*
X110349607Y-85731393D01*
X110402446Y-85810471D01*
X110421000Y-85903750D01*
X110421000Y-86816250D01*
X110402446Y-86909529D01*
X110349607Y-86988607D01*
X110270529Y-87041446D01*
X110177250Y-87060000D01*
X109689750Y-87060000D01*
X109596471Y-87041446D01*
X109517393Y-86988607D01*
X109464554Y-86909529D01*
X109446000Y-86816250D01*
X109446000Y-85903750D01*
X109464554Y-85810471D01*
X109517393Y-85731393D01*
X109596471Y-85678554D01*
X109689750Y-85660000D01*
X110177250Y-85660000D01*
X110270529Y-85678554D01*
G37*
D21*
X165322000Y-135304000D03*
X163322000Y-135304000D03*
X161322000Y-135304000D03*
X165322000Y-146304000D03*
X163322000Y-146304000D03*
X161322000Y-146304000D03*
G36*
X159544657Y-145388298D02*
G01*
X159593320Y-145420814D01*
X159625836Y-145469477D01*
X159637254Y-145526880D01*
X159637254Y-145826880D01*
X159625836Y-145884283D01*
X159593320Y-145932946D01*
X159544657Y-145965462D01*
X159487254Y-145976880D01*
X157837254Y-145976880D01*
X157779851Y-145965462D01*
X157731188Y-145932946D01*
X157698672Y-145884283D01*
X157687254Y-145826880D01*
X157687254Y-145526880D01*
X157698672Y-145469477D01*
X157731188Y-145420814D01*
X157779851Y-145388298D01*
X157837254Y-145376880D01*
X159487254Y-145376880D01*
X159544657Y-145388298D01*
G37*
G36*
X159544657Y-144118298D02*
G01*
X159593320Y-144150814D01*
X159625836Y-144199477D01*
X159637254Y-144256880D01*
X159637254Y-144556880D01*
X159625836Y-144614283D01*
X159593320Y-144662946D01*
X159544657Y-144695462D01*
X159487254Y-144706880D01*
X157837254Y-144706880D01*
X157779851Y-144695462D01*
X157731188Y-144662946D01*
X157698672Y-144614283D01*
X157687254Y-144556880D01*
X157687254Y-144256880D01*
X157698672Y-144199477D01*
X157731188Y-144150814D01*
X157779851Y-144118298D01*
X157837254Y-144106880D01*
X159487254Y-144106880D01*
X159544657Y-144118298D01*
G37*
G36*
X159544657Y-142848298D02*
G01*
X159593320Y-142880814D01*
X159625836Y-142929477D01*
X159637254Y-142986880D01*
X159637254Y-143286880D01*
X159625836Y-143344283D01*
X159593320Y-143392946D01*
X159544657Y-143425462D01*
X159487254Y-143436880D01*
X157837254Y-143436880D01*
X157779851Y-143425462D01*
X157731188Y-143392946D01*
X157698672Y-143344283D01*
X157687254Y-143286880D01*
X157687254Y-142986880D01*
X157698672Y-142929477D01*
X157731188Y-142880814D01*
X157779851Y-142848298D01*
X157837254Y-142836880D01*
X159487254Y-142836880D01*
X159544657Y-142848298D01*
G37*
G36*
X159544657Y-141578298D02*
G01*
X159593320Y-141610814D01*
X159625836Y-141659477D01*
X159637254Y-141716880D01*
X159637254Y-142016880D01*
X159625836Y-142074283D01*
X159593320Y-142122946D01*
X159544657Y-142155462D01*
X159487254Y-142166880D01*
X157837254Y-142166880D01*
X157779851Y-142155462D01*
X157731188Y-142122946D01*
X157698672Y-142074283D01*
X157687254Y-142016880D01*
X157687254Y-141716880D01*
X157698672Y-141659477D01*
X157731188Y-141610814D01*
X157779851Y-141578298D01*
X157837254Y-141566880D01*
X159487254Y-141566880D01*
X159544657Y-141578298D01*
G37*
G36*
X159544657Y-140308298D02*
G01*
X159593320Y-140340814D01*
X159625836Y-140389477D01*
X159637254Y-140446880D01*
X159637254Y-140746880D01*
X159625836Y-140804283D01*
X159593320Y-140852946D01*
X159544657Y-140885462D01*
X159487254Y-140896880D01*
X157837254Y-140896880D01*
X157779851Y-140885462D01*
X157731188Y-140852946D01*
X157698672Y-140804283D01*
X157687254Y-140746880D01*
X157687254Y-140446880D01*
X157698672Y-140389477D01*
X157731188Y-140340814D01*
X157779851Y-140308298D01*
X157837254Y-140296880D01*
X159487254Y-140296880D01*
X159544657Y-140308298D01*
G37*
G36*
X159544657Y-139038298D02*
G01*
X159593320Y-139070814D01*
X159625836Y-139119477D01*
X159637254Y-139176880D01*
X159637254Y-139476880D01*
X159625836Y-139534283D01*
X159593320Y-139582946D01*
X159544657Y-139615462D01*
X159487254Y-139626880D01*
X157837254Y-139626880D01*
X157779851Y-139615462D01*
X157731188Y-139582946D01*
X157698672Y-139534283D01*
X157687254Y-139476880D01*
X157687254Y-139176880D01*
X157698672Y-139119477D01*
X157731188Y-139070814D01*
X157779851Y-139038298D01*
X157837254Y-139026880D01*
X159487254Y-139026880D01*
X159544657Y-139038298D01*
G37*
G36*
X159544657Y-137768298D02*
G01*
X159593320Y-137800814D01*
X159625836Y-137849477D01*
X159637254Y-137906880D01*
X159637254Y-138206880D01*
X159625836Y-138264283D01*
X159593320Y-138312946D01*
X159544657Y-138345462D01*
X159487254Y-138356880D01*
X157837254Y-138356880D01*
X157779851Y-138345462D01*
X157731188Y-138312946D01*
X157698672Y-138264283D01*
X157687254Y-138206880D01*
X157687254Y-137906880D01*
X157698672Y-137849477D01*
X157731188Y-137800814D01*
X157779851Y-137768298D01*
X157837254Y-137756880D01*
X159487254Y-137756880D01*
X159544657Y-137768298D01*
G37*
G36*
X159544657Y-136498298D02*
G01*
X159593320Y-136530814D01*
X159625836Y-136579477D01*
X159637254Y-136636880D01*
X159637254Y-136936880D01*
X159625836Y-136994283D01*
X159593320Y-137042946D01*
X159544657Y-137075462D01*
X159487254Y-137086880D01*
X157837254Y-137086880D01*
X157779851Y-137075462D01*
X157731188Y-137042946D01*
X157698672Y-136994283D01*
X157687254Y-136936880D01*
X157687254Y-136636880D01*
X157698672Y-136579477D01*
X157731188Y-136530814D01*
X157779851Y-136498298D01*
X157837254Y-136486880D01*
X159487254Y-136486880D01*
X159544657Y-136498298D01*
G37*
G36*
X154594657Y-136498298D02*
G01*
X154643320Y-136530814D01*
X154675836Y-136579477D01*
X154687254Y-136636880D01*
X154687254Y-136936880D01*
X154675836Y-136994283D01*
X154643320Y-137042946D01*
X154594657Y-137075462D01*
X154537254Y-137086880D01*
X152887254Y-137086880D01*
X152829851Y-137075462D01*
X152781188Y-137042946D01*
X152748672Y-136994283D01*
X152737254Y-136936880D01*
X152737254Y-136636880D01*
X152748672Y-136579477D01*
X152781188Y-136530814D01*
X152829851Y-136498298D01*
X152887254Y-136486880D01*
X154537254Y-136486880D01*
X154594657Y-136498298D01*
G37*
G36*
X154594657Y-137768298D02*
G01*
X154643320Y-137800814D01*
X154675836Y-137849477D01*
X154687254Y-137906880D01*
X154687254Y-138206880D01*
X154675836Y-138264283D01*
X154643320Y-138312946D01*
X154594657Y-138345462D01*
X154537254Y-138356880D01*
X152887254Y-138356880D01*
X152829851Y-138345462D01*
X152781188Y-138312946D01*
X152748672Y-138264283D01*
X152737254Y-138206880D01*
X152737254Y-137906880D01*
X152748672Y-137849477D01*
X152781188Y-137800814D01*
X152829851Y-137768298D01*
X152887254Y-137756880D01*
X154537254Y-137756880D01*
X154594657Y-137768298D01*
G37*
G36*
X154594657Y-139038298D02*
G01*
X154643320Y-139070814D01*
X154675836Y-139119477D01*
X154687254Y-139176880D01*
X154687254Y-139476880D01*
X154675836Y-139534283D01*
X154643320Y-139582946D01*
X154594657Y-139615462D01*
X154537254Y-139626880D01*
X152887254Y-139626880D01*
X152829851Y-139615462D01*
X152781188Y-139582946D01*
X152748672Y-139534283D01*
X152737254Y-139476880D01*
X152737254Y-139176880D01*
X152748672Y-139119477D01*
X152781188Y-139070814D01*
X152829851Y-139038298D01*
X152887254Y-139026880D01*
X154537254Y-139026880D01*
X154594657Y-139038298D01*
G37*
G36*
X154594657Y-140308298D02*
G01*
X154643320Y-140340814D01*
X154675836Y-140389477D01*
X154687254Y-140446880D01*
X154687254Y-140746880D01*
X154675836Y-140804283D01*
X154643320Y-140852946D01*
X154594657Y-140885462D01*
X154537254Y-140896880D01*
X152887254Y-140896880D01*
X152829851Y-140885462D01*
X152781188Y-140852946D01*
X152748672Y-140804283D01*
X152737254Y-140746880D01*
X152737254Y-140446880D01*
X152748672Y-140389477D01*
X152781188Y-140340814D01*
X152829851Y-140308298D01*
X152887254Y-140296880D01*
X154537254Y-140296880D01*
X154594657Y-140308298D01*
G37*
G36*
X154594657Y-141578298D02*
G01*
X154643320Y-141610814D01*
X154675836Y-141659477D01*
X154687254Y-141716880D01*
X154687254Y-142016880D01*
X154675836Y-142074283D01*
X154643320Y-142122946D01*
X154594657Y-142155462D01*
X154537254Y-142166880D01*
X152887254Y-142166880D01*
X152829851Y-142155462D01*
X152781188Y-142122946D01*
X152748672Y-142074283D01*
X152737254Y-142016880D01*
X152737254Y-141716880D01*
X152748672Y-141659477D01*
X152781188Y-141610814D01*
X152829851Y-141578298D01*
X152887254Y-141566880D01*
X154537254Y-141566880D01*
X154594657Y-141578298D01*
G37*
G36*
X154594657Y-142848298D02*
G01*
X154643320Y-142880814D01*
X154675836Y-142929477D01*
X154687254Y-142986880D01*
X154687254Y-143286880D01*
X154675836Y-143344283D01*
X154643320Y-143392946D01*
X154594657Y-143425462D01*
X154537254Y-143436880D01*
X152887254Y-143436880D01*
X152829851Y-143425462D01*
X152781188Y-143392946D01*
X152748672Y-143344283D01*
X152737254Y-143286880D01*
X152737254Y-142986880D01*
X152748672Y-142929477D01*
X152781188Y-142880814D01*
X152829851Y-142848298D01*
X152887254Y-142836880D01*
X154537254Y-142836880D01*
X154594657Y-142848298D01*
G37*
G36*
X154594657Y-144118298D02*
G01*
X154643320Y-144150814D01*
X154675836Y-144199477D01*
X154687254Y-144256880D01*
X154687254Y-144556880D01*
X154675836Y-144614283D01*
X154643320Y-144662946D01*
X154594657Y-144695462D01*
X154537254Y-144706880D01*
X152887254Y-144706880D01*
X152829851Y-144695462D01*
X152781188Y-144662946D01*
X152748672Y-144614283D01*
X152737254Y-144556880D01*
X152737254Y-144256880D01*
X152748672Y-144199477D01*
X152781188Y-144150814D01*
X152829851Y-144118298D01*
X152887254Y-144106880D01*
X154537254Y-144106880D01*
X154594657Y-144118298D01*
G37*
G36*
X154594657Y-145388298D02*
G01*
X154643320Y-145420814D01*
X154675836Y-145469477D01*
X154687254Y-145526880D01*
X154687254Y-145826880D01*
X154675836Y-145884283D01*
X154643320Y-145932946D01*
X154594657Y-145965462D01*
X154537254Y-145976880D01*
X152887254Y-145976880D01*
X152829851Y-145965462D01*
X152781188Y-145932946D01*
X152748672Y-145884283D01*
X152737254Y-145826880D01*
X152737254Y-145526880D01*
X152748672Y-145469477D01*
X152781188Y-145420814D01*
X152829851Y-145388298D01*
X152887254Y-145376880D01*
X154537254Y-145376880D01*
X154594657Y-145388298D01*
G37*
G36*
X179591664Y-88921589D02*
G01*
X179670742Y-88974428D01*
X179723581Y-89053506D01*
X179742135Y-89146785D01*
X179742135Y-89634285D01*
X179723581Y-89727564D01*
X179670742Y-89806642D01*
X179591664Y-89859481D01*
X179498385Y-89878035D01*
X178585885Y-89878035D01*
X178492606Y-89859481D01*
X178413528Y-89806642D01*
X178360689Y-89727564D01*
X178342135Y-89634285D01*
X178342135Y-89146785D01*
X178360689Y-89053506D01*
X178413528Y-88974428D01*
X178492606Y-88921589D01*
X178585885Y-88903035D01*
X179498385Y-88903035D01*
X179591664Y-88921589D01*
G37*
G36*
X179591664Y-87046589D02*
G01*
X179670742Y-87099428D01*
X179723581Y-87178506D01*
X179742135Y-87271785D01*
X179742135Y-87759285D01*
X179723581Y-87852564D01*
X179670742Y-87931642D01*
X179591664Y-87984481D01*
X179498385Y-88003035D01*
X178585885Y-88003035D01*
X178492606Y-87984481D01*
X178413528Y-87931642D01*
X178360689Y-87852564D01*
X178342135Y-87759285D01*
X178342135Y-87271785D01*
X178360689Y-87178506D01*
X178413528Y-87099428D01*
X178492606Y-87046589D01*
X178585885Y-87028035D01*
X179498385Y-87028035D01*
X179591664Y-87046589D01*
G37*
G36*
X170692529Y-130001554D02*
G01*
X170771607Y-130054393D01*
X170824446Y-130133471D01*
X170843000Y-130226750D01*
X170843000Y-131139250D01*
X170824446Y-131232529D01*
X170771607Y-131311607D01*
X170692529Y-131364446D01*
X170599250Y-131383000D01*
X170111750Y-131383000D01*
X170018471Y-131364446D01*
X169939393Y-131311607D01*
X169886554Y-131232529D01*
X169868000Y-131139250D01*
X169868000Y-130226750D01*
X169886554Y-130133471D01*
X169939393Y-130054393D01*
X170018471Y-130001554D01*
X170111750Y-129983000D01*
X170599250Y-129983000D01*
X170692529Y-130001554D01*
G37*
G36*
X168817529Y-130001554D02*
G01*
X168896607Y-130054393D01*
X168949446Y-130133471D01*
X168968000Y-130226750D01*
X168968000Y-131139250D01*
X168949446Y-131232529D01*
X168896607Y-131311607D01*
X168817529Y-131364446D01*
X168724250Y-131383000D01*
X168236750Y-131383000D01*
X168143471Y-131364446D01*
X168064393Y-131311607D01*
X168011554Y-131232529D01*
X167993000Y-131139250D01*
X167993000Y-130226750D01*
X168011554Y-130133471D01*
X168064393Y-130054393D01*
X168143471Y-130001554D01*
X168236750Y-129983000D01*
X168724250Y-129983000D01*
X168817529Y-130001554D01*
G37*
G36*
X180326029Y-130509554D02*
G01*
X180405107Y-130562393D01*
X180457946Y-130641471D01*
X180476500Y-130734750D01*
X180476500Y-131647250D01*
X180457946Y-131740529D01*
X180405107Y-131819607D01*
X180326029Y-131872446D01*
X180232750Y-131891000D01*
X179745250Y-131891000D01*
X179651971Y-131872446D01*
X179572893Y-131819607D01*
X179520054Y-131740529D01*
X179501500Y-131647250D01*
X179501500Y-130734750D01*
X179520054Y-130641471D01*
X179572893Y-130562393D01*
X179651971Y-130509554D01*
X179745250Y-130491000D01*
X180232750Y-130491000D01*
X180326029Y-130509554D01*
G37*
G36*
X182201029Y-130509554D02*
G01*
X182280107Y-130562393D01*
X182332946Y-130641471D01*
X182351500Y-130734750D01*
X182351500Y-131647250D01*
X182332946Y-131740529D01*
X182280107Y-131819607D01*
X182201029Y-131872446D01*
X182107750Y-131891000D01*
X181620250Y-131891000D01*
X181526971Y-131872446D01*
X181447893Y-131819607D01*
X181395054Y-131740529D01*
X181376500Y-131647250D01*
X181376500Y-130734750D01*
X181395054Y-130641471D01*
X181447893Y-130562393D01*
X181526971Y-130509554D01*
X181620250Y-130491000D01*
X182107750Y-130491000D01*
X182201029Y-130509554D01*
G37*
G36*
X168817529Y-136605554D02*
G01*
X168896607Y-136658393D01*
X168949446Y-136737471D01*
X168968000Y-136830750D01*
X168968000Y-137743250D01*
X168949446Y-137836529D01*
X168896607Y-137915607D01*
X168817529Y-137968446D01*
X168724250Y-137987000D01*
X168236750Y-137987000D01*
X168143471Y-137968446D01*
X168064393Y-137915607D01*
X168011554Y-137836529D01*
X167993000Y-137743250D01*
X167993000Y-136830750D01*
X168011554Y-136737471D01*
X168064393Y-136658393D01*
X168143471Y-136605554D01*
X168236750Y-136587000D01*
X168724250Y-136587000D01*
X168817529Y-136605554D01*
G37*
G36*
X170692529Y-136605554D02*
G01*
X170771607Y-136658393D01*
X170824446Y-136737471D01*
X170843000Y-136830750D01*
X170843000Y-137743250D01*
X170824446Y-137836529D01*
X170771607Y-137915607D01*
X170692529Y-137968446D01*
X170599250Y-137987000D01*
X170111750Y-137987000D01*
X170018471Y-137968446D01*
X169939393Y-137915607D01*
X169886554Y-137836529D01*
X169868000Y-137743250D01*
X169868000Y-136830750D01*
X169886554Y-136737471D01*
X169939393Y-136658393D01*
X170018471Y-136605554D01*
X170111750Y-136587000D01*
X170599250Y-136587000D01*
X170692529Y-136605554D01*
G37*
G36*
X182249529Y-136986554D02*
G01*
X182328607Y-137039393D01*
X182381446Y-137118471D01*
X182400000Y-137211750D01*
X182400000Y-138124250D01*
X182381446Y-138217529D01*
X182328607Y-138296607D01*
X182249529Y-138349446D01*
X182156250Y-138368000D01*
X181668750Y-138368000D01*
X181575471Y-138349446D01*
X181496393Y-138296607D01*
X181443554Y-138217529D01*
X181425000Y-138124250D01*
X181425000Y-137211750D01*
X181443554Y-137118471D01*
X181496393Y-137039393D01*
X181575471Y-136986554D01*
X181668750Y-136968000D01*
X182156250Y-136968000D01*
X182249529Y-136986554D01*
G37*
G36*
X180374529Y-136986554D02*
G01*
X180453607Y-137039393D01*
X180506446Y-137118471D01*
X180525000Y-137211750D01*
X180525000Y-138124250D01*
X180506446Y-138217529D01*
X180453607Y-138296607D01*
X180374529Y-138349446D01*
X180281250Y-138368000D01*
X179793750Y-138368000D01*
X179700471Y-138349446D01*
X179621393Y-138296607D01*
X179568554Y-138217529D01*
X179550000Y-138124250D01*
X179550000Y-137211750D01*
X179568554Y-137118471D01*
X179621393Y-137039393D01*
X179700471Y-136986554D01*
X179793750Y-136968000D01*
X180281250Y-136968000D01*
X180374529Y-136986554D01*
G37*
G36*
X170692529Y-134446554D02*
G01*
X170771607Y-134499393D01*
X170824446Y-134578471D01*
X170843000Y-134671750D01*
X170843000Y-135584250D01*
X170824446Y-135677529D01*
X170771607Y-135756607D01*
X170692529Y-135809446D01*
X170599250Y-135828000D01*
X170111750Y-135828000D01*
X170018471Y-135809446D01*
X169939393Y-135756607D01*
X169886554Y-135677529D01*
X169868000Y-135584250D01*
X169868000Y-134671750D01*
X169886554Y-134578471D01*
X169939393Y-134499393D01*
X170018471Y-134446554D01*
X170111750Y-134428000D01*
X170599250Y-134428000D01*
X170692529Y-134446554D01*
G37*
G36*
X168817529Y-134446554D02*
G01*
X168896607Y-134499393D01*
X168949446Y-134578471D01*
X168968000Y-134671750D01*
X168968000Y-135584250D01*
X168949446Y-135677529D01*
X168896607Y-135756607D01*
X168817529Y-135809446D01*
X168724250Y-135828000D01*
X168236750Y-135828000D01*
X168143471Y-135809446D01*
X168064393Y-135756607D01*
X168011554Y-135677529D01*
X167993000Y-135584250D01*
X167993000Y-134671750D01*
X168011554Y-134578471D01*
X168064393Y-134499393D01*
X168143471Y-134446554D01*
X168236750Y-134428000D01*
X168724250Y-134428000D01*
X168817529Y-134446554D01*
G37*
G36*
X180374529Y-134827554D02*
G01*
X180453607Y-134880393D01*
X180506446Y-134959471D01*
X180525000Y-135052750D01*
X180525000Y-135965250D01*
X180506446Y-136058529D01*
X180453607Y-136137607D01*
X180374529Y-136190446D01*
X180281250Y-136209000D01*
X179793750Y-136209000D01*
X179700471Y-136190446D01*
X179621393Y-136137607D01*
X179568554Y-136058529D01*
X179550000Y-135965250D01*
X179550000Y-135052750D01*
X179568554Y-134959471D01*
X179621393Y-134880393D01*
X179700471Y-134827554D01*
X179793750Y-134809000D01*
X180281250Y-134809000D01*
X180374529Y-134827554D01*
G37*
G36*
X182249529Y-134827554D02*
G01*
X182328607Y-134880393D01*
X182381446Y-134959471D01*
X182400000Y-135052750D01*
X182400000Y-135965250D01*
X182381446Y-136058529D01*
X182328607Y-136137607D01*
X182249529Y-136190446D01*
X182156250Y-136209000D01*
X181668750Y-136209000D01*
X181575471Y-136190446D01*
X181496393Y-136137607D01*
X181443554Y-136058529D01*
X181425000Y-135965250D01*
X181425000Y-135052750D01*
X181443554Y-134959471D01*
X181496393Y-134880393D01*
X181575471Y-134827554D01*
X181668750Y-134809000D01*
X182156250Y-134809000D01*
X182249529Y-134827554D01*
G37*
G36*
X164850529Y-150067554D02*
G01*
X164929607Y-150120393D01*
X164982446Y-150199471D01*
X165001000Y-150292750D01*
X165001000Y-151205250D01*
X164982446Y-151298529D01*
X164929607Y-151377607D01*
X164850529Y-151430446D01*
X164757250Y-151449000D01*
X164269750Y-151449000D01*
X164176471Y-151430446D01*
X164097393Y-151377607D01*
X164044554Y-151298529D01*
X164026000Y-151205250D01*
X164026000Y-150292750D01*
X164044554Y-150199471D01*
X164097393Y-150120393D01*
X164176471Y-150067554D01*
X164269750Y-150049000D01*
X164757250Y-150049000D01*
X164850529Y-150067554D01*
G37*
G36*
X162975529Y-150067554D02*
G01*
X163054607Y-150120393D01*
X163107446Y-150199471D01*
X163126000Y-150292750D01*
X163126000Y-151205250D01*
X163107446Y-151298529D01*
X163054607Y-151377607D01*
X162975529Y-151430446D01*
X162882250Y-151449000D01*
X162394750Y-151449000D01*
X162301471Y-151430446D01*
X162222393Y-151377607D01*
X162169554Y-151298529D01*
X162151000Y-151205250D01*
X162151000Y-150292750D01*
X162169554Y-150199471D01*
X162222393Y-150120393D01*
X162301471Y-150067554D01*
X162394750Y-150049000D01*
X162882250Y-150049000D01*
X162975529Y-150067554D01*
G37*
G36*
X120174657Y-145388298D02*
G01*
X120223320Y-145420814D01*
X120255836Y-145469477D01*
X120267254Y-145526880D01*
X120267254Y-145826880D01*
X120255836Y-145884283D01*
X120223320Y-145932946D01*
X120174657Y-145965462D01*
X120117254Y-145976880D01*
X118467254Y-145976880D01*
X118409851Y-145965462D01*
X118361188Y-145932946D01*
X118328672Y-145884283D01*
X118317254Y-145826880D01*
X118317254Y-145526880D01*
X118328672Y-145469477D01*
X118361188Y-145420814D01*
X118409851Y-145388298D01*
X118467254Y-145376880D01*
X120117254Y-145376880D01*
X120174657Y-145388298D01*
G37*
G36*
X120174657Y-144118298D02*
G01*
X120223320Y-144150814D01*
X120255836Y-144199477D01*
X120267254Y-144256880D01*
X120267254Y-144556880D01*
X120255836Y-144614283D01*
X120223320Y-144662946D01*
X120174657Y-144695462D01*
X120117254Y-144706880D01*
X118467254Y-144706880D01*
X118409851Y-144695462D01*
X118361188Y-144662946D01*
X118328672Y-144614283D01*
X118317254Y-144556880D01*
X118317254Y-144256880D01*
X118328672Y-144199477D01*
X118361188Y-144150814D01*
X118409851Y-144118298D01*
X118467254Y-144106880D01*
X120117254Y-144106880D01*
X120174657Y-144118298D01*
G37*
G36*
X120174657Y-142848298D02*
G01*
X120223320Y-142880814D01*
X120255836Y-142929477D01*
X120267254Y-142986880D01*
X120267254Y-143286880D01*
X120255836Y-143344283D01*
X120223320Y-143392946D01*
X120174657Y-143425462D01*
X120117254Y-143436880D01*
X118467254Y-143436880D01*
X118409851Y-143425462D01*
X118361188Y-143392946D01*
X118328672Y-143344283D01*
X118317254Y-143286880D01*
X118317254Y-142986880D01*
X118328672Y-142929477D01*
X118361188Y-142880814D01*
X118409851Y-142848298D01*
X118467254Y-142836880D01*
X120117254Y-142836880D01*
X120174657Y-142848298D01*
G37*
G36*
X120174657Y-141578298D02*
G01*
X120223320Y-141610814D01*
X120255836Y-141659477D01*
X120267254Y-141716880D01*
X120267254Y-142016880D01*
X120255836Y-142074283D01*
X120223320Y-142122946D01*
X120174657Y-142155462D01*
X120117254Y-142166880D01*
X118467254Y-142166880D01*
X118409851Y-142155462D01*
X118361188Y-142122946D01*
X118328672Y-142074283D01*
X118317254Y-142016880D01*
X118317254Y-141716880D01*
X118328672Y-141659477D01*
X118361188Y-141610814D01*
X118409851Y-141578298D01*
X118467254Y-141566880D01*
X120117254Y-141566880D01*
X120174657Y-141578298D01*
G37*
G36*
X120174657Y-140308298D02*
G01*
X120223320Y-140340814D01*
X120255836Y-140389477D01*
X120267254Y-140446880D01*
X120267254Y-140746880D01*
X120255836Y-140804283D01*
X120223320Y-140852946D01*
X120174657Y-140885462D01*
X120117254Y-140896880D01*
X118467254Y-140896880D01*
X118409851Y-140885462D01*
X118361188Y-140852946D01*
X118328672Y-140804283D01*
X118317254Y-140746880D01*
X118317254Y-140446880D01*
X118328672Y-140389477D01*
X118361188Y-140340814D01*
X118409851Y-140308298D01*
X118467254Y-140296880D01*
X120117254Y-140296880D01*
X120174657Y-140308298D01*
G37*
G36*
X120174657Y-139038298D02*
G01*
X120223320Y-139070814D01*
X120255836Y-139119477D01*
X120267254Y-139176880D01*
X120267254Y-139476880D01*
X120255836Y-139534283D01*
X120223320Y-139582946D01*
X120174657Y-139615462D01*
X120117254Y-139626880D01*
X118467254Y-139626880D01*
X118409851Y-139615462D01*
X118361188Y-139582946D01*
X118328672Y-139534283D01*
X118317254Y-139476880D01*
X118317254Y-139176880D01*
X118328672Y-139119477D01*
X118361188Y-139070814D01*
X118409851Y-139038298D01*
X118467254Y-139026880D01*
X120117254Y-139026880D01*
X120174657Y-139038298D01*
G37*
G36*
X120174657Y-137768298D02*
G01*
X120223320Y-137800814D01*
X120255836Y-137849477D01*
X120267254Y-137906880D01*
X120267254Y-138206880D01*
X120255836Y-138264283D01*
X120223320Y-138312946D01*
X120174657Y-138345462D01*
X120117254Y-138356880D01*
X118467254Y-138356880D01*
X118409851Y-138345462D01*
X118361188Y-138312946D01*
X118328672Y-138264283D01*
X118317254Y-138206880D01*
X118317254Y-137906880D01*
X118328672Y-137849477D01*
X118361188Y-137800814D01*
X118409851Y-137768298D01*
X118467254Y-137756880D01*
X120117254Y-137756880D01*
X120174657Y-137768298D01*
G37*
G36*
X120174657Y-136498298D02*
G01*
X120223320Y-136530814D01*
X120255836Y-136579477D01*
X120267254Y-136636880D01*
X120267254Y-136936880D01*
X120255836Y-136994283D01*
X120223320Y-137042946D01*
X120174657Y-137075462D01*
X120117254Y-137086880D01*
X118467254Y-137086880D01*
X118409851Y-137075462D01*
X118361188Y-137042946D01*
X118328672Y-136994283D01*
X118317254Y-136936880D01*
X118317254Y-136636880D01*
X118328672Y-136579477D01*
X118361188Y-136530814D01*
X118409851Y-136498298D01*
X118467254Y-136486880D01*
X120117254Y-136486880D01*
X120174657Y-136498298D01*
G37*
G36*
X115224657Y-136498298D02*
G01*
X115273320Y-136530814D01*
X115305836Y-136579477D01*
X115317254Y-136636880D01*
X115317254Y-136936880D01*
X115305836Y-136994283D01*
X115273320Y-137042946D01*
X115224657Y-137075462D01*
X115167254Y-137086880D01*
X113517254Y-137086880D01*
X113459851Y-137075462D01*
X113411188Y-137042946D01*
X113378672Y-136994283D01*
X113367254Y-136936880D01*
X113367254Y-136636880D01*
X113378672Y-136579477D01*
X113411188Y-136530814D01*
X113459851Y-136498298D01*
X113517254Y-136486880D01*
X115167254Y-136486880D01*
X115224657Y-136498298D01*
G37*
G36*
X115224657Y-137768298D02*
G01*
X115273320Y-137800814D01*
X115305836Y-137849477D01*
X115317254Y-137906880D01*
X115317254Y-138206880D01*
X115305836Y-138264283D01*
X115273320Y-138312946D01*
X115224657Y-138345462D01*
X115167254Y-138356880D01*
X113517254Y-138356880D01*
X113459851Y-138345462D01*
X113411188Y-138312946D01*
X113378672Y-138264283D01*
X113367254Y-138206880D01*
X113367254Y-137906880D01*
X113378672Y-137849477D01*
X113411188Y-137800814D01*
X113459851Y-137768298D01*
X113517254Y-137756880D01*
X115167254Y-137756880D01*
X115224657Y-137768298D01*
G37*
G36*
X115224657Y-139038298D02*
G01*
X115273320Y-139070814D01*
X115305836Y-139119477D01*
X115317254Y-139176880D01*
X115317254Y-139476880D01*
X115305836Y-139534283D01*
X115273320Y-139582946D01*
X115224657Y-139615462D01*
X115167254Y-139626880D01*
X113517254Y-139626880D01*
X113459851Y-139615462D01*
X113411188Y-139582946D01*
X113378672Y-139534283D01*
X113367254Y-139476880D01*
X113367254Y-139176880D01*
X113378672Y-139119477D01*
X113411188Y-139070814D01*
X113459851Y-139038298D01*
X113517254Y-139026880D01*
X115167254Y-139026880D01*
X115224657Y-139038298D01*
G37*
G36*
X115224657Y-140308298D02*
G01*
X115273320Y-140340814D01*
X115305836Y-140389477D01*
X115317254Y-140446880D01*
X115317254Y-140746880D01*
X115305836Y-140804283D01*
X115273320Y-140852946D01*
X115224657Y-140885462D01*
X115167254Y-140896880D01*
X113517254Y-140896880D01*
X113459851Y-140885462D01*
X113411188Y-140852946D01*
X113378672Y-140804283D01*
X113367254Y-140746880D01*
X113367254Y-140446880D01*
X113378672Y-140389477D01*
X113411188Y-140340814D01*
X113459851Y-140308298D01*
X113517254Y-140296880D01*
X115167254Y-140296880D01*
X115224657Y-140308298D01*
G37*
G36*
X115224657Y-141578298D02*
G01*
X115273320Y-141610814D01*
X115305836Y-141659477D01*
X115317254Y-141716880D01*
X115317254Y-142016880D01*
X115305836Y-142074283D01*
X115273320Y-142122946D01*
X115224657Y-142155462D01*
X115167254Y-142166880D01*
X113517254Y-142166880D01*
X113459851Y-142155462D01*
X113411188Y-142122946D01*
X113378672Y-142074283D01*
X113367254Y-142016880D01*
X113367254Y-141716880D01*
X113378672Y-141659477D01*
X113411188Y-141610814D01*
X113459851Y-141578298D01*
X113517254Y-141566880D01*
X115167254Y-141566880D01*
X115224657Y-141578298D01*
G37*
G36*
X115224657Y-142848298D02*
G01*
X115273320Y-142880814D01*
X115305836Y-142929477D01*
X115317254Y-142986880D01*
X115317254Y-143286880D01*
X115305836Y-143344283D01*
X115273320Y-143392946D01*
X115224657Y-143425462D01*
X115167254Y-143436880D01*
X113517254Y-143436880D01*
X113459851Y-143425462D01*
X113411188Y-143392946D01*
X113378672Y-143344283D01*
X113367254Y-143286880D01*
X113367254Y-142986880D01*
X113378672Y-142929477D01*
X113411188Y-142880814D01*
X113459851Y-142848298D01*
X113517254Y-142836880D01*
X115167254Y-142836880D01*
X115224657Y-142848298D01*
G37*
G36*
X115224657Y-144118298D02*
G01*
X115273320Y-144150814D01*
X115305836Y-144199477D01*
X115317254Y-144256880D01*
X115317254Y-144556880D01*
X115305836Y-144614283D01*
X115273320Y-144662946D01*
X115224657Y-144695462D01*
X115167254Y-144706880D01*
X113517254Y-144706880D01*
X113459851Y-144695462D01*
X113411188Y-144662946D01*
X113378672Y-144614283D01*
X113367254Y-144556880D01*
X113367254Y-144256880D01*
X113378672Y-144199477D01*
X113411188Y-144150814D01*
X113459851Y-144118298D01*
X113517254Y-144106880D01*
X115167254Y-144106880D01*
X115224657Y-144118298D01*
G37*
G36*
X115224657Y-145388298D02*
G01*
X115273320Y-145420814D01*
X115305836Y-145469477D01*
X115317254Y-145526880D01*
X115317254Y-145826880D01*
X115305836Y-145884283D01*
X115273320Y-145932946D01*
X115224657Y-145965462D01*
X115167254Y-145976880D01*
X113517254Y-145976880D01*
X113459851Y-145965462D01*
X113411188Y-145932946D01*
X113378672Y-145884283D01*
X113367254Y-145826880D01*
X113367254Y-145526880D01*
X113378672Y-145469477D01*
X113411188Y-145420814D01*
X113459851Y-145388298D01*
X113517254Y-145376880D01*
X115167254Y-145376880D01*
X115224657Y-145388298D01*
G37*
G36*
X173032403Y-141189418D02*
G01*
X173081066Y-141221934D01*
X173113582Y-141270597D01*
X173125000Y-141328000D01*
X173125000Y-141628000D01*
X173113582Y-141685403D01*
X173081066Y-141734066D01*
X173032403Y-141766582D01*
X172975000Y-141778000D01*
X171325000Y-141778000D01*
X171267597Y-141766582D01*
X171218934Y-141734066D01*
X171186418Y-141685403D01*
X171175000Y-141628000D01*
X171175000Y-141328000D01*
X171186418Y-141270597D01*
X171218934Y-141221934D01*
X171267597Y-141189418D01*
X171325000Y-141178000D01*
X172975000Y-141178000D01*
X173032403Y-141189418D01*
G37*
G36*
X173032403Y-142459418D02*
G01*
X173081066Y-142491934D01*
X173113582Y-142540597D01*
X173125000Y-142598000D01*
X173125000Y-142898000D01*
X173113582Y-142955403D01*
X173081066Y-143004066D01*
X173032403Y-143036582D01*
X172975000Y-143048000D01*
X171325000Y-143048000D01*
X171267597Y-143036582D01*
X171218934Y-143004066D01*
X171186418Y-142955403D01*
X171175000Y-142898000D01*
X171175000Y-142598000D01*
X171186418Y-142540597D01*
X171218934Y-142491934D01*
X171267597Y-142459418D01*
X171325000Y-142448000D01*
X172975000Y-142448000D01*
X173032403Y-142459418D01*
G37*
G36*
X173032403Y-143729418D02*
G01*
X173081066Y-143761934D01*
X173113582Y-143810597D01*
X173125000Y-143868000D01*
X173125000Y-144168000D01*
X173113582Y-144225403D01*
X173081066Y-144274066D01*
X173032403Y-144306582D01*
X172975000Y-144318000D01*
X171325000Y-144318000D01*
X171267597Y-144306582D01*
X171218934Y-144274066D01*
X171186418Y-144225403D01*
X171175000Y-144168000D01*
X171175000Y-143868000D01*
X171186418Y-143810597D01*
X171218934Y-143761934D01*
X171267597Y-143729418D01*
X171325000Y-143718000D01*
X172975000Y-143718000D01*
X173032403Y-143729418D01*
G37*
G36*
X173032403Y-144999418D02*
G01*
X173081066Y-145031934D01*
X173113582Y-145080597D01*
X173125000Y-145138000D01*
X173125000Y-145438000D01*
X173113582Y-145495403D01*
X173081066Y-145544066D01*
X173032403Y-145576582D01*
X172975000Y-145588000D01*
X171325000Y-145588000D01*
X171267597Y-145576582D01*
X171218934Y-145544066D01*
X171186418Y-145495403D01*
X171175000Y-145438000D01*
X171175000Y-145138000D01*
X171186418Y-145080597D01*
X171218934Y-145031934D01*
X171267597Y-144999418D01*
X171325000Y-144988000D01*
X172975000Y-144988000D01*
X173032403Y-144999418D01*
G37*
G36*
X173032403Y-146269418D02*
G01*
X173081066Y-146301934D01*
X173113582Y-146350597D01*
X173125000Y-146408000D01*
X173125000Y-146708000D01*
X173113582Y-146765403D01*
X173081066Y-146814066D01*
X173032403Y-146846582D01*
X172975000Y-146858000D01*
X171325000Y-146858000D01*
X171267597Y-146846582D01*
X171218934Y-146814066D01*
X171186418Y-146765403D01*
X171175000Y-146708000D01*
X171175000Y-146408000D01*
X171186418Y-146350597D01*
X171218934Y-146301934D01*
X171267597Y-146269418D01*
X171325000Y-146258000D01*
X172975000Y-146258000D01*
X173032403Y-146269418D01*
G37*
G36*
X173032403Y-147539418D02*
G01*
X173081066Y-147571934D01*
X173113582Y-147620597D01*
X173125000Y-147678000D01*
X173125000Y-147978000D01*
X173113582Y-148035403D01*
X173081066Y-148084066D01*
X173032403Y-148116582D01*
X172975000Y-148128000D01*
X171325000Y-148128000D01*
X171267597Y-148116582D01*
X171218934Y-148084066D01*
X171186418Y-148035403D01*
X171175000Y-147978000D01*
X171175000Y-147678000D01*
X171186418Y-147620597D01*
X171218934Y-147571934D01*
X171267597Y-147539418D01*
X171325000Y-147528000D01*
X172975000Y-147528000D01*
X173032403Y-147539418D01*
G37*
G36*
X173032403Y-148809418D02*
G01*
X173081066Y-148841934D01*
X173113582Y-148890597D01*
X173125000Y-148948000D01*
X173125000Y-149248000D01*
X173113582Y-149305403D01*
X173081066Y-149354066D01*
X173032403Y-149386582D01*
X172975000Y-149398000D01*
X171325000Y-149398000D01*
X171267597Y-149386582D01*
X171218934Y-149354066D01*
X171186418Y-149305403D01*
X171175000Y-149248000D01*
X171175000Y-148948000D01*
X171186418Y-148890597D01*
X171218934Y-148841934D01*
X171267597Y-148809418D01*
X171325000Y-148798000D01*
X172975000Y-148798000D01*
X173032403Y-148809418D01*
G37*
G36*
X173032403Y-150079418D02*
G01*
X173081066Y-150111934D01*
X173113582Y-150160597D01*
X173125000Y-150218000D01*
X173125000Y-150518000D01*
X173113582Y-150575403D01*
X173081066Y-150624066D01*
X173032403Y-150656582D01*
X172975000Y-150668000D01*
X171325000Y-150668000D01*
X171267597Y-150656582D01*
X171218934Y-150624066D01*
X171186418Y-150575403D01*
X171175000Y-150518000D01*
X171175000Y-150218000D01*
X171186418Y-150160597D01*
X171218934Y-150111934D01*
X171267597Y-150079418D01*
X171325000Y-150068000D01*
X172975000Y-150068000D01*
X173032403Y-150079418D01*
G37*
G36*
X177982403Y-150079418D02*
G01*
X178031066Y-150111934D01*
X178063582Y-150160597D01*
X178075000Y-150218000D01*
X178075000Y-150518000D01*
X178063582Y-150575403D01*
X178031066Y-150624066D01*
X177982403Y-150656582D01*
X177925000Y-150668000D01*
X176275000Y-150668000D01*
X176217597Y-150656582D01*
X176168934Y-150624066D01*
X176136418Y-150575403D01*
X176125000Y-150518000D01*
X176125000Y-150218000D01*
X176136418Y-150160597D01*
X176168934Y-150111934D01*
X176217597Y-150079418D01*
X176275000Y-150068000D01*
X177925000Y-150068000D01*
X177982403Y-150079418D01*
G37*
G36*
X177982403Y-148809418D02*
G01*
X178031066Y-148841934D01*
X178063582Y-148890597D01*
X178075000Y-148948000D01*
X178075000Y-149248000D01*
X178063582Y-149305403D01*
X178031066Y-149354066D01*
X177982403Y-149386582D01*
X177925000Y-149398000D01*
X176275000Y-149398000D01*
X176217597Y-149386582D01*
X176168934Y-149354066D01*
X176136418Y-149305403D01*
X176125000Y-149248000D01*
X176125000Y-148948000D01*
X176136418Y-148890597D01*
X176168934Y-148841934D01*
X176217597Y-148809418D01*
X176275000Y-148798000D01*
X177925000Y-148798000D01*
X177982403Y-148809418D01*
G37*
G36*
X177982403Y-147539418D02*
G01*
X178031066Y-147571934D01*
X178063582Y-147620597D01*
X178075000Y-147678000D01*
X178075000Y-147978000D01*
X178063582Y-148035403D01*
X178031066Y-148084066D01*
X177982403Y-148116582D01*
X177925000Y-148128000D01*
X176275000Y-148128000D01*
X176217597Y-148116582D01*
X176168934Y-148084066D01*
X176136418Y-148035403D01*
X176125000Y-147978000D01*
X176125000Y-147678000D01*
X176136418Y-147620597D01*
X176168934Y-147571934D01*
X176217597Y-147539418D01*
X176275000Y-147528000D01*
X177925000Y-147528000D01*
X177982403Y-147539418D01*
G37*
G36*
X177982403Y-146269418D02*
G01*
X178031066Y-146301934D01*
X178063582Y-146350597D01*
X178075000Y-146408000D01*
X178075000Y-146708000D01*
X178063582Y-146765403D01*
X178031066Y-146814066D01*
X177982403Y-146846582D01*
X177925000Y-146858000D01*
X176275000Y-146858000D01*
X176217597Y-146846582D01*
X176168934Y-146814066D01*
X176136418Y-146765403D01*
X176125000Y-146708000D01*
X176125000Y-146408000D01*
X176136418Y-146350597D01*
X176168934Y-146301934D01*
X176217597Y-146269418D01*
X176275000Y-146258000D01*
X177925000Y-146258000D01*
X177982403Y-146269418D01*
G37*
G36*
X177982403Y-144999418D02*
G01*
X178031066Y-145031934D01*
X178063582Y-145080597D01*
X178075000Y-145138000D01*
X178075000Y-145438000D01*
X178063582Y-145495403D01*
X178031066Y-145544066D01*
X177982403Y-145576582D01*
X177925000Y-145588000D01*
X176275000Y-145588000D01*
X176217597Y-145576582D01*
X176168934Y-145544066D01*
X176136418Y-145495403D01*
X176125000Y-145438000D01*
X176125000Y-145138000D01*
X176136418Y-145080597D01*
X176168934Y-145031934D01*
X176217597Y-144999418D01*
X176275000Y-144988000D01*
X177925000Y-144988000D01*
X177982403Y-144999418D01*
G37*
G36*
X177982403Y-143729418D02*
G01*
X178031066Y-143761934D01*
X178063582Y-143810597D01*
X178075000Y-143868000D01*
X178075000Y-144168000D01*
X178063582Y-144225403D01*
X178031066Y-144274066D01*
X177982403Y-144306582D01*
X177925000Y-144318000D01*
X176275000Y-144318000D01*
X176217597Y-144306582D01*
X176168934Y-144274066D01*
X176136418Y-144225403D01*
X176125000Y-144168000D01*
X176125000Y-143868000D01*
X176136418Y-143810597D01*
X176168934Y-143761934D01*
X176217597Y-143729418D01*
X176275000Y-143718000D01*
X177925000Y-143718000D01*
X177982403Y-143729418D01*
G37*
G36*
X177982403Y-142459418D02*
G01*
X178031066Y-142491934D01*
X178063582Y-142540597D01*
X178075000Y-142598000D01*
X178075000Y-142898000D01*
X178063582Y-142955403D01*
X178031066Y-143004066D01*
X177982403Y-143036582D01*
X177925000Y-143048000D01*
X176275000Y-143048000D01*
X176217597Y-143036582D01*
X176168934Y-143004066D01*
X176136418Y-142955403D01*
X176125000Y-142898000D01*
X176125000Y-142598000D01*
X176136418Y-142540597D01*
X176168934Y-142491934D01*
X176217597Y-142459418D01*
X176275000Y-142448000D01*
X177925000Y-142448000D01*
X177982403Y-142459418D01*
G37*
G36*
X177982403Y-141189418D02*
G01*
X178031066Y-141221934D01*
X178063582Y-141270597D01*
X178075000Y-141328000D01*
X178075000Y-141628000D01*
X178063582Y-141685403D01*
X178031066Y-141734066D01*
X177982403Y-141766582D01*
X177925000Y-141778000D01*
X176275000Y-141778000D01*
X176217597Y-141766582D01*
X176168934Y-141734066D01*
X176136418Y-141685403D01*
X176125000Y-141628000D01*
X176125000Y-141328000D01*
X176136418Y-141270597D01*
X176168934Y-141221934D01*
X176217597Y-141189418D01*
X176275000Y-141178000D01*
X177925000Y-141178000D01*
X177982403Y-141189418D01*
G37*
G36*
X120197403Y-94961418D02*
G01*
X120246066Y-94993934D01*
X120278582Y-95042597D01*
X120290000Y-95100000D01*
X120290000Y-95400000D01*
X120278582Y-95457403D01*
X120246066Y-95506066D01*
X120197403Y-95538582D01*
X120140000Y-95550000D01*
X118490000Y-95550000D01*
X118432597Y-95538582D01*
X118383934Y-95506066D01*
X118351418Y-95457403D01*
X118340000Y-95400000D01*
X118340000Y-95100000D01*
X118351418Y-95042597D01*
X118383934Y-94993934D01*
X118432597Y-94961418D01*
X118490000Y-94950000D01*
X120140000Y-94950000D01*
X120197403Y-94961418D01*
G37*
G36*
X120197403Y-93691418D02*
G01*
X120246066Y-93723934D01*
X120278582Y-93772597D01*
X120290000Y-93830000D01*
X120290000Y-94130000D01*
X120278582Y-94187403D01*
X120246066Y-94236066D01*
X120197403Y-94268582D01*
X120140000Y-94280000D01*
X118490000Y-94280000D01*
X118432597Y-94268582D01*
X118383934Y-94236066D01*
X118351418Y-94187403D01*
X118340000Y-94130000D01*
X118340000Y-93830000D01*
X118351418Y-93772597D01*
X118383934Y-93723934D01*
X118432597Y-93691418D01*
X118490000Y-93680000D01*
X120140000Y-93680000D01*
X120197403Y-93691418D01*
G37*
G36*
X120197403Y-92421418D02*
G01*
X120246066Y-92453934D01*
X120278582Y-92502597D01*
X120290000Y-92560000D01*
X120290000Y-92860000D01*
X120278582Y-92917403D01*
X120246066Y-92966066D01*
X120197403Y-92998582D01*
X120140000Y-93010000D01*
X118490000Y-93010000D01*
X118432597Y-92998582D01*
X118383934Y-92966066D01*
X118351418Y-92917403D01*
X118340000Y-92860000D01*
X118340000Y-92560000D01*
X118351418Y-92502597D01*
X118383934Y-92453934D01*
X118432597Y-92421418D01*
X118490000Y-92410000D01*
X120140000Y-92410000D01*
X120197403Y-92421418D01*
G37*
G36*
X120197403Y-91151418D02*
G01*
X120246066Y-91183934D01*
X120278582Y-91232597D01*
X120290000Y-91290000D01*
X120290000Y-91590000D01*
X120278582Y-91647403D01*
X120246066Y-91696066D01*
X120197403Y-91728582D01*
X120140000Y-91740000D01*
X118490000Y-91740000D01*
X118432597Y-91728582D01*
X118383934Y-91696066D01*
X118351418Y-91647403D01*
X118340000Y-91590000D01*
X118340000Y-91290000D01*
X118351418Y-91232597D01*
X118383934Y-91183934D01*
X118432597Y-91151418D01*
X118490000Y-91140000D01*
X120140000Y-91140000D01*
X120197403Y-91151418D01*
G37*
G36*
X115247403Y-91151418D02*
G01*
X115296066Y-91183934D01*
X115328582Y-91232597D01*
X115340000Y-91290000D01*
X115340000Y-91590000D01*
X115328582Y-91647403D01*
X115296066Y-91696066D01*
X115247403Y-91728582D01*
X115190000Y-91740000D01*
X113540000Y-91740000D01*
X113482597Y-91728582D01*
X113433934Y-91696066D01*
X113401418Y-91647403D01*
X113390000Y-91590000D01*
X113390000Y-91290000D01*
X113401418Y-91232597D01*
X113433934Y-91183934D01*
X113482597Y-91151418D01*
X113540000Y-91140000D01*
X115190000Y-91140000D01*
X115247403Y-91151418D01*
G37*
G36*
X115247403Y-92421418D02*
G01*
X115296066Y-92453934D01*
X115328582Y-92502597D01*
X115340000Y-92560000D01*
X115340000Y-92860000D01*
X115328582Y-92917403D01*
X115296066Y-92966066D01*
X115247403Y-92998582D01*
X115190000Y-93010000D01*
X113540000Y-93010000D01*
X113482597Y-92998582D01*
X113433934Y-92966066D01*
X113401418Y-92917403D01*
X113390000Y-92860000D01*
X113390000Y-92560000D01*
X113401418Y-92502597D01*
X113433934Y-92453934D01*
X113482597Y-92421418D01*
X113540000Y-92410000D01*
X115190000Y-92410000D01*
X115247403Y-92421418D01*
G37*
G36*
X115247403Y-93691418D02*
G01*
X115296066Y-93723934D01*
X115328582Y-93772597D01*
X115340000Y-93830000D01*
X115340000Y-94130000D01*
X115328582Y-94187403D01*
X115296066Y-94236066D01*
X115247403Y-94268582D01*
X115190000Y-94280000D01*
X113540000Y-94280000D01*
X113482597Y-94268582D01*
X113433934Y-94236066D01*
X113401418Y-94187403D01*
X113390000Y-94130000D01*
X113390000Y-93830000D01*
X113401418Y-93772597D01*
X113433934Y-93723934D01*
X113482597Y-93691418D01*
X113540000Y-93680000D01*
X115190000Y-93680000D01*
X115247403Y-93691418D01*
G37*
G36*
X115247403Y-94961418D02*
G01*
X115296066Y-94993934D01*
X115328582Y-95042597D01*
X115340000Y-95100000D01*
X115340000Y-95400000D01*
X115328582Y-95457403D01*
X115296066Y-95506066D01*
X115247403Y-95538582D01*
X115190000Y-95550000D01*
X113540000Y-95550000D01*
X113482597Y-95538582D01*
X113433934Y-95506066D01*
X113401418Y-95457403D01*
X113390000Y-95400000D01*
X113390000Y-95100000D01*
X113401418Y-95042597D01*
X113433934Y-94993934D01*
X113482597Y-94961418D01*
X113540000Y-94950000D01*
X115190000Y-94950000D01*
X115247403Y-94961418D01*
G37*
G36*
X112921783Y-134715434D02*
G01*
X113000861Y-134768273D01*
X113053700Y-134847351D01*
X113072254Y-134940630D01*
X113072254Y-135428130D01*
X113053700Y-135521409D01*
X113000861Y-135600487D01*
X112921783Y-135653326D01*
X112828504Y-135671880D01*
X111916004Y-135671880D01*
X111822725Y-135653326D01*
X111743647Y-135600487D01*
X111690808Y-135521409D01*
X111672254Y-135428130D01*
X111672254Y-134940630D01*
X111690808Y-134847351D01*
X111743647Y-134768273D01*
X111822725Y-134715434D01*
X111916004Y-134696880D01*
X112828504Y-134696880D01*
X112921783Y-134715434D01*
G37*
G36*
X112921783Y-132840434D02*
G01*
X113000861Y-132893273D01*
X113053700Y-132972351D01*
X113072254Y-133065630D01*
X113072254Y-133553130D01*
X113053700Y-133646409D01*
X113000861Y-133725487D01*
X112921783Y-133778326D01*
X112828504Y-133796880D01*
X111916004Y-133796880D01*
X111822725Y-133778326D01*
X111743647Y-133725487D01*
X111690808Y-133646409D01*
X111672254Y-133553130D01*
X111672254Y-133065630D01*
X111690808Y-132972351D01*
X111743647Y-132893273D01*
X111822725Y-132840434D01*
X111916004Y-132821880D01*
X112828504Y-132821880D01*
X112921783Y-132840434D01*
G37*
G36*
X176991403Y-68313418D02*
G01*
X177040066Y-68345934D01*
X177072582Y-68394597D01*
X177084000Y-68452000D01*
X177084000Y-70102000D01*
X177072582Y-70159403D01*
X177040066Y-70208066D01*
X176991403Y-70240582D01*
X176934000Y-70252000D01*
X176634000Y-70252000D01*
X176576597Y-70240582D01*
X176527934Y-70208066D01*
X176495418Y-70159403D01*
X176484000Y-70102000D01*
X176484000Y-68452000D01*
X176495418Y-68394597D01*
X176527934Y-68345934D01*
X176576597Y-68313418D01*
X176634000Y-68302000D01*
X176934000Y-68302000D01*
X176991403Y-68313418D01*
G37*
G36*
X178261403Y-68313418D02*
G01*
X178310066Y-68345934D01*
X178342582Y-68394597D01*
X178354000Y-68452000D01*
X178354000Y-70102000D01*
X178342582Y-70159403D01*
X178310066Y-70208066D01*
X178261403Y-70240582D01*
X178204000Y-70252000D01*
X177904000Y-70252000D01*
X177846597Y-70240582D01*
X177797934Y-70208066D01*
X177765418Y-70159403D01*
X177754000Y-70102000D01*
X177754000Y-68452000D01*
X177765418Y-68394597D01*
X177797934Y-68345934D01*
X177846597Y-68313418D01*
X177904000Y-68302000D01*
X178204000Y-68302000D01*
X178261403Y-68313418D01*
G37*
G36*
X179531403Y-68313418D02*
G01*
X179580066Y-68345934D01*
X179612582Y-68394597D01*
X179624000Y-68452000D01*
X179624000Y-70102000D01*
X179612582Y-70159403D01*
X179580066Y-70208066D01*
X179531403Y-70240582D01*
X179474000Y-70252000D01*
X179174000Y-70252000D01*
X179116597Y-70240582D01*
X179067934Y-70208066D01*
X179035418Y-70159403D01*
X179024000Y-70102000D01*
X179024000Y-68452000D01*
X179035418Y-68394597D01*
X179067934Y-68345934D01*
X179116597Y-68313418D01*
X179174000Y-68302000D01*
X179474000Y-68302000D01*
X179531403Y-68313418D01*
G37*
G36*
X180801403Y-68313418D02*
G01*
X180850066Y-68345934D01*
X180882582Y-68394597D01*
X180894000Y-68452000D01*
X180894000Y-70102000D01*
X180882582Y-70159403D01*
X180850066Y-70208066D01*
X180801403Y-70240582D01*
X180744000Y-70252000D01*
X180444000Y-70252000D01*
X180386597Y-70240582D01*
X180337934Y-70208066D01*
X180305418Y-70159403D01*
X180294000Y-70102000D01*
X180294000Y-68452000D01*
X180305418Y-68394597D01*
X180337934Y-68345934D01*
X180386597Y-68313418D01*
X180444000Y-68302000D01*
X180744000Y-68302000D01*
X180801403Y-68313418D01*
G37*
G36*
X180801403Y-63363418D02*
G01*
X180850066Y-63395934D01*
X180882582Y-63444597D01*
X180894000Y-63502000D01*
X180894000Y-65152000D01*
X180882582Y-65209403D01*
X180850066Y-65258066D01*
X180801403Y-65290582D01*
X180744000Y-65302000D01*
X180444000Y-65302000D01*
X180386597Y-65290582D01*
X180337934Y-65258066D01*
X180305418Y-65209403D01*
X180294000Y-65152000D01*
X180294000Y-63502000D01*
X180305418Y-63444597D01*
X180337934Y-63395934D01*
X180386597Y-63363418D01*
X180444000Y-63352000D01*
X180744000Y-63352000D01*
X180801403Y-63363418D01*
G37*
G36*
X179531403Y-63363418D02*
G01*
X179580066Y-63395934D01*
X179612582Y-63444597D01*
X179624000Y-63502000D01*
X179624000Y-65152000D01*
X179612582Y-65209403D01*
X179580066Y-65258066D01*
X179531403Y-65290582D01*
X179474000Y-65302000D01*
X179174000Y-65302000D01*
X179116597Y-65290582D01*
X179067934Y-65258066D01*
X179035418Y-65209403D01*
X179024000Y-65152000D01*
X179024000Y-63502000D01*
X179035418Y-63444597D01*
X179067934Y-63395934D01*
X179116597Y-63363418D01*
X179174000Y-63352000D01*
X179474000Y-63352000D01*
X179531403Y-63363418D01*
G37*
G36*
X178261403Y-63363418D02*
G01*
X178310066Y-63395934D01*
X178342582Y-63444597D01*
X178354000Y-63502000D01*
X178354000Y-65152000D01*
X178342582Y-65209403D01*
X178310066Y-65258066D01*
X178261403Y-65290582D01*
X178204000Y-65302000D01*
X177904000Y-65302000D01*
X177846597Y-65290582D01*
X177797934Y-65258066D01*
X177765418Y-65209403D01*
X177754000Y-65152000D01*
X177754000Y-63502000D01*
X177765418Y-63444597D01*
X177797934Y-63395934D01*
X177846597Y-63363418D01*
X177904000Y-63352000D01*
X178204000Y-63352000D01*
X178261403Y-63363418D01*
G37*
G36*
X176991403Y-63363418D02*
G01*
X177040066Y-63395934D01*
X177072582Y-63444597D01*
X177084000Y-63502000D01*
X177084000Y-65152000D01*
X177072582Y-65209403D01*
X177040066Y-65258066D01*
X176991403Y-65290582D01*
X176934000Y-65302000D01*
X176634000Y-65302000D01*
X176576597Y-65290582D01*
X176527934Y-65258066D01*
X176495418Y-65209403D01*
X176484000Y-65152000D01*
X176484000Y-63502000D01*
X176495418Y-63444597D01*
X176527934Y-63395934D01*
X176576597Y-63363418D01*
X176634000Y-63352000D01*
X176934000Y-63352000D01*
X176991403Y-63363418D01*
G37*
G36*
X174954072Y-97632985D02*
G01*
X174975318Y-97647182D01*
X174989515Y-97668428D01*
X174994500Y-97693490D01*
X174994500Y-99552510D01*
X174989515Y-99577572D01*
X174975318Y-99598818D01*
X174954072Y-99613015D01*
X174929010Y-99618000D01*
X174469990Y-99618000D01*
X174444928Y-99613015D01*
X174423682Y-99598818D01*
X174409485Y-99577572D01*
X174404500Y-99552510D01*
X174404500Y-97693490D01*
X174409485Y-97668428D01*
X174423682Y-97647182D01*
X174444928Y-97632985D01*
X174469990Y-97628000D01*
X174929010Y-97628000D01*
X174954072Y-97632985D01*
G37*
G36*
X175604072Y-97632985D02*
G01*
X175625318Y-97647182D01*
X175639515Y-97668428D01*
X175644500Y-97693490D01*
X175644500Y-99552510D01*
X175639515Y-99577572D01*
X175625318Y-99598818D01*
X175604072Y-99613015D01*
X175579010Y-99618000D01*
X175119990Y-99618000D01*
X175094928Y-99613015D01*
X175073682Y-99598818D01*
X175059485Y-99577572D01*
X175054500Y-99552510D01*
X175054500Y-97693490D01*
X175059485Y-97668428D01*
X175073682Y-97647182D01*
X175094928Y-97632985D01*
X175119990Y-97628000D01*
X175579010Y-97628000D01*
X175604072Y-97632985D01*
G37*
G36*
X176254072Y-97632985D02*
G01*
X176275318Y-97647182D01*
X176289515Y-97668428D01*
X176294500Y-97693490D01*
X176294500Y-99552510D01*
X176289515Y-99577572D01*
X176275318Y-99598818D01*
X176254072Y-99613015D01*
X176229010Y-99618000D01*
X175769990Y-99618000D01*
X175744928Y-99613015D01*
X175723682Y-99598818D01*
X175709485Y-99577572D01*
X175704500Y-99552510D01*
X175704500Y-97693490D01*
X175709485Y-97668428D01*
X175723682Y-97647182D01*
X175744928Y-97632985D01*
X175769990Y-97628000D01*
X176229010Y-97628000D01*
X176254072Y-97632985D01*
G37*
G36*
X176904072Y-97632985D02*
G01*
X176925318Y-97647182D01*
X176939515Y-97668428D01*
X176944500Y-97693490D01*
X176944500Y-99552510D01*
X176939515Y-99577572D01*
X176925318Y-99598818D01*
X176904072Y-99613015D01*
X176879010Y-99618000D01*
X176419990Y-99618000D01*
X176394928Y-99613015D01*
X176373682Y-99598818D01*
X176359485Y-99577572D01*
X176354500Y-99552510D01*
X176354500Y-97693490D01*
X176359485Y-97668428D01*
X176373682Y-97647182D01*
X176394928Y-97632985D01*
X176419990Y-97628000D01*
X176879010Y-97628000D01*
X176904072Y-97632985D01*
G37*
G36*
X177554072Y-97632985D02*
G01*
X177575318Y-97647182D01*
X177589515Y-97668428D01*
X177594500Y-97693490D01*
X177594500Y-99552510D01*
X177589515Y-99577572D01*
X177575318Y-99598818D01*
X177554072Y-99613015D01*
X177529010Y-99618000D01*
X177069990Y-99618000D01*
X177044928Y-99613015D01*
X177023682Y-99598818D01*
X177009485Y-99577572D01*
X177004500Y-99552510D01*
X177004500Y-97693490D01*
X177009485Y-97668428D01*
X177023682Y-97647182D01*
X177044928Y-97632985D01*
X177069990Y-97628000D01*
X177529010Y-97628000D01*
X177554072Y-97632985D01*
G37*
G36*
X178204072Y-97632985D02*
G01*
X178225318Y-97647182D01*
X178239515Y-97668428D01*
X178244500Y-97693490D01*
X178244500Y-99552510D01*
X178239515Y-99577572D01*
X178225318Y-99598818D01*
X178204072Y-99613015D01*
X178179010Y-99618000D01*
X177719990Y-99618000D01*
X177694928Y-99613015D01*
X177673682Y-99598818D01*
X177659485Y-99577572D01*
X177654500Y-99552510D01*
X177654500Y-97693490D01*
X177659485Y-97668428D01*
X177673682Y-97647182D01*
X177694928Y-97632985D01*
X177719990Y-97628000D01*
X178179010Y-97628000D01*
X178204072Y-97632985D01*
G37*
G36*
X178854072Y-97632985D02*
G01*
X178875318Y-97647182D01*
X178889515Y-97668428D01*
X178894500Y-97693490D01*
X178894500Y-99552510D01*
X178889515Y-99577572D01*
X178875318Y-99598818D01*
X178854072Y-99613015D01*
X178829010Y-99618000D01*
X178369990Y-99618000D01*
X178344928Y-99613015D01*
X178323682Y-99598818D01*
X178309485Y-99577572D01*
X178304500Y-99552510D01*
X178304500Y-97693490D01*
X178309485Y-97668428D01*
X178323682Y-97647182D01*
X178344928Y-97632985D01*
X178369990Y-97628000D01*
X178829010Y-97628000D01*
X178854072Y-97632985D01*
G37*
G36*
X179504072Y-97632985D02*
G01*
X179525318Y-97647182D01*
X179539515Y-97668428D01*
X179544500Y-97693490D01*
X179544500Y-99552510D01*
X179539515Y-99577572D01*
X179525318Y-99598818D01*
X179504072Y-99613015D01*
X179479010Y-99618000D01*
X179019990Y-99618000D01*
X178994928Y-99613015D01*
X178973682Y-99598818D01*
X178959485Y-99577572D01*
X178954500Y-99552510D01*
X178954500Y-97693490D01*
X178959485Y-97668428D01*
X178973682Y-97647182D01*
X178994928Y-97632985D01*
X179019990Y-97628000D01*
X179479010Y-97628000D01*
X179504072Y-97632985D01*
G37*
G36*
X180154072Y-97632985D02*
G01*
X180175318Y-97647182D01*
X180189515Y-97668428D01*
X180194500Y-97693490D01*
X180194500Y-99552510D01*
X180189515Y-99577572D01*
X180175318Y-99598818D01*
X180154072Y-99613015D01*
X180129010Y-99618000D01*
X179669990Y-99618000D01*
X179644928Y-99613015D01*
X179623682Y-99598818D01*
X179609485Y-99577572D01*
X179604500Y-99552510D01*
X179604500Y-97693490D01*
X179609485Y-97668428D01*
X179623682Y-97647182D01*
X179644928Y-97632985D01*
X179669990Y-97628000D01*
X180129010Y-97628000D01*
X180154072Y-97632985D01*
G37*
G36*
X180804072Y-97632985D02*
G01*
X180825318Y-97647182D01*
X180839515Y-97668428D01*
X180844500Y-97693490D01*
X180844500Y-99552510D01*
X180839515Y-99577572D01*
X180825318Y-99598818D01*
X180804072Y-99613015D01*
X180779010Y-99618000D01*
X180319990Y-99618000D01*
X180294928Y-99613015D01*
X180273682Y-99598818D01*
X180259485Y-99577572D01*
X180254500Y-99552510D01*
X180254500Y-97693490D01*
X180259485Y-97668428D01*
X180273682Y-97647182D01*
X180294928Y-97632985D01*
X180319990Y-97628000D01*
X180779010Y-97628000D01*
X180804072Y-97632985D01*
G37*
G36*
X180804072Y-90632985D02*
G01*
X180825318Y-90647182D01*
X180839515Y-90668428D01*
X180844500Y-90693490D01*
X180844500Y-92552510D01*
X180839515Y-92577572D01*
X180825318Y-92598818D01*
X180804072Y-92613015D01*
X180779010Y-92618000D01*
X180319990Y-92618000D01*
X180294928Y-92613015D01*
X180273682Y-92598818D01*
X180259485Y-92577572D01*
X180254500Y-92552510D01*
X180254500Y-90693490D01*
X180259485Y-90668428D01*
X180273682Y-90647182D01*
X180294928Y-90632985D01*
X180319990Y-90628000D01*
X180779010Y-90628000D01*
X180804072Y-90632985D01*
G37*
G36*
X180154072Y-90632985D02*
G01*
X180175318Y-90647182D01*
X180189515Y-90668428D01*
X180194500Y-90693490D01*
X180194500Y-92552510D01*
X180189515Y-92577572D01*
X180175318Y-92598818D01*
X180154072Y-92613015D01*
X180129010Y-92618000D01*
X179669990Y-92618000D01*
X179644928Y-92613015D01*
X179623682Y-92598818D01*
X179609485Y-92577572D01*
X179604500Y-92552510D01*
X179604500Y-90693490D01*
X179609485Y-90668428D01*
X179623682Y-90647182D01*
X179644928Y-90632985D01*
X179669990Y-90628000D01*
X180129010Y-90628000D01*
X180154072Y-90632985D01*
G37*
G36*
X179504072Y-90632985D02*
G01*
X179525318Y-90647182D01*
X179539515Y-90668428D01*
X179544500Y-90693490D01*
X179544500Y-92552510D01*
X179539515Y-92577572D01*
X179525318Y-92598818D01*
X179504072Y-92613015D01*
X179479010Y-92618000D01*
X179019990Y-92618000D01*
X178994928Y-92613015D01*
X178973682Y-92598818D01*
X178959485Y-92577572D01*
X178954500Y-92552510D01*
X178954500Y-90693490D01*
X178959485Y-90668428D01*
X178973682Y-90647182D01*
X178994928Y-90632985D01*
X179019990Y-90628000D01*
X179479010Y-90628000D01*
X179504072Y-90632985D01*
G37*
G36*
X178854072Y-90632985D02*
G01*
X178875318Y-90647182D01*
X178889515Y-90668428D01*
X178894500Y-90693490D01*
X178894500Y-92552510D01*
X178889515Y-92577572D01*
X178875318Y-92598818D01*
X178854072Y-92613015D01*
X178829010Y-92618000D01*
X178369990Y-92618000D01*
X178344928Y-92613015D01*
X178323682Y-92598818D01*
X178309485Y-92577572D01*
X178304500Y-92552510D01*
X178304500Y-90693490D01*
X178309485Y-90668428D01*
X178323682Y-90647182D01*
X178344928Y-90632985D01*
X178369990Y-90628000D01*
X178829010Y-90628000D01*
X178854072Y-90632985D01*
G37*
G36*
X178204072Y-90632985D02*
G01*
X178225318Y-90647182D01*
X178239515Y-90668428D01*
X178244500Y-90693490D01*
X178244500Y-92552510D01*
X178239515Y-92577572D01*
X178225318Y-92598818D01*
X178204072Y-92613015D01*
X178179010Y-92618000D01*
X177719990Y-92618000D01*
X177694928Y-92613015D01*
X177673682Y-92598818D01*
X177659485Y-92577572D01*
X177654500Y-92552510D01*
X177654500Y-90693490D01*
X177659485Y-90668428D01*
X177673682Y-90647182D01*
X177694928Y-90632985D01*
X177719990Y-90628000D01*
X178179010Y-90628000D01*
X178204072Y-90632985D01*
G37*
G36*
X177554072Y-90632985D02*
G01*
X177575318Y-90647182D01*
X177589515Y-90668428D01*
X177594500Y-90693490D01*
X177594500Y-92552510D01*
X177589515Y-92577572D01*
X177575318Y-92598818D01*
X177554072Y-92613015D01*
X177529010Y-92618000D01*
X177069990Y-92618000D01*
X177044928Y-92613015D01*
X177023682Y-92598818D01*
X177009485Y-92577572D01*
X177004500Y-92552510D01*
X177004500Y-90693490D01*
X177009485Y-90668428D01*
X177023682Y-90647182D01*
X177044928Y-90632985D01*
X177069990Y-90628000D01*
X177529010Y-90628000D01*
X177554072Y-90632985D01*
G37*
G36*
X176904072Y-90632985D02*
G01*
X176925318Y-90647182D01*
X176939515Y-90668428D01*
X176944500Y-90693490D01*
X176944500Y-92552510D01*
X176939515Y-92577572D01*
X176925318Y-92598818D01*
X176904072Y-92613015D01*
X176879010Y-92618000D01*
X176419990Y-92618000D01*
X176394928Y-92613015D01*
X176373682Y-92598818D01*
X176359485Y-92577572D01*
X176354500Y-92552510D01*
X176354500Y-90693490D01*
X176359485Y-90668428D01*
X176373682Y-90647182D01*
X176394928Y-90632985D01*
X176419990Y-90628000D01*
X176879010Y-90628000D01*
X176904072Y-90632985D01*
G37*
G36*
X176254072Y-90632985D02*
G01*
X176275318Y-90647182D01*
X176289515Y-90668428D01*
X176294500Y-90693490D01*
X176294500Y-92552510D01*
X176289515Y-92577572D01*
X176275318Y-92598818D01*
X176254072Y-92613015D01*
X176229010Y-92618000D01*
X175769990Y-92618000D01*
X175744928Y-92613015D01*
X175723682Y-92598818D01*
X175709485Y-92577572D01*
X175704500Y-92552510D01*
X175704500Y-90693490D01*
X175709485Y-90668428D01*
X175723682Y-90647182D01*
X175744928Y-90632985D01*
X175769990Y-90628000D01*
X176229010Y-90628000D01*
X176254072Y-90632985D01*
G37*
G36*
X175604072Y-90632985D02*
G01*
X175625318Y-90647182D01*
X175639515Y-90668428D01*
X175644500Y-90693490D01*
X175644500Y-92552510D01*
X175639515Y-92577572D01*
X175625318Y-92598818D01*
X175604072Y-92613015D01*
X175579010Y-92618000D01*
X175119990Y-92618000D01*
X175094928Y-92613015D01*
X175073682Y-92598818D01*
X175059485Y-92577572D01*
X175054500Y-92552510D01*
X175054500Y-90693490D01*
X175059485Y-90668428D01*
X175073682Y-90647182D01*
X175094928Y-90632985D01*
X175119990Y-90628000D01*
X175579010Y-90628000D01*
X175604072Y-90632985D01*
G37*
G36*
X174954072Y-90632985D02*
G01*
X174975318Y-90647182D01*
X174989515Y-90668428D01*
X174994500Y-90693490D01*
X174994500Y-92552510D01*
X174989515Y-92577572D01*
X174975318Y-92598818D01*
X174954072Y-92613015D01*
X174929010Y-92618000D01*
X174469990Y-92618000D01*
X174444928Y-92613015D01*
X174423682Y-92598818D01*
X174409485Y-92577572D01*
X174404500Y-92552510D01*
X174404500Y-90693490D01*
X174409485Y-90668428D01*
X174423682Y-90647182D01*
X174444928Y-90632985D01*
X174469990Y-90628000D01*
X174929010Y-90628000D01*
X174954072Y-90632985D01*
G37*
D22*
X92710000Y-57150000D03*
X92710000Y-148590000D03*
X184150000Y-57150000D03*
X184150000Y-148590000D03*
G36*
X115461783Y-134715434D02*
G01*
X115540861Y-134768273D01*
X115593700Y-134847351D01*
X115612254Y-134940630D01*
X115612254Y-135428130D01*
X115593700Y-135521409D01*
X115540861Y-135600487D01*
X115461783Y-135653326D01*
X115368504Y-135671880D01*
X114456004Y-135671880D01*
X114362725Y-135653326D01*
X114283647Y-135600487D01*
X114230808Y-135521409D01*
X114212254Y-135428130D01*
X114212254Y-134940630D01*
X114230808Y-134847351D01*
X114283647Y-134768273D01*
X114362725Y-134715434D01*
X114456004Y-134696880D01*
X115368504Y-134696880D01*
X115461783Y-134715434D01*
G37*
G36*
X115461783Y-132840434D02*
G01*
X115540861Y-132893273D01*
X115593700Y-132972351D01*
X115612254Y-133065630D01*
X115612254Y-133553130D01*
X115593700Y-133646409D01*
X115540861Y-133725487D01*
X115461783Y-133778326D01*
X115368504Y-133796880D01*
X114456004Y-133796880D01*
X114362725Y-133778326D01*
X114283647Y-133725487D01*
X114230808Y-133646409D01*
X114212254Y-133553130D01*
X114212254Y-133065630D01*
X114230808Y-132972351D01*
X114283647Y-132893273D01*
X114362725Y-132840434D01*
X114456004Y-132821880D01*
X115368504Y-132821880D01*
X115461783Y-132840434D01*
G37*
G36*
X178490403Y-134458418D02*
G01*
X178539066Y-134490934D01*
X178571582Y-134539597D01*
X178583000Y-134597000D01*
X178583000Y-134897000D01*
X178571582Y-134954403D01*
X178539066Y-135003066D01*
X178490403Y-135035582D01*
X178433000Y-135047000D01*
X176783000Y-135047000D01*
X176725597Y-135035582D01*
X176676934Y-135003066D01*
X176644418Y-134954403D01*
X176633000Y-134897000D01*
X176633000Y-134597000D01*
X176644418Y-134539597D01*
X176676934Y-134490934D01*
X176725597Y-134458418D01*
X176783000Y-134447000D01*
X178433000Y-134447000D01*
X178490403Y-134458418D01*
G37*
G36*
X178490403Y-133188418D02*
G01*
X178539066Y-133220934D01*
X178571582Y-133269597D01*
X178583000Y-133327000D01*
X178583000Y-133627000D01*
X178571582Y-133684403D01*
X178539066Y-133733066D01*
X178490403Y-133765582D01*
X178433000Y-133777000D01*
X176783000Y-133777000D01*
X176725597Y-133765582D01*
X176676934Y-133733066D01*
X176644418Y-133684403D01*
X176633000Y-133627000D01*
X176633000Y-133327000D01*
X176644418Y-133269597D01*
X176676934Y-133220934D01*
X176725597Y-133188418D01*
X176783000Y-133177000D01*
X178433000Y-133177000D01*
X178490403Y-133188418D01*
G37*
G36*
X178490403Y-131918418D02*
G01*
X178539066Y-131950934D01*
X178571582Y-131999597D01*
X178583000Y-132057000D01*
X178583000Y-132357000D01*
X178571582Y-132414403D01*
X178539066Y-132463066D01*
X178490403Y-132495582D01*
X178433000Y-132507000D01*
X176783000Y-132507000D01*
X176725597Y-132495582D01*
X176676934Y-132463066D01*
X176644418Y-132414403D01*
X176633000Y-132357000D01*
X176633000Y-132057000D01*
X176644418Y-131999597D01*
X176676934Y-131950934D01*
X176725597Y-131918418D01*
X176783000Y-131907000D01*
X178433000Y-131907000D01*
X178490403Y-131918418D01*
G37*
G36*
X178490403Y-130648418D02*
G01*
X178539066Y-130680934D01*
X178571582Y-130729597D01*
X178583000Y-130787000D01*
X178583000Y-131087000D01*
X178571582Y-131144403D01*
X178539066Y-131193066D01*
X178490403Y-131225582D01*
X178433000Y-131237000D01*
X176783000Y-131237000D01*
X176725597Y-131225582D01*
X176676934Y-131193066D01*
X176644418Y-131144403D01*
X176633000Y-131087000D01*
X176633000Y-130787000D01*
X176644418Y-130729597D01*
X176676934Y-130680934D01*
X176725597Y-130648418D01*
X176783000Y-130637000D01*
X178433000Y-130637000D01*
X178490403Y-130648418D01*
G37*
G36*
X173540403Y-130648418D02*
G01*
X173589066Y-130680934D01*
X173621582Y-130729597D01*
X173633000Y-130787000D01*
X173633000Y-131087000D01*
X173621582Y-131144403D01*
X173589066Y-131193066D01*
X173540403Y-131225582D01*
X173483000Y-131237000D01*
X171833000Y-131237000D01*
X171775597Y-131225582D01*
X171726934Y-131193066D01*
X171694418Y-131144403D01*
X171683000Y-131087000D01*
X171683000Y-130787000D01*
X171694418Y-130729597D01*
X171726934Y-130680934D01*
X171775597Y-130648418D01*
X171833000Y-130637000D01*
X173483000Y-130637000D01*
X173540403Y-130648418D01*
G37*
G36*
X173540403Y-131918418D02*
G01*
X173589066Y-131950934D01*
X173621582Y-131999597D01*
X173633000Y-132057000D01*
X173633000Y-132357000D01*
X173621582Y-132414403D01*
X173589066Y-132463066D01*
X173540403Y-132495582D01*
X173483000Y-132507000D01*
X171833000Y-132507000D01*
X171775597Y-132495582D01*
X171726934Y-132463066D01*
X171694418Y-132414403D01*
X171683000Y-132357000D01*
X171683000Y-132057000D01*
X171694418Y-131999597D01*
X171726934Y-131950934D01*
X171775597Y-131918418D01*
X171833000Y-131907000D01*
X173483000Y-131907000D01*
X173540403Y-131918418D01*
G37*
G36*
X173540403Y-133188418D02*
G01*
X173589066Y-133220934D01*
X173621582Y-133269597D01*
X173633000Y-133327000D01*
X173633000Y-133627000D01*
X173621582Y-133684403D01*
X173589066Y-133733066D01*
X173540403Y-133765582D01*
X173483000Y-133777000D01*
X171833000Y-133777000D01*
X171775597Y-133765582D01*
X171726934Y-133733066D01*
X171694418Y-133684403D01*
X171683000Y-133627000D01*
X171683000Y-133327000D01*
X171694418Y-133269597D01*
X171726934Y-133220934D01*
X171775597Y-133188418D01*
X171833000Y-133177000D01*
X173483000Y-133177000D01*
X173540403Y-133188418D01*
G37*
G36*
X173540403Y-134458418D02*
G01*
X173589066Y-134490934D01*
X173621582Y-134539597D01*
X173633000Y-134597000D01*
X173633000Y-134897000D01*
X173621582Y-134954403D01*
X173589066Y-135003066D01*
X173540403Y-135035582D01*
X173483000Y-135047000D01*
X171833000Y-135047000D01*
X171775597Y-135035582D01*
X171726934Y-135003066D01*
X171694418Y-134954403D01*
X171683000Y-134897000D01*
X171683000Y-134597000D01*
X171694418Y-134539597D01*
X171726934Y-134490934D01*
X171775597Y-134458418D01*
X171833000Y-134447000D01*
X173483000Y-134447000D01*
X173540403Y-134458418D01*
G37*
G36*
X155736529Y-131525554D02*
G01*
X155815607Y-131578393D01*
X155868446Y-131657471D01*
X155887000Y-131750750D01*
X155887000Y-132663250D01*
X155868446Y-132756529D01*
X155815607Y-132835607D01*
X155736529Y-132888446D01*
X155643250Y-132907000D01*
X155155750Y-132907000D01*
X155062471Y-132888446D01*
X154983393Y-132835607D01*
X154930554Y-132756529D01*
X154912000Y-132663250D01*
X154912000Y-131750750D01*
X154930554Y-131657471D01*
X154983393Y-131578393D01*
X155062471Y-131525554D01*
X155155750Y-131507000D01*
X155643250Y-131507000D01*
X155736529Y-131525554D01*
G37*
G36*
X157611529Y-131525554D02*
G01*
X157690607Y-131578393D01*
X157743446Y-131657471D01*
X157762000Y-131750750D01*
X157762000Y-132663250D01*
X157743446Y-132756529D01*
X157690607Y-132835607D01*
X157611529Y-132888446D01*
X157518250Y-132907000D01*
X157030750Y-132907000D01*
X156937471Y-132888446D01*
X156858393Y-132835607D01*
X156805554Y-132756529D01*
X156787000Y-132663250D01*
X156787000Y-131750750D01*
X156805554Y-131657471D01*
X156858393Y-131578393D01*
X156937471Y-131525554D01*
X157030750Y-131507000D01*
X157518250Y-131507000D01*
X157611529Y-131525554D01*
G37*
G36*
X123956529Y-95330554D02*
G01*
X124035607Y-95383393D01*
X124088446Y-95462471D01*
X124107000Y-95555750D01*
X124107000Y-96468250D01*
X124088446Y-96561529D01*
X124035607Y-96640607D01*
X123956529Y-96693446D01*
X123863250Y-96712000D01*
X123375750Y-96712000D01*
X123282471Y-96693446D01*
X123203393Y-96640607D01*
X123150554Y-96561529D01*
X123132000Y-96468250D01*
X123132000Y-95555750D01*
X123150554Y-95462471D01*
X123203393Y-95383393D01*
X123282471Y-95330554D01*
X123375750Y-95312000D01*
X123863250Y-95312000D01*
X123956529Y-95330554D01*
G37*
G36*
X122081529Y-95330554D02*
G01*
X122160607Y-95383393D01*
X122213446Y-95462471D01*
X122232000Y-95555750D01*
X122232000Y-96468250D01*
X122213446Y-96561529D01*
X122160607Y-96640607D01*
X122081529Y-96693446D01*
X121988250Y-96712000D01*
X121500750Y-96712000D01*
X121407471Y-96693446D01*
X121328393Y-96640607D01*
X121275554Y-96561529D01*
X121257000Y-96468250D01*
X121257000Y-95555750D01*
X121275554Y-95462471D01*
X121328393Y-95383393D01*
X121407471Y-95330554D01*
X121500750Y-95312000D01*
X121988250Y-95312000D01*
X122081529Y-95330554D01*
G37*
G36*
X122081529Y-93044554D02*
G01*
X122160607Y-93097393D01*
X122213446Y-93176471D01*
X122232000Y-93269750D01*
X122232000Y-94182250D01*
X122213446Y-94275529D01*
X122160607Y-94354607D01*
X122081529Y-94407446D01*
X121988250Y-94426000D01*
X121500750Y-94426000D01*
X121407471Y-94407446D01*
X121328393Y-94354607D01*
X121275554Y-94275529D01*
X121257000Y-94182250D01*
X121257000Y-93269750D01*
X121275554Y-93176471D01*
X121328393Y-93097393D01*
X121407471Y-93044554D01*
X121500750Y-93026000D01*
X121988250Y-93026000D01*
X122081529Y-93044554D01*
G37*
G36*
X123956529Y-93044554D02*
G01*
X124035607Y-93097393D01*
X124088446Y-93176471D01*
X124107000Y-93269750D01*
X124107000Y-94182250D01*
X124088446Y-94275529D01*
X124035607Y-94354607D01*
X123956529Y-94407446D01*
X123863250Y-94426000D01*
X123375750Y-94426000D01*
X123282471Y-94407446D01*
X123203393Y-94354607D01*
X123150554Y-94275529D01*
X123132000Y-94182250D01*
X123132000Y-93269750D01*
X123150554Y-93176471D01*
X123203393Y-93097393D01*
X123282471Y-93044554D01*
X123375750Y-93026000D01*
X123863250Y-93026000D01*
X123956529Y-93044554D01*
G37*
G36*
X112272529Y-95203554D02*
G01*
X112351607Y-95256393D01*
X112404446Y-95335471D01*
X112423000Y-95428750D01*
X112423000Y-96341250D01*
X112404446Y-96434529D01*
X112351607Y-96513607D01*
X112272529Y-96566446D01*
X112179250Y-96585000D01*
X111691750Y-96585000D01*
X111598471Y-96566446D01*
X111519393Y-96513607D01*
X111466554Y-96434529D01*
X111448000Y-96341250D01*
X111448000Y-95428750D01*
X111466554Y-95335471D01*
X111519393Y-95256393D01*
X111598471Y-95203554D01*
X111691750Y-95185000D01*
X112179250Y-95185000D01*
X112272529Y-95203554D01*
G37*
G36*
X110397529Y-95203554D02*
G01*
X110476607Y-95256393D01*
X110529446Y-95335471D01*
X110548000Y-95428750D01*
X110548000Y-96341250D01*
X110529446Y-96434529D01*
X110476607Y-96513607D01*
X110397529Y-96566446D01*
X110304250Y-96585000D01*
X109816750Y-96585000D01*
X109723471Y-96566446D01*
X109644393Y-96513607D01*
X109591554Y-96434529D01*
X109573000Y-96341250D01*
X109573000Y-95428750D01*
X109591554Y-95335471D01*
X109644393Y-95256393D01*
X109723471Y-95203554D01*
X109816750Y-95185000D01*
X110304250Y-95185000D01*
X110397529Y-95203554D01*
G37*
G36*
X112272529Y-93044554D02*
G01*
X112351607Y-93097393D01*
X112404446Y-93176471D01*
X112423000Y-93269750D01*
X112423000Y-94182250D01*
X112404446Y-94275529D01*
X112351607Y-94354607D01*
X112272529Y-94407446D01*
X112179250Y-94426000D01*
X111691750Y-94426000D01*
X111598471Y-94407446D01*
X111519393Y-94354607D01*
X111466554Y-94275529D01*
X111448000Y-94182250D01*
X111448000Y-93269750D01*
X111466554Y-93176471D01*
X111519393Y-93097393D01*
X111598471Y-93044554D01*
X111691750Y-93026000D01*
X112179250Y-93026000D01*
X112272529Y-93044554D01*
G37*
G36*
X110397529Y-93044554D02*
G01*
X110476607Y-93097393D01*
X110529446Y-93176471D01*
X110548000Y-93269750D01*
X110548000Y-94182250D01*
X110529446Y-94275529D01*
X110476607Y-94354607D01*
X110397529Y-94407446D01*
X110304250Y-94426000D01*
X109816750Y-94426000D01*
X109723471Y-94407446D01*
X109644393Y-94354607D01*
X109591554Y-94275529D01*
X109573000Y-94182250D01*
X109573000Y-93269750D01*
X109591554Y-93176471D01*
X109644393Y-93097393D01*
X109723471Y-93044554D01*
X109816750Y-93026000D01*
X110304250Y-93026000D01*
X110397529Y-93044554D01*
G37*
G36*
X110397529Y-101680554D02*
G01*
X110476607Y-101733393D01*
X110529446Y-101812471D01*
X110548000Y-101905750D01*
X110548000Y-102818250D01*
X110529446Y-102911529D01*
X110476607Y-102990607D01*
X110397529Y-103043446D01*
X110304250Y-103062000D01*
X109816750Y-103062000D01*
X109723471Y-103043446D01*
X109644393Y-102990607D01*
X109591554Y-102911529D01*
X109573000Y-102818250D01*
X109573000Y-101905750D01*
X109591554Y-101812471D01*
X109644393Y-101733393D01*
X109723471Y-101680554D01*
X109816750Y-101662000D01*
X110304250Y-101662000D01*
X110397529Y-101680554D01*
G37*
G36*
X112272529Y-101680554D02*
G01*
X112351607Y-101733393D01*
X112404446Y-101812471D01*
X112423000Y-101905750D01*
X112423000Y-102818250D01*
X112404446Y-102911529D01*
X112351607Y-102990607D01*
X112272529Y-103043446D01*
X112179250Y-103062000D01*
X111691750Y-103062000D01*
X111598471Y-103043446D01*
X111519393Y-102990607D01*
X111466554Y-102911529D01*
X111448000Y-102818250D01*
X111448000Y-101905750D01*
X111466554Y-101812471D01*
X111519393Y-101733393D01*
X111598471Y-101680554D01*
X111691750Y-101662000D01*
X112179250Y-101662000D01*
X112272529Y-101680554D01*
G37*
G36*
X114207529Y-101680554D02*
G01*
X114286607Y-101733393D01*
X114339446Y-101812471D01*
X114358000Y-101905750D01*
X114358000Y-102818250D01*
X114339446Y-102911529D01*
X114286607Y-102990607D01*
X114207529Y-103043446D01*
X114114250Y-103062000D01*
X113626750Y-103062000D01*
X113533471Y-103043446D01*
X113454393Y-102990607D01*
X113401554Y-102911529D01*
X113383000Y-102818250D01*
X113383000Y-101905750D01*
X113401554Y-101812471D01*
X113454393Y-101733393D01*
X113533471Y-101680554D01*
X113626750Y-101662000D01*
X114114250Y-101662000D01*
X114207529Y-101680554D01*
G37*
G36*
X116082529Y-101680554D02*
G01*
X116161607Y-101733393D01*
X116214446Y-101812471D01*
X116233000Y-101905750D01*
X116233000Y-102818250D01*
X116214446Y-102911529D01*
X116161607Y-102990607D01*
X116082529Y-103043446D01*
X115989250Y-103062000D01*
X115501750Y-103062000D01*
X115408471Y-103043446D01*
X115329393Y-102990607D01*
X115276554Y-102911529D01*
X115258000Y-102818250D01*
X115258000Y-101905750D01*
X115276554Y-101812471D01*
X115329393Y-101733393D01*
X115408471Y-101680554D01*
X115501750Y-101662000D01*
X115989250Y-101662000D01*
X116082529Y-101680554D01*
G37*
G36*
X110270529Y-83519554D02*
G01*
X110349607Y-83572393D01*
X110402446Y-83651471D01*
X110421000Y-83744750D01*
X110421000Y-84657250D01*
X110402446Y-84750529D01*
X110349607Y-84829607D01*
X110270529Y-84882446D01*
X110177250Y-84901000D01*
X109689750Y-84901000D01*
X109596471Y-84882446D01*
X109517393Y-84829607D01*
X109464554Y-84750529D01*
X109446000Y-84657250D01*
X109446000Y-83744750D01*
X109464554Y-83651471D01*
X109517393Y-83572393D01*
X109596471Y-83519554D01*
X109689750Y-83501000D01*
X110177250Y-83501000D01*
X110270529Y-83519554D01*
G37*
G36*
X112145529Y-83519554D02*
G01*
X112224607Y-83572393D01*
X112277446Y-83651471D01*
X112296000Y-83744750D01*
X112296000Y-84657250D01*
X112277446Y-84750529D01*
X112224607Y-84829607D01*
X112145529Y-84882446D01*
X112052250Y-84901000D01*
X111564750Y-84901000D01*
X111471471Y-84882446D01*
X111392393Y-84829607D01*
X111339554Y-84750529D01*
X111321000Y-84657250D01*
X111321000Y-83744750D01*
X111339554Y-83651471D01*
X111392393Y-83572393D01*
X111471471Y-83519554D01*
X111564750Y-83501000D01*
X112052250Y-83501000D01*
X112145529Y-83519554D01*
G37*
G36*
X175555529Y-117943554D02*
G01*
X175634607Y-117996393D01*
X175687446Y-118075471D01*
X175706000Y-118168750D01*
X175706000Y-118656250D01*
X175687446Y-118749529D01*
X175634607Y-118828607D01*
X175555529Y-118881446D01*
X175462250Y-118900000D01*
X174549750Y-118900000D01*
X174456471Y-118881446D01*
X174377393Y-118828607D01*
X174324554Y-118749529D01*
X174306000Y-118656250D01*
X174306000Y-118168750D01*
X174324554Y-118075471D01*
X174377393Y-117996393D01*
X174456471Y-117943554D01*
X174549750Y-117925000D01*
X175462250Y-117925000D01*
X175555529Y-117943554D01*
G37*
G36*
X175555529Y-116068554D02*
G01*
X175634607Y-116121393D01*
X175687446Y-116200471D01*
X175706000Y-116293750D01*
X175706000Y-116781250D01*
X175687446Y-116874529D01*
X175634607Y-116953607D01*
X175555529Y-117006446D01*
X175462250Y-117025000D01*
X174549750Y-117025000D01*
X174456471Y-117006446D01*
X174377393Y-116953607D01*
X174324554Y-116874529D01*
X174306000Y-116781250D01*
X174306000Y-116293750D01*
X174324554Y-116200471D01*
X174377393Y-116121393D01*
X174456471Y-116068554D01*
X174549750Y-116050000D01*
X175462250Y-116050000D01*
X175555529Y-116068554D01*
G37*
G36*
X122081529Y-88713854D02*
G01*
X122160607Y-88766693D01*
X122213446Y-88845771D01*
X122232000Y-88939050D01*
X122232000Y-89851550D01*
X122213446Y-89944829D01*
X122160607Y-90023907D01*
X122081529Y-90076746D01*
X121988250Y-90095300D01*
X121500750Y-90095300D01*
X121407471Y-90076746D01*
X121328393Y-90023907D01*
X121275554Y-89944829D01*
X121257000Y-89851550D01*
X121257000Y-88939050D01*
X121275554Y-88845771D01*
X121328393Y-88766693D01*
X121407471Y-88713854D01*
X121500750Y-88695300D01*
X121988250Y-88695300D01*
X122081529Y-88713854D01*
G37*
G36*
X123956529Y-88713854D02*
G01*
X124035607Y-88766693D01*
X124088446Y-88845771D01*
X124107000Y-88939050D01*
X124107000Y-89851550D01*
X124088446Y-89944829D01*
X124035607Y-90023907D01*
X123956529Y-90076746D01*
X123863250Y-90095300D01*
X123375750Y-90095300D01*
X123282471Y-90076746D01*
X123203393Y-90023907D01*
X123150554Y-89944829D01*
X123132000Y-89851550D01*
X123132000Y-88939050D01*
X123150554Y-88845771D01*
X123203393Y-88766693D01*
X123282471Y-88713854D01*
X123375750Y-88695300D01*
X123863250Y-88695300D01*
X123956529Y-88713854D01*
G37*
G36*
X170692529Y-132160554D02*
G01*
X170771607Y-132213393D01*
X170824446Y-132292471D01*
X170843000Y-132385750D01*
X170843000Y-133298250D01*
X170824446Y-133391529D01*
X170771607Y-133470607D01*
X170692529Y-133523446D01*
X170599250Y-133542000D01*
X170111750Y-133542000D01*
X170018471Y-133523446D01*
X169939393Y-133470607D01*
X169886554Y-133391529D01*
X169868000Y-133298250D01*
X169868000Y-132385750D01*
X169886554Y-132292471D01*
X169939393Y-132213393D01*
X170018471Y-132160554D01*
X170111750Y-132142000D01*
X170599250Y-132142000D01*
X170692529Y-132160554D01*
G37*
G36*
X168817529Y-132160554D02*
G01*
X168896607Y-132213393D01*
X168949446Y-132292471D01*
X168968000Y-132385750D01*
X168968000Y-133298250D01*
X168949446Y-133391529D01*
X168896607Y-133470607D01*
X168817529Y-133523446D01*
X168724250Y-133542000D01*
X168236750Y-133542000D01*
X168143471Y-133523446D01*
X168064393Y-133470607D01*
X168011554Y-133391529D01*
X167993000Y-133298250D01*
X167993000Y-132385750D01*
X168011554Y-132292471D01*
X168064393Y-132213393D01*
X168143471Y-132160554D01*
X168236750Y-132142000D01*
X168724250Y-132142000D01*
X168817529Y-132160554D01*
G37*
G36*
X180374529Y-132668554D02*
G01*
X180453607Y-132721393D01*
X180506446Y-132800471D01*
X180525000Y-132893750D01*
X180525000Y-133806250D01*
X180506446Y-133899529D01*
X180453607Y-133978607D01*
X180374529Y-134031446D01*
X180281250Y-134050000D01*
X179793750Y-134050000D01*
X179700471Y-134031446D01*
X179621393Y-133978607D01*
X179568554Y-133899529D01*
X179550000Y-133806250D01*
X179550000Y-132893750D01*
X179568554Y-132800471D01*
X179621393Y-132721393D01*
X179700471Y-132668554D01*
X179793750Y-132650000D01*
X180281250Y-132650000D01*
X180374529Y-132668554D01*
G37*
G36*
X182249529Y-132668554D02*
G01*
X182328607Y-132721393D01*
X182381446Y-132800471D01*
X182400000Y-132893750D01*
X182400000Y-133806250D01*
X182381446Y-133899529D01*
X182328607Y-133978607D01*
X182249529Y-134031446D01*
X182156250Y-134050000D01*
X181668750Y-134050000D01*
X181575471Y-134031446D01*
X181496393Y-133978607D01*
X181443554Y-133899529D01*
X181425000Y-133806250D01*
X181425000Y-132893750D01*
X181443554Y-132800471D01*
X181496393Y-132721393D01*
X181575471Y-132668554D01*
X181668750Y-132650000D01*
X182156250Y-132650000D01*
X182249529Y-132668554D01*
G37*
G36*
X164850529Y-147908554D02*
G01*
X164929607Y-147961393D01*
X164982446Y-148040471D01*
X165001000Y-148133750D01*
X165001000Y-149046250D01*
X164982446Y-149139529D01*
X164929607Y-149218607D01*
X164850529Y-149271446D01*
X164757250Y-149290000D01*
X164269750Y-149290000D01*
X164176471Y-149271446D01*
X164097393Y-149218607D01*
X164044554Y-149139529D01*
X164026000Y-149046250D01*
X164026000Y-148133750D01*
X164044554Y-148040471D01*
X164097393Y-147961393D01*
X164176471Y-147908554D01*
X164269750Y-147890000D01*
X164757250Y-147890000D01*
X164850529Y-147908554D01*
G37*
G36*
X162975529Y-147908554D02*
G01*
X163054607Y-147961393D01*
X163107446Y-148040471D01*
X163126000Y-148133750D01*
X163126000Y-149046250D01*
X163107446Y-149139529D01*
X163054607Y-149218607D01*
X162975529Y-149271446D01*
X162882250Y-149290000D01*
X162394750Y-149290000D01*
X162301471Y-149271446D01*
X162222393Y-149218607D01*
X162169554Y-149139529D01*
X162151000Y-149046250D01*
X162151000Y-148133750D01*
X162169554Y-148040471D01*
X162222393Y-147961393D01*
X162301471Y-147908554D01*
X162394750Y-147890000D01*
X162882250Y-147890000D01*
X162975529Y-147908554D01*
G37*
D23*
X136832254Y-146311880D03*
X133632254Y-146311880D03*
X136832254Y-142501880D03*
X133632254Y-142501880D03*
X136832254Y-138691880D03*
X133632254Y-138691880D03*
X136832254Y-134881880D03*
X133632254Y-134881880D03*
X145087254Y-146311880D03*
X141887254Y-146311880D03*
X145087254Y-142501880D03*
X141887254Y-142501880D03*
X145087254Y-138691880D03*
X141887254Y-138691880D03*
X145087254Y-134881880D03*
X141887254Y-134881880D03*
X127917254Y-146311880D03*
X131117254Y-146311880D03*
X127917254Y-142501880D03*
X131117254Y-142501880D03*
X127917254Y-138691880D03*
X131117254Y-138691880D03*
X127917254Y-134881880D03*
X131117254Y-134881880D03*
D11*
X178054000Y-112649000D03*
D12*
X175514000Y-112649000D03*
G36*
X151021783Y-146780434D02*
G01*
X151100861Y-146833273D01*
X151153700Y-146912351D01*
X151172254Y-147005630D01*
X151172254Y-147493130D01*
X151153700Y-147586409D01*
X151100861Y-147665487D01*
X151021783Y-147718326D01*
X150928504Y-147736880D01*
X150016004Y-147736880D01*
X149922725Y-147718326D01*
X149843647Y-147665487D01*
X149790808Y-147586409D01*
X149772254Y-147493130D01*
X149772254Y-147005630D01*
X149790808Y-146912351D01*
X149843647Y-146833273D01*
X149922725Y-146780434D01*
X150016004Y-146761880D01*
X150928504Y-146761880D01*
X151021783Y-146780434D01*
G37*
G36*
X151021783Y-144905434D02*
G01*
X151100861Y-144958273D01*
X151153700Y-145037351D01*
X151172254Y-145130630D01*
X151172254Y-145618130D01*
X151153700Y-145711409D01*
X151100861Y-145790487D01*
X151021783Y-145843326D01*
X150928504Y-145861880D01*
X150016004Y-145861880D01*
X149922725Y-145843326D01*
X149843647Y-145790487D01*
X149790808Y-145711409D01*
X149772254Y-145618130D01*
X149772254Y-145130630D01*
X149790808Y-145037351D01*
X149843647Y-144958273D01*
X149922725Y-144905434D01*
X150016004Y-144886880D01*
X150928504Y-144886880D01*
X151021783Y-144905434D01*
G37*
G36*
X151021783Y-142970434D02*
G01*
X151100861Y-143023273D01*
X151153700Y-143102351D01*
X151172254Y-143195630D01*
X151172254Y-143683130D01*
X151153700Y-143776409D01*
X151100861Y-143855487D01*
X151021783Y-143908326D01*
X150928504Y-143926880D01*
X150016004Y-143926880D01*
X149922725Y-143908326D01*
X149843647Y-143855487D01*
X149790808Y-143776409D01*
X149772254Y-143683130D01*
X149772254Y-143195630D01*
X149790808Y-143102351D01*
X149843647Y-143023273D01*
X149922725Y-142970434D01*
X150016004Y-142951880D01*
X150928504Y-142951880D01*
X151021783Y-142970434D01*
G37*
G36*
X151021783Y-141095434D02*
G01*
X151100861Y-141148273D01*
X151153700Y-141227351D01*
X151172254Y-141320630D01*
X151172254Y-141808130D01*
X151153700Y-141901409D01*
X151100861Y-141980487D01*
X151021783Y-142033326D01*
X150928504Y-142051880D01*
X150016004Y-142051880D01*
X149922725Y-142033326D01*
X149843647Y-141980487D01*
X149790808Y-141901409D01*
X149772254Y-141808130D01*
X149772254Y-141320630D01*
X149790808Y-141227351D01*
X149843647Y-141148273D01*
X149922725Y-141095434D01*
X150016004Y-141076880D01*
X150928504Y-141076880D01*
X151021783Y-141095434D01*
G37*
G36*
X151021783Y-139160434D02*
G01*
X151100861Y-139213273D01*
X151153700Y-139292351D01*
X151172254Y-139385630D01*
X151172254Y-139873130D01*
X151153700Y-139966409D01*
X151100861Y-140045487D01*
X151021783Y-140098326D01*
X150928504Y-140116880D01*
X150016004Y-140116880D01*
X149922725Y-140098326D01*
X149843647Y-140045487D01*
X149790808Y-139966409D01*
X149772254Y-139873130D01*
X149772254Y-139385630D01*
X149790808Y-139292351D01*
X149843647Y-139213273D01*
X149922725Y-139160434D01*
X150016004Y-139141880D01*
X150928504Y-139141880D01*
X151021783Y-139160434D01*
G37*
G36*
X151021783Y-137285434D02*
G01*
X151100861Y-137338273D01*
X151153700Y-137417351D01*
X151172254Y-137510630D01*
X151172254Y-137998130D01*
X151153700Y-138091409D01*
X151100861Y-138170487D01*
X151021783Y-138223326D01*
X150928504Y-138241880D01*
X150016004Y-138241880D01*
X149922725Y-138223326D01*
X149843647Y-138170487D01*
X149790808Y-138091409D01*
X149772254Y-137998130D01*
X149772254Y-137510630D01*
X149790808Y-137417351D01*
X149843647Y-137338273D01*
X149922725Y-137285434D01*
X150016004Y-137266880D01*
X150928504Y-137266880D01*
X151021783Y-137285434D01*
G37*
G36*
X151021783Y-135350434D02*
G01*
X151100861Y-135403273D01*
X151153700Y-135482351D01*
X151172254Y-135575630D01*
X151172254Y-136063130D01*
X151153700Y-136156409D01*
X151100861Y-136235487D01*
X151021783Y-136288326D01*
X150928504Y-136306880D01*
X150016004Y-136306880D01*
X149922725Y-136288326D01*
X149843647Y-136235487D01*
X149790808Y-136156409D01*
X149772254Y-136063130D01*
X149772254Y-135575630D01*
X149790808Y-135482351D01*
X149843647Y-135403273D01*
X149922725Y-135350434D01*
X150016004Y-135331880D01*
X150928504Y-135331880D01*
X151021783Y-135350434D01*
G37*
G36*
X151021783Y-133475434D02*
G01*
X151100861Y-133528273D01*
X151153700Y-133607351D01*
X151172254Y-133700630D01*
X151172254Y-134188130D01*
X151153700Y-134281409D01*
X151100861Y-134360487D01*
X151021783Y-134413326D01*
X150928504Y-134431880D01*
X150016004Y-134431880D01*
X149922725Y-134413326D01*
X149843647Y-134360487D01*
X149790808Y-134281409D01*
X149772254Y-134188130D01*
X149772254Y-133700630D01*
X149790808Y-133607351D01*
X149843647Y-133528273D01*
X149922725Y-133475434D01*
X150016004Y-133456880D01*
X150928504Y-133456880D01*
X151021783Y-133475434D01*
G37*
G36*
X148481783Y-144905434D02*
G01*
X148560861Y-144958273D01*
X148613700Y-145037351D01*
X148632254Y-145130630D01*
X148632254Y-145618130D01*
X148613700Y-145711409D01*
X148560861Y-145790487D01*
X148481783Y-145843326D01*
X148388504Y-145861880D01*
X147476004Y-145861880D01*
X147382725Y-145843326D01*
X147303647Y-145790487D01*
X147250808Y-145711409D01*
X147232254Y-145618130D01*
X147232254Y-145130630D01*
X147250808Y-145037351D01*
X147303647Y-144958273D01*
X147382725Y-144905434D01*
X147476004Y-144886880D01*
X148388504Y-144886880D01*
X148481783Y-144905434D01*
G37*
G36*
X148481783Y-146780434D02*
G01*
X148560861Y-146833273D01*
X148613700Y-146912351D01*
X148632254Y-147005630D01*
X148632254Y-147493130D01*
X148613700Y-147586409D01*
X148560861Y-147665487D01*
X148481783Y-147718326D01*
X148388504Y-147736880D01*
X147476004Y-147736880D01*
X147382725Y-147718326D01*
X147303647Y-147665487D01*
X147250808Y-147586409D01*
X147232254Y-147493130D01*
X147232254Y-147005630D01*
X147250808Y-146912351D01*
X147303647Y-146833273D01*
X147382725Y-146780434D01*
X147476004Y-146761880D01*
X148388504Y-146761880D01*
X148481783Y-146780434D01*
G37*
G36*
X148481783Y-141095434D02*
G01*
X148560861Y-141148273D01*
X148613700Y-141227351D01*
X148632254Y-141320630D01*
X148632254Y-141808130D01*
X148613700Y-141901409D01*
X148560861Y-141980487D01*
X148481783Y-142033326D01*
X148388504Y-142051880D01*
X147476004Y-142051880D01*
X147382725Y-142033326D01*
X147303647Y-141980487D01*
X147250808Y-141901409D01*
X147232254Y-141808130D01*
X147232254Y-141320630D01*
X147250808Y-141227351D01*
X147303647Y-141148273D01*
X147382725Y-141095434D01*
X147476004Y-141076880D01*
X148388504Y-141076880D01*
X148481783Y-141095434D01*
G37*
G36*
X148481783Y-142970434D02*
G01*
X148560861Y-143023273D01*
X148613700Y-143102351D01*
X148632254Y-143195630D01*
X148632254Y-143683130D01*
X148613700Y-143776409D01*
X148560861Y-143855487D01*
X148481783Y-143908326D01*
X148388504Y-143926880D01*
X147476004Y-143926880D01*
X147382725Y-143908326D01*
X147303647Y-143855487D01*
X147250808Y-143776409D01*
X147232254Y-143683130D01*
X147232254Y-143195630D01*
X147250808Y-143102351D01*
X147303647Y-143023273D01*
X147382725Y-142970434D01*
X147476004Y-142951880D01*
X148388504Y-142951880D01*
X148481783Y-142970434D01*
G37*
G36*
X148481783Y-137285434D02*
G01*
X148560861Y-137338273D01*
X148613700Y-137417351D01*
X148632254Y-137510630D01*
X148632254Y-137998130D01*
X148613700Y-138091409D01*
X148560861Y-138170487D01*
X148481783Y-138223326D01*
X148388504Y-138241880D01*
X147476004Y-138241880D01*
X147382725Y-138223326D01*
X147303647Y-138170487D01*
X147250808Y-138091409D01*
X147232254Y-137998130D01*
X147232254Y-137510630D01*
X147250808Y-137417351D01*
X147303647Y-137338273D01*
X147382725Y-137285434D01*
X147476004Y-137266880D01*
X148388504Y-137266880D01*
X148481783Y-137285434D01*
G37*
G36*
X148481783Y-139160434D02*
G01*
X148560861Y-139213273D01*
X148613700Y-139292351D01*
X148632254Y-139385630D01*
X148632254Y-139873130D01*
X148613700Y-139966409D01*
X148560861Y-140045487D01*
X148481783Y-140098326D01*
X148388504Y-140116880D01*
X147476004Y-140116880D01*
X147382725Y-140098326D01*
X147303647Y-140045487D01*
X147250808Y-139966409D01*
X147232254Y-139873130D01*
X147232254Y-139385630D01*
X147250808Y-139292351D01*
X147303647Y-139213273D01*
X147382725Y-139160434D01*
X147476004Y-139141880D01*
X148388504Y-139141880D01*
X148481783Y-139160434D01*
G37*
G36*
X148481783Y-133475434D02*
G01*
X148560861Y-133528273D01*
X148613700Y-133607351D01*
X148632254Y-133700630D01*
X148632254Y-134188130D01*
X148613700Y-134281409D01*
X148560861Y-134360487D01*
X148481783Y-134413326D01*
X148388504Y-134431880D01*
X147476004Y-134431880D01*
X147382725Y-134413326D01*
X147303647Y-134360487D01*
X147250808Y-134281409D01*
X147232254Y-134188130D01*
X147232254Y-133700630D01*
X147250808Y-133607351D01*
X147303647Y-133528273D01*
X147382725Y-133475434D01*
X147476004Y-133456880D01*
X148388504Y-133456880D01*
X148481783Y-133475434D01*
G37*
G36*
X148481783Y-135350434D02*
G01*
X148560861Y-135403273D01*
X148613700Y-135482351D01*
X148632254Y-135575630D01*
X148632254Y-136063130D01*
X148613700Y-136156409D01*
X148560861Y-136235487D01*
X148481783Y-136288326D01*
X148388504Y-136306880D01*
X147476004Y-136306880D01*
X147382725Y-136288326D01*
X147303647Y-136235487D01*
X147250808Y-136156409D01*
X147232254Y-136063130D01*
X147232254Y-135575630D01*
X147250808Y-135482351D01*
X147303647Y-135403273D01*
X147382725Y-135350434D01*
X147476004Y-135331880D01*
X148388504Y-135331880D01*
X148481783Y-135350434D01*
G37*
G36*
X140226783Y-144905434D02*
G01*
X140305861Y-144958273D01*
X140358700Y-145037351D01*
X140377254Y-145130630D01*
X140377254Y-145618130D01*
X140358700Y-145711409D01*
X140305861Y-145790487D01*
X140226783Y-145843326D01*
X140133504Y-145861880D01*
X139221004Y-145861880D01*
X139127725Y-145843326D01*
X139048647Y-145790487D01*
X138995808Y-145711409D01*
X138977254Y-145618130D01*
X138977254Y-145130630D01*
X138995808Y-145037351D01*
X139048647Y-144958273D01*
X139127725Y-144905434D01*
X139221004Y-144886880D01*
X140133504Y-144886880D01*
X140226783Y-144905434D01*
G37*
G36*
X140226783Y-146780434D02*
G01*
X140305861Y-146833273D01*
X140358700Y-146912351D01*
X140377254Y-147005630D01*
X140377254Y-147493130D01*
X140358700Y-147586409D01*
X140305861Y-147665487D01*
X140226783Y-147718326D01*
X140133504Y-147736880D01*
X139221004Y-147736880D01*
X139127725Y-147718326D01*
X139048647Y-147665487D01*
X138995808Y-147586409D01*
X138977254Y-147493130D01*
X138977254Y-147005630D01*
X138995808Y-146912351D01*
X139048647Y-146833273D01*
X139127725Y-146780434D01*
X139221004Y-146761880D01*
X140133504Y-146761880D01*
X140226783Y-146780434D01*
G37*
G36*
X140226783Y-141095434D02*
G01*
X140305861Y-141148273D01*
X140358700Y-141227351D01*
X140377254Y-141320630D01*
X140377254Y-141808130D01*
X140358700Y-141901409D01*
X140305861Y-141980487D01*
X140226783Y-142033326D01*
X140133504Y-142051880D01*
X139221004Y-142051880D01*
X139127725Y-142033326D01*
X139048647Y-141980487D01*
X138995808Y-141901409D01*
X138977254Y-141808130D01*
X138977254Y-141320630D01*
X138995808Y-141227351D01*
X139048647Y-141148273D01*
X139127725Y-141095434D01*
X139221004Y-141076880D01*
X140133504Y-141076880D01*
X140226783Y-141095434D01*
G37*
G36*
X140226783Y-142970434D02*
G01*
X140305861Y-143023273D01*
X140358700Y-143102351D01*
X140377254Y-143195630D01*
X140377254Y-143683130D01*
X140358700Y-143776409D01*
X140305861Y-143855487D01*
X140226783Y-143908326D01*
X140133504Y-143926880D01*
X139221004Y-143926880D01*
X139127725Y-143908326D01*
X139048647Y-143855487D01*
X138995808Y-143776409D01*
X138977254Y-143683130D01*
X138977254Y-143195630D01*
X138995808Y-143102351D01*
X139048647Y-143023273D01*
X139127725Y-142970434D01*
X139221004Y-142951880D01*
X140133504Y-142951880D01*
X140226783Y-142970434D01*
G37*
G36*
X140226783Y-137285434D02*
G01*
X140305861Y-137338273D01*
X140358700Y-137417351D01*
X140377254Y-137510630D01*
X140377254Y-137998130D01*
X140358700Y-138091409D01*
X140305861Y-138170487D01*
X140226783Y-138223326D01*
X140133504Y-138241880D01*
X139221004Y-138241880D01*
X139127725Y-138223326D01*
X139048647Y-138170487D01*
X138995808Y-138091409D01*
X138977254Y-137998130D01*
X138977254Y-137510630D01*
X138995808Y-137417351D01*
X139048647Y-137338273D01*
X139127725Y-137285434D01*
X139221004Y-137266880D01*
X140133504Y-137266880D01*
X140226783Y-137285434D01*
G37*
G36*
X140226783Y-139160434D02*
G01*
X140305861Y-139213273D01*
X140358700Y-139292351D01*
X140377254Y-139385630D01*
X140377254Y-139873130D01*
X140358700Y-139966409D01*
X140305861Y-140045487D01*
X140226783Y-140098326D01*
X140133504Y-140116880D01*
X139221004Y-140116880D01*
X139127725Y-140098326D01*
X139048647Y-140045487D01*
X138995808Y-139966409D01*
X138977254Y-139873130D01*
X138977254Y-139385630D01*
X138995808Y-139292351D01*
X139048647Y-139213273D01*
X139127725Y-139160434D01*
X139221004Y-139141880D01*
X140133504Y-139141880D01*
X140226783Y-139160434D01*
G37*
G36*
X140226783Y-133475434D02*
G01*
X140305861Y-133528273D01*
X140358700Y-133607351D01*
X140377254Y-133700630D01*
X140377254Y-134188130D01*
X140358700Y-134281409D01*
X140305861Y-134360487D01*
X140226783Y-134413326D01*
X140133504Y-134431880D01*
X139221004Y-134431880D01*
X139127725Y-134413326D01*
X139048647Y-134360487D01*
X138995808Y-134281409D01*
X138977254Y-134188130D01*
X138977254Y-133700630D01*
X138995808Y-133607351D01*
X139048647Y-133528273D01*
X139127725Y-133475434D01*
X139221004Y-133456880D01*
X140133504Y-133456880D01*
X140226783Y-133475434D01*
G37*
G36*
X140226783Y-135350434D02*
G01*
X140305861Y-135403273D01*
X140358700Y-135482351D01*
X140377254Y-135575630D01*
X140377254Y-136063130D01*
X140358700Y-136156409D01*
X140305861Y-136235487D01*
X140226783Y-136288326D01*
X140133504Y-136306880D01*
X139221004Y-136306880D01*
X139127725Y-136288326D01*
X139048647Y-136235487D01*
X138995808Y-136156409D01*
X138977254Y-136063130D01*
X138977254Y-135575630D01*
X138995808Y-135482351D01*
X139048647Y-135403273D01*
X139127725Y-135350434D01*
X139221004Y-135331880D01*
X140133504Y-135331880D01*
X140226783Y-135350434D01*
G37*
G36*
X125621783Y-144905434D02*
G01*
X125700861Y-144958273D01*
X125753700Y-145037351D01*
X125772254Y-145130630D01*
X125772254Y-145618130D01*
X125753700Y-145711409D01*
X125700861Y-145790487D01*
X125621783Y-145843326D01*
X125528504Y-145861880D01*
X124616004Y-145861880D01*
X124522725Y-145843326D01*
X124443647Y-145790487D01*
X124390808Y-145711409D01*
X124372254Y-145618130D01*
X124372254Y-145130630D01*
X124390808Y-145037351D01*
X124443647Y-144958273D01*
X124522725Y-144905434D01*
X124616004Y-144886880D01*
X125528504Y-144886880D01*
X125621783Y-144905434D01*
G37*
G36*
X125621783Y-146780434D02*
G01*
X125700861Y-146833273D01*
X125753700Y-146912351D01*
X125772254Y-147005630D01*
X125772254Y-147493130D01*
X125753700Y-147586409D01*
X125700861Y-147665487D01*
X125621783Y-147718326D01*
X125528504Y-147736880D01*
X124616004Y-147736880D01*
X124522725Y-147718326D01*
X124443647Y-147665487D01*
X124390808Y-147586409D01*
X124372254Y-147493130D01*
X124372254Y-147005630D01*
X124390808Y-146912351D01*
X124443647Y-146833273D01*
X124522725Y-146780434D01*
X124616004Y-146761880D01*
X125528504Y-146761880D01*
X125621783Y-146780434D01*
G37*
G36*
X125621783Y-141095434D02*
G01*
X125700861Y-141148273D01*
X125753700Y-141227351D01*
X125772254Y-141320630D01*
X125772254Y-141808130D01*
X125753700Y-141901409D01*
X125700861Y-141980487D01*
X125621783Y-142033326D01*
X125528504Y-142051880D01*
X124616004Y-142051880D01*
X124522725Y-142033326D01*
X124443647Y-141980487D01*
X124390808Y-141901409D01*
X124372254Y-141808130D01*
X124372254Y-141320630D01*
X124390808Y-141227351D01*
X124443647Y-141148273D01*
X124522725Y-141095434D01*
X124616004Y-141076880D01*
X125528504Y-141076880D01*
X125621783Y-141095434D01*
G37*
G36*
X125621783Y-142970434D02*
G01*
X125700861Y-143023273D01*
X125753700Y-143102351D01*
X125772254Y-143195630D01*
X125772254Y-143683130D01*
X125753700Y-143776409D01*
X125700861Y-143855487D01*
X125621783Y-143908326D01*
X125528504Y-143926880D01*
X124616004Y-143926880D01*
X124522725Y-143908326D01*
X124443647Y-143855487D01*
X124390808Y-143776409D01*
X124372254Y-143683130D01*
X124372254Y-143195630D01*
X124390808Y-143102351D01*
X124443647Y-143023273D01*
X124522725Y-142970434D01*
X124616004Y-142951880D01*
X125528504Y-142951880D01*
X125621783Y-142970434D01*
G37*
G36*
X125621783Y-137285434D02*
G01*
X125700861Y-137338273D01*
X125753700Y-137417351D01*
X125772254Y-137510630D01*
X125772254Y-137998130D01*
X125753700Y-138091409D01*
X125700861Y-138170487D01*
X125621783Y-138223326D01*
X125528504Y-138241880D01*
X124616004Y-138241880D01*
X124522725Y-138223326D01*
X124443647Y-138170487D01*
X124390808Y-138091409D01*
X124372254Y-137998130D01*
X124372254Y-137510630D01*
X124390808Y-137417351D01*
X124443647Y-137338273D01*
X124522725Y-137285434D01*
X124616004Y-137266880D01*
X125528504Y-137266880D01*
X125621783Y-137285434D01*
G37*
G36*
X125621783Y-139160434D02*
G01*
X125700861Y-139213273D01*
X125753700Y-139292351D01*
X125772254Y-139385630D01*
X125772254Y-139873130D01*
X125753700Y-139966409D01*
X125700861Y-140045487D01*
X125621783Y-140098326D01*
X125528504Y-140116880D01*
X124616004Y-140116880D01*
X124522725Y-140098326D01*
X124443647Y-140045487D01*
X124390808Y-139966409D01*
X124372254Y-139873130D01*
X124372254Y-139385630D01*
X124390808Y-139292351D01*
X124443647Y-139213273D01*
X124522725Y-139160434D01*
X124616004Y-139141880D01*
X125528504Y-139141880D01*
X125621783Y-139160434D01*
G37*
G36*
X125621783Y-133475434D02*
G01*
X125700861Y-133528273D01*
X125753700Y-133607351D01*
X125772254Y-133700630D01*
X125772254Y-134188130D01*
X125753700Y-134281409D01*
X125700861Y-134360487D01*
X125621783Y-134413326D01*
X125528504Y-134431880D01*
X124616004Y-134431880D01*
X124522725Y-134413326D01*
X124443647Y-134360487D01*
X124390808Y-134281409D01*
X124372254Y-134188130D01*
X124372254Y-133700630D01*
X124390808Y-133607351D01*
X124443647Y-133528273D01*
X124522725Y-133475434D01*
X124616004Y-133456880D01*
X125528504Y-133456880D01*
X125621783Y-133475434D01*
G37*
G36*
X125621783Y-135350434D02*
G01*
X125700861Y-135403273D01*
X125753700Y-135482351D01*
X125772254Y-135575630D01*
X125772254Y-136063130D01*
X125753700Y-136156409D01*
X125700861Y-136235487D01*
X125621783Y-136288326D01*
X125528504Y-136306880D01*
X124616004Y-136306880D01*
X124522725Y-136288326D01*
X124443647Y-136235487D01*
X124390808Y-136156409D01*
X124372254Y-136063130D01*
X124372254Y-135575630D01*
X124390808Y-135482351D01*
X124443647Y-135403273D01*
X124522725Y-135350434D01*
X124616004Y-135331880D01*
X125528504Y-135331880D01*
X125621783Y-135350434D01*
G37*
G36*
X123081783Y-144905434D02*
G01*
X123160861Y-144958273D01*
X123213700Y-145037351D01*
X123232254Y-145130630D01*
X123232254Y-145618130D01*
X123213700Y-145711409D01*
X123160861Y-145790487D01*
X123081783Y-145843326D01*
X122988504Y-145861880D01*
X122076004Y-145861880D01*
X121982725Y-145843326D01*
X121903647Y-145790487D01*
X121850808Y-145711409D01*
X121832254Y-145618130D01*
X121832254Y-145130630D01*
X121850808Y-145037351D01*
X121903647Y-144958273D01*
X121982725Y-144905434D01*
X122076004Y-144886880D01*
X122988504Y-144886880D01*
X123081783Y-144905434D01*
G37*
G36*
X123081783Y-146780434D02*
G01*
X123160861Y-146833273D01*
X123213700Y-146912351D01*
X123232254Y-147005630D01*
X123232254Y-147493130D01*
X123213700Y-147586409D01*
X123160861Y-147665487D01*
X123081783Y-147718326D01*
X122988504Y-147736880D01*
X122076004Y-147736880D01*
X121982725Y-147718326D01*
X121903647Y-147665487D01*
X121850808Y-147586409D01*
X121832254Y-147493130D01*
X121832254Y-147005630D01*
X121850808Y-146912351D01*
X121903647Y-146833273D01*
X121982725Y-146780434D01*
X122076004Y-146761880D01*
X122988504Y-146761880D01*
X123081783Y-146780434D01*
G37*
G36*
X123081783Y-141095434D02*
G01*
X123160861Y-141148273D01*
X123213700Y-141227351D01*
X123232254Y-141320630D01*
X123232254Y-141808130D01*
X123213700Y-141901409D01*
X123160861Y-141980487D01*
X123081783Y-142033326D01*
X122988504Y-142051880D01*
X122076004Y-142051880D01*
X121982725Y-142033326D01*
X121903647Y-141980487D01*
X121850808Y-141901409D01*
X121832254Y-141808130D01*
X121832254Y-141320630D01*
X121850808Y-141227351D01*
X121903647Y-141148273D01*
X121982725Y-141095434D01*
X122076004Y-141076880D01*
X122988504Y-141076880D01*
X123081783Y-141095434D01*
G37*
G36*
X123081783Y-142970434D02*
G01*
X123160861Y-143023273D01*
X123213700Y-143102351D01*
X123232254Y-143195630D01*
X123232254Y-143683130D01*
X123213700Y-143776409D01*
X123160861Y-143855487D01*
X123081783Y-143908326D01*
X122988504Y-143926880D01*
X122076004Y-143926880D01*
X121982725Y-143908326D01*
X121903647Y-143855487D01*
X121850808Y-143776409D01*
X121832254Y-143683130D01*
X121832254Y-143195630D01*
X121850808Y-143102351D01*
X121903647Y-143023273D01*
X121982725Y-142970434D01*
X122076004Y-142951880D01*
X122988504Y-142951880D01*
X123081783Y-142970434D01*
G37*
G36*
X123081783Y-137285434D02*
G01*
X123160861Y-137338273D01*
X123213700Y-137417351D01*
X123232254Y-137510630D01*
X123232254Y-137998130D01*
X123213700Y-138091409D01*
X123160861Y-138170487D01*
X123081783Y-138223326D01*
X122988504Y-138241880D01*
X122076004Y-138241880D01*
X121982725Y-138223326D01*
X121903647Y-138170487D01*
X121850808Y-138091409D01*
X121832254Y-137998130D01*
X121832254Y-137510630D01*
X121850808Y-137417351D01*
X121903647Y-137338273D01*
X121982725Y-137285434D01*
X122076004Y-137266880D01*
X122988504Y-137266880D01*
X123081783Y-137285434D01*
G37*
G36*
X123081783Y-139160434D02*
G01*
X123160861Y-139213273D01*
X123213700Y-139292351D01*
X123232254Y-139385630D01*
X123232254Y-139873130D01*
X123213700Y-139966409D01*
X123160861Y-140045487D01*
X123081783Y-140098326D01*
X122988504Y-140116880D01*
X122076004Y-140116880D01*
X121982725Y-140098326D01*
X121903647Y-140045487D01*
X121850808Y-139966409D01*
X121832254Y-139873130D01*
X121832254Y-139385630D01*
X121850808Y-139292351D01*
X121903647Y-139213273D01*
X121982725Y-139160434D01*
X122076004Y-139141880D01*
X122988504Y-139141880D01*
X123081783Y-139160434D01*
G37*
G36*
X123081783Y-133475434D02*
G01*
X123160861Y-133528273D01*
X123213700Y-133607351D01*
X123232254Y-133700630D01*
X123232254Y-134188130D01*
X123213700Y-134281409D01*
X123160861Y-134360487D01*
X123081783Y-134413326D01*
X122988504Y-134431880D01*
X122076004Y-134431880D01*
X121982725Y-134413326D01*
X121903647Y-134360487D01*
X121850808Y-134281409D01*
X121832254Y-134188130D01*
X121832254Y-133700630D01*
X121850808Y-133607351D01*
X121903647Y-133528273D01*
X121982725Y-133475434D01*
X122076004Y-133456880D01*
X122988504Y-133456880D01*
X123081783Y-133475434D01*
G37*
G36*
X123081783Y-135350434D02*
G01*
X123160861Y-135403273D01*
X123213700Y-135482351D01*
X123232254Y-135575630D01*
X123232254Y-136063130D01*
X123213700Y-136156409D01*
X123160861Y-136235487D01*
X123081783Y-136288326D01*
X122988504Y-136306880D01*
X122076004Y-136306880D01*
X121982725Y-136288326D01*
X121903647Y-136235487D01*
X121850808Y-136156409D01*
X121832254Y-136063130D01*
X121832254Y-135575630D01*
X121850808Y-135482351D01*
X121903647Y-135403273D01*
X121982725Y-135350434D01*
X122076004Y-135331880D01*
X122988504Y-135331880D01*
X123081783Y-135350434D01*
G37*
G36*
X116216783Y-146900434D02*
G01*
X116295861Y-146953273D01*
X116348700Y-147032351D01*
X116367254Y-147125630D01*
X116367254Y-148038130D01*
X116348700Y-148131409D01*
X116295861Y-148210487D01*
X116216783Y-148263326D01*
X116123504Y-148281880D01*
X115636004Y-148281880D01*
X115542725Y-148263326D01*
X115463647Y-148210487D01*
X115410808Y-148131409D01*
X115392254Y-148038130D01*
X115392254Y-147125630D01*
X115410808Y-147032351D01*
X115463647Y-146953273D01*
X115542725Y-146900434D01*
X115636004Y-146881880D01*
X116123504Y-146881880D01*
X116216783Y-146900434D01*
G37*
G36*
X118091783Y-146900434D02*
G01*
X118170861Y-146953273D01*
X118223700Y-147032351D01*
X118242254Y-147125630D01*
X118242254Y-148038130D01*
X118223700Y-148131409D01*
X118170861Y-148210487D01*
X118091783Y-148263326D01*
X117998504Y-148281880D01*
X117511004Y-148281880D01*
X117417725Y-148263326D01*
X117338647Y-148210487D01*
X117285808Y-148131409D01*
X117267254Y-148038130D01*
X117267254Y-147125630D01*
X117285808Y-147032351D01*
X117338647Y-146953273D01*
X117417725Y-146900434D01*
X117511004Y-146881880D01*
X117998504Y-146881880D01*
X118091783Y-146900434D01*
G37*
G36*
X155586783Y-146900434D02*
G01*
X155665861Y-146953273D01*
X155718700Y-147032351D01*
X155737254Y-147125630D01*
X155737254Y-148038130D01*
X155718700Y-148131409D01*
X155665861Y-148210487D01*
X155586783Y-148263326D01*
X155493504Y-148281880D01*
X155006004Y-148281880D01*
X154912725Y-148263326D01*
X154833647Y-148210487D01*
X154780808Y-148131409D01*
X154762254Y-148038130D01*
X154762254Y-147125630D01*
X154780808Y-147032351D01*
X154833647Y-146953273D01*
X154912725Y-146900434D01*
X155006004Y-146881880D01*
X155493504Y-146881880D01*
X155586783Y-146900434D01*
G37*
G36*
X157461783Y-146900434D02*
G01*
X157540861Y-146953273D01*
X157593700Y-147032351D01*
X157612254Y-147125630D01*
X157612254Y-148038130D01*
X157593700Y-148131409D01*
X157540861Y-148210487D01*
X157461783Y-148263326D01*
X157368504Y-148281880D01*
X156881004Y-148281880D01*
X156787725Y-148263326D01*
X156708647Y-148210487D01*
X156655808Y-148131409D01*
X156637254Y-148038130D01*
X156637254Y-147125630D01*
X156655808Y-147032351D01*
X156708647Y-146953273D01*
X156787725Y-146900434D01*
X156881004Y-146881880D01*
X157368504Y-146881880D01*
X157461783Y-146900434D01*
G37*
G36*
X181750664Y-87046589D02*
G01*
X181829742Y-87099428D01*
X181882581Y-87178506D01*
X181901135Y-87271785D01*
X181901135Y-87759285D01*
X181882581Y-87852564D01*
X181829742Y-87931642D01*
X181750664Y-87984481D01*
X181657385Y-88003035D01*
X180744885Y-88003035D01*
X180651606Y-87984481D01*
X180572528Y-87931642D01*
X180519689Y-87852564D01*
X180501135Y-87759285D01*
X180501135Y-87271785D01*
X180519689Y-87178506D01*
X180572528Y-87099428D01*
X180651606Y-87046589D01*
X180744885Y-87028035D01*
X181657385Y-87028035D01*
X181750664Y-87046589D01*
G37*
G36*
X181750664Y-88921589D02*
G01*
X181829742Y-88974428D01*
X181882581Y-89053506D01*
X181901135Y-89146785D01*
X181901135Y-89634285D01*
X181882581Y-89727564D01*
X181829742Y-89806642D01*
X181750664Y-89859481D01*
X181657385Y-89878035D01*
X180744885Y-89878035D01*
X180651606Y-89859481D01*
X180572528Y-89806642D01*
X180519689Y-89727564D01*
X180501135Y-89634285D01*
X180501135Y-89146785D01*
X180519689Y-89053506D01*
X180572528Y-88974428D01*
X180651606Y-88921589D01*
X180744885Y-88903035D01*
X181657385Y-88903035D01*
X181750664Y-88921589D01*
G37*
G36*
X177432664Y-87046589D02*
G01*
X177511742Y-87099428D01*
X177564581Y-87178506D01*
X177583135Y-87271785D01*
X177583135Y-87759285D01*
X177564581Y-87852564D01*
X177511742Y-87931642D01*
X177432664Y-87984481D01*
X177339385Y-88003035D01*
X176426885Y-88003035D01*
X176333606Y-87984481D01*
X176254528Y-87931642D01*
X176201689Y-87852564D01*
X176183135Y-87759285D01*
X176183135Y-87271785D01*
X176201689Y-87178506D01*
X176254528Y-87099428D01*
X176333606Y-87046589D01*
X176426885Y-87028035D01*
X177339385Y-87028035D01*
X177432664Y-87046589D01*
G37*
G36*
X177432664Y-88921589D02*
G01*
X177511742Y-88974428D01*
X177564581Y-89053506D01*
X177583135Y-89146785D01*
X177583135Y-89634285D01*
X177564581Y-89727564D01*
X177511742Y-89806642D01*
X177432664Y-89859481D01*
X177339385Y-89878035D01*
X176426885Y-89878035D01*
X176333606Y-89859481D01*
X176254528Y-89806642D01*
X176201689Y-89727564D01*
X176183135Y-89634285D01*
X176183135Y-89146785D01*
X176201689Y-89053506D01*
X176254528Y-88974428D01*
X176333606Y-88921589D01*
X176426885Y-88903035D01*
X177339385Y-88903035D01*
X177432664Y-88921589D01*
G37*
G36*
X180070806Y-82104065D02*
G01*
X180151912Y-82158258D01*
X180206105Y-82239364D01*
X180225135Y-82335034D01*
X180225135Y-83235036D01*
X180206105Y-83330706D01*
X180151912Y-83411812D01*
X180070806Y-83466005D01*
X179975136Y-83485035D01*
X179125134Y-83485035D01*
X179029464Y-83466005D01*
X178948358Y-83411812D01*
X178894165Y-83330706D01*
X178875135Y-83235036D01*
X178875135Y-82335034D01*
X178894165Y-82239364D01*
X178948358Y-82158258D01*
X179029464Y-82104065D01*
X179125134Y-82085035D01*
X179975136Y-82085035D01*
X180070806Y-82104065D01*
G37*
G36*
X180070806Y-84804065D02*
G01*
X180151912Y-84858258D01*
X180206105Y-84939364D01*
X180225135Y-85035034D01*
X180225135Y-85935036D01*
X180206105Y-86030706D01*
X180151912Y-86111812D01*
X180070806Y-86166005D01*
X179975136Y-86185035D01*
X179125134Y-86185035D01*
X179029464Y-86166005D01*
X178948358Y-86111812D01*
X178894165Y-86030706D01*
X178875135Y-85935036D01*
X178875135Y-85035034D01*
X178894165Y-84939364D01*
X178948358Y-84858258D01*
X179029464Y-84804065D01*
X179125134Y-84785035D01*
X179975136Y-84785035D01*
X180070806Y-84804065D01*
G37*
G36*
X177784806Y-82104065D02*
G01*
X177865912Y-82158258D01*
X177920105Y-82239364D01*
X177939135Y-82335034D01*
X177939135Y-83235036D01*
X177920105Y-83330706D01*
X177865912Y-83411812D01*
X177784806Y-83466005D01*
X177689136Y-83485035D01*
X176839134Y-83485035D01*
X176743464Y-83466005D01*
X176662358Y-83411812D01*
X176608165Y-83330706D01*
X176589135Y-83235036D01*
X176589135Y-82335034D01*
X176608165Y-82239364D01*
X176662358Y-82158258D01*
X176743464Y-82104065D01*
X176839134Y-82085035D01*
X177689136Y-82085035D01*
X177784806Y-82104065D01*
G37*
G36*
X177784806Y-84804065D02*
G01*
X177865912Y-84858258D01*
X177920105Y-84939364D01*
X177939135Y-85035034D01*
X177939135Y-85935036D01*
X177920105Y-86030706D01*
X177865912Y-86111812D01*
X177784806Y-86166005D01*
X177689136Y-86185035D01*
X176839134Y-86185035D01*
X176743464Y-86166005D01*
X176662358Y-86111812D01*
X176608165Y-86030706D01*
X176589135Y-85935036D01*
X176589135Y-85035034D01*
X176608165Y-84939364D01*
X176662358Y-84858258D01*
X176743464Y-84804065D01*
X176839134Y-84785035D01*
X177689136Y-84785035D01*
X177784806Y-84804065D01*
G37*
G36*
X175273664Y-87046589D02*
G01*
X175352742Y-87099428D01*
X175405581Y-87178506D01*
X175424135Y-87271785D01*
X175424135Y-87759285D01*
X175405581Y-87852564D01*
X175352742Y-87931642D01*
X175273664Y-87984481D01*
X175180385Y-88003035D01*
X174267885Y-88003035D01*
X174174606Y-87984481D01*
X174095528Y-87931642D01*
X174042689Y-87852564D01*
X174024135Y-87759285D01*
X174024135Y-87271785D01*
X174042689Y-87178506D01*
X174095528Y-87099428D01*
X174174606Y-87046589D01*
X174267885Y-87028035D01*
X175180385Y-87028035D01*
X175273664Y-87046589D01*
G37*
G36*
X175273664Y-88921589D02*
G01*
X175352742Y-88974428D01*
X175405581Y-89053506D01*
X175424135Y-89146785D01*
X175424135Y-89634285D01*
X175405581Y-89727564D01*
X175352742Y-89806642D01*
X175273664Y-89859481D01*
X175180385Y-89878035D01*
X174267885Y-89878035D01*
X174174606Y-89859481D01*
X174095528Y-89806642D01*
X174042689Y-89727564D01*
X174024135Y-89634285D01*
X174024135Y-89146785D01*
X174042689Y-89053506D01*
X174095528Y-88974428D01*
X174174606Y-88921589D01*
X174267885Y-88903035D01*
X175180385Y-88903035D01*
X175273664Y-88921589D01*
G37*
G36*
X177024029Y-100283554D02*
G01*
X177103107Y-100336393D01*
X177155946Y-100415471D01*
X177174500Y-100508750D01*
X177174500Y-101421250D01*
X177155946Y-101514529D01*
X177103107Y-101593607D01*
X177024029Y-101646446D01*
X176930750Y-101665000D01*
X176443250Y-101665000D01*
X176349971Y-101646446D01*
X176270893Y-101593607D01*
X176218054Y-101514529D01*
X176199500Y-101421250D01*
X176199500Y-100508750D01*
X176218054Y-100415471D01*
X176270893Y-100336393D01*
X176349971Y-100283554D01*
X176443250Y-100265000D01*
X176930750Y-100265000D01*
X177024029Y-100283554D01*
G37*
G36*
X178899029Y-100283554D02*
G01*
X178978107Y-100336393D01*
X179030946Y-100415471D01*
X179049500Y-100508750D01*
X179049500Y-101421250D01*
X179030946Y-101514529D01*
X178978107Y-101593607D01*
X178899029Y-101646446D01*
X178805750Y-101665000D01*
X178318250Y-101665000D01*
X178224971Y-101646446D01*
X178145893Y-101593607D01*
X178093054Y-101514529D01*
X178074500Y-101421250D01*
X178074500Y-100508750D01*
X178093054Y-100415471D01*
X178145893Y-100336393D01*
X178224971Y-100283554D01*
X178318250Y-100265000D01*
X178805750Y-100265000D01*
X178899029Y-100283554D01*
G37*
G36*
X175460706Y-82104065D02*
G01*
X175541812Y-82158258D01*
X175596005Y-82239364D01*
X175615035Y-82335034D01*
X175615035Y-83235036D01*
X175596005Y-83330706D01*
X175541812Y-83411812D01*
X175460706Y-83466005D01*
X175365036Y-83485035D01*
X174515034Y-83485035D01*
X174419364Y-83466005D01*
X174338258Y-83411812D01*
X174284065Y-83330706D01*
X174265035Y-83235036D01*
X174265035Y-82335034D01*
X174284065Y-82239364D01*
X174338258Y-82158258D01*
X174419364Y-82104065D01*
X174515034Y-82085035D01*
X175365036Y-82085035D01*
X175460706Y-82104065D01*
G37*
G36*
X175460706Y-84804065D02*
G01*
X175541812Y-84858258D01*
X175596005Y-84939364D01*
X175615035Y-85035034D01*
X175615035Y-85935036D01*
X175596005Y-86030706D01*
X175541812Y-86111812D01*
X175460706Y-86166005D01*
X175365036Y-86185035D01*
X174515034Y-86185035D01*
X174419364Y-86166005D01*
X174338258Y-86111812D01*
X174284065Y-86030706D01*
X174265035Y-85935036D01*
X174265035Y-85035034D01*
X174284065Y-84939364D01*
X174338258Y-84858258D01*
X174419364Y-84804065D01*
X174515034Y-84785035D01*
X175365036Y-84785035D01*
X175460706Y-84804065D01*
G37*
G36*
X176830571Y-102683930D02*
G01*
X176911677Y-102738123D01*
X176965870Y-102819229D01*
X176984900Y-102914899D01*
X176984900Y-103764901D01*
X176965870Y-103860571D01*
X176911677Y-103941677D01*
X176830571Y-103995870D01*
X176734901Y-104014900D01*
X175834899Y-104014900D01*
X175739229Y-103995870D01*
X175658123Y-103941677D01*
X175603930Y-103860571D01*
X175584900Y-103764901D01*
X175584900Y-102914899D01*
X175603930Y-102819229D01*
X175658123Y-102738123D01*
X175739229Y-102683930D01*
X175834899Y-102664900D01*
X176734901Y-102664900D01*
X176830571Y-102683930D01*
G37*
G36*
X179530571Y-102683930D02*
G01*
X179611677Y-102738123D01*
X179665870Y-102819229D01*
X179684900Y-102914899D01*
X179684900Y-103764901D01*
X179665870Y-103860571D01*
X179611677Y-103941677D01*
X179530571Y-103995870D01*
X179434901Y-104014900D01*
X178534899Y-104014900D01*
X178439229Y-103995870D01*
X178358123Y-103941677D01*
X178303930Y-103860571D01*
X178284900Y-103764901D01*
X178284900Y-102914899D01*
X178303930Y-102819229D01*
X178358123Y-102738123D01*
X178439229Y-102683930D01*
X178534899Y-102664900D01*
X179434901Y-102664900D01*
X179530571Y-102683930D01*
G37*
G36*
X120019529Y-99521554D02*
G01*
X120098607Y-99574393D01*
X120151446Y-99653471D01*
X120170000Y-99746750D01*
X120170000Y-100659250D01*
X120151446Y-100752529D01*
X120098607Y-100831607D01*
X120019529Y-100884446D01*
X119926250Y-100903000D01*
X119438750Y-100903000D01*
X119345471Y-100884446D01*
X119266393Y-100831607D01*
X119213554Y-100752529D01*
X119195000Y-100659250D01*
X119195000Y-99746750D01*
X119213554Y-99653471D01*
X119266393Y-99574393D01*
X119345471Y-99521554D01*
X119438750Y-99503000D01*
X119926250Y-99503000D01*
X120019529Y-99521554D01*
G37*
G36*
X118144529Y-99521554D02*
G01*
X118223607Y-99574393D01*
X118276446Y-99653471D01*
X118295000Y-99746750D01*
X118295000Y-100659250D01*
X118276446Y-100752529D01*
X118223607Y-100831607D01*
X118144529Y-100884446D01*
X118051250Y-100903000D01*
X117563750Y-100903000D01*
X117470471Y-100884446D01*
X117391393Y-100831607D01*
X117338554Y-100752529D01*
X117320000Y-100659250D01*
X117320000Y-99746750D01*
X117338554Y-99653471D01*
X117391393Y-99574393D01*
X117470471Y-99521554D01*
X117563750Y-99503000D01*
X118051250Y-99503000D01*
X118144529Y-99521554D01*
G37*
G36*
X123956529Y-97616554D02*
G01*
X124035607Y-97669393D01*
X124088446Y-97748471D01*
X124107000Y-97841750D01*
X124107000Y-98754250D01*
X124088446Y-98847529D01*
X124035607Y-98926607D01*
X123956529Y-98979446D01*
X123863250Y-98998000D01*
X123375750Y-98998000D01*
X123282471Y-98979446D01*
X123203393Y-98926607D01*
X123150554Y-98847529D01*
X123132000Y-98754250D01*
X123132000Y-97841750D01*
X123150554Y-97748471D01*
X123203393Y-97669393D01*
X123282471Y-97616554D01*
X123375750Y-97598000D01*
X123863250Y-97598000D01*
X123956529Y-97616554D01*
G37*
G36*
X122081529Y-97616554D02*
G01*
X122160607Y-97669393D01*
X122213446Y-97748471D01*
X122232000Y-97841750D01*
X122232000Y-98754250D01*
X122213446Y-98847529D01*
X122160607Y-98926607D01*
X122081529Y-98979446D01*
X121988250Y-98998000D01*
X121500750Y-98998000D01*
X121407471Y-98979446D01*
X121328393Y-98926607D01*
X121275554Y-98847529D01*
X121257000Y-98754250D01*
X121257000Y-97841750D01*
X121275554Y-97748471D01*
X121328393Y-97669393D01*
X121407471Y-97616554D01*
X121500750Y-97598000D01*
X121988250Y-97598000D01*
X122081529Y-97616554D01*
G37*
G36*
X122081529Y-90885554D02*
G01*
X122160607Y-90938393D01*
X122213446Y-91017471D01*
X122232000Y-91110750D01*
X122232000Y-92023250D01*
X122213446Y-92116529D01*
X122160607Y-92195607D01*
X122081529Y-92248446D01*
X121988250Y-92267000D01*
X121500750Y-92267000D01*
X121407471Y-92248446D01*
X121328393Y-92195607D01*
X121275554Y-92116529D01*
X121257000Y-92023250D01*
X121257000Y-91110750D01*
X121275554Y-91017471D01*
X121328393Y-90938393D01*
X121407471Y-90885554D01*
X121500750Y-90867000D01*
X121988250Y-90867000D01*
X122081529Y-90885554D01*
G37*
G36*
X123956529Y-90885554D02*
G01*
X124035607Y-90938393D01*
X124088446Y-91017471D01*
X124107000Y-91110750D01*
X124107000Y-92023250D01*
X124088446Y-92116529D01*
X124035607Y-92195607D01*
X123956529Y-92248446D01*
X123863250Y-92267000D01*
X123375750Y-92267000D01*
X123282471Y-92248446D01*
X123203393Y-92195607D01*
X123150554Y-92116529D01*
X123132000Y-92023250D01*
X123132000Y-91110750D01*
X123150554Y-91017471D01*
X123203393Y-90938393D01*
X123282471Y-90885554D01*
X123375750Y-90867000D01*
X123863250Y-90867000D01*
X123956529Y-90885554D01*
G37*
G36*
X110397529Y-90885554D02*
G01*
X110476607Y-90938393D01*
X110529446Y-91017471D01*
X110548000Y-91110750D01*
X110548000Y-92023250D01*
X110529446Y-92116529D01*
X110476607Y-92195607D01*
X110397529Y-92248446D01*
X110304250Y-92267000D01*
X109816750Y-92267000D01*
X109723471Y-92248446D01*
X109644393Y-92195607D01*
X109591554Y-92116529D01*
X109573000Y-92023250D01*
X109573000Y-91110750D01*
X109591554Y-91017471D01*
X109644393Y-90938393D01*
X109723471Y-90885554D01*
X109816750Y-90867000D01*
X110304250Y-90867000D01*
X110397529Y-90885554D01*
G37*
G36*
X112272529Y-90885554D02*
G01*
X112351607Y-90938393D01*
X112404446Y-91017471D01*
X112423000Y-91110750D01*
X112423000Y-92023250D01*
X112404446Y-92116529D01*
X112351607Y-92195607D01*
X112272529Y-92248446D01*
X112179250Y-92267000D01*
X111691750Y-92267000D01*
X111598471Y-92248446D01*
X111519393Y-92195607D01*
X111466554Y-92116529D01*
X111448000Y-92023250D01*
X111448000Y-91110750D01*
X111466554Y-91017471D01*
X111519393Y-90938393D01*
X111598471Y-90885554D01*
X111691750Y-90867000D01*
X112179250Y-90867000D01*
X112272529Y-90885554D01*
G37*
G36*
X114207529Y-99521554D02*
G01*
X114286607Y-99574393D01*
X114339446Y-99653471D01*
X114358000Y-99746750D01*
X114358000Y-100659250D01*
X114339446Y-100752529D01*
X114286607Y-100831607D01*
X114207529Y-100884446D01*
X114114250Y-100903000D01*
X113626750Y-100903000D01*
X113533471Y-100884446D01*
X113454393Y-100831607D01*
X113401554Y-100752529D01*
X113383000Y-100659250D01*
X113383000Y-99746750D01*
X113401554Y-99653471D01*
X113454393Y-99574393D01*
X113533471Y-99521554D01*
X113626750Y-99503000D01*
X114114250Y-99503000D01*
X114207529Y-99521554D01*
G37*
G36*
X116082529Y-99521554D02*
G01*
X116161607Y-99574393D01*
X116214446Y-99653471D01*
X116233000Y-99746750D01*
X116233000Y-100659250D01*
X116214446Y-100752529D01*
X116161607Y-100831607D01*
X116082529Y-100884446D01*
X115989250Y-100903000D01*
X115501750Y-100903000D01*
X115408471Y-100884446D01*
X115329393Y-100831607D01*
X115276554Y-100752529D01*
X115258000Y-100659250D01*
X115258000Y-99746750D01*
X115276554Y-99653471D01*
X115329393Y-99574393D01*
X115408471Y-99521554D01*
X115501750Y-99503000D01*
X115989250Y-99503000D01*
X116082529Y-99521554D01*
G37*
G36*
X110397529Y-99521554D02*
G01*
X110476607Y-99574393D01*
X110529446Y-99653471D01*
X110548000Y-99746750D01*
X110548000Y-100659250D01*
X110529446Y-100752529D01*
X110476607Y-100831607D01*
X110397529Y-100884446D01*
X110304250Y-100903000D01*
X109816750Y-100903000D01*
X109723471Y-100884446D01*
X109644393Y-100831607D01*
X109591554Y-100752529D01*
X109573000Y-100659250D01*
X109573000Y-99746750D01*
X109591554Y-99653471D01*
X109644393Y-99574393D01*
X109723471Y-99521554D01*
X109816750Y-99503000D01*
X110304250Y-99503000D01*
X110397529Y-99521554D01*
G37*
G36*
X112272529Y-99521554D02*
G01*
X112351607Y-99574393D01*
X112404446Y-99653471D01*
X112423000Y-99746750D01*
X112423000Y-100659250D01*
X112404446Y-100752529D01*
X112351607Y-100831607D01*
X112272529Y-100884446D01*
X112179250Y-100903000D01*
X111691750Y-100903000D01*
X111598471Y-100884446D01*
X111519393Y-100831607D01*
X111466554Y-100752529D01*
X111448000Y-100659250D01*
X111448000Y-99746750D01*
X111466554Y-99653471D01*
X111519393Y-99574393D01*
X111598471Y-99521554D01*
X111691750Y-99503000D01*
X112179250Y-99503000D01*
X112272529Y-99521554D01*
G37*
G36*
X177714529Y-116068554D02*
G01*
X177793607Y-116121393D01*
X177846446Y-116200471D01*
X177865000Y-116293750D01*
X177865000Y-116781250D01*
X177846446Y-116874529D01*
X177793607Y-116953607D01*
X177714529Y-117006446D01*
X177621250Y-117025000D01*
X176708750Y-117025000D01*
X176615471Y-117006446D01*
X176536393Y-116953607D01*
X176483554Y-116874529D01*
X176465000Y-116781250D01*
X176465000Y-116293750D01*
X176483554Y-116200471D01*
X176536393Y-116121393D01*
X176615471Y-116068554D01*
X176708750Y-116050000D01*
X177621250Y-116050000D01*
X177714529Y-116068554D01*
G37*
G36*
X177714529Y-117943554D02*
G01*
X177793607Y-117996393D01*
X177846446Y-118075471D01*
X177865000Y-118168750D01*
X177865000Y-118656250D01*
X177846446Y-118749529D01*
X177793607Y-118828607D01*
X177714529Y-118881446D01*
X177621250Y-118900000D01*
X176708750Y-118900000D01*
X176615471Y-118881446D01*
X176536393Y-118828607D01*
X176483554Y-118749529D01*
X176465000Y-118656250D01*
X176465000Y-118168750D01*
X176483554Y-118075471D01*
X176536393Y-117996393D01*
X176615471Y-117943554D01*
X176708750Y-117925000D01*
X177621250Y-117925000D01*
X177714529Y-117943554D01*
G37*
G36*
X168817529Y-127842554D02*
G01*
X168896607Y-127895393D01*
X168949446Y-127974471D01*
X168968000Y-128067750D01*
X168968000Y-128980250D01*
X168949446Y-129073529D01*
X168896607Y-129152607D01*
X168817529Y-129205446D01*
X168724250Y-129224000D01*
X168236750Y-129224000D01*
X168143471Y-129205446D01*
X168064393Y-129152607D01*
X168011554Y-129073529D01*
X167993000Y-128980250D01*
X167993000Y-128067750D01*
X168011554Y-127974471D01*
X168064393Y-127895393D01*
X168143471Y-127842554D01*
X168236750Y-127824000D01*
X168724250Y-127824000D01*
X168817529Y-127842554D01*
G37*
G36*
X170692529Y-127842554D02*
G01*
X170771607Y-127895393D01*
X170824446Y-127974471D01*
X170843000Y-128067750D01*
X170843000Y-128980250D01*
X170824446Y-129073529D01*
X170771607Y-129152607D01*
X170692529Y-129205446D01*
X170599250Y-129224000D01*
X170111750Y-129224000D01*
X170018471Y-129205446D01*
X169939393Y-129152607D01*
X169886554Y-129073529D01*
X169868000Y-128980250D01*
X169868000Y-128067750D01*
X169886554Y-127974471D01*
X169939393Y-127895393D01*
X170018471Y-127842554D01*
X170111750Y-127824000D01*
X170599250Y-127824000D01*
X170692529Y-127842554D01*
G37*
G36*
X182249529Y-128350554D02*
G01*
X182328607Y-128403393D01*
X182381446Y-128482471D01*
X182400000Y-128575750D01*
X182400000Y-129488250D01*
X182381446Y-129581529D01*
X182328607Y-129660607D01*
X182249529Y-129713446D01*
X182156250Y-129732000D01*
X181668750Y-129732000D01*
X181575471Y-129713446D01*
X181496393Y-129660607D01*
X181443554Y-129581529D01*
X181425000Y-129488250D01*
X181425000Y-128575750D01*
X181443554Y-128482471D01*
X181496393Y-128403393D01*
X181575471Y-128350554D01*
X181668750Y-128332000D01*
X182156250Y-128332000D01*
X182249529Y-128350554D01*
G37*
G36*
X180374529Y-128350554D02*
G01*
X180453607Y-128403393D01*
X180506446Y-128482471D01*
X180525000Y-128575750D01*
X180525000Y-129488250D01*
X180506446Y-129581529D01*
X180453607Y-129660607D01*
X180374529Y-129713446D01*
X180281250Y-129732000D01*
X179793750Y-129732000D01*
X179700471Y-129713446D01*
X179621393Y-129660607D01*
X179568554Y-129581529D01*
X179550000Y-129488250D01*
X179550000Y-128575750D01*
X179568554Y-128482471D01*
X179621393Y-128403393D01*
X179700471Y-128350554D01*
X179793750Y-128332000D01*
X180281250Y-128332000D01*
X180374529Y-128350554D01*
G37*
G36*
X176564529Y-136097554D02*
G01*
X176643607Y-136150393D01*
X176696446Y-136229471D01*
X176715000Y-136322750D01*
X176715000Y-137235250D01*
X176696446Y-137328529D01*
X176643607Y-137407607D01*
X176564529Y-137460446D01*
X176471250Y-137479000D01*
X175983750Y-137479000D01*
X175890471Y-137460446D01*
X175811393Y-137407607D01*
X175758554Y-137328529D01*
X175740000Y-137235250D01*
X175740000Y-136322750D01*
X175758554Y-136229471D01*
X175811393Y-136150393D01*
X175890471Y-136097554D01*
X175983750Y-136079000D01*
X176471250Y-136079000D01*
X176564529Y-136097554D01*
G37*
G36*
X178439529Y-136097554D02*
G01*
X178518607Y-136150393D01*
X178571446Y-136229471D01*
X178590000Y-136322750D01*
X178590000Y-137235250D01*
X178571446Y-137328529D01*
X178518607Y-137407607D01*
X178439529Y-137460446D01*
X178346250Y-137479000D01*
X177858750Y-137479000D01*
X177765471Y-137460446D01*
X177686393Y-137407607D01*
X177633554Y-137328529D01*
X177615000Y-137235250D01*
X177615000Y-136322750D01*
X177633554Y-136229471D01*
X177686393Y-136150393D01*
X177765471Y-136097554D01*
X177858750Y-136079000D01*
X178346250Y-136079000D01*
X178439529Y-136097554D01*
G37*
M02*
