M48
INCH,TZ
T1C0.0157
T2C0.0300
T3C0.0354
T4C0.0394
T5C0.0433
T6C0.0472
T7C0.0787
T8C0.0984
T9C0.1260
%
G90
G05
T1
X37350Y-54300
X38000Y-22000
X38000Y-23000
X38000Y-58000
X38000Y-59000
X38105Y-26000
X38105Y-27000
X38111Y-27999
X39000Y-22000
X39000Y-26000
X39000Y-27000
X39000Y-37000
X39000Y-38000
X39000Y-39000
X39000Y-40000
X39000Y-41000
X39000Y-45000
X39000Y-46000
X39000Y-47000
X39000Y-48000
X39000Y-49000
X39000Y-50000
X39000Y-51000
X39000Y-52000
X39000Y-53000
X39000Y-54000
X39000Y-56000
X39000Y-57000
X39000Y-59000
X39900Y-32718
X40000Y-21500
X40000Y-24000
X40000Y-27000
X40000Y-28000
X40000Y-36000
X40000Y-37000
X40000Y-38000
X40000Y-39000
X40000Y-40000
X40000Y-41000
X40000Y-45000
X40000Y-46000
X40000Y-47000
X40000Y-50000
X40000Y-58000
X40050Y-25500
X40309Y-23039
X41000Y-24000
X41000Y-30000
X41000Y-36000
X41000Y-41000
X41000Y-42000
X41000Y-43000
X41000Y-45000
X41000Y-46000
X41000Y-47000
X41000Y-48000
X41000Y-49000
X41000Y-50000
X41500Y-21500
X42000Y-24012
X42000Y-31000
X42000Y-36950
X42000Y-38000
X42000Y-39000
X42000Y-40000
X42000Y-42000
X42000Y-43000
X42000Y-45000
X42000Y-46000
X42500Y-21500
X42520Y-28346
X43000Y-24000
X43000Y-31000
X43000Y-32000
X43000Y-41000
X43000Y-43000
X43000Y-45000
X43000Y-46000
X43000Y-47000
X43000Y-48000
X43000Y-49000
X43000Y-50000
X43000Y-56000
X43000Y-57000
X43000Y-58000
X43000Y-59000
X43300Y-27550
X43500Y-21500
X44000Y-24000
X44000Y-27000
X44000Y-28000
X44000Y-33000
X44000Y-34000
X44000Y-41000
X44000Y-42000
X44000Y-45000
X44000Y-46000
X44000Y-50000
X44000Y-54000
X44000Y-55000
X44000Y-56000
X44000Y-57000
X44000Y-58000
X44550Y-26350
X45000Y-21500
X45000Y-24000
X45000Y-26000
X45000Y-29000
X45000Y-31000
X45000Y-32000
X45000Y-33000
X45000Y-45000
X45000Y-46000
X45000Y-48000
X45000Y-50000
X45000Y-58000
X45160Y-42860
X45170Y-44170
X45200Y-35450
X45741Y-54853
X45850Y-58965
X46000Y-21500
X46000Y-24000
X46000Y-26000
X46000Y-29000
X46000Y-31000
X46000Y-32000
X46000Y-34000
X46000Y-42000
X46000Y-45000
X46000Y-46000
X46000Y-47000
X46000Y-48000
X46000Y-49000
X46000Y-50000
X46955Y-59105
X47000Y-21500
X47000Y-24000
X47000Y-25000
X47000Y-26000
X47000Y-33000
X47000Y-34000
X47000Y-45000
X47000Y-46000
X47000Y-52000
X47000Y-58000
X47140Y-59480
X47250Y-38050
X47850Y-34500
X48000Y-21500
X48000Y-24000
X48000Y-26000
X48000Y-27000
X48000Y-28000
X48000Y-29000
X48000Y-31000
X48000Y-32000
X48000Y-33000
X48000Y-41000
X48000Y-45000
X48000Y-46000
X48000Y-47000
X48000Y-48000
X48000Y-49000
X49000Y-21500
X49000Y-24000
X49000Y-26000
X49000Y-29000
X49000Y-31000
X49000Y-32000
X49000Y-33000
X49000Y-34000
X49000Y-40000
X49000Y-41000
X49000Y-42000
X49000Y-45000
X49000Y-46000
X49000Y-47000
X49000Y-48000
X49000Y-49000
X49305Y-42730
X49315Y-43845
X49575Y-37565
X49741Y-53853
X49741Y-55353
X49741Y-56853
X49790Y-57640
X50000Y-21500
X50000Y-26000
X50000Y-27000
X50000Y-28000
X50000Y-29000
X50000Y-33000
X50000Y-34000
X50000Y-42000
X50000Y-44000
X50000Y-45000
X50000Y-46000
X50000Y-47000
X50000Y-48000
X50000Y-49000
X50920Y-43020
X50991Y-53103
X50991Y-54603
X50991Y-56103
X50991Y-57603
X51000Y-21500
X51000Y-24012
X51000Y-26000
X51000Y-27000
X51000Y-28000
X51000Y-44000
X51000Y-45000
X51000Y-46000
X51000Y-47000
X51000Y-48000
X51000Y-49000
X51143Y-39400
X51143Y-40400
X51143Y-41400
X51143Y-42350
X51225Y-37600
X51244Y-38379
X51254Y-32113
X51350Y-29450
X51694Y-32113
X52000Y-21500
X52000Y-24012
X52000Y-26000
X52000Y-27000
X52000Y-28000
X52000Y-29000
X52000Y-33000
X52000Y-35000
X52000Y-37000
X52000Y-43000
X52000Y-44000
X52000Y-45000
X52000Y-46000
X52400Y-29415
X52650Y-33850
X52650Y-34700
X52700Y-35550
X53000Y-21500
X53000Y-24012
X53000Y-26000
X53000Y-27000
X53000Y-28000
X53000Y-32000
X53000Y-33000
X53000Y-37000
X53000Y-43000
X53000Y-44000
X53000Y-45000
X53241Y-53103
X53241Y-54603
X53241Y-56103
X53241Y-57603
X54000Y-21500
X54000Y-24012
X54000Y-26000
X54000Y-27000
X54000Y-29000
X54000Y-33000
X54000Y-37000
X54000Y-47000
X54000Y-48000
X54160Y-42473
X54205Y-43875
X54207Y-43126
X55000Y-21500
X55000Y-24000
X55000Y-26000
X55000Y-27000
X55000Y-28000
X55000Y-29000
X55000Y-32000
X55000Y-33000
X55000Y-34000
X55000Y-37000
X55000Y-38000
X55108Y-41354
X55401Y-50550
X55462Y-40367
X55486Y-43067
X55585Y-50150
X55800Y-49400
X55817Y-39168
X55856Y-42438
X55865Y-49853
X56000Y-21500
X56000Y-24000
X56000Y-25000
X56000Y-26000
X56000Y-27000
X56000Y-28000
X56000Y-32000
X56000Y-33000
X56000Y-34000
X56000Y-37000
X56000Y-38000
X56033Y-41307
X56210Y-40407
X56310Y-37600
X56387Y-39270
X56491Y-53103
X56491Y-54603
X56491Y-56103
X56491Y-57603
X56500Y-36100
X56570Y-43900
X56802Y-35816
X56858Y-44420
X56934Y-45253
X56946Y-35398
X56994Y-44789
X57000Y-21500
X57000Y-23000
X57000Y-24000
X57000Y-25000
X57000Y-26000
X57000Y-29000
X57000Y-32000
X57000Y-33000
X57000Y-34950
X57250Y-50450
X57300Y-51450
X57521Y-45375
X57605Y-37610
X57650Y-50700
X57671Y-56488
X57671Y-58013
X57676Y-55013
X57681Y-53498
X57772Y-51282
X57915Y-45384
X58000Y-21500
X58000Y-23000
X58000Y-24000
X58000Y-25000
X58000Y-26000
X58000Y-27000
X58000Y-28000
X58000Y-30000
X58000Y-31000
X58000Y-32000
X58000Y-38000
X58000Y-39000
X58050Y-44950
X58107Y-36114
X58150Y-36650
X58160Y-51495
X58280Y-34892
X58333Y-47538
X58453Y-45556
X58549Y-35430
X58608Y-48004
X58664Y-45210
X58677Y-51127
X58899Y-51911
X59000Y-21500
X59000Y-23000
X59000Y-24000
X59000Y-25000
X59000Y-26000
X59000Y-27000
X59000Y-28000
X59038Y-45662
X59450Y-52100
X59922Y-52286
X59979Y-47060
X60000Y-30000
X60000Y-31000
X60000Y-32000
X60000Y-33000
X60000Y-34000
X60000Y-35000
X60000Y-38000
X60000Y-39000
X60000Y-40000
X60000Y-41000
X60000Y-43000
X60000Y-53000
X60491Y-58103
X60900Y-49167
X60958Y-37988
X61000Y-22000
X61000Y-23000
X61000Y-24000
X61000Y-25000
X61000Y-26000
X61000Y-27000
X61000Y-28000
X61000Y-29000
X61000Y-30000
X61000Y-31000
X61000Y-32000
X61000Y-33000
X61000Y-34000
X61000Y-35000
X61000Y-39000
X61000Y-40000
X61000Y-41000
X61000Y-42000
X62000Y-22000
X62000Y-23000
X62000Y-24000
X62000Y-25000
X62000Y-26000
X62000Y-27000
X62000Y-28000
X62000Y-29000
X62000Y-30000
X62000Y-31000
X62000Y-32000
X62000Y-33000
X62000Y-34000
X62000Y-35000
X62000Y-38000
X62000Y-39000
X62000Y-40000
X62000Y-41000
X62000Y-42000
X62000Y-43000
X62350Y-50950
X62450Y-52100
X63000Y-22000
X63000Y-23000
X63000Y-24000
X63000Y-25000
X63000Y-26000
X63000Y-27000
X63000Y-28000
X63000Y-29000
X63000Y-30000
X63000Y-31000
X63000Y-32000
X63000Y-33000
X63000Y-38000
X63000Y-39000
X63000Y-40000
X63000Y-41000
X63000Y-42000
X63000Y-43000
X63000Y-50000
X63000Y-52000
X63000Y-59000
X63275Y-59530
X63900Y-54650
X64000Y-22000
X64000Y-23000
X64000Y-24000
X64000Y-25000
X64000Y-26000
X64000Y-27000
X64000Y-28000
X64000Y-37000
X64000Y-38000
X64000Y-39000
X64000Y-40000
X64000Y-41000
X64000Y-42000
X64000Y-48000
X64000Y-49000
X64000Y-50000
X64000Y-52000
X64043Y-31215
X64155Y-33966
X64468Y-31215
X64562Y-33980
X64573Y-34374
X64907Y-31216
X65000Y-22000
X65000Y-23000
X65000Y-24000
X65000Y-25000
X65000Y-26000
X65000Y-27000
X65000Y-36000
X65000Y-37000
X65000Y-38000
X65000Y-39000
X65000Y-40000
X65000Y-41000
X65000Y-42000
X65000Y-56000
X65000Y-57000
X65065Y-55100
X65165Y-33989
X65300Y-31200
X66000Y-22000
X66000Y-23000
X66000Y-24000
X66000Y-25000
X66000Y-26000
X66000Y-29000
X66000Y-30000
X66000Y-31000
X66000Y-32000
X66000Y-36000
X66000Y-37000
X66000Y-38000
X66000Y-39000
X66000Y-40000
X66000Y-41000
X66000Y-42000
X66000Y-48000
X66000Y-49000
X66000Y-50000
X66000Y-57000
X66000Y-58000
X66200Y-55100
X67000Y-22000
X67000Y-23000
X67000Y-24000
X67000Y-25000
X67000Y-27000
X67000Y-29000
X67500Y-44600
X67700Y-53600
X67750Y-54450
X68000Y-22000
X68000Y-23000
X68000Y-24000
X68000Y-25000
X68000Y-27000
X68000Y-29000
X68000Y-30000
X68000Y-31000
X68000Y-32000
X68000Y-33000
X68000Y-34000
X68000Y-35000
X68000Y-36000
X68000Y-39000
X68000Y-42000
X68000Y-48000
X68000Y-49000
X68000Y-51000
X68168Y-43191
X68200Y-54050
X68599Y-37426
X68780Y-51895
X68855Y-53940
X69000Y-22000
X69000Y-23000
X69000Y-24000
X69000Y-25000
X69000Y-29000
X69000Y-32000
X69000Y-40000
X69000Y-48000
X69000Y-49000
X69000Y-51000
X69000Y-55000
X69000Y-57000
X69500Y-36750
X69913Y-37031
X70000Y-22000
X70000Y-23000
X70000Y-24000
X70000Y-29000
X70000Y-31000
X70000Y-32000
X70000Y-51000
X70000Y-55000
X70310Y-38150
X70314Y-36695
X70750Y-36750
X70775Y-39480
X70815Y-39940
X70815Y-48670
X70890Y-54905
X71000Y-22000
X71000Y-23000
X71000Y-24000
X71000Y-28000
X71000Y-29000
X71000Y-30000
X71000Y-31000
X71000Y-32000
X71000Y-50000
X71000Y-56000
X71000Y-57000
X71000Y-58000
X71000Y-59000
X71265Y-49205
X71555Y-45210
X71760Y-39722
T2
X63513Y-53269
X63513Y-57600
X64300Y-53269
X64300Y-57600
X65087Y-53269
X65087Y-57600
T3
X39131Y-28400
X40116Y-26431
X41100Y-28400
T4
X59250Y-29800
X59250Y-30800
X59250Y-31800
X59250Y-32800
X59250Y-33800
X59250Y-34800
X59250Y-35800
X59250Y-36800
X59250Y-37800
X59250Y-38800
X59250Y-39800
X59250Y-40800
X59250Y-41800
X59250Y-42800
X60750Y-43800
X60750Y-44800
X61750Y-43800
X61750Y-44800
X62750Y-43800
X62750Y-44800
X63750Y-43800
X63750Y-44800
X64750Y-43800
X64750Y-44800
X65750Y-43800
X65750Y-44800
X67250Y-29800
X67250Y-30800
X67250Y-31800
X67250Y-32800
X67250Y-33800
X67250Y-34800
X67250Y-35800
X67250Y-36800
X67250Y-37800
X67250Y-38800
X67250Y-39800
X67250Y-40800
X67250Y-41800
X67250Y-42800
X41000Y-51950
X41000Y-52950
X41000Y-53950
X41000Y-54950
X41000Y-55950
X41000Y-56950
X41000Y-57950
X41000Y-58950
X42000Y-51950
X42000Y-52950
X42000Y-53950
X42000Y-54950
X42000Y-55950
X42000Y-56950
X42000Y-57950
X42000Y-58950
X71100Y-46000
X71100Y-47000
X71100Y-48000
X48950Y-26950
X48950Y-27950
X51641Y-47431
X51641Y-49400
X57350Y-47431
X57350Y-48416
X57350Y-49400
X69100Y-44350
X70100Y-44350
X46500Y-26950
X46500Y-27950
T5
X62059Y-47650
X62059Y-49422
X64618Y-47650
X64618Y-49422
X67000Y-47650
X67000Y-49422
X69559Y-47650
X69559Y-49422
X44500Y-47600
X44500Y-49372
X47059Y-47600
X47059Y-49372
X39550Y-47600
X39550Y-49372
X42109Y-47600
X42109Y-49372
T6
X45063Y-24740
X46244Y-24740
X47031Y-22772
X47819Y-24740
X49000Y-24740
X41900Y-30250
X42900Y-30250
X43900Y-30250
X44900Y-30250
X45900Y-30250
X46900Y-30250
X47900Y-30250
X48900Y-30250
X49900Y-30250
X50900Y-30250
X51900Y-30250
X52900Y-30250
X53900Y-30250
X54900Y-30250
X55900Y-30250
X56900Y-30250
X50531Y-24740
X51713Y-24740
X52500Y-22772
X53287Y-24740
X54469Y-24740
X39531Y-24740
X40713Y-24740
X41500Y-22772
X42287Y-24740
X43469Y-24740
T8
X39735Y-30250
X39735Y-42455
X69262Y-42455
X69262Y-30250
T9
X72500Y-22500
X36500Y-22500
X36500Y-58500
X72500Y-58500
T7
G00X54496Y-46211
M15
G01X54299Y-46211
M16
G05
G00X54496Y-50620
M15
G01X54299Y-50620
M16
G05
T0
M30
