M48
INCH,TZ
T1C0.0157
T2C0.0354
T3C0.0394
T4C0.0400
T5C0.1260
%
G90
G05
T1
X44500Y-45750
X44750Y-32000
X45000Y-36775
X45750Y-41000
X45823Y-36000
X46000Y-23000
X46000Y-24000
X46000Y-25000
X46000Y-26000
X46250Y-36000
X46250Y-41250
X47000Y-26750
X47000Y-32000
X47800Y-27719
X47800Y-28535
X47800Y-41875
X48125Y-42600
X48475Y-40975
X48500Y-37600
X49125Y-42625
X49137Y-36425
X49175Y-40975
X49175Y-41875
X49200Y-29900
X49302Y-38148
X49365Y-35870
X50750Y-27750
X50750Y-28750
X50817Y-35525
X50987Y-38463
X51500Y-30750
X51650Y-29000
X51765Y-35788
X52009Y-37669
X52825Y-38175
X52975Y-32144
X53100Y-33700
X53118Y-36250
X53500Y-31750
X53725Y-25450
X54150Y-38150
X54200Y-28525
X54250Y-36250
X54462Y-27038
X54477Y-30275
X54500Y-24000
X54500Y-29704
X54500Y-34000
X54550Y-40450
X54750Y-26500
X54788Y-23462
X54800Y-30550
X55200Y-31950
X55550Y-38175
X56250Y-32750
X56800Y-32450
X57050Y-28600
X57150Y-38900
X57375Y-36425
X57448Y-32398
X57450Y-32800
X57475Y-23775
X57500Y-42250
X57750Y-27311
X57750Y-28500
X57900Y-44550
X58321Y-29000
X58950Y-37500
X59350Y-33150
X59975Y-31300
X60150Y-44200
X60250Y-27750
X60400Y-45000
X60500Y-29000
X61025Y-27750
X61450Y-38550
X61500Y-29750
X61600Y-29100
X62585Y-23265
X63081Y-42500
X63250Y-22750
X63525Y-28450
X65897Y-38879
X66250Y-23250
T2
X69000Y-40031
X69000Y-42000
X70969Y-41016
X68900Y-28850
X68900Y-30819
X70869Y-29834
X68900Y-34431
X68900Y-36400
X70869Y-35416
T3
X50500Y-30000
X50500Y-31000
X50500Y-32000
X50500Y-33000
X50500Y-34000
X50500Y-35000
X50500Y-36000
X50500Y-37000
X50500Y-38000
X50500Y-39000
X50500Y-40000
X50500Y-41000
X50500Y-42000
X50500Y-43000
X52000Y-44000
X52000Y-45000
X53000Y-44000
X53000Y-45000
X54000Y-44000
X54000Y-45000
X55000Y-44000
X55000Y-45000
X56000Y-44000
X56000Y-45000
X57000Y-44000
X57000Y-45000
X58500Y-30000
X58500Y-31000
X58500Y-32000
X58500Y-33000
X58500Y-34000
X58500Y-35000
X58500Y-36000
X58500Y-37000
X58500Y-38000
X58500Y-39000
X58500Y-40000
X58500Y-41000
X58500Y-42000
X58500Y-43000
X65919Y-44500
X65919Y-45500
T4
X62500Y-35000
X62500Y-36000
X62500Y-37000
X62500Y-38000
X62500Y-39000
X62500Y-40000
X62500Y-41000
X62500Y-42000
X62500Y-43000
X62500Y-44000
X63500Y-35000
X63500Y-36000
X63500Y-37000
X63500Y-38000
X63500Y-39000
X63500Y-40000
X63500Y-41000
X63500Y-42000
X63500Y-43000
X63500Y-44000
X42000Y-44000
X42000Y-45000
X43000Y-44000
X43000Y-45000
X44000Y-44000
X44000Y-45000
X45000Y-44000
X45000Y-45000
X46000Y-44000
X46000Y-45000
T5
X72500Y-23500
X36500Y-23500
X36500Y-45500
X72500Y-45500
T0
M30
