G04 #@! TF.GenerationSoftware,KiCad,Pcbnew,5.99.0-unknown-43514a1~86~ubuntu18.04.1*
G04 #@! TF.CreationDate,2020-02-15T14:01:29+00:00*
G04 #@! TF.ProjectId,UI,55492e6b-6963-4616-945f-706362585858,rev?*
G04 #@! TF.SameCoordinates,Original*
G04 #@! TF.FileFunction,Legend,Bot*
G04 #@! TF.FilePolarity,Positive*
%FSLAX46Y46*%
G04 Gerber Fmt 4.6, Leading zero omitted, Abs format (unit mm)*
G04 Created by KiCad (PCBNEW 5.99.0-unknown-43514a1~86~ubuntu18.04.1) date 2020-02-15 14:01:29*
%MOMM*%
%LPD*%
G01*
G04 APERTURE LIST*
%ADD10C,0.150000*%
%ADD11C,0.120000*%
G04 APERTURE END LIST*
D10*
X138231428Y-64206380D02*
X138231428Y-63206380D01*
X137898095Y-63920666D01*
X137564761Y-63206380D01*
X137564761Y-64206380D01*
X137088571Y-64206380D02*
X137088571Y-63206380D01*
X136040952Y-64111142D02*
X136088571Y-64158761D01*
X136231428Y-64206380D01*
X136326666Y-64206380D01*
X136469523Y-64158761D01*
X136564761Y-64063523D01*
X136612380Y-63968285D01*
X136660000Y-63777809D01*
X136660000Y-63634952D01*
X136612380Y-63444476D01*
X136564761Y-63349238D01*
X136469523Y-63254000D01*
X136326666Y-63206380D01*
X136231428Y-63206380D01*
X136088571Y-63254000D01*
X136040952Y-63301619D01*
X121935714Y-64158761D02*
X121792857Y-64206380D01*
X121554761Y-64206380D01*
X121459523Y-64158761D01*
X121411904Y-64111142D01*
X121364285Y-64015904D01*
X121364285Y-63920666D01*
X121411904Y-63825428D01*
X121459523Y-63777809D01*
X121554761Y-63730190D01*
X121745238Y-63682571D01*
X121840476Y-63634952D01*
X121888095Y-63587333D01*
X121935714Y-63492095D01*
X121935714Y-63396857D01*
X121888095Y-63301619D01*
X121840476Y-63254000D01*
X121745238Y-63206380D01*
X121507142Y-63206380D01*
X121364285Y-63254000D01*
X120935714Y-64206380D02*
X120935714Y-63206380D01*
X120554761Y-63206380D01*
X120459523Y-63254000D01*
X120411904Y-63301619D01*
X120364285Y-63396857D01*
X120364285Y-63539714D01*
X120411904Y-63634952D01*
X120459523Y-63682571D01*
X120554761Y-63730190D01*
X120935714Y-63730190D01*
X119935714Y-64206380D02*
X119935714Y-63206380D01*
X119364285Y-64206380D02*
X119792857Y-63634952D01*
X119364285Y-63206380D02*
X119935714Y-63777809D01*
X154693809Y-64079380D02*
X154693809Y-63079380D01*
X154312857Y-63079380D01*
X154217619Y-63127000D01*
X154170000Y-63174619D01*
X154122380Y-63269857D01*
X154122380Y-63412714D01*
X154170000Y-63507952D01*
X154217619Y-63555571D01*
X154312857Y-63603190D01*
X154693809Y-63603190D01*
X153836666Y-63079380D02*
X153265238Y-63079380D01*
X153550952Y-64079380D02*
X153550952Y-63079380D01*
X153074761Y-63079380D02*
X152503333Y-63079380D01*
X152789047Y-64079380D02*
X152789047Y-63079380D01*
X197769714Y-60369380D02*
X197579238Y-60369380D01*
X197484000Y-60417000D01*
X197388761Y-60512238D01*
X197341142Y-60702714D01*
X197341142Y-61036047D01*
X197388761Y-61226523D01*
X197484000Y-61321761D01*
X197579238Y-61369380D01*
X197769714Y-61369380D01*
X197864952Y-61321761D01*
X197960190Y-61226523D01*
X198007809Y-61036047D01*
X198007809Y-60702714D01*
X197960190Y-60512238D01*
X197864952Y-60417000D01*
X197769714Y-60369380D01*
X196912571Y-60702714D02*
X196912571Y-61702714D01*
X196912571Y-60750333D02*
X196817333Y-60702714D01*
X196626857Y-60702714D01*
X196531619Y-60750333D01*
X196484000Y-60797952D01*
X196436380Y-60893190D01*
X196436380Y-61178904D01*
X196484000Y-61274142D01*
X196531619Y-61321761D01*
X196626857Y-61369380D01*
X196817333Y-61369380D01*
X196912571Y-61321761D01*
X195626857Y-61321761D02*
X195722095Y-61369380D01*
X195912571Y-61369380D01*
X196007809Y-61321761D01*
X196055428Y-61226523D01*
X196055428Y-60845571D01*
X196007809Y-60750333D01*
X195912571Y-60702714D01*
X195722095Y-60702714D01*
X195626857Y-60750333D01*
X195579238Y-60845571D01*
X195579238Y-60940809D01*
X196055428Y-61036047D01*
X195150666Y-60702714D02*
X195150666Y-61369380D01*
X195150666Y-60797952D02*
X195103047Y-60750333D01*
X195007809Y-60702714D01*
X194864952Y-60702714D01*
X194769714Y-60750333D01*
X194722095Y-60845571D01*
X194722095Y-61369380D01*
X194341142Y-60369380D02*
X193674476Y-61369380D01*
X193674476Y-60369380D02*
X194341142Y-61369380D01*
X192864952Y-61321761D02*
X192960190Y-61369380D01*
X193150666Y-61369380D01*
X193245904Y-61321761D01*
X193293523Y-61274142D01*
X193341142Y-61178904D01*
X193341142Y-60893190D01*
X193293523Y-60797952D01*
X193245904Y-60750333D01*
X193150666Y-60702714D01*
X192960190Y-60702714D01*
X192864952Y-60750333D01*
X192531619Y-60702714D02*
X192293523Y-61369380D01*
X192055428Y-60702714D01*
X191674476Y-61369380D02*
X191674476Y-60702714D01*
X191674476Y-60893190D02*
X191626857Y-60797952D01*
X191579238Y-60750333D01*
X191484000Y-60702714D01*
X191388761Y-60702714D01*
X190103047Y-60369380D02*
X190007809Y-60369380D01*
X189912571Y-60417000D01*
X189864952Y-60464619D01*
X189817333Y-60559857D01*
X189769714Y-60750333D01*
X189769714Y-60988428D01*
X189817333Y-61178904D01*
X189864952Y-61274142D01*
X189912571Y-61321761D01*
X190007809Y-61369380D01*
X190103047Y-61369380D01*
X190198285Y-61321761D01*
X190245904Y-61274142D01*
X190293523Y-61178904D01*
X190341142Y-60988428D01*
X190341142Y-60750333D01*
X190293523Y-60559857D01*
X190245904Y-60464619D01*
X190198285Y-60417000D01*
X190103047Y-60369380D01*
X189341142Y-61274142D02*
X189293523Y-61321761D01*
X189341142Y-61369380D01*
X189388761Y-61321761D01*
X189341142Y-61274142D01*
X189341142Y-61369380D01*
X188341142Y-61369380D02*
X188912571Y-61369380D01*
X188626857Y-61369380D02*
X188626857Y-60369380D01*
X188722095Y-60512238D01*
X188817333Y-60607476D01*
X188912571Y-60655095D01*
X187150666Y-60369380D02*
X187150666Y-61178904D01*
X187103047Y-61274142D01*
X187055428Y-61321761D01*
X186960190Y-61369380D01*
X186769714Y-61369380D01*
X186674476Y-61321761D01*
X186626857Y-61274142D01*
X186579238Y-61178904D01*
X186579238Y-60369380D01*
X186103047Y-61369380D02*
X186103047Y-60369380D01*
X184531619Y-60845571D02*
X184388761Y-60893190D01*
X184341142Y-60940809D01*
X184293523Y-61036047D01*
X184293523Y-61178904D01*
X184341142Y-61274142D01*
X184388761Y-61321761D01*
X184484000Y-61369380D01*
X184864952Y-61369380D01*
X184864952Y-60369380D01*
X184531619Y-60369380D01*
X184436380Y-60417000D01*
X184388761Y-60464619D01*
X184341142Y-60559857D01*
X184341142Y-60655095D01*
X184388761Y-60750333D01*
X184436380Y-60797952D01*
X184531619Y-60845571D01*
X184864952Y-60845571D01*
X183722095Y-61369380D02*
X183817333Y-61321761D01*
X183864952Y-61274142D01*
X183912571Y-61178904D01*
X183912571Y-60893190D01*
X183864952Y-60797952D01*
X183817333Y-60750333D01*
X183722095Y-60702714D01*
X183579238Y-60702714D01*
X183484000Y-60750333D01*
X183436380Y-60797952D01*
X183388761Y-60893190D01*
X183388761Y-61178904D01*
X183436380Y-61274142D01*
X183484000Y-61321761D01*
X183579238Y-61369380D01*
X183722095Y-61369380D01*
X182531619Y-61369380D02*
X182531619Y-60845571D01*
X182579238Y-60750333D01*
X182674476Y-60702714D01*
X182864952Y-60702714D01*
X182960190Y-60750333D01*
X182531619Y-61321761D02*
X182626857Y-61369380D01*
X182864952Y-61369380D01*
X182960190Y-61321761D01*
X183007809Y-61226523D01*
X183007809Y-61131285D01*
X182960190Y-61036047D01*
X182864952Y-60988428D01*
X182626857Y-60988428D01*
X182531619Y-60940809D01*
X182055428Y-61369380D02*
X182055428Y-60702714D01*
X182055428Y-60893190D02*
X182007809Y-60797952D01*
X181960190Y-60750333D01*
X181864952Y-60702714D01*
X181769714Y-60702714D01*
X181007809Y-61369380D02*
X181007809Y-60369380D01*
X181007809Y-61321761D02*
X181103047Y-61369380D01*
X181293523Y-61369380D01*
X181388761Y-61321761D01*
X181436380Y-61274142D01*
X181484000Y-61178904D01*
X181484000Y-60893190D01*
X181436380Y-60797952D01*
X181388761Y-60750333D01*
X181293523Y-60702714D01*
X181103047Y-60702714D01*
X181007809Y-60750333D01*
X194912571Y-61979380D02*
X194912571Y-62693666D01*
X194960190Y-62836523D01*
X195055428Y-62931761D01*
X195198285Y-62979380D01*
X195293523Y-62979380D01*
X194436380Y-62979380D02*
X194436380Y-61979380D01*
X194055428Y-61979380D01*
X193960190Y-62027000D01*
X193912571Y-62074619D01*
X193864952Y-62169857D01*
X193864952Y-62312714D01*
X193912571Y-62407952D01*
X193960190Y-62455571D01*
X194055428Y-62503190D01*
X194436380Y-62503190D01*
X193436380Y-62979380D02*
X193436380Y-61979380D01*
X193198285Y-61979380D01*
X193055428Y-62027000D01*
X192960190Y-62122238D01*
X192912571Y-62217476D01*
X192864952Y-62407952D01*
X192864952Y-62550809D01*
X192912571Y-62741285D01*
X192960190Y-62836523D01*
X193055428Y-62931761D01*
X193198285Y-62979380D01*
X193436380Y-62979380D01*
X192007809Y-62979380D02*
X192007809Y-62455571D01*
X192055428Y-62360333D01*
X192150666Y-62312714D01*
X192341142Y-62312714D01*
X192436380Y-62360333D01*
X192007809Y-62931761D02*
X192103047Y-62979380D01*
X192341142Y-62979380D01*
X192436380Y-62931761D01*
X192484000Y-62836523D01*
X192484000Y-62741285D01*
X192436380Y-62646047D01*
X192341142Y-62598428D01*
X192103047Y-62598428D01*
X192007809Y-62550809D01*
X191626857Y-62312714D02*
X191436380Y-62979380D01*
X191245904Y-62503190D01*
X191055428Y-62979380D01*
X190864952Y-62312714D01*
X190531619Y-62931761D02*
X190436380Y-62979380D01*
X190245904Y-62979380D01*
X190150666Y-62931761D01*
X190103047Y-62836523D01*
X190103047Y-62788904D01*
X190150666Y-62693666D01*
X190245904Y-62646047D01*
X190388761Y-62646047D01*
X190484000Y-62598428D01*
X190531619Y-62503190D01*
X190531619Y-62455571D01*
X190484000Y-62360333D01*
X190388761Y-62312714D01*
X190245904Y-62312714D01*
X190150666Y-62360333D01*
X189531619Y-62979380D02*
X189626857Y-62931761D01*
X189674476Y-62884142D01*
X189722095Y-62788904D01*
X189722095Y-62503190D01*
X189674476Y-62407952D01*
X189626857Y-62360333D01*
X189531619Y-62312714D01*
X189388761Y-62312714D01*
X189293523Y-62360333D01*
X189245904Y-62407952D01*
X189198285Y-62503190D01*
X189198285Y-62788904D01*
X189245904Y-62884142D01*
X189293523Y-62931761D01*
X189388761Y-62979380D01*
X189531619Y-62979380D01*
X188769714Y-62312714D02*
X188769714Y-62979380D01*
X188769714Y-62407952D02*
X188722095Y-62360333D01*
X188626857Y-62312714D01*
X188484000Y-62312714D01*
X188388761Y-62360333D01*
X188341142Y-62455571D01*
X188341142Y-62979380D01*
X187150666Y-62074619D02*
X187103047Y-62027000D01*
X187007809Y-61979380D01*
X186769714Y-61979380D01*
X186674476Y-62027000D01*
X186626857Y-62074619D01*
X186579238Y-62169857D01*
X186579238Y-62265095D01*
X186626857Y-62407952D01*
X187198285Y-62979380D01*
X186579238Y-62979380D01*
X185960190Y-61979380D02*
X185864952Y-61979380D01*
X185769714Y-62027000D01*
X185722095Y-62074619D01*
X185674476Y-62169857D01*
X185626857Y-62360333D01*
X185626857Y-62598428D01*
X185674476Y-62788904D01*
X185722095Y-62884142D01*
X185769714Y-62931761D01*
X185864952Y-62979380D01*
X185960190Y-62979380D01*
X186055428Y-62931761D01*
X186103047Y-62884142D01*
X186150666Y-62788904D01*
X186198285Y-62598428D01*
X186198285Y-62360333D01*
X186150666Y-62169857D01*
X186103047Y-62074619D01*
X186055428Y-62027000D01*
X185960190Y-61979380D01*
X185245904Y-62074619D02*
X185198285Y-62027000D01*
X185103047Y-61979380D01*
X184864952Y-61979380D01*
X184769714Y-62027000D01*
X184722095Y-62074619D01*
X184674476Y-62169857D01*
X184674476Y-62265095D01*
X184722095Y-62407952D01*
X185293523Y-62979380D01*
X184674476Y-62979380D01*
X184055428Y-61979380D02*
X183960190Y-61979380D01*
X183864952Y-62027000D01*
X183817333Y-62074619D01*
X183769714Y-62169857D01*
X183722095Y-62360333D01*
X183722095Y-62598428D01*
X183769714Y-62788904D01*
X183817333Y-62884142D01*
X183864952Y-62931761D01*
X183960190Y-62979380D01*
X184055428Y-62979380D01*
X184150666Y-62931761D01*
X184198285Y-62884142D01*
X184245904Y-62788904D01*
X184293523Y-62598428D01*
X184293523Y-62360333D01*
X184245904Y-62169857D01*
X184198285Y-62074619D01*
X184150666Y-62027000D01*
X184055428Y-61979380D01*
D11*
X153928578Y-99490000D02*
X153411422Y-99490000D01*
X153928578Y-100910000D02*
X153411422Y-100910000D01*
X142498578Y-99617000D02*
X141981422Y-99617000D01*
X142498578Y-101037000D02*
X141981422Y-101037000D01*
X131068578Y-99715000D02*
X130551422Y-99715000D01*
X131068578Y-101135000D02*
X130551422Y-101135000D01*
X119638578Y-99617000D02*
X119121422Y-99617000D01*
X119638578Y-101037000D02*
X119121422Y-101037000D01*
X180422578Y-90118000D02*
X179905422Y-90118000D01*
X180422578Y-88698000D02*
X179905422Y-88698000D01*
X180471578Y-86689000D02*
X179954422Y-86689000D01*
X180471578Y-85269000D02*
X179954422Y-85269000D01*
X153411422Y-96315000D02*
X153928578Y-96315000D01*
X153411422Y-97735000D02*
X153928578Y-97735000D01*
X141981422Y-96315000D02*
X142498578Y-96315000D01*
X141981422Y-97735000D02*
X142498578Y-97735000D01*
X130551422Y-96315000D02*
X131068578Y-96315000D01*
X130551422Y-97735000D02*
X131068578Y-97735000D01*
X119121422Y-96315000D02*
X119638578Y-96315000D01*
X119121422Y-97735000D02*
X119638578Y-97735000D01*
D10*
X157614857Y-100655380D02*
X157948190Y-100179190D01*
X158186285Y-100655380D02*
X158186285Y-99655380D01*
X157805333Y-99655380D01*
X157710095Y-99703000D01*
X157662476Y-99750619D01*
X157614857Y-99845857D01*
X157614857Y-99988714D01*
X157662476Y-100083952D01*
X157710095Y-100131571D01*
X157805333Y-100179190D01*
X158186285Y-100179190D01*
X156662476Y-100655380D02*
X157233904Y-100655380D01*
X156948190Y-100655380D02*
X156948190Y-99655380D01*
X157043428Y-99798238D01*
X157138666Y-99893476D01*
X157233904Y-99941095D01*
X156043428Y-99655380D02*
X155948190Y-99655380D01*
X155852952Y-99703000D01*
X155805333Y-99750619D01*
X155757714Y-99845857D01*
X155710095Y-100036333D01*
X155710095Y-100274428D01*
X155757714Y-100464904D01*
X155805333Y-100560142D01*
X155852952Y-100607761D01*
X155948190Y-100655380D01*
X156043428Y-100655380D01*
X156138666Y-100607761D01*
X156186285Y-100560142D01*
X156233904Y-100464904D01*
X156281523Y-100274428D01*
X156281523Y-100036333D01*
X156233904Y-99845857D01*
X156186285Y-99750619D01*
X156138666Y-99703000D01*
X156043428Y-99655380D01*
X145327666Y-100782380D02*
X145661000Y-100306190D01*
X145899095Y-100782380D02*
X145899095Y-99782380D01*
X145518142Y-99782380D01*
X145422904Y-99830000D01*
X145375285Y-99877619D01*
X145327666Y-99972857D01*
X145327666Y-100115714D01*
X145375285Y-100210952D01*
X145422904Y-100258571D01*
X145518142Y-100306190D01*
X145899095Y-100306190D01*
X144851476Y-100782380D02*
X144661000Y-100782380D01*
X144565761Y-100734761D01*
X144518142Y-100687142D01*
X144422904Y-100544285D01*
X144375285Y-100353809D01*
X144375285Y-99972857D01*
X144422904Y-99877619D01*
X144470523Y-99830000D01*
X144565761Y-99782380D01*
X144756238Y-99782380D01*
X144851476Y-99830000D01*
X144899095Y-99877619D01*
X144946714Y-99972857D01*
X144946714Y-100210952D01*
X144899095Y-100306190D01*
X144851476Y-100353809D01*
X144756238Y-100401428D01*
X144565761Y-100401428D01*
X144470523Y-100353809D01*
X144422904Y-100306190D01*
X144375285Y-100210952D01*
X133897666Y-100782380D02*
X134231000Y-100306190D01*
X134469095Y-100782380D02*
X134469095Y-99782380D01*
X134088142Y-99782380D01*
X133992904Y-99830000D01*
X133945285Y-99877619D01*
X133897666Y-99972857D01*
X133897666Y-100115714D01*
X133945285Y-100210952D01*
X133992904Y-100258571D01*
X134088142Y-100306190D01*
X134469095Y-100306190D01*
X133326238Y-100210952D02*
X133421476Y-100163333D01*
X133469095Y-100115714D01*
X133516714Y-100020476D01*
X133516714Y-99972857D01*
X133469095Y-99877619D01*
X133421476Y-99830000D01*
X133326238Y-99782380D01*
X133135761Y-99782380D01*
X133040523Y-99830000D01*
X132992904Y-99877619D01*
X132945285Y-99972857D01*
X132945285Y-100020476D01*
X132992904Y-100115714D01*
X133040523Y-100163333D01*
X133135761Y-100210952D01*
X133326238Y-100210952D01*
X133421476Y-100258571D01*
X133469095Y-100306190D01*
X133516714Y-100401428D01*
X133516714Y-100591904D01*
X133469095Y-100687142D01*
X133421476Y-100734761D01*
X133326238Y-100782380D01*
X133135761Y-100782380D01*
X133040523Y-100734761D01*
X132992904Y-100687142D01*
X132945285Y-100591904D01*
X132945285Y-100401428D01*
X132992904Y-100306190D01*
X133040523Y-100258571D01*
X133135761Y-100210952D01*
X122594666Y-100782380D02*
X122928000Y-100306190D01*
X123166095Y-100782380D02*
X123166095Y-99782380D01*
X122785142Y-99782380D01*
X122689904Y-99830000D01*
X122642285Y-99877619D01*
X122594666Y-99972857D01*
X122594666Y-100115714D01*
X122642285Y-100210952D01*
X122689904Y-100258571D01*
X122785142Y-100306190D01*
X123166095Y-100306190D01*
X122261333Y-99782380D02*
X121594666Y-99782380D01*
X122023238Y-100782380D01*
X180330666Y-88210380D02*
X180664000Y-87734190D01*
X180902095Y-88210380D02*
X180902095Y-87210380D01*
X180521142Y-87210380D01*
X180425904Y-87258000D01*
X180378285Y-87305619D01*
X180330666Y-87400857D01*
X180330666Y-87543714D01*
X180378285Y-87638952D01*
X180425904Y-87686571D01*
X180521142Y-87734190D01*
X180902095Y-87734190D01*
X179473523Y-87210380D02*
X179664000Y-87210380D01*
X179759238Y-87258000D01*
X179806857Y-87305619D01*
X179902095Y-87448476D01*
X179949714Y-87638952D01*
X179949714Y-88019904D01*
X179902095Y-88115142D01*
X179854476Y-88162761D01*
X179759238Y-88210380D01*
X179568761Y-88210380D01*
X179473523Y-88162761D01*
X179425904Y-88115142D01*
X179378285Y-88019904D01*
X179378285Y-87781809D01*
X179425904Y-87686571D01*
X179473523Y-87638952D01*
X179568761Y-87591333D01*
X179759238Y-87591333D01*
X179854476Y-87638952D01*
X179902095Y-87686571D01*
X179949714Y-87781809D01*
X180379666Y-84781380D02*
X180713000Y-84305190D01*
X180951095Y-84781380D02*
X180951095Y-83781380D01*
X180570142Y-83781380D01*
X180474904Y-83829000D01*
X180427285Y-83876619D01*
X180379666Y-83971857D01*
X180379666Y-84114714D01*
X180427285Y-84209952D01*
X180474904Y-84257571D01*
X180570142Y-84305190D01*
X180951095Y-84305190D01*
X179474904Y-83781380D02*
X179951095Y-83781380D01*
X179998714Y-84257571D01*
X179951095Y-84209952D01*
X179855857Y-84162333D01*
X179617761Y-84162333D01*
X179522523Y-84209952D01*
X179474904Y-84257571D01*
X179427285Y-84352809D01*
X179427285Y-84590904D01*
X179474904Y-84686142D01*
X179522523Y-84733761D01*
X179617761Y-84781380D01*
X179855857Y-84781380D01*
X179951095Y-84733761D01*
X179998714Y-84686142D01*
X156884666Y-97480380D02*
X157218000Y-97004190D01*
X157456095Y-97480380D02*
X157456095Y-96480380D01*
X157075142Y-96480380D01*
X156979904Y-96528000D01*
X156932285Y-96575619D01*
X156884666Y-96670857D01*
X156884666Y-96813714D01*
X156932285Y-96908952D01*
X156979904Y-96956571D01*
X157075142Y-97004190D01*
X157456095Y-97004190D01*
X156027523Y-96813714D02*
X156027523Y-97480380D01*
X156265619Y-96432761D02*
X156503714Y-97147047D01*
X155884666Y-97147047D01*
X145327666Y-97480380D02*
X145661000Y-97004190D01*
X145899095Y-97480380D02*
X145899095Y-96480380D01*
X145518142Y-96480380D01*
X145422904Y-96528000D01*
X145375285Y-96575619D01*
X145327666Y-96670857D01*
X145327666Y-96813714D01*
X145375285Y-96908952D01*
X145422904Y-96956571D01*
X145518142Y-97004190D01*
X145899095Y-97004190D01*
X144994333Y-96480380D02*
X144375285Y-96480380D01*
X144708619Y-96861333D01*
X144565761Y-96861333D01*
X144470523Y-96908952D01*
X144422904Y-96956571D01*
X144375285Y-97051809D01*
X144375285Y-97289904D01*
X144422904Y-97385142D01*
X144470523Y-97432761D01*
X144565761Y-97480380D01*
X144851476Y-97480380D01*
X144946714Y-97432761D01*
X144994333Y-97385142D01*
X133897666Y-97480380D02*
X134231000Y-97004190D01*
X134469095Y-97480380D02*
X134469095Y-96480380D01*
X134088142Y-96480380D01*
X133992904Y-96528000D01*
X133945285Y-96575619D01*
X133897666Y-96670857D01*
X133897666Y-96813714D01*
X133945285Y-96908952D01*
X133992904Y-96956571D01*
X134088142Y-97004190D01*
X134469095Y-97004190D01*
X133516714Y-96575619D02*
X133469095Y-96528000D01*
X133373857Y-96480380D01*
X133135761Y-96480380D01*
X133040523Y-96528000D01*
X132992904Y-96575619D01*
X132945285Y-96670857D01*
X132945285Y-96766095D01*
X132992904Y-96908952D01*
X133564333Y-97480380D01*
X132945285Y-97480380D01*
X122467666Y-97353380D02*
X122801000Y-96877190D01*
X123039095Y-97353380D02*
X123039095Y-96353380D01*
X122658142Y-96353380D01*
X122562904Y-96401000D01*
X122515285Y-96448619D01*
X122467666Y-96543857D01*
X122467666Y-96686714D01*
X122515285Y-96781952D01*
X122562904Y-96829571D01*
X122658142Y-96877190D01*
X123039095Y-96877190D01*
X121515285Y-97353380D02*
X122086714Y-97353380D01*
X121801000Y-97353380D02*
X121801000Y-96353380D01*
X121896238Y-96496238D01*
X121991476Y-96591476D01*
X122086714Y-96639095D01*
M02*
