G04 #@! TF.GenerationSoftware,KiCad,Pcbnew,5.99.0-unknown-43514a1~86~ubuntu18.04.1*
G04 #@! TF.CreationDate,2020-02-15T14:01:28+00:00*
G04 #@! TF.ProjectId,UI,55492e6b-6963-4616-945f-706362585858,rev?*
G04 #@! TF.SameCoordinates,Original*
G04 #@! TF.FileFunction,Paste,Bot*
G04 #@! TF.FilePolarity,Positive*
%FSLAX46Y46*%
G04 Gerber Fmt 4.6, Leading zero omitted, Abs format (unit mm)*
G04 Created by KiCad (PCBNEW 5.99.0-unknown-43514a1~86~ubuntu18.04.1) date 2020-02-15 14:01:28*
%MOMM*%
%LPD*%
G01*
G04 APERTURE LIST*
G04 APERTURE END LIST*
G36*
X153069529Y-99518554D02*
G01*
X153148607Y-99571393D01*
X153201446Y-99650471D01*
X153220000Y-99743750D01*
X153220000Y-100656250D01*
X153201446Y-100749529D01*
X153148607Y-100828607D01*
X153069529Y-100881446D01*
X152976250Y-100900000D01*
X152488750Y-100900000D01*
X152395471Y-100881446D01*
X152316393Y-100828607D01*
X152263554Y-100749529D01*
X152245000Y-100656250D01*
X152245000Y-99743750D01*
X152263554Y-99650471D01*
X152316393Y-99571393D01*
X152395471Y-99518554D01*
X152488750Y-99500000D01*
X152976250Y-99500000D01*
X153069529Y-99518554D01*
G37*
G36*
X154944529Y-99518554D02*
G01*
X155023607Y-99571393D01*
X155076446Y-99650471D01*
X155095000Y-99743750D01*
X155095000Y-100656250D01*
X155076446Y-100749529D01*
X155023607Y-100828607D01*
X154944529Y-100881446D01*
X154851250Y-100900000D01*
X154363750Y-100900000D01*
X154270471Y-100881446D01*
X154191393Y-100828607D01*
X154138554Y-100749529D01*
X154120000Y-100656250D01*
X154120000Y-99743750D01*
X154138554Y-99650471D01*
X154191393Y-99571393D01*
X154270471Y-99518554D01*
X154363750Y-99500000D01*
X154851250Y-99500000D01*
X154944529Y-99518554D01*
G37*
G36*
X141639529Y-99645554D02*
G01*
X141718607Y-99698393D01*
X141771446Y-99777471D01*
X141790000Y-99870750D01*
X141790000Y-100783250D01*
X141771446Y-100876529D01*
X141718607Y-100955607D01*
X141639529Y-101008446D01*
X141546250Y-101027000D01*
X141058750Y-101027000D01*
X140965471Y-101008446D01*
X140886393Y-100955607D01*
X140833554Y-100876529D01*
X140815000Y-100783250D01*
X140815000Y-99870750D01*
X140833554Y-99777471D01*
X140886393Y-99698393D01*
X140965471Y-99645554D01*
X141058750Y-99627000D01*
X141546250Y-99627000D01*
X141639529Y-99645554D01*
G37*
G36*
X143514529Y-99645554D02*
G01*
X143593607Y-99698393D01*
X143646446Y-99777471D01*
X143665000Y-99870750D01*
X143665000Y-100783250D01*
X143646446Y-100876529D01*
X143593607Y-100955607D01*
X143514529Y-101008446D01*
X143421250Y-101027000D01*
X142933750Y-101027000D01*
X142840471Y-101008446D01*
X142761393Y-100955607D01*
X142708554Y-100876529D01*
X142690000Y-100783250D01*
X142690000Y-99870750D01*
X142708554Y-99777471D01*
X142761393Y-99698393D01*
X142840471Y-99645554D01*
X142933750Y-99627000D01*
X143421250Y-99627000D01*
X143514529Y-99645554D01*
G37*
G36*
X130209529Y-99743554D02*
G01*
X130288607Y-99796393D01*
X130341446Y-99875471D01*
X130360000Y-99968750D01*
X130360000Y-100881250D01*
X130341446Y-100974529D01*
X130288607Y-101053607D01*
X130209529Y-101106446D01*
X130116250Y-101125000D01*
X129628750Y-101125000D01*
X129535471Y-101106446D01*
X129456393Y-101053607D01*
X129403554Y-100974529D01*
X129385000Y-100881250D01*
X129385000Y-99968750D01*
X129403554Y-99875471D01*
X129456393Y-99796393D01*
X129535471Y-99743554D01*
X129628750Y-99725000D01*
X130116250Y-99725000D01*
X130209529Y-99743554D01*
G37*
G36*
X132084529Y-99743554D02*
G01*
X132163607Y-99796393D01*
X132216446Y-99875471D01*
X132235000Y-99968750D01*
X132235000Y-100881250D01*
X132216446Y-100974529D01*
X132163607Y-101053607D01*
X132084529Y-101106446D01*
X131991250Y-101125000D01*
X131503750Y-101125000D01*
X131410471Y-101106446D01*
X131331393Y-101053607D01*
X131278554Y-100974529D01*
X131260000Y-100881250D01*
X131260000Y-99968750D01*
X131278554Y-99875471D01*
X131331393Y-99796393D01*
X131410471Y-99743554D01*
X131503750Y-99725000D01*
X131991250Y-99725000D01*
X132084529Y-99743554D01*
G37*
G36*
X118779529Y-99645554D02*
G01*
X118858607Y-99698393D01*
X118911446Y-99777471D01*
X118930000Y-99870750D01*
X118930000Y-100783250D01*
X118911446Y-100876529D01*
X118858607Y-100955607D01*
X118779529Y-101008446D01*
X118686250Y-101027000D01*
X118198750Y-101027000D01*
X118105471Y-101008446D01*
X118026393Y-100955607D01*
X117973554Y-100876529D01*
X117955000Y-100783250D01*
X117955000Y-99870750D01*
X117973554Y-99777471D01*
X118026393Y-99698393D01*
X118105471Y-99645554D01*
X118198750Y-99627000D01*
X118686250Y-99627000D01*
X118779529Y-99645554D01*
G37*
G36*
X120654529Y-99645554D02*
G01*
X120733607Y-99698393D01*
X120786446Y-99777471D01*
X120805000Y-99870750D01*
X120805000Y-100783250D01*
X120786446Y-100876529D01*
X120733607Y-100955607D01*
X120654529Y-101008446D01*
X120561250Y-101027000D01*
X120073750Y-101027000D01*
X119980471Y-101008446D01*
X119901393Y-100955607D01*
X119848554Y-100876529D01*
X119830000Y-100783250D01*
X119830000Y-99870750D01*
X119848554Y-99777471D01*
X119901393Y-99698393D01*
X119980471Y-99645554D01*
X120073750Y-99627000D01*
X120561250Y-99627000D01*
X120654529Y-99645554D01*
G37*
G36*
X179563529Y-88726554D02*
G01*
X179642607Y-88779393D01*
X179695446Y-88858471D01*
X179714000Y-88951750D01*
X179714000Y-89864250D01*
X179695446Y-89957529D01*
X179642607Y-90036607D01*
X179563529Y-90089446D01*
X179470250Y-90108000D01*
X178982750Y-90108000D01*
X178889471Y-90089446D01*
X178810393Y-90036607D01*
X178757554Y-89957529D01*
X178739000Y-89864250D01*
X178739000Y-88951750D01*
X178757554Y-88858471D01*
X178810393Y-88779393D01*
X178889471Y-88726554D01*
X178982750Y-88708000D01*
X179470250Y-88708000D01*
X179563529Y-88726554D01*
G37*
G36*
X181438529Y-88726554D02*
G01*
X181517607Y-88779393D01*
X181570446Y-88858471D01*
X181589000Y-88951750D01*
X181589000Y-89864250D01*
X181570446Y-89957529D01*
X181517607Y-90036607D01*
X181438529Y-90089446D01*
X181345250Y-90108000D01*
X180857750Y-90108000D01*
X180764471Y-90089446D01*
X180685393Y-90036607D01*
X180632554Y-89957529D01*
X180614000Y-89864250D01*
X180614000Y-88951750D01*
X180632554Y-88858471D01*
X180685393Y-88779393D01*
X180764471Y-88726554D01*
X180857750Y-88708000D01*
X181345250Y-88708000D01*
X181438529Y-88726554D01*
G37*
G36*
X179612529Y-85297554D02*
G01*
X179691607Y-85350393D01*
X179744446Y-85429471D01*
X179763000Y-85522750D01*
X179763000Y-86435250D01*
X179744446Y-86528529D01*
X179691607Y-86607607D01*
X179612529Y-86660446D01*
X179519250Y-86679000D01*
X179031750Y-86679000D01*
X178938471Y-86660446D01*
X178859393Y-86607607D01*
X178806554Y-86528529D01*
X178788000Y-86435250D01*
X178788000Y-85522750D01*
X178806554Y-85429471D01*
X178859393Y-85350393D01*
X178938471Y-85297554D01*
X179031750Y-85279000D01*
X179519250Y-85279000D01*
X179612529Y-85297554D01*
G37*
G36*
X181487529Y-85297554D02*
G01*
X181566607Y-85350393D01*
X181619446Y-85429471D01*
X181638000Y-85522750D01*
X181638000Y-86435250D01*
X181619446Y-86528529D01*
X181566607Y-86607607D01*
X181487529Y-86660446D01*
X181394250Y-86679000D01*
X180906750Y-86679000D01*
X180813471Y-86660446D01*
X180734393Y-86607607D01*
X180681554Y-86528529D01*
X180663000Y-86435250D01*
X180663000Y-85522750D01*
X180681554Y-85429471D01*
X180734393Y-85350393D01*
X180813471Y-85297554D01*
X180906750Y-85279000D01*
X181394250Y-85279000D01*
X181487529Y-85297554D01*
G37*
G36*
X154944529Y-96343554D02*
G01*
X155023607Y-96396393D01*
X155076446Y-96475471D01*
X155095000Y-96568750D01*
X155095000Y-97481250D01*
X155076446Y-97574529D01*
X155023607Y-97653607D01*
X154944529Y-97706446D01*
X154851250Y-97725000D01*
X154363750Y-97725000D01*
X154270471Y-97706446D01*
X154191393Y-97653607D01*
X154138554Y-97574529D01*
X154120000Y-97481250D01*
X154120000Y-96568750D01*
X154138554Y-96475471D01*
X154191393Y-96396393D01*
X154270471Y-96343554D01*
X154363750Y-96325000D01*
X154851250Y-96325000D01*
X154944529Y-96343554D01*
G37*
G36*
X153069529Y-96343554D02*
G01*
X153148607Y-96396393D01*
X153201446Y-96475471D01*
X153220000Y-96568750D01*
X153220000Y-97481250D01*
X153201446Y-97574529D01*
X153148607Y-97653607D01*
X153069529Y-97706446D01*
X152976250Y-97725000D01*
X152488750Y-97725000D01*
X152395471Y-97706446D01*
X152316393Y-97653607D01*
X152263554Y-97574529D01*
X152245000Y-97481250D01*
X152245000Y-96568750D01*
X152263554Y-96475471D01*
X152316393Y-96396393D01*
X152395471Y-96343554D01*
X152488750Y-96325000D01*
X152976250Y-96325000D01*
X153069529Y-96343554D01*
G37*
G36*
X143514529Y-96343554D02*
G01*
X143593607Y-96396393D01*
X143646446Y-96475471D01*
X143665000Y-96568750D01*
X143665000Y-97481250D01*
X143646446Y-97574529D01*
X143593607Y-97653607D01*
X143514529Y-97706446D01*
X143421250Y-97725000D01*
X142933750Y-97725000D01*
X142840471Y-97706446D01*
X142761393Y-97653607D01*
X142708554Y-97574529D01*
X142690000Y-97481250D01*
X142690000Y-96568750D01*
X142708554Y-96475471D01*
X142761393Y-96396393D01*
X142840471Y-96343554D01*
X142933750Y-96325000D01*
X143421250Y-96325000D01*
X143514529Y-96343554D01*
G37*
G36*
X141639529Y-96343554D02*
G01*
X141718607Y-96396393D01*
X141771446Y-96475471D01*
X141790000Y-96568750D01*
X141790000Y-97481250D01*
X141771446Y-97574529D01*
X141718607Y-97653607D01*
X141639529Y-97706446D01*
X141546250Y-97725000D01*
X141058750Y-97725000D01*
X140965471Y-97706446D01*
X140886393Y-97653607D01*
X140833554Y-97574529D01*
X140815000Y-97481250D01*
X140815000Y-96568750D01*
X140833554Y-96475471D01*
X140886393Y-96396393D01*
X140965471Y-96343554D01*
X141058750Y-96325000D01*
X141546250Y-96325000D01*
X141639529Y-96343554D01*
G37*
G36*
X132084529Y-96343554D02*
G01*
X132163607Y-96396393D01*
X132216446Y-96475471D01*
X132235000Y-96568750D01*
X132235000Y-97481250D01*
X132216446Y-97574529D01*
X132163607Y-97653607D01*
X132084529Y-97706446D01*
X131991250Y-97725000D01*
X131503750Y-97725000D01*
X131410471Y-97706446D01*
X131331393Y-97653607D01*
X131278554Y-97574529D01*
X131260000Y-97481250D01*
X131260000Y-96568750D01*
X131278554Y-96475471D01*
X131331393Y-96396393D01*
X131410471Y-96343554D01*
X131503750Y-96325000D01*
X131991250Y-96325000D01*
X132084529Y-96343554D01*
G37*
G36*
X130209529Y-96343554D02*
G01*
X130288607Y-96396393D01*
X130341446Y-96475471D01*
X130360000Y-96568750D01*
X130360000Y-97481250D01*
X130341446Y-97574529D01*
X130288607Y-97653607D01*
X130209529Y-97706446D01*
X130116250Y-97725000D01*
X129628750Y-97725000D01*
X129535471Y-97706446D01*
X129456393Y-97653607D01*
X129403554Y-97574529D01*
X129385000Y-97481250D01*
X129385000Y-96568750D01*
X129403554Y-96475471D01*
X129456393Y-96396393D01*
X129535471Y-96343554D01*
X129628750Y-96325000D01*
X130116250Y-96325000D01*
X130209529Y-96343554D01*
G37*
G36*
X120654529Y-96343554D02*
G01*
X120733607Y-96396393D01*
X120786446Y-96475471D01*
X120805000Y-96568750D01*
X120805000Y-97481250D01*
X120786446Y-97574529D01*
X120733607Y-97653607D01*
X120654529Y-97706446D01*
X120561250Y-97725000D01*
X120073750Y-97725000D01*
X119980471Y-97706446D01*
X119901393Y-97653607D01*
X119848554Y-97574529D01*
X119830000Y-97481250D01*
X119830000Y-96568750D01*
X119848554Y-96475471D01*
X119901393Y-96396393D01*
X119980471Y-96343554D01*
X120073750Y-96325000D01*
X120561250Y-96325000D01*
X120654529Y-96343554D01*
G37*
G36*
X118779529Y-96343554D02*
G01*
X118858607Y-96396393D01*
X118911446Y-96475471D01*
X118930000Y-96568750D01*
X118930000Y-97481250D01*
X118911446Y-97574529D01*
X118858607Y-97653607D01*
X118779529Y-97706446D01*
X118686250Y-97725000D01*
X118198750Y-97725000D01*
X118105471Y-97706446D01*
X118026393Y-97653607D01*
X117973554Y-97574529D01*
X117955000Y-97481250D01*
X117955000Y-96568750D01*
X117973554Y-96475471D01*
X118026393Y-96396393D01*
X118105471Y-96343554D01*
X118198750Y-96325000D01*
X118686250Y-96325000D01*
X118779529Y-96343554D01*
G37*
M02*
