G04 #@! TF.GenerationSoftware,KiCad,Pcbnew,5.99.0-unknown-43514a1~86~ubuntu18.04.1*
G04 #@! TF.CreationDate,2020-02-15T14:01:29+00:00*
G04 #@! TF.ProjectId,UI,55492e6b-6963-4616-945f-706362585858,rev?*
G04 #@! TF.SameCoordinates,Original*
G04 #@! TF.FileFunction,Soldermask,Top*
G04 #@! TF.FilePolarity,Negative*
%FSLAX46Y46*%
G04 Gerber Fmt 4.6, Leading zero omitted, Abs format (unit mm)*
G04 Created by KiCad (PCBNEW 5.99.0-unknown-43514a1~86~ubuntu18.04.1) date 2020-02-15 14:01:29*
%MOMM*%
%LPD*%
G01*
G04 APERTURE LIST*
%ADD10O,1.700000X1.700000*%
%ADD11R,1.700000X1.700000*%
%ADD12C,2.000000*%
%ADD13R,2.000000X2.000000*%
%ADD14R,2.500000X3.000000*%
%ADD15C,3.000000*%
%ADD16O,1.800000X2.600000*%
%ADD17R,1.800000X2.600000*%
%ADD18O,1.727200X1.727200*%
%ADD19R,1.727200X1.727200*%
%ADD20C,6.400000*%
G04 APERTURE END LIST*
G36*
X188091529Y-69168554D02*
G01*
X188170607Y-69221393D01*
X188223446Y-69300471D01*
X188242000Y-69393750D01*
X188242000Y-70306250D01*
X188223446Y-70399529D01*
X188170607Y-70478607D01*
X188091529Y-70531446D01*
X187998250Y-70550000D01*
X187510750Y-70550000D01*
X187417471Y-70531446D01*
X187338393Y-70478607D01*
X187285554Y-70399529D01*
X187267000Y-70306250D01*
X187267000Y-69393750D01*
X187285554Y-69300471D01*
X187338393Y-69221393D01*
X187417471Y-69168554D01*
X187510750Y-69150000D01*
X187998250Y-69150000D01*
X188091529Y-69168554D01*
G37*
G36*
X186216529Y-69168554D02*
G01*
X186295607Y-69221393D01*
X186348446Y-69300471D01*
X186367000Y-69393750D01*
X186367000Y-70306250D01*
X186348446Y-70399529D01*
X186295607Y-70478607D01*
X186216529Y-70531446D01*
X186123250Y-70550000D01*
X185635750Y-70550000D01*
X185542471Y-70531446D01*
X185463393Y-70478607D01*
X185410554Y-70399529D01*
X185392000Y-70306250D01*
X185392000Y-69393750D01*
X185410554Y-69300471D01*
X185463393Y-69221393D01*
X185542471Y-69168554D01*
X185635750Y-69150000D01*
X186123250Y-69150000D01*
X186216529Y-69168554D01*
G37*
G36*
X188091529Y-71835554D02*
G01*
X188170607Y-71888393D01*
X188223446Y-71967471D01*
X188242000Y-72060750D01*
X188242000Y-72973250D01*
X188223446Y-73066529D01*
X188170607Y-73145607D01*
X188091529Y-73198446D01*
X187998250Y-73217000D01*
X187510750Y-73217000D01*
X187417471Y-73198446D01*
X187338393Y-73145607D01*
X187285554Y-73066529D01*
X187267000Y-72973250D01*
X187267000Y-72060750D01*
X187285554Y-71967471D01*
X187338393Y-71888393D01*
X187417471Y-71835554D01*
X187510750Y-71817000D01*
X187998250Y-71817000D01*
X188091529Y-71835554D01*
G37*
G36*
X186216529Y-71835554D02*
G01*
X186295607Y-71888393D01*
X186348446Y-71967471D01*
X186367000Y-72060750D01*
X186367000Y-72973250D01*
X186348446Y-73066529D01*
X186295607Y-73145607D01*
X186216529Y-73198446D01*
X186123250Y-73217000D01*
X185635750Y-73217000D01*
X185542471Y-73198446D01*
X185463393Y-73145607D01*
X185410554Y-73066529D01*
X185392000Y-72973250D01*
X185392000Y-72060750D01*
X185410554Y-71967471D01*
X185463393Y-71888393D01*
X185542471Y-71835554D01*
X185635750Y-71817000D01*
X186123250Y-71817000D01*
X186216529Y-71835554D01*
G37*
G36*
X188091529Y-98632554D02*
G01*
X188170607Y-98685393D01*
X188223446Y-98764471D01*
X188242000Y-98857750D01*
X188242000Y-99770250D01*
X188223446Y-99863529D01*
X188170607Y-99942607D01*
X188091529Y-99995446D01*
X187998250Y-100014000D01*
X187510750Y-100014000D01*
X187417471Y-99995446D01*
X187338393Y-99942607D01*
X187285554Y-99863529D01*
X187267000Y-99770250D01*
X187267000Y-98857750D01*
X187285554Y-98764471D01*
X187338393Y-98685393D01*
X187417471Y-98632554D01*
X187510750Y-98614000D01*
X187998250Y-98614000D01*
X188091529Y-98632554D01*
G37*
G36*
X186216529Y-98632554D02*
G01*
X186295607Y-98685393D01*
X186348446Y-98764471D01*
X186367000Y-98857750D01*
X186367000Y-99770250D01*
X186348446Y-99863529D01*
X186295607Y-99942607D01*
X186216529Y-99995446D01*
X186123250Y-100014000D01*
X185635750Y-100014000D01*
X185542471Y-99995446D01*
X185463393Y-99942607D01*
X185410554Y-99863529D01*
X185392000Y-99770250D01*
X185392000Y-98857750D01*
X185410554Y-98764471D01*
X185463393Y-98685393D01*
X185542471Y-98632554D01*
X185635750Y-98614000D01*
X186123250Y-98614000D01*
X186216529Y-98632554D01*
G37*
G36*
X188218529Y-95330554D02*
G01*
X188297607Y-95383393D01*
X188350446Y-95462471D01*
X188369000Y-95555750D01*
X188369000Y-96468250D01*
X188350446Y-96561529D01*
X188297607Y-96640607D01*
X188218529Y-96693446D01*
X188125250Y-96712000D01*
X187637750Y-96712000D01*
X187544471Y-96693446D01*
X187465393Y-96640607D01*
X187412554Y-96561529D01*
X187394000Y-96468250D01*
X187394000Y-95555750D01*
X187412554Y-95462471D01*
X187465393Y-95383393D01*
X187544471Y-95330554D01*
X187637750Y-95312000D01*
X188125250Y-95312000D01*
X188218529Y-95330554D01*
G37*
G36*
X186343529Y-95330554D02*
G01*
X186422607Y-95383393D01*
X186475446Y-95462471D01*
X186494000Y-95555750D01*
X186494000Y-96468250D01*
X186475446Y-96561529D01*
X186422607Y-96640607D01*
X186343529Y-96693446D01*
X186250250Y-96712000D01*
X185762750Y-96712000D01*
X185669471Y-96693446D01*
X185590393Y-96640607D01*
X185537554Y-96561529D01*
X185519000Y-96468250D01*
X185519000Y-95555750D01*
X185537554Y-95462471D01*
X185590393Y-95383393D01*
X185669471Y-95330554D01*
X185762750Y-95312000D01*
X186250250Y-95312000D01*
X186343529Y-95330554D01*
G37*
D10*
X170180000Y-57150000D03*
D11*
X170180000Y-54610000D03*
D12*
X151670000Y-60300000D03*
X155670000Y-60300000D03*
X158670000Y-60300000D03*
X148670000Y-60300000D03*
X153670000Y-55300000D03*
D10*
X176530000Y-57150000D03*
D11*
X176530000Y-54610000D03*
D12*
X118650000Y-60300000D03*
X122650000Y-60300000D03*
X125650000Y-60300000D03*
X115650000Y-60300000D03*
X120650000Y-55300000D03*
X135160000Y-60300000D03*
X139160000Y-60300000D03*
X142160000Y-60300000D03*
X132160000Y-60300000D03*
X137160000Y-55300000D03*
D13*
X189230000Y-91440000D03*
D12*
X191730000Y-91440000D03*
X194230000Y-91440000D03*
D14*
X186130000Y-83940000D03*
X197330000Y-83940000D03*
D12*
X189230000Y-76940000D03*
X194230000Y-76940000D03*
X158900000Y-105410000D03*
X158900000Y-109910000D03*
X152400000Y-105410000D03*
X152400000Y-109910000D03*
X147470000Y-105410000D03*
X147470000Y-109910000D03*
X140970000Y-105410000D03*
X140970000Y-109910000D03*
X136040000Y-105410000D03*
X136040000Y-109910000D03*
X129540000Y-105410000D03*
X129540000Y-109910000D03*
X124610000Y-105410000D03*
X124610000Y-109910000D03*
X118110000Y-105410000D03*
X118110000Y-109910000D03*
D15*
X179990000Y-67310000D03*
X179989480Y-98310700D03*
X104990900Y-98310700D03*
X104990900Y-67310000D03*
D16*
X148590000Y-67310000D03*
X146050000Y-67310000D03*
X143510000Y-67310000D03*
X140970000Y-67310000D03*
X138430000Y-67310000D03*
X135890000Y-67310000D03*
X133350000Y-67310000D03*
X130810000Y-67310000D03*
X128270000Y-67310000D03*
X125730000Y-67310000D03*
X123190000Y-67310000D03*
X120650000Y-67310000D03*
X118110000Y-67310000D03*
X115570000Y-67310000D03*
X113030000Y-67310000D03*
D17*
X110490000Y-67310000D03*
D18*
X171450000Y-83820000D03*
X173990000Y-83820000D03*
X171450000Y-86360000D03*
X173990000Y-86360000D03*
X171450000Y-88900000D03*
X173990000Y-88900000D03*
X171450000Y-91440000D03*
X173990000Y-91440000D03*
X171450000Y-93980000D03*
X173990000Y-93980000D03*
X171450000Y-96520000D03*
X173990000Y-96520000D03*
X171450000Y-99060000D03*
X173990000Y-99060000D03*
X171450000Y-101600000D03*
X173990000Y-101600000D03*
X171450000Y-104140000D03*
X173990000Y-104140000D03*
X171450000Y-106680000D03*
D19*
X173990000Y-106680000D03*
D20*
X196850000Y-54610000D03*
X196850000Y-110490000D03*
X105410000Y-110490000D03*
X105410000Y-54610000D03*
M02*
