M48
INCH,TZ
T1C0.0157
T2C0.0394
T3C0.0400
T4C0.0433
T5C0.0472
T6C0.0787
T7C0.0984
T8C0.1260
%
G90
G05
T1
X53050Y-35700
X55050Y-29750
X55500Y-36850
X56750Y-31200
X58450Y-38500
X62500Y-39000
X66225Y-38127
X71100Y-40250
X71842Y-33902
T2
X69500Y-21500
X69500Y-22500
X74500Y-30291
X74500Y-36000
X75484Y-36000
X76469Y-30291
X76469Y-36000
X67000Y-21500
X67000Y-22500
T3
X67500Y-33000
X67500Y-34000
X67500Y-35000
X67500Y-36000
X67500Y-37000
X67500Y-38000
X67500Y-39000
X67500Y-40000
X67500Y-41000
X67500Y-42000
X68500Y-33000
X68500Y-34000
X68500Y-35000
X68500Y-36000
X68500Y-37000
X68500Y-38000
X68500Y-39000
X68500Y-40000
X68500Y-41000
X68500Y-42000
T4
X51000Y-41500
X51000Y-43272
X53559Y-41500
X53559Y-43272
X55500Y-41500
X55500Y-43272
X58059Y-41500
X58059Y-43272
X46500Y-41500
X46500Y-43272
X49059Y-41500
X49059Y-43272
X60000Y-41500
X60000Y-43272
X62559Y-41500
X62559Y-43272
T5
X58531Y-23740
X59713Y-23740
X60500Y-21772
X61287Y-23740
X62469Y-23740
X43500Y-26500
X44500Y-26500
X45500Y-26500
X46500Y-26500
X47500Y-26500
X48500Y-26500
X49500Y-26500
X50500Y-26500
X51500Y-26500
X52500Y-26500
X53500Y-26500
X54500Y-26500
X55500Y-26500
X56500Y-26500
X57500Y-26500
X58500Y-26500
X45531Y-23740
X46713Y-23740
X47500Y-21772
X48287Y-23740
X49469Y-23740
X52031Y-23740
X53213Y-23740
X54000Y-21772
X54787Y-23740
X55969Y-23740
T7
X41335Y-26500
X41335Y-38705
X70862Y-38705
X70862Y-26500
T8
X77500Y-43500
X41500Y-21500
X77500Y-21500
X41500Y-43500
T6
G00X73280Y-33146
M15
G01X73280Y-32949
M16
G05
G00X77689Y-33146
M15
G01X77689Y-32949
M16
G05
T0
M30
