G04 #@! TF.GenerationSoftware,KiCad,Pcbnew,5.99.0-unknown-43514a1~86~ubuntu18.04.1*
G04 #@! TF.CreationDate,2020-06-17T19:02:55+01:00*
G04 #@! TF.ProjectId,TX_BOARD,54585f42-4f41-4524-942e-6b696361645f,rev?*
G04 #@! TF.SameCoordinates,Original*
G04 #@! TF.FileFunction,Legend,Bot*
G04 #@! TF.FilePolarity,Positive*
%FSLAX46Y46*%
G04 Gerber Fmt 4.6, Leading zero omitted, Abs format (unit mm)*
G04 Created by KiCad (PCBNEW 5.99.0-unknown-43514a1~86~ubuntu18.04.1) date 2020-06-17 19:02:55*
%MOMM*%
%LPD*%
G01*
G04 APERTURE LIST*
%ADD10C,0.150000*%
%ADD11C,0.010000*%
%ADD12C,0.500000*%
G04 APERTURE END LIST*
D10*
X121593428Y-123488380D02*
X121402952Y-123488380D01*
X121307714Y-123536000D01*
X121212476Y-123631238D01*
X121164857Y-123821714D01*
X121164857Y-124155047D01*
X121212476Y-124345523D01*
X121307714Y-124440761D01*
X121402952Y-124488380D01*
X121593428Y-124488380D01*
X121688666Y-124440761D01*
X121783904Y-124345523D01*
X121831523Y-124155047D01*
X121831523Y-123821714D01*
X121783904Y-123631238D01*
X121688666Y-123536000D01*
X121593428Y-123488380D01*
X120736285Y-123821714D02*
X120736285Y-124821714D01*
X120736285Y-123869333D02*
X120641047Y-123821714D01*
X120450571Y-123821714D01*
X120355333Y-123869333D01*
X120307714Y-123916952D01*
X120260095Y-124012190D01*
X120260095Y-124297904D01*
X120307714Y-124393142D01*
X120355333Y-124440761D01*
X120450571Y-124488380D01*
X120641047Y-124488380D01*
X120736285Y-124440761D01*
X119450571Y-124440761D02*
X119545809Y-124488380D01*
X119736285Y-124488380D01*
X119831523Y-124440761D01*
X119879142Y-124345523D01*
X119879142Y-123964571D01*
X119831523Y-123869333D01*
X119736285Y-123821714D01*
X119545809Y-123821714D01*
X119450571Y-123869333D01*
X119402952Y-123964571D01*
X119402952Y-124059809D01*
X119879142Y-124155047D01*
X118974380Y-123821714D02*
X118974380Y-124488380D01*
X118974380Y-123916952D02*
X118926761Y-123869333D01*
X118831523Y-123821714D01*
X118688666Y-123821714D01*
X118593428Y-123869333D01*
X118545809Y-123964571D01*
X118545809Y-124488380D01*
X118164857Y-123488380D02*
X117498190Y-124488380D01*
X117498190Y-123488380D02*
X118164857Y-124488380D01*
X116545809Y-124393142D02*
X116593428Y-124440761D01*
X116736285Y-124488380D01*
X116831523Y-124488380D01*
X116974380Y-124440761D01*
X117069619Y-124345523D01*
X117117238Y-124250285D01*
X117164857Y-124059809D01*
X117164857Y-123916952D01*
X117117238Y-123726476D01*
X117069619Y-123631238D01*
X116974380Y-123536000D01*
X116831523Y-123488380D01*
X116736285Y-123488380D01*
X116593428Y-123536000D01*
X116545809Y-123583619D01*
X116260095Y-123488380D02*
X115926761Y-124488380D01*
X115593428Y-123488380D01*
X114688666Y-124488380D02*
X115022000Y-124012190D01*
X115260095Y-124488380D02*
X115260095Y-123488380D01*
X114879142Y-123488380D01*
X114783904Y-123536000D01*
X114736285Y-123583619D01*
X114688666Y-123678857D01*
X114688666Y-123821714D01*
X114736285Y-123916952D01*
X114783904Y-123964571D01*
X114879142Y-124012190D01*
X115260095Y-124012190D01*
X112545809Y-123488380D02*
X112450571Y-123488380D01*
X112355333Y-123536000D01*
X112307714Y-123583619D01*
X112260095Y-123678857D01*
X112212476Y-123869333D01*
X112212476Y-124107428D01*
X112260095Y-124297904D01*
X112307714Y-124393142D01*
X112355333Y-124440761D01*
X112450571Y-124488380D01*
X112545809Y-124488380D01*
X112641047Y-124440761D01*
X112688666Y-124393142D01*
X112736285Y-124297904D01*
X112783904Y-124107428D01*
X112783904Y-123869333D01*
X112736285Y-123678857D01*
X112688666Y-123583619D01*
X112641047Y-123536000D01*
X112545809Y-123488380D01*
X111783904Y-124393142D02*
X111736285Y-124440761D01*
X111783904Y-124488380D01*
X111831523Y-124440761D01*
X111783904Y-124393142D01*
X111783904Y-124488380D01*
X111355333Y-123583619D02*
X111307714Y-123536000D01*
X111212476Y-123488380D01*
X110974380Y-123488380D01*
X110879142Y-123536000D01*
X110831523Y-123583619D01*
X110783904Y-123678857D01*
X110783904Y-123774095D01*
X110831523Y-123916952D01*
X111402952Y-124488380D01*
X110783904Y-124488380D01*
X109736285Y-123488380D02*
X109164857Y-123488380D01*
X109450571Y-124488380D02*
X109450571Y-123488380D01*
X108926761Y-123488380D02*
X108260095Y-124488380D01*
X108260095Y-123488380D02*
X108926761Y-124488380D01*
X106783904Y-123964571D02*
X106641047Y-124012190D01*
X106593428Y-124059809D01*
X106545809Y-124155047D01*
X106545809Y-124297904D01*
X106593428Y-124393142D01*
X106641047Y-124440761D01*
X106736285Y-124488380D01*
X107117238Y-124488380D01*
X107117238Y-123488380D01*
X106783904Y-123488380D01*
X106688666Y-123536000D01*
X106641047Y-123583619D01*
X106593428Y-123678857D01*
X106593428Y-123774095D01*
X106641047Y-123869333D01*
X106688666Y-123916952D01*
X106783904Y-123964571D01*
X107117238Y-123964571D01*
X105974380Y-124488380D02*
X106069619Y-124440761D01*
X106117238Y-124393142D01*
X106164857Y-124297904D01*
X106164857Y-124012190D01*
X106117238Y-123916952D01*
X106069619Y-123869333D01*
X105974380Y-123821714D01*
X105831523Y-123821714D01*
X105736285Y-123869333D01*
X105688666Y-123916952D01*
X105641047Y-124012190D01*
X105641047Y-124297904D01*
X105688666Y-124393142D01*
X105736285Y-124440761D01*
X105831523Y-124488380D01*
X105974380Y-124488380D01*
X104783904Y-124488380D02*
X104783904Y-123964571D01*
X104831523Y-123869333D01*
X104926761Y-123821714D01*
X105117238Y-123821714D01*
X105212476Y-123869333D01*
X104783904Y-124440761D02*
X104879142Y-124488380D01*
X105117238Y-124488380D01*
X105212476Y-124440761D01*
X105260095Y-124345523D01*
X105260095Y-124250285D01*
X105212476Y-124155047D01*
X105117238Y-124107428D01*
X104879142Y-124107428D01*
X104783904Y-124059809D01*
X104307714Y-124488380D02*
X104307714Y-123821714D01*
X104307714Y-124012190D02*
X104260095Y-123916952D01*
X104212476Y-123869333D01*
X104117238Y-123821714D01*
X104022000Y-123821714D01*
X103260095Y-124488380D02*
X103260095Y-123488380D01*
X103260095Y-124440761D02*
X103355333Y-124488380D01*
X103545809Y-124488380D01*
X103641047Y-124440761D01*
X103688666Y-124393142D01*
X103736285Y-124297904D01*
X103736285Y-124012190D01*
X103688666Y-123916952D01*
X103641047Y-123869333D01*
X103545809Y-123821714D01*
X103355333Y-123821714D01*
X103260095Y-123869333D01*
X117950571Y-125098380D02*
X117950571Y-125812666D01*
X117998190Y-125955523D01*
X118093428Y-126050761D01*
X118236285Y-126098380D01*
X118331523Y-126098380D01*
X117474380Y-126098380D02*
X117474380Y-125098380D01*
X117093428Y-125098380D01*
X116998190Y-125146000D01*
X116950571Y-125193619D01*
X116902952Y-125288857D01*
X116902952Y-125431714D01*
X116950571Y-125526952D01*
X116998190Y-125574571D01*
X117093428Y-125622190D01*
X117474380Y-125622190D01*
X116474380Y-126098380D02*
X116474380Y-125098380D01*
X116236285Y-125098380D01*
X116093428Y-125146000D01*
X115998190Y-125241238D01*
X115950571Y-125336476D01*
X115902952Y-125526952D01*
X115902952Y-125669809D01*
X115950571Y-125860285D01*
X115998190Y-125955523D01*
X116093428Y-126050761D01*
X116236285Y-126098380D01*
X116474380Y-126098380D01*
X115045809Y-126098380D02*
X115045809Y-125574571D01*
X115093428Y-125479333D01*
X115188666Y-125431714D01*
X115379142Y-125431714D01*
X115474380Y-125479333D01*
X115045809Y-126050761D02*
X115141047Y-126098380D01*
X115379142Y-126098380D01*
X115474380Y-126050761D01*
X115522000Y-125955523D01*
X115522000Y-125860285D01*
X115474380Y-125765047D01*
X115379142Y-125717428D01*
X115141047Y-125717428D01*
X115045809Y-125669809D01*
X114664857Y-125431714D02*
X114474380Y-126098380D01*
X114283904Y-125622190D01*
X114093428Y-126098380D01*
X113902952Y-125431714D01*
X113569619Y-126050761D02*
X113474380Y-126098380D01*
X113283904Y-126098380D01*
X113188666Y-126050761D01*
X113141047Y-125955523D01*
X113141047Y-125907904D01*
X113188666Y-125812666D01*
X113283904Y-125765047D01*
X113426761Y-125765047D01*
X113522000Y-125717428D01*
X113569619Y-125622190D01*
X113569619Y-125574571D01*
X113522000Y-125479333D01*
X113426761Y-125431714D01*
X113283904Y-125431714D01*
X113188666Y-125479333D01*
X112569619Y-126098380D02*
X112664857Y-126050761D01*
X112712476Y-126003142D01*
X112760095Y-125907904D01*
X112760095Y-125622190D01*
X112712476Y-125526952D01*
X112664857Y-125479333D01*
X112569619Y-125431714D01*
X112426761Y-125431714D01*
X112331523Y-125479333D01*
X112283904Y-125526952D01*
X112236285Y-125622190D01*
X112236285Y-125907904D01*
X112283904Y-126003142D01*
X112331523Y-126050761D01*
X112426761Y-126098380D01*
X112569619Y-126098380D01*
X111807714Y-125431714D02*
X111807714Y-126098380D01*
X111807714Y-125526952D02*
X111760095Y-125479333D01*
X111664857Y-125431714D01*
X111522000Y-125431714D01*
X111426761Y-125479333D01*
X111379142Y-125574571D01*
X111379142Y-126098380D01*
X110188666Y-125193619D02*
X110141047Y-125146000D01*
X110045809Y-125098380D01*
X109807714Y-125098380D01*
X109712476Y-125146000D01*
X109664857Y-125193619D01*
X109617238Y-125288857D01*
X109617238Y-125384095D01*
X109664857Y-125526952D01*
X110236285Y-126098380D01*
X109617238Y-126098380D01*
X108998190Y-125098380D02*
X108902952Y-125098380D01*
X108807714Y-125146000D01*
X108760095Y-125193619D01*
X108712476Y-125288857D01*
X108664857Y-125479333D01*
X108664857Y-125717428D01*
X108712476Y-125907904D01*
X108760095Y-126003142D01*
X108807714Y-126050761D01*
X108902952Y-126098380D01*
X108998190Y-126098380D01*
X109093428Y-126050761D01*
X109141047Y-126003142D01*
X109188666Y-125907904D01*
X109236285Y-125717428D01*
X109236285Y-125479333D01*
X109188666Y-125288857D01*
X109141047Y-125193619D01*
X109093428Y-125146000D01*
X108998190Y-125098380D01*
X108283904Y-125193619D02*
X108236285Y-125146000D01*
X108141047Y-125098380D01*
X107902952Y-125098380D01*
X107807714Y-125146000D01*
X107760095Y-125193619D01*
X107712476Y-125288857D01*
X107712476Y-125384095D01*
X107760095Y-125526952D01*
X108331523Y-126098380D01*
X107712476Y-126098380D01*
X107093428Y-125098380D02*
X106998190Y-125098380D01*
X106902952Y-125146000D01*
X106855333Y-125193619D01*
X106807714Y-125288857D01*
X106760095Y-125479333D01*
X106760095Y-125717428D01*
X106807714Y-125907904D01*
X106855333Y-126003142D01*
X106902952Y-126050761D01*
X106998190Y-126098380D01*
X107093428Y-126098380D01*
X107188666Y-126050761D01*
X107236285Y-126003142D01*
X107283904Y-125907904D01*
X107331523Y-125717428D01*
X107331523Y-125479333D01*
X107283904Y-125288857D01*
X107236285Y-125193619D01*
X107188666Y-125146000D01*
X107093428Y-125098380D01*
X182054428Y-67000380D02*
X182625857Y-67000380D01*
X182340142Y-67000380D02*
X182340142Y-66000380D01*
X182435380Y-66143238D01*
X182530619Y-66238476D01*
X182625857Y-66286095D01*
X181673476Y-66095619D02*
X181625857Y-66048000D01*
X181530619Y-66000380D01*
X181292523Y-66000380D01*
X181197285Y-66048000D01*
X181149666Y-66095619D01*
X181102047Y-66190857D01*
X181102047Y-66286095D01*
X181149666Y-66428952D01*
X181721095Y-67000380D01*
X181102047Y-67000380D01*
X180768714Y-66333714D02*
X180530619Y-67000380D01*
X180292523Y-66333714D01*
X184911952Y-63825428D02*
X184150047Y-63825428D01*
X184911952Y-69921428D02*
X184150047Y-69921428D01*
X184531000Y-70302380D02*
X184531000Y-69540476D01*
G36*
X114350926Y-132936336D02*
G01*
X114284911Y-132932535D01*
X114281772Y-132731347D01*
X114280844Y-132682425D01*
X114278208Y-132608926D01*
X114273683Y-132554991D01*
X114266438Y-132516995D01*
X114255642Y-132491313D01*
X114240462Y-132474320D01*
X114220066Y-132462389D01*
X114181797Y-132450205D01*
X114143738Y-132454940D01*
X114103549Y-132480979D01*
X114064861Y-132513533D01*
X114064861Y-132938822D01*
X113926544Y-132938822D01*
X113926544Y-132708176D01*
X113926677Y-132635882D01*
X113927413Y-132571641D01*
X113929181Y-132524618D01*
X113932411Y-132490548D01*
X113937530Y-132465170D01*
X113944967Y-132444221D01*
X113955150Y-132423436D01*
X113957564Y-132419024D01*
X113989675Y-132376047D01*
X114027256Y-132346013D01*
X114072564Y-132330243D01*
X114132561Y-132323222D01*
X114192643Y-132327025D01*
X114241525Y-132341868D01*
X114278624Y-132361052D01*
X114278624Y-131945859D01*
X114227792Y-131972354D01*
X114206558Y-131981980D01*
X114139536Y-131995592D01*
X114072930Y-131986184D01*
X114011187Y-131954905D01*
X113958757Y-131902902D01*
X113950543Y-131890680D01*
X113942649Y-131872763D01*
X113937500Y-131848404D01*
X113934527Y-131812927D01*
X113933161Y-131761656D01*
X113932916Y-131708236D01*
X114065749Y-131708236D01*
X114065861Y-131752849D01*
X114069272Y-131782601D01*
X114076937Y-131803835D01*
X114089814Y-131822896D01*
X114106171Y-131840617D01*
X114132329Y-131854028D01*
X114171742Y-131857436D01*
X114206559Y-131854471D01*
X114241020Y-131839631D01*
X114263215Y-131809569D01*
X114275097Y-131761254D01*
X114278624Y-131691650D01*
X114277712Y-131654624D01*
X114268609Y-131584728D01*
X114249828Y-131537464D01*
X114221476Y-131513168D01*
X114192840Y-131506332D01*
X114142970Y-131509537D01*
X114100833Y-131529380D01*
X114090749Y-131538480D01*
X114080063Y-131554223D01*
X114073456Y-131577658D01*
X114069532Y-131614604D01*
X114066897Y-131670880D01*
X114065749Y-131708236D01*
X113932916Y-131708236D01*
X113932831Y-131689917D01*
X113932944Y-131657184D01*
X113934872Y-131581044D01*
X113940240Y-131524166D01*
X113950406Y-131482249D01*
X113966725Y-131450996D01*
X113990553Y-131426106D01*
X114023247Y-131403282D01*
X114049759Y-131390184D01*
X114112615Y-131375739D01*
X114178869Y-131377707D01*
X114237757Y-131396433D01*
X114263030Y-131408673D01*
X114275742Y-131409938D01*
X114278624Y-131398798D01*
X114278626Y-131398461D01*
X114284838Y-131387087D01*
X114306260Y-131381256D01*
X114347782Y-131379614D01*
X114416940Y-131379614D01*
X114416940Y-132940136D01*
X114350926Y-132936336D01*
G37*
D11*
X114350926Y-132936336D02*
X114284911Y-132932535D01*
X114281772Y-132731347D01*
X114280844Y-132682425D01*
X114278208Y-132608926D01*
X114273683Y-132554991D01*
X114266438Y-132516995D01*
X114255642Y-132491313D01*
X114240462Y-132474320D01*
X114220066Y-132462389D01*
X114181797Y-132450205D01*
X114143738Y-132454940D01*
X114103549Y-132480979D01*
X114064861Y-132513533D01*
X114064861Y-132938822D01*
X113926544Y-132938822D01*
X113926544Y-132708176D01*
X113926677Y-132635882D01*
X113927413Y-132571641D01*
X113929181Y-132524618D01*
X113932411Y-132490548D01*
X113937530Y-132465170D01*
X113944967Y-132444221D01*
X113955150Y-132423436D01*
X113957564Y-132419024D01*
X113989675Y-132376047D01*
X114027256Y-132346013D01*
X114072564Y-132330243D01*
X114132561Y-132323222D01*
X114192643Y-132327025D01*
X114241525Y-132341868D01*
X114278624Y-132361052D01*
X114278624Y-131945859D01*
X114227792Y-131972354D01*
X114206558Y-131981980D01*
X114139536Y-131995592D01*
X114072930Y-131986184D01*
X114011187Y-131954905D01*
X113958757Y-131902902D01*
X113950543Y-131890680D01*
X113942649Y-131872763D01*
X113937500Y-131848404D01*
X113934527Y-131812927D01*
X113933161Y-131761656D01*
X113932916Y-131708236D01*
X114065749Y-131708236D01*
X114065861Y-131752849D01*
X114069272Y-131782601D01*
X114076937Y-131803835D01*
X114089814Y-131822896D01*
X114106171Y-131840617D01*
X114132329Y-131854028D01*
X114171742Y-131857436D01*
X114206559Y-131854471D01*
X114241020Y-131839631D01*
X114263215Y-131809569D01*
X114275097Y-131761254D01*
X114278624Y-131691650D01*
X114277712Y-131654624D01*
X114268609Y-131584728D01*
X114249828Y-131537464D01*
X114221476Y-131513168D01*
X114192840Y-131506332D01*
X114142970Y-131509537D01*
X114100833Y-131529380D01*
X114090749Y-131538480D01*
X114080063Y-131554223D01*
X114073456Y-131577658D01*
X114069532Y-131614604D01*
X114066897Y-131670880D01*
X114065749Y-131708236D01*
X113932916Y-131708236D01*
X113932831Y-131689917D01*
X113932944Y-131657184D01*
X113934872Y-131581044D01*
X113940240Y-131524166D01*
X113950406Y-131482249D01*
X113966725Y-131450996D01*
X113990553Y-131426106D01*
X114023247Y-131403282D01*
X114049759Y-131390184D01*
X114112615Y-131375739D01*
X114178869Y-131377707D01*
X114237757Y-131396433D01*
X114263030Y-131408673D01*
X114275742Y-131409938D01*
X114278624Y-131398798D01*
X114278626Y-131398461D01*
X114284838Y-131387087D01*
X114306260Y-131381256D01*
X114347782Y-131379614D01*
X114416940Y-131379614D01*
X114416940Y-132940136D01*
X114350926Y-132936336D01*
G36*
X113848157Y-132772882D02*
G01*
X113832835Y-132837479D01*
X113798753Y-132886063D01*
X113744218Y-132921072D01*
X113716036Y-132929589D01*
X113667764Y-132936228D01*
X113614978Y-132937813D01*
X113567353Y-132934160D01*
X113534566Y-132925083D01*
X113514652Y-132917813D01*
X113495155Y-132925083D01*
X113488023Y-132929295D01*
X113459557Y-132936126D01*
X113421059Y-132938822D01*
X113360703Y-132938822D01*
X113360703Y-132695484D01*
X113360706Y-132674763D01*
X113499020Y-132674763D01*
X113499020Y-132723111D01*
X113503668Y-132759904D01*
X113522015Y-132792269D01*
X113532514Y-132799274D01*
X113569988Y-132810191D01*
X113616773Y-132812917D01*
X113662652Y-132807379D01*
X113697410Y-132793505D01*
X113714726Y-132775161D01*
X113725356Y-132742566D01*
X113715929Y-132716729D01*
X113684764Y-132694263D01*
X113634667Y-132679850D01*
X113568582Y-132674763D01*
X113499020Y-132674763D01*
X113360706Y-132674763D01*
X113360707Y-132674440D01*
X113360937Y-132595122D01*
X113361797Y-132536154D01*
X113363679Y-132493616D01*
X113366974Y-132463592D01*
X113372073Y-132442163D01*
X113379366Y-132425411D01*
X113389246Y-132409419D01*
X113421023Y-132371948D01*
X113466055Y-132343339D01*
X113525210Y-132327555D01*
X113603161Y-132322703D01*
X113605695Y-132322708D01*
X113659880Y-132325155D01*
X113708380Y-132331256D01*
X113741478Y-132339809D01*
X113750552Y-132344096D01*
X113779433Y-132362248D01*
X113805568Y-132383822D01*
X113822764Y-132403236D01*
X113824825Y-132414909D01*
X113820803Y-132418063D01*
X113776976Y-132451739D01*
X113747671Y-132471600D01*
X113728294Y-132479613D01*
X113714253Y-132477746D01*
X113700957Y-132467965D01*
X113676418Y-132455756D01*
X113635064Y-132447615D01*
X113588326Y-132445503D01*
X113546034Y-132449800D01*
X113518017Y-132460887D01*
X113516543Y-132462236D01*
X113503953Y-132487581D01*
X113499020Y-132525411D01*
X113499020Y-132574169D01*
X113615331Y-132574216D01*
X113668760Y-132575061D01*
X113713735Y-132578740D01*
X113745907Y-132586309D01*
X113771899Y-132598808D01*
X113777948Y-132602647D01*
X113821710Y-132644845D01*
X113844987Y-132700647D01*
X113846955Y-132742566D01*
X113848299Y-132771223D01*
X113848157Y-132772882D01*
G37*
X113848157Y-132772882D02*
X113832835Y-132837479D01*
X113798753Y-132886063D01*
X113744218Y-132921072D01*
X113716036Y-132929589D01*
X113667764Y-132936228D01*
X113614978Y-132937813D01*
X113567353Y-132934160D01*
X113534566Y-132925083D01*
X113514652Y-132917813D01*
X113495155Y-132925083D01*
X113488023Y-132929295D01*
X113459557Y-132936126D01*
X113421059Y-132938822D01*
X113360703Y-132938822D01*
X113360703Y-132695484D01*
X113360706Y-132674763D01*
X113499020Y-132674763D01*
X113499020Y-132723111D01*
X113503668Y-132759904D01*
X113522015Y-132792269D01*
X113532514Y-132799274D01*
X113569988Y-132810191D01*
X113616773Y-132812917D01*
X113662652Y-132807379D01*
X113697410Y-132793505D01*
X113714726Y-132775161D01*
X113725356Y-132742566D01*
X113715929Y-132716729D01*
X113684764Y-132694263D01*
X113634667Y-132679850D01*
X113568582Y-132674763D01*
X113499020Y-132674763D01*
X113360706Y-132674763D01*
X113360707Y-132674440D01*
X113360937Y-132595122D01*
X113361797Y-132536154D01*
X113363679Y-132493616D01*
X113366974Y-132463592D01*
X113372073Y-132442163D01*
X113379366Y-132425411D01*
X113389246Y-132409419D01*
X113421023Y-132371948D01*
X113466055Y-132343339D01*
X113525210Y-132327555D01*
X113603161Y-132322703D01*
X113605695Y-132322708D01*
X113659880Y-132325155D01*
X113708380Y-132331256D01*
X113741478Y-132339809D01*
X113750552Y-132344096D01*
X113779433Y-132362248D01*
X113805568Y-132383822D01*
X113822764Y-132403236D01*
X113824825Y-132414909D01*
X113820803Y-132418063D01*
X113776976Y-132451739D01*
X113747671Y-132471600D01*
X113728294Y-132479613D01*
X113714253Y-132477746D01*
X113700957Y-132467965D01*
X113676418Y-132455756D01*
X113635064Y-132447615D01*
X113588326Y-132445503D01*
X113546034Y-132449800D01*
X113518017Y-132460887D01*
X113516543Y-132462236D01*
X113503953Y-132487581D01*
X113499020Y-132525411D01*
X113499020Y-132574169D01*
X113615331Y-132574216D01*
X113668760Y-132575061D01*
X113713735Y-132578740D01*
X113745907Y-132586309D01*
X113771899Y-132598808D01*
X113777948Y-132602647D01*
X113821710Y-132644845D01*
X113844987Y-132700647D01*
X113846955Y-132742566D01*
X113848299Y-132771223D01*
X113848157Y-132772882D01*
G36*
X113234960Y-132938822D02*
G01*
X113109218Y-132938822D01*
X113109218Y-132744740D01*
X113109078Y-132699594D01*
X113107649Y-132624823D01*
X113104029Y-132569467D01*
X113097434Y-132529702D01*
X113087079Y-132501700D01*
X113072178Y-132481635D01*
X113051946Y-132465681D01*
X113029859Y-132453792D01*
X113003705Y-132450421D01*
X112966508Y-132457917D01*
X112954555Y-132461038D01*
X112924718Y-132465735D01*
X112903383Y-132459005D01*
X112878655Y-132438177D01*
X112873963Y-132433647D01*
X112848020Y-132405626D01*
X112831291Y-132382843D01*
X112828996Y-132377355D01*
X112833543Y-132357088D01*
X112856602Y-132340884D01*
X112892995Y-132329513D01*
X112937544Y-132323740D01*
X112985072Y-132324334D01*
X113030400Y-132332063D01*
X113068351Y-132347694D01*
X113080381Y-132354993D01*
X113100632Y-132365676D01*
X113108129Y-132363230D01*
X113109218Y-132347647D01*
X113109473Y-132342053D01*
X113115539Y-132329660D01*
X113134356Y-132324020D01*
X113172089Y-132322683D01*
X113234960Y-132322683D01*
X113234960Y-132938822D01*
G37*
X113234960Y-132938822D02*
X113109218Y-132938822D01*
X113109218Y-132744740D01*
X113109078Y-132699594D01*
X113107649Y-132624823D01*
X113104029Y-132569467D01*
X113097434Y-132529702D01*
X113087079Y-132501700D01*
X113072178Y-132481635D01*
X113051946Y-132465681D01*
X113029859Y-132453792D01*
X113003705Y-132450421D01*
X112966508Y-132457917D01*
X112954555Y-132461038D01*
X112924718Y-132465735D01*
X112903383Y-132459005D01*
X112878655Y-132438177D01*
X112873963Y-132433647D01*
X112848020Y-132405626D01*
X112831291Y-132382843D01*
X112828996Y-132377355D01*
X112833543Y-132357088D01*
X112856602Y-132340884D01*
X112892995Y-132329513D01*
X112937544Y-132323740D01*
X112985072Y-132324334D01*
X113030400Y-132332063D01*
X113068351Y-132347694D01*
X113080381Y-132354993D01*
X113100632Y-132365676D01*
X113108129Y-132363230D01*
X113109218Y-132347647D01*
X113109473Y-132342053D01*
X113115539Y-132329660D01*
X113134356Y-132324020D01*
X113172089Y-132322683D01*
X113234960Y-132322683D01*
X113234960Y-132938822D01*
G36*
X112830167Y-132731571D02*
G01*
X112826962Y-132769018D01*
X112826413Y-132772450D01*
X112804838Y-132833835D01*
X112765438Y-132885877D01*
X112713752Y-132921135D01*
X112658248Y-132935729D01*
X112589977Y-132934597D01*
X112527173Y-132915029D01*
X112510815Y-132906771D01*
X112489779Y-132897923D01*
X112481774Y-132900676D01*
X112480505Y-132915029D01*
X112479922Y-132922186D01*
X112472394Y-132932772D01*
X112451488Y-132937645D01*
X112411346Y-132938822D01*
X112342188Y-132938822D01*
X112342188Y-132636930D01*
X112480505Y-132636930D01*
X112481496Y-132689230D01*
X112485519Y-132724050D01*
X112494108Y-132747905D01*
X112508797Y-132767895D01*
X112547584Y-132797618D01*
X112592974Y-132807582D01*
X112636989Y-132795260D01*
X112674060Y-132760888D01*
X112683859Y-132735735D01*
X112691097Y-132691194D01*
X112694279Y-132637155D01*
X112693277Y-132581728D01*
X112687961Y-132533022D01*
X112678204Y-132499148D01*
X112675087Y-132493593D01*
X112645038Y-132465674D01*
X112604315Y-132453306D01*
X112560579Y-132456183D01*
X112521491Y-132474000D01*
X112494710Y-132506452D01*
X112493603Y-132509181D01*
X112486963Y-132539634D01*
X112482278Y-132585139D01*
X112480505Y-132636930D01*
X112342188Y-132636930D01*
X112342188Y-132083773D01*
X112480505Y-132083773D01*
X112480505Y-132376878D01*
X112506124Y-132353693D01*
X112530792Y-132339282D01*
X112577480Y-132327236D01*
X112632056Y-132323354D01*
X112685354Y-132328120D01*
X112728207Y-132342014D01*
X112758878Y-132361779D01*
X112790471Y-132395449D01*
X112811733Y-132440730D01*
X112824514Y-132501981D01*
X112830664Y-132583563D01*
X112831568Y-132616540D01*
X112831633Y-132637155D01*
X112831761Y-132677813D01*
X112830167Y-132731571D01*
G37*
X112830167Y-132731571D02*
X112826962Y-132769018D01*
X112826413Y-132772450D01*
X112804838Y-132833835D01*
X112765438Y-132885877D01*
X112713752Y-132921135D01*
X112658248Y-132935729D01*
X112589977Y-132934597D01*
X112527173Y-132915029D01*
X112510815Y-132906771D01*
X112489779Y-132897923D01*
X112481774Y-132900676D01*
X112480505Y-132915029D01*
X112479922Y-132922186D01*
X112472394Y-132932772D01*
X112451488Y-132937645D01*
X112411346Y-132938822D01*
X112342188Y-132938822D01*
X112342188Y-132636930D01*
X112480505Y-132636930D01*
X112481496Y-132689230D01*
X112485519Y-132724050D01*
X112494108Y-132747905D01*
X112508797Y-132767895D01*
X112547584Y-132797618D01*
X112592974Y-132807582D01*
X112636989Y-132795260D01*
X112674060Y-132760888D01*
X112683859Y-132735735D01*
X112691097Y-132691194D01*
X112694279Y-132637155D01*
X112693277Y-132581728D01*
X112687961Y-132533022D01*
X112678204Y-132499148D01*
X112675087Y-132493593D01*
X112645038Y-132465674D01*
X112604315Y-132453306D01*
X112560579Y-132456183D01*
X112521491Y-132474000D01*
X112494710Y-132506452D01*
X112493603Y-132509181D01*
X112486963Y-132539634D01*
X112482278Y-132585139D01*
X112480505Y-132636930D01*
X112342188Y-132636930D01*
X112342188Y-132083773D01*
X112480505Y-132083773D01*
X112480505Y-132376878D01*
X112506124Y-132353693D01*
X112530792Y-132339282D01*
X112577480Y-132327236D01*
X112632056Y-132323354D01*
X112685354Y-132328120D01*
X112728207Y-132342014D01*
X112758878Y-132361779D01*
X112790471Y-132395449D01*
X112811733Y-132440730D01*
X112824514Y-132501981D01*
X112830664Y-132583563D01*
X112831568Y-132616540D01*
X112831633Y-132637155D01*
X112831761Y-132677813D01*
X112830167Y-132731571D01*
G36*
X111973997Y-132520130D02*
G01*
X111990997Y-132570850D01*
X112011107Y-132626997D01*
X112027899Y-132669532D01*
X112039986Y-132694990D01*
X112045980Y-132699903D01*
X112047426Y-132695630D01*
X112055254Y-132669422D01*
X112067723Y-132625649D01*
X112083447Y-132569211D01*
X112101043Y-132505010D01*
X112148914Y-132328971D01*
X112222007Y-132325152D01*
X112228177Y-132324846D01*
X112267592Y-132324441D01*
X112286533Y-132328487D01*
X112288945Y-132337726D01*
X112285898Y-132346749D01*
X112275874Y-132377632D01*
X112260180Y-132426544D01*
X112239934Y-132489987D01*
X112216256Y-132564462D01*
X112190263Y-132646471D01*
X112097736Y-132938822D01*
X111981993Y-132938822D01*
X111927457Y-132753352D01*
X111917386Y-132719294D01*
X111898775Y-132657378D01*
X111882872Y-132605787D01*
X111871109Y-132569130D01*
X111864918Y-132552018D01*
X111863154Y-132550741D01*
X111854571Y-132561779D01*
X111842316Y-132590969D01*
X111828426Y-132633750D01*
X111827692Y-132636263D01*
X111809096Y-132699400D01*
X111787818Y-132770889D01*
X111768321Y-132835734D01*
X111736705Y-132940122D01*
X111678402Y-132936328D01*
X111620098Y-132932535D01*
X111566098Y-132762782D01*
X111542390Y-132688193D01*
X111515833Y-132604539D01*
X111490404Y-132524342D01*
X111469354Y-132457857D01*
X111426609Y-132322683D01*
X111569612Y-132322683D01*
X111604274Y-132451570D01*
X111613488Y-132485625D01*
X111630915Y-132549115D01*
X111647054Y-132606874D01*
X111659322Y-132649614D01*
X111679709Y-132718773D01*
X111809745Y-132328971D01*
X111859476Y-132325237D01*
X111909206Y-132321504D01*
X111973997Y-132520130D01*
G37*
X111973997Y-132520130D02*
X111990997Y-132570850D01*
X112011107Y-132626997D01*
X112027899Y-132669532D01*
X112039986Y-132694990D01*
X112045980Y-132699903D01*
X112047426Y-132695630D01*
X112055254Y-132669422D01*
X112067723Y-132625649D01*
X112083447Y-132569211D01*
X112101043Y-132505010D01*
X112148914Y-132328971D01*
X112222007Y-132325152D01*
X112228177Y-132324846D01*
X112267592Y-132324441D01*
X112286533Y-132328487D01*
X112288945Y-132337726D01*
X112285898Y-132346749D01*
X112275874Y-132377632D01*
X112260180Y-132426544D01*
X112239934Y-132489987D01*
X112216256Y-132564462D01*
X112190263Y-132646471D01*
X112097736Y-132938822D01*
X111981993Y-132938822D01*
X111927457Y-132753352D01*
X111917386Y-132719294D01*
X111898775Y-132657378D01*
X111882872Y-132605787D01*
X111871109Y-132569130D01*
X111864918Y-132552018D01*
X111863154Y-132550741D01*
X111854571Y-132561779D01*
X111842316Y-132590969D01*
X111828426Y-132633750D01*
X111827692Y-132636263D01*
X111809096Y-132699400D01*
X111787818Y-132770889D01*
X111768321Y-132835734D01*
X111736705Y-132940122D01*
X111678402Y-132936328D01*
X111620098Y-132932535D01*
X111566098Y-132762782D01*
X111542390Y-132688193D01*
X111515833Y-132604539D01*
X111490404Y-132524342D01*
X111469354Y-132457857D01*
X111426609Y-132322683D01*
X111569612Y-132322683D01*
X111604274Y-132451570D01*
X111613488Y-132485625D01*
X111630915Y-132549115D01*
X111647054Y-132606874D01*
X111659322Y-132649614D01*
X111679709Y-132718773D01*
X111809745Y-132328971D01*
X111859476Y-132325237D01*
X111909206Y-132321504D01*
X111973997Y-132520130D01*
G36*
X111415244Y-132830419D02*
G01*
X111382277Y-132879255D01*
X111332270Y-132914386D01*
X111327362Y-132916521D01*
X111272646Y-132931903D01*
X111210993Y-132937899D01*
X111152376Y-132934233D01*
X111106767Y-132920629D01*
X111088549Y-132911754D01*
X111075179Y-132909637D01*
X111072188Y-132920706D01*
X111066524Y-132930942D01*
X111044607Y-132937038D01*
X111002068Y-132938822D01*
X110931948Y-132938822D01*
X110936053Y-132696768D01*
X110936491Y-132674763D01*
X111072188Y-132674763D01*
X111072188Y-132718773D01*
X111076924Y-132751666D01*
X111097336Y-132787931D01*
X111104871Y-132794597D01*
X111135753Y-132808620D01*
X111182213Y-132812228D01*
X111210090Y-132810819D01*
X111262255Y-132800204D01*
X111294587Y-132780425D01*
X111305492Y-132752824D01*
X111293374Y-132718743D01*
X111286304Y-132709824D01*
X111254724Y-132689818D01*
X111204744Y-132678395D01*
X111133487Y-132674763D01*
X111072188Y-132674763D01*
X110936491Y-132674763D01*
X110937169Y-132640794D01*
X110940106Y-132556996D01*
X110945058Y-132492920D01*
X110953002Y-132445073D01*
X110964917Y-132409962D01*
X110981780Y-132384093D01*
X111004572Y-132363974D01*
X111034269Y-132346110D01*
X111049589Y-132339290D01*
X111102589Y-132326417D01*
X111166513Y-132321095D01*
X111232602Y-132323227D01*
X111292099Y-132332714D01*
X111336247Y-132349461D01*
X111351604Y-132359185D01*
X111386960Y-132388005D01*
X111398926Y-132412137D01*
X111396020Y-132416800D01*
X111377909Y-132433088D01*
X111348672Y-132454817D01*
X111333725Y-132464987D01*
X111308270Y-132479397D01*
X111291728Y-132480773D01*
X111276370Y-132470827D01*
X111238094Y-132450684D01*
X111186590Y-132442400D01*
X111133957Y-132448742D01*
X111132961Y-132449030D01*
X111095838Y-132465158D01*
X111077463Y-132490405D01*
X111072380Y-132532158D01*
X111072188Y-132571879D01*
X111203423Y-132576168D01*
X111224331Y-132576873D01*
X111277043Y-132579326D01*
X111312381Y-132583180D01*
X111336267Y-132589878D01*
X111354624Y-132600864D01*
X111373376Y-132617580D01*
X111404337Y-132656244D01*
X111427029Y-132713456D01*
X111429254Y-132752824D01*
X111430413Y-132773333D01*
X111415244Y-132830419D01*
G37*
X111415244Y-132830419D02*
X111382277Y-132879255D01*
X111332270Y-132914386D01*
X111327362Y-132916521D01*
X111272646Y-132931903D01*
X111210993Y-132937899D01*
X111152376Y-132934233D01*
X111106767Y-132920629D01*
X111088549Y-132911754D01*
X111075179Y-132909637D01*
X111072188Y-132920706D01*
X111066524Y-132930942D01*
X111044607Y-132937038D01*
X111002068Y-132938822D01*
X110931948Y-132938822D01*
X110936053Y-132696768D01*
X110936491Y-132674763D01*
X111072188Y-132674763D01*
X111072188Y-132718773D01*
X111076924Y-132751666D01*
X111097336Y-132787931D01*
X111104871Y-132794597D01*
X111135753Y-132808620D01*
X111182213Y-132812228D01*
X111210090Y-132810819D01*
X111262255Y-132800204D01*
X111294587Y-132780425D01*
X111305492Y-132752824D01*
X111293374Y-132718743D01*
X111286304Y-132709824D01*
X111254724Y-132689818D01*
X111204744Y-132678395D01*
X111133487Y-132674763D01*
X111072188Y-132674763D01*
X110936491Y-132674763D01*
X110937169Y-132640794D01*
X110940106Y-132556996D01*
X110945058Y-132492920D01*
X110953002Y-132445073D01*
X110964917Y-132409962D01*
X110981780Y-132384093D01*
X111004572Y-132363974D01*
X111034269Y-132346110D01*
X111049589Y-132339290D01*
X111102589Y-132326417D01*
X111166513Y-132321095D01*
X111232602Y-132323227D01*
X111292099Y-132332714D01*
X111336247Y-132349461D01*
X111351604Y-132359185D01*
X111386960Y-132388005D01*
X111398926Y-132412137D01*
X111396020Y-132416800D01*
X111377909Y-132433088D01*
X111348672Y-132454817D01*
X111333725Y-132464987D01*
X111308270Y-132479397D01*
X111291728Y-132480773D01*
X111276370Y-132470827D01*
X111238094Y-132450684D01*
X111186590Y-132442400D01*
X111133957Y-132448742D01*
X111132961Y-132449030D01*
X111095838Y-132465158D01*
X111077463Y-132490405D01*
X111072380Y-132532158D01*
X111072188Y-132571879D01*
X111203423Y-132576168D01*
X111224331Y-132576873D01*
X111277043Y-132579326D01*
X111312381Y-132583180D01*
X111336267Y-132589878D01*
X111354624Y-132600864D01*
X111373376Y-132617580D01*
X111404337Y-132656244D01*
X111427029Y-132713456D01*
X111429254Y-132752824D01*
X111430413Y-132773333D01*
X111415244Y-132830419D01*
G36*
X110611265Y-132330965D02*
G01*
X110649255Y-132348745D01*
X110682386Y-132374806D01*
X110682386Y-132348745D01*
X110683211Y-132338849D01*
X110690893Y-132328358D01*
X110711667Y-132323725D01*
X110751544Y-132322683D01*
X110820703Y-132322683D01*
X110820703Y-132938822D01*
X110682386Y-132938822D01*
X110682386Y-132738226D01*
X110682369Y-132726710D01*
X110681189Y-132645758D01*
X110678294Y-132579817D01*
X110673888Y-132532258D01*
X110668181Y-132506452D01*
X110662940Y-132496710D01*
X110630676Y-132466156D01*
X110586730Y-132452631D01*
X110538743Y-132458941D01*
X110526973Y-132463217D01*
X110501898Y-132470776D01*
X110484762Y-132468428D01*
X110467518Y-132453064D01*
X110442124Y-132421571D01*
X110400936Y-132369568D01*
X110429886Y-132346125D01*
X110457405Y-132332015D01*
X110505745Y-132322486D01*
X110560230Y-132322174D01*
X110611265Y-132330965D01*
G37*
X110611265Y-132330965D02*
X110649255Y-132348745D01*
X110682386Y-132374806D01*
X110682386Y-132348745D01*
X110683211Y-132338849D01*
X110690893Y-132328358D01*
X110711667Y-132323725D01*
X110751544Y-132322683D01*
X110820703Y-132322683D01*
X110820703Y-132938822D01*
X110682386Y-132938822D01*
X110682386Y-132738226D01*
X110682369Y-132726710D01*
X110681189Y-132645758D01*
X110678294Y-132579817D01*
X110673888Y-132532258D01*
X110668181Y-132506452D01*
X110662940Y-132496710D01*
X110630676Y-132466156D01*
X110586730Y-132452631D01*
X110538743Y-132458941D01*
X110526973Y-132463217D01*
X110501898Y-132470776D01*
X110484762Y-132468428D01*
X110467518Y-132453064D01*
X110442124Y-132421571D01*
X110400936Y-132369568D01*
X110429886Y-132346125D01*
X110457405Y-132332015D01*
X110505745Y-132322486D01*
X110560230Y-132322174D01*
X110611265Y-132330965D01*
G36*
X110403718Y-132677692D02*
G01*
X110388827Y-132767459D01*
X110358185Y-132838045D01*
X110311524Y-132889952D01*
X110248574Y-132923686D01*
X110228235Y-132929647D01*
X110155612Y-132937971D01*
X110078928Y-132930946D01*
X110009663Y-132909265D01*
X109985262Y-132896959D01*
X109950275Y-132875879D01*
X109929072Y-132858534D01*
X109925942Y-132854571D01*
X109920085Y-132840077D01*
X109928524Y-132824321D01*
X109954221Y-132800460D01*
X109966622Y-132790072D01*
X109991052Y-132771063D01*
X110003861Y-132763293D01*
X110007530Y-132764094D01*
X110028561Y-132772745D01*
X110059960Y-132787931D01*
X110070197Y-132792926D01*
X110130590Y-132811475D01*
X110183057Y-132806694D01*
X110229065Y-132778500D01*
X110234419Y-132773291D01*
X110260013Y-132740659D01*
X110274637Y-132709342D01*
X110282736Y-132674763D01*
X109902782Y-132674763D01*
X109902852Y-132608748D01*
X109902892Y-132602182D01*
X109908021Y-132549218D01*
X110041099Y-132549218D01*
X110042670Y-132560203D01*
X110050738Y-132567773D01*
X110069967Y-132571975D01*
X110105019Y-132573783D01*
X110160554Y-132574169D01*
X110191429Y-132573768D01*
X110237002Y-132571429D01*
X110268348Y-132567465D01*
X110280010Y-132562413D01*
X110270064Y-132520827D01*
X110240947Y-132482013D01*
X110198952Y-132455086D01*
X110150440Y-132445772D01*
X110114723Y-132456272D01*
X110079020Y-132481940D01*
X110051879Y-132515381D01*
X110041099Y-132549218D01*
X109908021Y-132549218D01*
X109910758Y-132520965D01*
X109933655Y-132454895D01*
X109973607Y-132397940D01*
X109997979Y-132373848D01*
X110048315Y-132341597D01*
X110108419Y-132325970D01*
X110184338Y-132324871D01*
X110221010Y-132329179D01*
X110288703Y-132351549D01*
X110340530Y-132392263D01*
X110376945Y-132451949D01*
X110398401Y-132531236D01*
X110400579Y-132562413D01*
X110405353Y-132630753D01*
X110403718Y-132677692D01*
G37*
X110403718Y-132677692D02*
X110388827Y-132767459D01*
X110358185Y-132838045D01*
X110311524Y-132889952D01*
X110248574Y-132923686D01*
X110228235Y-132929647D01*
X110155612Y-132937971D01*
X110078928Y-132930946D01*
X110009663Y-132909265D01*
X109985262Y-132896959D01*
X109950275Y-132875879D01*
X109929072Y-132858534D01*
X109925942Y-132854571D01*
X109920085Y-132840077D01*
X109928524Y-132824321D01*
X109954221Y-132800460D01*
X109966622Y-132790072D01*
X109991052Y-132771063D01*
X110003861Y-132763293D01*
X110007530Y-132764094D01*
X110028561Y-132772745D01*
X110059960Y-132787931D01*
X110070197Y-132792926D01*
X110130590Y-132811475D01*
X110183057Y-132806694D01*
X110229065Y-132778500D01*
X110234419Y-132773291D01*
X110260013Y-132740659D01*
X110274637Y-132709342D01*
X110282736Y-132674763D01*
X109902782Y-132674763D01*
X109902852Y-132608748D01*
X109902892Y-132602182D01*
X109908021Y-132549218D01*
X110041099Y-132549218D01*
X110042670Y-132560203D01*
X110050738Y-132567773D01*
X110069967Y-132571975D01*
X110105019Y-132573783D01*
X110160554Y-132574169D01*
X110191429Y-132573768D01*
X110237002Y-132571429D01*
X110268348Y-132567465D01*
X110280010Y-132562413D01*
X110270064Y-132520827D01*
X110240947Y-132482013D01*
X110198952Y-132455086D01*
X110150440Y-132445772D01*
X110114723Y-132456272D01*
X110079020Y-132481940D01*
X110051879Y-132515381D01*
X110041099Y-132549218D01*
X109908021Y-132549218D01*
X109910758Y-132520965D01*
X109933655Y-132454895D01*
X109973607Y-132397940D01*
X109997979Y-132373848D01*
X110048315Y-132341597D01*
X110108419Y-132325970D01*
X110184338Y-132324871D01*
X110221010Y-132329179D01*
X110288703Y-132351549D01*
X110340530Y-132392263D01*
X110376945Y-132451949D01*
X110398401Y-132531236D01*
X110400579Y-132562413D01*
X110405353Y-132630753D01*
X110403718Y-132677692D01*
G36*
X115004373Y-131755310D02*
G01*
X115000688Y-131803332D01*
X114994410Y-131837368D01*
X114984044Y-131864338D01*
X114968092Y-131891158D01*
X114967412Y-131892175D01*
X114928132Y-131935629D01*
X114880072Y-131968772D01*
X114824185Y-131988439D01*
X114750666Y-131994824D01*
X114678609Y-131982268D01*
X114614201Y-131952011D01*
X114563627Y-131905294D01*
X114549108Y-131883221D01*
X114521993Y-131814602D01*
X114508546Y-131729939D01*
X114508775Y-131708523D01*
X114643920Y-131708523D01*
X114644174Y-131748574D01*
X114648421Y-131775313D01*
X114658096Y-131795859D01*
X114674638Y-131817331D01*
X114697593Y-131838639D01*
X114743505Y-131857653D01*
X114792802Y-131854122D01*
X114839917Y-131827694D01*
X114853207Y-131815072D01*
X114867397Y-131793465D01*
X114875266Y-131763094D01*
X114879726Y-131715770D01*
X114880955Y-131680219D01*
X114874224Y-131607620D01*
X114853567Y-131555642D01*
X114818894Y-131523999D01*
X114778249Y-131508847D01*
X114729777Y-131510123D01*
X114684845Y-131535703D01*
X114674103Y-131545442D01*
X114660548Y-131562480D01*
X114652505Y-131584772D01*
X114648043Y-131618947D01*
X114645228Y-131671638D01*
X114643920Y-131708523D01*
X114508775Y-131708523D01*
X114509583Y-131633351D01*
X114510907Y-131619651D01*
X114529374Y-131531908D01*
X114563540Y-131463793D01*
X114613479Y-131415231D01*
X114679261Y-131386148D01*
X114760961Y-131376471D01*
X114791828Y-131377379D01*
X114855128Y-131388493D01*
X114906889Y-131415021D01*
X114955147Y-131460436D01*
X114962865Y-131469551D01*
X114983681Y-131500248D01*
X114997362Y-131535007D01*
X115004948Y-131579056D01*
X115007479Y-131637621D01*
X115006672Y-131680219D01*
X115005997Y-131715931D01*
X115004373Y-131755310D01*
G37*
X115004373Y-131755310D02*
X115000688Y-131803332D01*
X114994410Y-131837368D01*
X114984044Y-131864338D01*
X114968092Y-131891158D01*
X114967412Y-131892175D01*
X114928132Y-131935629D01*
X114880072Y-131968772D01*
X114824185Y-131988439D01*
X114750666Y-131994824D01*
X114678609Y-131982268D01*
X114614201Y-131952011D01*
X114563627Y-131905294D01*
X114549108Y-131883221D01*
X114521993Y-131814602D01*
X114508546Y-131729939D01*
X114508775Y-131708523D01*
X114643920Y-131708523D01*
X114644174Y-131748574D01*
X114648421Y-131775313D01*
X114658096Y-131795859D01*
X114674638Y-131817331D01*
X114697593Y-131838639D01*
X114743505Y-131857653D01*
X114792802Y-131854122D01*
X114839917Y-131827694D01*
X114853207Y-131815072D01*
X114867397Y-131793465D01*
X114875266Y-131763094D01*
X114879726Y-131715770D01*
X114880955Y-131680219D01*
X114874224Y-131607620D01*
X114853567Y-131555642D01*
X114818894Y-131523999D01*
X114778249Y-131508847D01*
X114729777Y-131510123D01*
X114684845Y-131535703D01*
X114674103Y-131545442D01*
X114660548Y-131562480D01*
X114652505Y-131584772D01*
X114648043Y-131618947D01*
X114645228Y-131671638D01*
X114643920Y-131708523D01*
X114508775Y-131708523D01*
X114509583Y-131633351D01*
X114510907Y-131619651D01*
X114529374Y-131531908D01*
X114563540Y-131463793D01*
X114613479Y-131415231D01*
X114679261Y-131386148D01*
X114760961Y-131376471D01*
X114791828Y-131377379D01*
X114855128Y-131388493D01*
X114906889Y-131415021D01*
X114955147Y-131460436D01*
X114962865Y-131469551D01*
X114983681Y-131500248D01*
X114997362Y-131535007D01*
X115004948Y-131579056D01*
X115007479Y-131637621D01*
X115006672Y-131680219D01*
X115005997Y-131715931D01*
X115004373Y-131755310D01*
G36*
X113852421Y-131693936D02*
G01*
X113851322Y-131732371D01*
X113838926Y-131816367D01*
X113811608Y-131882595D01*
X113767941Y-131933784D01*
X113706495Y-131972663D01*
X113646888Y-131990812D01*
X113572110Y-131994284D01*
X113496664Y-131980930D01*
X113429366Y-131951425D01*
X113404428Y-131935012D01*
X113376951Y-131913973D01*
X113364414Y-131900129D01*
X113365124Y-131894417D01*
X113379158Y-131874955D01*
X113405533Y-131851376D01*
X113451240Y-131816513D01*
X113504799Y-131843262D01*
X113519282Y-131849882D01*
X113561916Y-131864273D01*
X113597649Y-131870010D01*
X113623998Y-131865282D01*
X113665347Y-131842514D01*
X113700104Y-131807170D01*
X113719983Y-131766273D01*
X113728083Y-131731693D01*
X113348129Y-131731693D01*
X113348199Y-131665679D01*
X113348774Y-131644757D01*
X113352972Y-131599862D01*
X113486445Y-131599862D01*
X113486690Y-131602434D01*
X113493604Y-131610443D01*
X113513141Y-131615364D01*
X113549467Y-131617843D01*
X113606748Y-131618525D01*
X113625575Y-131618517D01*
X113674470Y-131618065D01*
X113703863Y-131616113D01*
X113718115Y-131611558D01*
X113721582Y-131603299D01*
X113718625Y-131590233D01*
X113718173Y-131588752D01*
X113692699Y-131543285D01*
X113652539Y-131511981D01*
X113604651Y-131500327D01*
X113586949Y-131501259D01*
X113554094Y-131512408D01*
X113522575Y-131540763D01*
X113514085Y-131550789D01*
X113494336Y-131579423D01*
X113486445Y-131599862D01*
X113352972Y-131599862D01*
X113353512Y-131594091D01*
X113361459Y-131552166D01*
X113370168Y-131528696D01*
X113400790Y-131477646D01*
X113441799Y-131431283D01*
X113485168Y-131399514D01*
X113497699Y-131393614D01*
X113570661Y-131374046D01*
X113645168Y-131376109D01*
X113715217Y-131398931D01*
X113774807Y-131441639D01*
X113807038Y-131481025D01*
X113833392Y-131536510D01*
X113847482Y-131603299D01*
X113848022Y-131605861D01*
X113852421Y-131693936D01*
G37*
X113852421Y-131693936D02*
X113851322Y-131732371D01*
X113838926Y-131816367D01*
X113811608Y-131882595D01*
X113767941Y-131933784D01*
X113706495Y-131972663D01*
X113646888Y-131990812D01*
X113572110Y-131994284D01*
X113496664Y-131980930D01*
X113429366Y-131951425D01*
X113404428Y-131935012D01*
X113376951Y-131913973D01*
X113364414Y-131900129D01*
X113365124Y-131894417D01*
X113379158Y-131874955D01*
X113405533Y-131851376D01*
X113451240Y-131816513D01*
X113504799Y-131843262D01*
X113519282Y-131849882D01*
X113561916Y-131864273D01*
X113597649Y-131870010D01*
X113623998Y-131865282D01*
X113665347Y-131842514D01*
X113700104Y-131807170D01*
X113719983Y-131766273D01*
X113728083Y-131731693D01*
X113348129Y-131731693D01*
X113348199Y-131665679D01*
X113348774Y-131644757D01*
X113352972Y-131599862D01*
X113486445Y-131599862D01*
X113486690Y-131602434D01*
X113493604Y-131610443D01*
X113513141Y-131615364D01*
X113549467Y-131617843D01*
X113606748Y-131618525D01*
X113625575Y-131618517D01*
X113674470Y-131618065D01*
X113703863Y-131616113D01*
X113718115Y-131611558D01*
X113721582Y-131603299D01*
X113718625Y-131590233D01*
X113718173Y-131588752D01*
X113692699Y-131543285D01*
X113652539Y-131511981D01*
X113604651Y-131500327D01*
X113586949Y-131501259D01*
X113554094Y-131512408D01*
X113522575Y-131540763D01*
X113514085Y-131550789D01*
X113494336Y-131579423D01*
X113486445Y-131599862D01*
X113352972Y-131599862D01*
X113353512Y-131594091D01*
X113361459Y-131552166D01*
X113370168Y-131528696D01*
X113400790Y-131477646D01*
X113441799Y-131431283D01*
X113485168Y-131399514D01*
X113497699Y-131393614D01*
X113570661Y-131374046D01*
X113645168Y-131376109D01*
X113715217Y-131398931D01*
X113774807Y-131441639D01*
X113807038Y-131481025D01*
X113833392Y-131536510D01*
X113847482Y-131603299D01*
X113848022Y-131605861D01*
X113852421Y-131693936D01*
G36*
X112239874Y-131379207D02*
G01*
X112312495Y-131397408D01*
X112365546Y-131431144D01*
X112399329Y-131480642D01*
X112414147Y-131546126D01*
X112411147Y-131608820D01*
X112389493Y-131661699D01*
X112347967Y-131700796D01*
X112285736Y-131726873D01*
X112201969Y-131740695D01*
X112147540Y-131747940D01*
X112097860Y-131763615D01*
X112072211Y-131786314D01*
X112070662Y-131815998D01*
X112080984Y-131834507D01*
X112112951Y-131856443D01*
X112158395Y-131866818D01*
X112211649Y-131865399D01*
X112267048Y-131851952D01*
X112318928Y-131826243D01*
X112370653Y-131792013D01*
X112416148Y-131838049D01*
X112461643Y-131884084D01*
X112423921Y-131914876D01*
X112409253Y-131925574D01*
X112367983Y-131949880D01*
X112323327Y-131970825D01*
X112287984Y-131982845D01*
X112236234Y-131991552D01*
X112172435Y-131991667D01*
X112094200Y-131982081D01*
X112023722Y-131957783D01*
X111973836Y-131919188D01*
X111944423Y-131866198D01*
X111935365Y-131798718D01*
X111941921Y-131739354D01*
X111962970Y-131690752D01*
X112000864Y-131655946D01*
X112058004Y-131632798D01*
X112136785Y-131619170D01*
X112145834Y-131618183D01*
X112194885Y-131611892D01*
X112234675Y-131605309D01*
X112257312Y-131599708D01*
X112264866Y-131595197D01*
X112277637Y-131571941D01*
X112275563Y-131542171D01*
X112258495Y-131516327D01*
X112249533Y-131510691D01*
X112212188Y-131501660D01*
X112163950Y-131502267D01*
X112113650Y-131511878D01*
X112070115Y-131529858D01*
X112024372Y-131556847D01*
X111988890Y-131515384D01*
X111980280Y-131504850D01*
X111960883Y-131476632D01*
X111952897Y-131457508D01*
X111961283Y-131445781D01*
X111987226Y-131427476D01*
X112024688Y-131407777D01*
X112029966Y-131405370D01*
X112079366Y-131386482D01*
X112126983Y-131377452D01*
X112186072Y-131375639D01*
X112239874Y-131379207D01*
G37*
X112239874Y-131379207D02*
X112312495Y-131397408D01*
X112365546Y-131431144D01*
X112399329Y-131480642D01*
X112414147Y-131546126D01*
X112411147Y-131608820D01*
X112389493Y-131661699D01*
X112347967Y-131700796D01*
X112285736Y-131726873D01*
X112201969Y-131740695D01*
X112147540Y-131747940D01*
X112097860Y-131763615D01*
X112072211Y-131786314D01*
X112070662Y-131815998D01*
X112080984Y-131834507D01*
X112112951Y-131856443D01*
X112158395Y-131866818D01*
X112211649Y-131865399D01*
X112267048Y-131851952D01*
X112318928Y-131826243D01*
X112370653Y-131792013D01*
X112416148Y-131838049D01*
X112461643Y-131884084D01*
X112423921Y-131914876D01*
X112409253Y-131925574D01*
X112367983Y-131949880D01*
X112323327Y-131970825D01*
X112287984Y-131982845D01*
X112236234Y-131991552D01*
X112172435Y-131991667D01*
X112094200Y-131982081D01*
X112023722Y-131957783D01*
X111973836Y-131919188D01*
X111944423Y-131866198D01*
X111935365Y-131798718D01*
X111941921Y-131739354D01*
X111962970Y-131690752D01*
X112000864Y-131655946D01*
X112058004Y-131632798D01*
X112136785Y-131619170D01*
X112145834Y-131618183D01*
X112194885Y-131611892D01*
X112234675Y-131605309D01*
X112257312Y-131599708D01*
X112264866Y-131595197D01*
X112277637Y-131571941D01*
X112275563Y-131542171D01*
X112258495Y-131516327D01*
X112249533Y-131510691D01*
X112212188Y-131501660D01*
X112163950Y-131502267D01*
X112113650Y-131511878D01*
X112070115Y-131529858D01*
X112024372Y-131556847D01*
X111988890Y-131515384D01*
X111980280Y-131504850D01*
X111960883Y-131476632D01*
X111952897Y-131457508D01*
X111961283Y-131445781D01*
X111987226Y-131427476D01*
X112024688Y-131407777D01*
X112029966Y-131405370D01*
X112079366Y-131386482D01*
X112126983Y-131377452D01*
X112186072Y-131375639D01*
X112239874Y-131379207D01*
G36*
X111870349Y-131764565D02*
G01*
X111854844Y-131840538D01*
X111827110Y-131898511D01*
X111784898Y-131942300D01*
X111725960Y-131975722D01*
X111703076Y-131983676D01*
X111643812Y-131993601D01*
X111581447Y-131993331D01*
X111528823Y-131982430D01*
X111527789Y-131982034D01*
X111485381Y-131957087D01*
X111442537Y-131918468D01*
X111406986Y-131874306D01*
X111386459Y-131832727D01*
X111380374Y-131802334D01*
X111375164Y-131745429D01*
X111374292Y-131694705D01*
X111500976Y-131694705D01*
X111508549Y-131755545D01*
X111526341Y-131805538D01*
X111553296Y-131838204D01*
X111563513Y-131843812D01*
X111602473Y-131854007D01*
X111647536Y-131856104D01*
X111685448Y-131849020D01*
X111700244Y-131838861D01*
X111721014Y-131803334D01*
X111734083Y-131747732D01*
X111738624Y-131674766D01*
X111738551Y-131653762D01*
X111736974Y-131611203D01*
X111731728Y-131583439D01*
X111720723Y-131562925D01*
X111701868Y-131542112D01*
X111665989Y-131516887D01*
X111619280Y-131506573D01*
X111574151Y-131516396D01*
X111536680Y-131544805D01*
X111512943Y-131590253D01*
X111504675Y-131629497D01*
X111500976Y-131694705D01*
X111374292Y-131694705D01*
X111374049Y-131680621D01*
X111376844Y-131616116D01*
X111383366Y-131560121D01*
X111393432Y-131520842D01*
X111416877Y-131476372D01*
X111466637Y-131421692D01*
X111530238Y-131387055D01*
X111605790Y-131373345D01*
X111691399Y-131381448D01*
X111705644Y-131384899D01*
X111771982Y-131414664D01*
X111821971Y-131463530D01*
X111855612Y-131531501D01*
X111872906Y-131618580D01*
X111873410Y-131674766D01*
X111873857Y-131724771D01*
X111870349Y-131764565D01*
G37*
X111870349Y-131764565D02*
X111854844Y-131840538D01*
X111827110Y-131898511D01*
X111784898Y-131942300D01*
X111725960Y-131975722D01*
X111703076Y-131983676D01*
X111643812Y-131993601D01*
X111581447Y-131993331D01*
X111528823Y-131982430D01*
X111527789Y-131982034D01*
X111485381Y-131957087D01*
X111442537Y-131918468D01*
X111406986Y-131874306D01*
X111386459Y-131832727D01*
X111380374Y-131802334D01*
X111375164Y-131745429D01*
X111374292Y-131694705D01*
X111500976Y-131694705D01*
X111508549Y-131755545D01*
X111526341Y-131805538D01*
X111553296Y-131838204D01*
X111563513Y-131843812D01*
X111602473Y-131854007D01*
X111647536Y-131856104D01*
X111685448Y-131849020D01*
X111700244Y-131838861D01*
X111721014Y-131803334D01*
X111734083Y-131747732D01*
X111738624Y-131674766D01*
X111738551Y-131653762D01*
X111736974Y-131611203D01*
X111731728Y-131583439D01*
X111720723Y-131562925D01*
X111701868Y-131542112D01*
X111665989Y-131516887D01*
X111619280Y-131506573D01*
X111574151Y-131516396D01*
X111536680Y-131544805D01*
X111512943Y-131590253D01*
X111504675Y-131629497D01*
X111500976Y-131694705D01*
X111374292Y-131694705D01*
X111374049Y-131680621D01*
X111376844Y-131616116D01*
X111383366Y-131560121D01*
X111393432Y-131520842D01*
X111416877Y-131476372D01*
X111466637Y-131421692D01*
X111530238Y-131387055D01*
X111605790Y-131373345D01*
X111691399Y-131381448D01*
X111705644Y-131384899D01*
X111771982Y-131414664D01*
X111821971Y-131463530D01*
X111855612Y-131531501D01*
X111872906Y-131618580D01*
X111873410Y-131674766D01*
X111873857Y-131724771D01*
X111870349Y-131764565D01*
G36*
X110921297Y-131575342D02*
G01*
X110922357Y-131663394D01*
X110926509Y-131734510D01*
X110934921Y-131786199D01*
X110948757Y-131821360D01*
X110969182Y-131842889D01*
X110997364Y-131853682D01*
X111034465Y-131856636D01*
X111069890Y-131854000D01*
X111098500Y-131843679D01*
X111119296Y-131822772D01*
X111133442Y-131788381D01*
X111142103Y-131737610D01*
X111146445Y-131667563D01*
X111147633Y-131575342D01*
X111147633Y-131379614D01*
X111273376Y-131379614D01*
X111273376Y-131615578D01*
X111273160Y-131678561D01*
X111271484Y-131760007D01*
X111267277Y-131822121D01*
X111259521Y-131868458D01*
X111247196Y-131902573D01*
X111229285Y-131928022D01*
X111204767Y-131948362D01*
X111172623Y-131967147D01*
X111105125Y-131990928D01*
X111034681Y-131992480D01*
X110968264Y-131970580D01*
X110939286Y-131956383D01*
X110924909Y-131954261D01*
X110921297Y-131964293D01*
X110915299Y-131975556D01*
X110893830Y-131981489D01*
X110852138Y-131983179D01*
X110782980Y-131983179D01*
X110782980Y-131379614D01*
X110921297Y-131379614D01*
X110921297Y-131575342D01*
G37*
X110921297Y-131575342D02*
X110922357Y-131663394D01*
X110926509Y-131734510D01*
X110934921Y-131786199D01*
X110948757Y-131821360D01*
X110969182Y-131842889D01*
X110997364Y-131853682D01*
X111034465Y-131856636D01*
X111069890Y-131854000D01*
X111098500Y-131843679D01*
X111119296Y-131822772D01*
X111133442Y-131788381D01*
X111142103Y-131737610D01*
X111146445Y-131667563D01*
X111147633Y-131575342D01*
X111147633Y-131379614D01*
X111273376Y-131379614D01*
X111273376Y-131615578D01*
X111273160Y-131678561D01*
X111271484Y-131760007D01*
X111267277Y-131822121D01*
X111259521Y-131868458D01*
X111247196Y-131902573D01*
X111229285Y-131928022D01*
X111204767Y-131948362D01*
X111172623Y-131967147D01*
X111105125Y-131990928D01*
X111034681Y-131992480D01*
X110968264Y-131970580D01*
X110939286Y-131956383D01*
X110924909Y-131954261D01*
X110921297Y-131964293D01*
X110915299Y-131975556D01*
X110893830Y-131981489D01*
X110852138Y-131983179D01*
X110782980Y-131983179D01*
X110782980Y-131379614D01*
X110921297Y-131379614D01*
X110921297Y-131575342D01*
G36*
X110074409Y-131382493D02*
G01*
X110143021Y-131409224D01*
X110201048Y-131453351D01*
X110243907Y-131513958D01*
X110246801Y-131520137D01*
X110265176Y-131580409D01*
X110274357Y-131652407D01*
X110274285Y-131727369D01*
X110264901Y-131796536D01*
X110246149Y-131851149D01*
X110222995Y-131889212D01*
X110172030Y-131943135D01*
X110108306Y-131977411D01*
X110053785Y-131991272D01*
X109970767Y-131992785D01*
X109891326Y-131971882D01*
X109820879Y-131929464D01*
X109775284Y-131891880D01*
X109816351Y-131849510D01*
X109842296Y-131824409D01*
X109865764Y-131810434D01*
X109887524Y-131813511D01*
X109915356Y-131832287D01*
X109926454Y-131839638D01*
X109973337Y-131854683D01*
X110027224Y-131854673D01*
X110077675Y-131839168D01*
X110096672Y-131826716D01*
X110124537Y-131789946D01*
X110138506Y-131735939D01*
X110139405Y-131662331D01*
X110139403Y-131662289D01*
X110129009Y-131596433D01*
X110106114Y-131550772D01*
X110068439Y-131522528D01*
X110013708Y-131508920D01*
X109979241Y-131507090D01*
X109949126Y-131514584D01*
X109918240Y-131536295D01*
X109878272Y-131569926D01*
X109827656Y-131529250D01*
X109809163Y-131513667D01*
X109786065Y-131491340D01*
X109777039Y-131478183D01*
X109780236Y-131472253D01*
X109798646Y-131454048D01*
X109827973Y-131430895D01*
X109850920Y-131415830D01*
X109923774Y-131384880D01*
X109999799Y-131374073D01*
X110074409Y-131382493D01*
G37*
X110074409Y-131382493D02*
X110143021Y-131409224D01*
X110201048Y-131453351D01*
X110243907Y-131513958D01*
X110246801Y-131520137D01*
X110265176Y-131580409D01*
X110274357Y-131652407D01*
X110274285Y-131727369D01*
X110264901Y-131796536D01*
X110246149Y-131851149D01*
X110222995Y-131889212D01*
X110172030Y-131943135D01*
X110108306Y-131977411D01*
X110053785Y-131991272D01*
X109970767Y-131992785D01*
X109891326Y-131971882D01*
X109820879Y-131929464D01*
X109775284Y-131891880D01*
X109816351Y-131849510D01*
X109842296Y-131824409D01*
X109865764Y-131810434D01*
X109887524Y-131813511D01*
X109915356Y-131832287D01*
X109926454Y-131839638D01*
X109973337Y-131854683D01*
X110027224Y-131854673D01*
X110077675Y-131839168D01*
X110096672Y-131826716D01*
X110124537Y-131789946D01*
X110138506Y-131735939D01*
X110139405Y-131662331D01*
X110139403Y-131662289D01*
X110129009Y-131596433D01*
X110106114Y-131550772D01*
X110068439Y-131522528D01*
X110013708Y-131508920D01*
X109979241Y-131507090D01*
X109949126Y-131514584D01*
X109918240Y-131536295D01*
X109878272Y-131569926D01*
X109827656Y-131529250D01*
X109809163Y-131513667D01*
X109786065Y-131491340D01*
X109777039Y-131478183D01*
X109780236Y-131472253D01*
X109798646Y-131454048D01*
X109827973Y-131430895D01*
X109850920Y-131415830D01*
X109923774Y-131384880D01*
X109999799Y-131374073D01*
X110074409Y-131382493D01*
G36*
X109758825Y-131737121D02*
G01*
X109758615Y-131739014D01*
X109740535Y-131827325D01*
X109707870Y-131895986D01*
X109659601Y-131946506D01*
X109594713Y-131980393D01*
X109582801Y-131984268D01*
X109508971Y-131995688D01*
X109432614Y-131989320D01*
X109361626Y-131966563D01*
X109303904Y-131928819D01*
X109260667Y-131888872D01*
X109306625Y-131852532D01*
X109352583Y-131816193D01*
X109407969Y-131843101D01*
X109472056Y-131864905D01*
X109528632Y-131865558D01*
X109574920Y-131845525D01*
X109608230Y-131805315D01*
X109620171Y-131781222D01*
X109626837Y-131760630D01*
X109622980Y-131746720D01*
X109605675Y-131738181D01*
X109571997Y-131733704D01*
X109519021Y-131731978D01*
X109443822Y-131731693D01*
X109261495Y-131731693D01*
X109261495Y-131644492D01*
X109262857Y-131606210D01*
X109391234Y-131606210D01*
X109397399Y-131613251D01*
X109415654Y-131616916D01*
X109450352Y-131618306D01*
X109505846Y-131618525D01*
X109535603Y-131618176D01*
X109582562Y-131615867D01*
X109614416Y-131611822D01*
X109626148Y-131606542D01*
X109623146Y-131587062D01*
X109601988Y-131549786D01*
X109566731Y-131519164D01*
X109524699Y-131500668D01*
X109483220Y-131499773D01*
X109451997Y-131514604D01*
X109416618Y-131548355D01*
X109394122Y-131590233D01*
X109392805Y-131594690D01*
X109391234Y-131606210D01*
X109262857Y-131606210D01*
X109263136Y-131598371D01*
X109267955Y-131552740D01*
X109274840Y-131521893D01*
X109279859Y-131510117D01*
X109316390Y-131457667D01*
X109369175Y-131413921D01*
X109430904Y-131385279D01*
X109463102Y-131377457D01*
X109539820Y-131373896D01*
X109608179Y-131392009D01*
X109666299Y-131429779D01*
X109712302Y-131485191D01*
X109744310Y-131556229D01*
X109753900Y-131606542D01*
X109760444Y-131640878D01*
X109758825Y-131737121D01*
G37*
X109758825Y-131737121D02*
X109758615Y-131739014D01*
X109740535Y-131827325D01*
X109707870Y-131895986D01*
X109659601Y-131946506D01*
X109594713Y-131980393D01*
X109582801Y-131984268D01*
X109508971Y-131995688D01*
X109432614Y-131989320D01*
X109361626Y-131966563D01*
X109303904Y-131928819D01*
X109260667Y-131888872D01*
X109306625Y-131852532D01*
X109352583Y-131816193D01*
X109407969Y-131843101D01*
X109472056Y-131864905D01*
X109528632Y-131865558D01*
X109574920Y-131845525D01*
X109608230Y-131805315D01*
X109620171Y-131781222D01*
X109626837Y-131760630D01*
X109622980Y-131746720D01*
X109605675Y-131738181D01*
X109571997Y-131733704D01*
X109519021Y-131731978D01*
X109443822Y-131731693D01*
X109261495Y-131731693D01*
X109261495Y-131644492D01*
X109262857Y-131606210D01*
X109391234Y-131606210D01*
X109397399Y-131613251D01*
X109415654Y-131616916D01*
X109450352Y-131618306D01*
X109505846Y-131618525D01*
X109535603Y-131618176D01*
X109582562Y-131615867D01*
X109614416Y-131611822D01*
X109626148Y-131606542D01*
X109623146Y-131587062D01*
X109601988Y-131549786D01*
X109566731Y-131519164D01*
X109524699Y-131500668D01*
X109483220Y-131499773D01*
X109451997Y-131514604D01*
X109416618Y-131548355D01*
X109394122Y-131590233D01*
X109392805Y-131594690D01*
X109391234Y-131606210D01*
X109262857Y-131606210D01*
X109263136Y-131598371D01*
X109267955Y-131552740D01*
X109274840Y-131521893D01*
X109279859Y-131510117D01*
X109316390Y-131457667D01*
X109369175Y-131413921D01*
X109430904Y-131385279D01*
X109463102Y-131377457D01*
X109539820Y-131373896D01*
X109608179Y-131392009D01*
X109666299Y-131429779D01*
X109712302Y-131485191D01*
X109744310Y-131556229D01*
X109753900Y-131606542D01*
X109760444Y-131640878D01*
X109758825Y-131737121D01*
G36*
X113023605Y-131378424D02*
G01*
X113080926Y-131396434D01*
X113106199Y-131408674D01*
X113118910Y-131409938D01*
X113121792Y-131398798D01*
X113121795Y-131398461D01*
X113128006Y-131387087D01*
X113149428Y-131381256D01*
X113190950Y-131379614D01*
X113260109Y-131379614D01*
X113260109Y-131983179D01*
X113121792Y-131983179D01*
X113121792Y-131775132D01*
X113121697Y-131704879D01*
X113121051Y-131647170D01*
X113119320Y-131606787D01*
X113115974Y-131579615D01*
X113110481Y-131561540D01*
X113102310Y-131548447D01*
X113090928Y-131536221D01*
X113075424Y-131523217D01*
X113030843Y-131505745D01*
X112984047Y-131510873D01*
X112941180Y-131538507D01*
X112928927Y-131551368D01*
X112920132Y-131564384D01*
X112914233Y-131581706D01*
X112910651Y-131607501D01*
X112908809Y-131645939D01*
X112908128Y-131701189D01*
X112908030Y-131777418D01*
X112908030Y-131983179D01*
X112769713Y-131983179D01*
X112769989Y-131759985D01*
X112770008Y-131750044D01*
X112771207Y-131655106D01*
X112774891Y-131581358D01*
X112782006Y-131525214D01*
X112793500Y-131483087D01*
X112810318Y-131451391D01*
X112833409Y-131426541D01*
X112863717Y-131404950D01*
X112895012Y-131390002D01*
X112958037Y-131376421D01*
X113023605Y-131378424D01*
G37*
X113023605Y-131378424D02*
X113080926Y-131396434D01*
X113106199Y-131408674D01*
X113118910Y-131409938D01*
X113121792Y-131398798D01*
X113121795Y-131398461D01*
X113128006Y-131387087D01*
X113149428Y-131381256D01*
X113190950Y-131379614D01*
X113260109Y-131379614D01*
X113260109Y-131983179D01*
X113121792Y-131983179D01*
X113121792Y-131775132D01*
X113121697Y-131704879D01*
X113121051Y-131647170D01*
X113119320Y-131606787D01*
X113115974Y-131579615D01*
X113110481Y-131561540D01*
X113102310Y-131548447D01*
X113090928Y-131536221D01*
X113075424Y-131523217D01*
X113030843Y-131505745D01*
X112984047Y-131510873D01*
X112941180Y-131538507D01*
X112928927Y-131551368D01*
X112920132Y-131564384D01*
X112914233Y-131581706D01*
X112910651Y-131607501D01*
X112908809Y-131645939D01*
X112908128Y-131701189D01*
X112908030Y-131777418D01*
X112908030Y-131983179D01*
X112769713Y-131983179D01*
X112769989Y-131759985D01*
X112770008Y-131750044D01*
X112771207Y-131655106D01*
X112774891Y-131581358D01*
X112782006Y-131525214D01*
X112793500Y-131483087D01*
X112810318Y-131451391D01*
X112833409Y-131426541D01*
X112863717Y-131404950D01*
X112895012Y-131390002D01*
X112958037Y-131376421D01*
X113023605Y-131378424D01*
G36*
X110428128Y-131374945D02*
G01*
X110458954Y-131384568D01*
X110496916Y-131400563D01*
X110515296Y-131409159D01*
X110528561Y-131410713D01*
X110531495Y-131398798D01*
X110531498Y-131398461D01*
X110537709Y-131387087D01*
X110559131Y-131381256D01*
X110600653Y-131379614D01*
X110669812Y-131379614D01*
X110669812Y-131983179D01*
X110531495Y-131983179D01*
X110531495Y-131567027D01*
X110497110Y-131535161D01*
X110486368Y-131526104D01*
X110454370Y-131510630D01*
X110414965Y-131510010D01*
X110361312Y-131523664D01*
X110343225Y-131524529D01*
X110322008Y-131511283D01*
X110293768Y-131479800D01*
X110280069Y-131462385D01*
X110263868Y-131437797D01*
X110261371Y-131422145D01*
X110270442Y-131408941D01*
X110298289Y-131392245D01*
X110341540Y-131379030D01*
X110388464Y-131372478D01*
X110428128Y-131374945D01*
G37*
X110428128Y-131374945D02*
X110458954Y-131384568D01*
X110496916Y-131400563D01*
X110515296Y-131409159D01*
X110528561Y-131410713D01*
X110531495Y-131398798D01*
X110531498Y-131398461D01*
X110537709Y-131387087D01*
X110559131Y-131381256D01*
X110600653Y-131379614D01*
X110669812Y-131379614D01*
X110669812Y-131983179D01*
X110531495Y-131983179D01*
X110531495Y-131567027D01*
X110497110Y-131535161D01*
X110486368Y-131526104D01*
X110454370Y-131510630D01*
X110414965Y-131510010D01*
X110361312Y-131523664D01*
X110343225Y-131524529D01*
X110322008Y-131511283D01*
X110293768Y-131479800D01*
X110280069Y-131462385D01*
X110263868Y-131437797D01*
X110261371Y-131422145D01*
X110270442Y-131408941D01*
X110298289Y-131392245D01*
X110341540Y-131379030D01*
X110388464Y-131372478D01*
X110428128Y-131374945D01*
G36*
X112505389Y-127211018D02*
G01*
X112562237Y-127512570D01*
X112772001Y-127599041D01*
X112981764Y-127685512D01*
X113233410Y-127514395D01*
X113283216Y-127480661D01*
X113349244Y-127436381D01*
X113406410Y-127398561D01*
X113451744Y-127369142D01*
X113482280Y-127350067D01*
X113495046Y-127343278D01*
X113502887Y-127348106D01*
X113526325Y-127368339D01*
X113561794Y-127401543D01*
X113606289Y-127444670D01*
X113656805Y-127494670D01*
X113710336Y-127548495D01*
X113763877Y-127603095D01*
X113814423Y-127655423D01*
X113858968Y-127702428D01*
X113894507Y-127741063D01*
X113918034Y-127768278D01*
X113926544Y-127781024D01*
X113924565Y-127786500D01*
X113910857Y-127810927D01*
X113885825Y-127851129D01*
X113851499Y-127903952D01*
X113809907Y-127966247D01*
X113763079Y-128034862D01*
X113737380Y-128072283D01*
X113693173Y-128137432D01*
X113655272Y-128194289D01*
X113625698Y-128239770D01*
X113606472Y-128270793D01*
X113599614Y-128284274D01*
X113599726Y-128285021D01*
X113605776Y-128302110D01*
X113619654Y-128337006D01*
X113639427Y-128385151D01*
X113663160Y-128441986D01*
X113688918Y-128502953D01*
X113714766Y-128563492D01*
X113738771Y-128619047D01*
X113758998Y-128665057D01*
X113773511Y-128696965D01*
X113780377Y-128710212D01*
X113784439Y-128711387D01*
X113809121Y-128716687D01*
X113853111Y-128725467D01*
X113912887Y-128737040D01*
X113984929Y-128750721D01*
X114065716Y-128765823D01*
X114108294Y-128773830D01*
X114186445Y-128789107D01*
X114254775Y-128803215D01*
X114309551Y-128815345D01*
X114347037Y-128824686D01*
X114363500Y-128830427D01*
X114366457Y-128836119D01*
X114371362Y-128863930D01*
X114375216Y-128910250D01*
X114378021Y-128970720D01*
X114379781Y-129040983D01*
X114380499Y-129116680D01*
X114380177Y-129193453D01*
X114378819Y-129266944D01*
X114376428Y-129332794D01*
X114373006Y-129386645D01*
X114368556Y-129424138D01*
X114363082Y-129440916D01*
X114359760Y-129442809D01*
X114334987Y-129450926D01*
X114292011Y-129461666D01*
X114235802Y-129473853D01*
X114171325Y-129486310D01*
X114149570Y-129490277D01*
X114049093Y-129508729D01*
X113970126Y-129523559D01*
X113909934Y-129535380D01*
X113865778Y-129544809D01*
X113834920Y-129552460D01*
X113814625Y-129558948D01*
X113802154Y-129564888D01*
X113794771Y-129570894D01*
X113793913Y-129571902D01*
X113781838Y-129592919D01*
X113763971Y-129631376D01*
X113742042Y-129682761D01*
X113717784Y-129742563D01*
X113692927Y-129806270D01*
X113669205Y-129869371D01*
X113648347Y-129927355D01*
X113632087Y-129975709D01*
X113622156Y-130009922D01*
X113620285Y-130025483D01*
X113621536Y-130027502D01*
X113634486Y-130047028D01*
X113658840Y-130083042D01*
X113692340Y-130132228D01*
X113732727Y-130191267D01*
X113777745Y-130256842D01*
X113790100Y-130274884D01*
X113833545Y-130339599D01*
X113871091Y-130397476D01*
X113900594Y-130445082D01*
X113919914Y-130478985D01*
X113926905Y-130495752D01*
X113925398Y-130500161D01*
X113909695Y-130521882D01*
X113878714Y-130557354D01*
X113834673Y-130604188D01*
X113779790Y-130659996D01*
X113716286Y-130722392D01*
X113679988Y-130757317D01*
X113622595Y-130811711D01*
X113572361Y-130858302D01*
X113531984Y-130894636D01*
X113504161Y-130918261D01*
X113491590Y-130926724D01*
X113482952Y-130923587D01*
X113456360Y-130908747D01*
X113417741Y-130884477D01*
X113372134Y-130853852D01*
X113339707Y-130831503D01*
X113274970Y-130787122D01*
X113205886Y-130739987D01*
X113142787Y-130697155D01*
X113019178Y-130613547D01*
X112915417Y-130669650D01*
X112890984Y-130682599D01*
X112846552Y-130704749D01*
X112812191Y-130720041D01*
X112793828Y-130725743D01*
X112787818Y-130718421D01*
X112772895Y-130690541D01*
X112750852Y-130644575D01*
X112722917Y-130583441D01*
X112690317Y-130510055D01*
X112654276Y-130427335D01*
X112616023Y-130338197D01*
X112576783Y-130245559D01*
X112537783Y-130152337D01*
X112500249Y-130061450D01*
X112465409Y-129975814D01*
X112434488Y-129898345D01*
X112408714Y-129831962D01*
X112389311Y-129779582D01*
X112377508Y-129744121D01*
X112374531Y-129728496D01*
X112374732Y-129728039D01*
X112388601Y-129713595D01*
X112417611Y-129690974D01*
X112455772Y-129664864D01*
X112467817Y-129656892D01*
X112559469Y-129581256D01*
X112635323Y-129491169D01*
X112693581Y-129390381D01*
X112732448Y-129282640D01*
X112750128Y-129171697D01*
X112744826Y-129061303D01*
X112723347Y-128963115D01*
X112684782Y-128863966D01*
X112628562Y-128775512D01*
X112551410Y-128691487D01*
X112521095Y-128664645D01*
X112423094Y-128598510D01*
X112317227Y-128553970D01*
X112206561Y-128530625D01*
X112094164Y-128528078D01*
X111983105Y-128545929D01*
X111876451Y-128583780D01*
X111777270Y-128641232D01*
X111688631Y-128717887D01*
X111613600Y-128813345D01*
X111599175Y-128836985D01*
X111550143Y-128945034D01*
X111524103Y-129057548D01*
X111520372Y-129171614D01*
X111538268Y-129284318D01*
X111577109Y-129392745D01*
X111636214Y-129493982D01*
X111714900Y-129585114D01*
X111812485Y-129663228D01*
X111815654Y-129665333D01*
X111853411Y-129691940D01*
X111881709Y-129714561D01*
X111894634Y-129728496D01*
X111893003Y-129739421D01*
X111882864Y-129771231D01*
X111864884Y-129820534D01*
X111840292Y-129884413D01*
X111810311Y-129959948D01*
X111776170Y-130044223D01*
X111739092Y-130134320D01*
X111700306Y-130227321D01*
X111661036Y-130320308D01*
X111622509Y-130410364D01*
X111585950Y-130494571D01*
X111552586Y-130570010D01*
X111523643Y-130633765D01*
X111500346Y-130682917D01*
X111483923Y-130714549D01*
X111475598Y-130725743D01*
X111468674Y-130724227D01*
X111441477Y-130713331D01*
X111401280Y-130694228D01*
X111354009Y-130669650D01*
X111250248Y-130613547D01*
X111126639Y-130697155D01*
X111090120Y-130721913D01*
X111022194Y-130768171D01*
X110954475Y-130814503D01*
X110897291Y-130853852D01*
X110865732Y-130875297D01*
X110824714Y-130901939D01*
X110794301Y-130920178D01*
X110779446Y-130926941D01*
X110773065Y-130924070D01*
X110749996Y-130906485D01*
X110714433Y-130875523D01*
X110669471Y-130834231D01*
X110618206Y-130785653D01*
X110563733Y-130732835D01*
X110509148Y-130678823D01*
X110457547Y-130626661D01*
X110412024Y-130579396D01*
X110375675Y-130540072D01*
X110351595Y-130511736D01*
X110342881Y-130497432D01*
X110343383Y-130494711D01*
X110353755Y-130472560D01*
X110375912Y-130434235D01*
X110407712Y-130383200D01*
X110447016Y-130322914D01*
X110491681Y-130256842D01*
X110504207Y-130238617D01*
X110548193Y-130174485D01*
X110586937Y-130117789D01*
X110618182Y-130071844D01*
X110639669Y-130039970D01*
X110649140Y-130025483D01*
X110649373Y-130024862D01*
X110646578Y-130007139D01*
X110635903Y-129971235D01*
X110619081Y-129921662D01*
X110597843Y-129862932D01*
X110573921Y-129799556D01*
X110549046Y-129736046D01*
X110524950Y-129676913D01*
X110503365Y-129626669D01*
X110486023Y-129589826D01*
X110474655Y-129570894D01*
X110473516Y-129569719D01*
X110465376Y-129563773D01*
X110451629Y-129557776D01*
X110429537Y-129551114D01*
X110396363Y-129543173D01*
X110349370Y-129533337D01*
X110285820Y-129520991D01*
X110202976Y-129505520D01*
X110098100Y-129486310D01*
X110076348Y-129482267D01*
X110014036Y-129469769D01*
X109961619Y-129457927D01*
X109924066Y-129447917D01*
X109906343Y-129440916D01*
X109903378Y-129435075D01*
X109898435Y-129407016D01*
X109894518Y-129360500D01*
X109891629Y-129299886D01*
X109889773Y-129229532D01*
X109888952Y-129153796D01*
X109889168Y-129077037D01*
X109890426Y-129003612D01*
X109892728Y-128937880D01*
X109896076Y-128884200D01*
X109900474Y-128846930D01*
X109905926Y-128830427D01*
X109911491Y-128827989D01*
X109939178Y-128820305D01*
X109985979Y-128809436D01*
X110048157Y-128796192D01*
X110121979Y-128781384D01*
X110203710Y-128765823D01*
X110248336Y-128757509D01*
X110324824Y-128743092D01*
X110390660Y-128730467D01*
X110442323Y-128720321D01*
X110476293Y-128713341D01*
X110489048Y-128710212D01*
X110489528Y-128709568D01*
X110497651Y-128693181D01*
X110513137Y-128658852D01*
X110534050Y-128611136D01*
X110558455Y-128554586D01*
X110584416Y-128493758D01*
X110609997Y-128433206D01*
X110633262Y-128377485D01*
X110652277Y-128331150D01*
X110665105Y-128298755D01*
X110669812Y-128284855D01*
X110667736Y-128279965D01*
X110653920Y-128256692D01*
X110628860Y-128217519D01*
X110594568Y-128165520D01*
X110553059Y-128103768D01*
X110506346Y-128035336D01*
X110480718Y-127997860D01*
X110436490Y-127932156D01*
X110398570Y-127874492D01*
X110368980Y-127828014D01*
X110349743Y-127795865D01*
X110342881Y-127781190D01*
X110347649Y-127773230D01*
X110367593Y-127749446D01*
X110400313Y-127713451D01*
X110442805Y-127668295D01*
X110492065Y-127617028D01*
X110545091Y-127562701D01*
X110598877Y-127508364D01*
X110650421Y-127457067D01*
X110696720Y-127411859D01*
X110734769Y-127375792D01*
X110761565Y-127351914D01*
X110774105Y-127343278D01*
X110781066Y-127346636D01*
X110806627Y-127362210D01*
X110847874Y-127388715D01*
X110901837Y-127424210D01*
X110965542Y-127466750D01*
X111036016Y-127514395D01*
X111287662Y-127685512D01*
X111707188Y-127512570D01*
X111764036Y-127211018D01*
X111820885Y-126909466D01*
X112448540Y-126909466D01*
X112505389Y-127211018D01*
G37*
X112505389Y-127211018D02*
X112562237Y-127512570D01*
X112772001Y-127599041D01*
X112981764Y-127685512D01*
X113233410Y-127514395D01*
X113283216Y-127480661D01*
X113349244Y-127436381D01*
X113406410Y-127398561D01*
X113451744Y-127369142D01*
X113482280Y-127350067D01*
X113495046Y-127343278D01*
X113502887Y-127348106D01*
X113526325Y-127368339D01*
X113561794Y-127401543D01*
X113606289Y-127444670D01*
X113656805Y-127494670D01*
X113710336Y-127548495D01*
X113763877Y-127603095D01*
X113814423Y-127655423D01*
X113858968Y-127702428D01*
X113894507Y-127741063D01*
X113918034Y-127768278D01*
X113926544Y-127781024D01*
X113924565Y-127786500D01*
X113910857Y-127810927D01*
X113885825Y-127851129D01*
X113851499Y-127903952D01*
X113809907Y-127966247D01*
X113763079Y-128034862D01*
X113737380Y-128072283D01*
X113693173Y-128137432D01*
X113655272Y-128194289D01*
X113625698Y-128239770D01*
X113606472Y-128270793D01*
X113599614Y-128284274D01*
X113599726Y-128285021D01*
X113605776Y-128302110D01*
X113619654Y-128337006D01*
X113639427Y-128385151D01*
X113663160Y-128441986D01*
X113688918Y-128502953D01*
X113714766Y-128563492D01*
X113738771Y-128619047D01*
X113758998Y-128665057D01*
X113773511Y-128696965D01*
X113780377Y-128710212D01*
X113784439Y-128711387D01*
X113809121Y-128716687D01*
X113853111Y-128725467D01*
X113912887Y-128737040D01*
X113984929Y-128750721D01*
X114065716Y-128765823D01*
X114108294Y-128773830D01*
X114186445Y-128789107D01*
X114254775Y-128803215D01*
X114309551Y-128815345D01*
X114347037Y-128824686D01*
X114363500Y-128830427D01*
X114366457Y-128836119D01*
X114371362Y-128863930D01*
X114375216Y-128910250D01*
X114378021Y-128970720D01*
X114379781Y-129040983D01*
X114380499Y-129116680D01*
X114380177Y-129193453D01*
X114378819Y-129266944D01*
X114376428Y-129332794D01*
X114373006Y-129386645D01*
X114368556Y-129424138D01*
X114363082Y-129440916D01*
X114359760Y-129442809D01*
X114334987Y-129450926D01*
X114292011Y-129461666D01*
X114235802Y-129473853D01*
X114171325Y-129486310D01*
X114149570Y-129490277D01*
X114049093Y-129508729D01*
X113970126Y-129523559D01*
X113909934Y-129535380D01*
X113865778Y-129544809D01*
X113834920Y-129552460D01*
X113814625Y-129558948D01*
X113802154Y-129564888D01*
X113794771Y-129570894D01*
X113793913Y-129571902D01*
X113781838Y-129592919D01*
X113763971Y-129631376D01*
X113742042Y-129682761D01*
X113717784Y-129742563D01*
X113692927Y-129806270D01*
X113669205Y-129869371D01*
X113648347Y-129927355D01*
X113632087Y-129975709D01*
X113622156Y-130009922D01*
X113620285Y-130025483D01*
X113621536Y-130027502D01*
X113634486Y-130047028D01*
X113658840Y-130083042D01*
X113692340Y-130132228D01*
X113732727Y-130191267D01*
X113777745Y-130256842D01*
X113790100Y-130274884D01*
X113833545Y-130339599D01*
X113871091Y-130397476D01*
X113900594Y-130445082D01*
X113919914Y-130478985D01*
X113926905Y-130495752D01*
X113925398Y-130500161D01*
X113909695Y-130521882D01*
X113878714Y-130557354D01*
X113834673Y-130604188D01*
X113779790Y-130659996D01*
X113716286Y-130722392D01*
X113679988Y-130757317D01*
X113622595Y-130811711D01*
X113572361Y-130858302D01*
X113531984Y-130894636D01*
X113504161Y-130918261D01*
X113491590Y-130926724D01*
X113482952Y-130923587D01*
X113456360Y-130908747D01*
X113417741Y-130884477D01*
X113372134Y-130853852D01*
X113339707Y-130831503D01*
X113274970Y-130787122D01*
X113205886Y-130739987D01*
X113142787Y-130697155D01*
X113019178Y-130613547D01*
X112915417Y-130669650D01*
X112890984Y-130682599D01*
X112846552Y-130704749D01*
X112812191Y-130720041D01*
X112793828Y-130725743D01*
X112787818Y-130718421D01*
X112772895Y-130690541D01*
X112750852Y-130644575D01*
X112722917Y-130583441D01*
X112690317Y-130510055D01*
X112654276Y-130427335D01*
X112616023Y-130338197D01*
X112576783Y-130245559D01*
X112537783Y-130152337D01*
X112500249Y-130061450D01*
X112465409Y-129975814D01*
X112434488Y-129898345D01*
X112408714Y-129831962D01*
X112389311Y-129779582D01*
X112377508Y-129744121D01*
X112374531Y-129728496D01*
X112374732Y-129728039D01*
X112388601Y-129713595D01*
X112417611Y-129690974D01*
X112455772Y-129664864D01*
X112467817Y-129656892D01*
X112559469Y-129581256D01*
X112635323Y-129491169D01*
X112693581Y-129390381D01*
X112732448Y-129282640D01*
X112750128Y-129171697D01*
X112744826Y-129061303D01*
X112723347Y-128963115D01*
X112684782Y-128863966D01*
X112628562Y-128775512D01*
X112551410Y-128691487D01*
X112521095Y-128664645D01*
X112423094Y-128598510D01*
X112317227Y-128553970D01*
X112206561Y-128530625D01*
X112094164Y-128528078D01*
X111983105Y-128545929D01*
X111876451Y-128583780D01*
X111777270Y-128641232D01*
X111688631Y-128717887D01*
X111613600Y-128813345D01*
X111599175Y-128836985D01*
X111550143Y-128945034D01*
X111524103Y-129057548D01*
X111520372Y-129171614D01*
X111538268Y-129284318D01*
X111577109Y-129392745D01*
X111636214Y-129493982D01*
X111714900Y-129585114D01*
X111812485Y-129663228D01*
X111815654Y-129665333D01*
X111853411Y-129691940D01*
X111881709Y-129714561D01*
X111894634Y-129728496D01*
X111893003Y-129739421D01*
X111882864Y-129771231D01*
X111864884Y-129820534D01*
X111840292Y-129884413D01*
X111810311Y-129959948D01*
X111776170Y-130044223D01*
X111739092Y-130134320D01*
X111700306Y-130227321D01*
X111661036Y-130320308D01*
X111622509Y-130410364D01*
X111585950Y-130494571D01*
X111552586Y-130570010D01*
X111523643Y-130633765D01*
X111500346Y-130682917D01*
X111483923Y-130714549D01*
X111475598Y-130725743D01*
X111468674Y-130724227D01*
X111441477Y-130713331D01*
X111401280Y-130694228D01*
X111354009Y-130669650D01*
X111250248Y-130613547D01*
X111126639Y-130697155D01*
X111090120Y-130721913D01*
X111022194Y-130768171D01*
X110954475Y-130814503D01*
X110897291Y-130853852D01*
X110865732Y-130875297D01*
X110824714Y-130901939D01*
X110794301Y-130920178D01*
X110779446Y-130926941D01*
X110773065Y-130924070D01*
X110749996Y-130906485D01*
X110714433Y-130875523D01*
X110669471Y-130834231D01*
X110618206Y-130785653D01*
X110563733Y-130732835D01*
X110509148Y-130678823D01*
X110457547Y-130626661D01*
X110412024Y-130579396D01*
X110375675Y-130540072D01*
X110351595Y-130511736D01*
X110342881Y-130497432D01*
X110343383Y-130494711D01*
X110353755Y-130472560D01*
X110375912Y-130434235D01*
X110407712Y-130383200D01*
X110447016Y-130322914D01*
X110491681Y-130256842D01*
X110504207Y-130238617D01*
X110548193Y-130174485D01*
X110586937Y-130117789D01*
X110618182Y-130071844D01*
X110639669Y-130039970D01*
X110649140Y-130025483D01*
X110649373Y-130024862D01*
X110646578Y-130007139D01*
X110635903Y-129971235D01*
X110619081Y-129921662D01*
X110597843Y-129862932D01*
X110573921Y-129799556D01*
X110549046Y-129736046D01*
X110524950Y-129676913D01*
X110503365Y-129626669D01*
X110486023Y-129589826D01*
X110474655Y-129570894D01*
X110473516Y-129569719D01*
X110465376Y-129563773D01*
X110451629Y-129557776D01*
X110429537Y-129551114D01*
X110396363Y-129543173D01*
X110349370Y-129533337D01*
X110285820Y-129520991D01*
X110202976Y-129505520D01*
X110098100Y-129486310D01*
X110076348Y-129482267D01*
X110014036Y-129469769D01*
X109961619Y-129457927D01*
X109924066Y-129447917D01*
X109906343Y-129440916D01*
X109903378Y-129435075D01*
X109898435Y-129407016D01*
X109894518Y-129360500D01*
X109891629Y-129299886D01*
X109889773Y-129229532D01*
X109888952Y-129153796D01*
X109889168Y-129077037D01*
X109890426Y-129003612D01*
X109892728Y-128937880D01*
X109896076Y-128884200D01*
X109900474Y-128846930D01*
X109905926Y-128830427D01*
X109911491Y-128827989D01*
X109939178Y-128820305D01*
X109985979Y-128809436D01*
X110048157Y-128796192D01*
X110121979Y-128781384D01*
X110203710Y-128765823D01*
X110248336Y-128757509D01*
X110324824Y-128743092D01*
X110390660Y-128730467D01*
X110442323Y-128720321D01*
X110476293Y-128713341D01*
X110489048Y-128710212D01*
X110489528Y-128709568D01*
X110497651Y-128693181D01*
X110513137Y-128658852D01*
X110534050Y-128611136D01*
X110558455Y-128554586D01*
X110584416Y-128493758D01*
X110609997Y-128433206D01*
X110633262Y-128377485D01*
X110652277Y-128331150D01*
X110665105Y-128298755D01*
X110669812Y-128284855D01*
X110667736Y-128279965D01*
X110653920Y-128256692D01*
X110628860Y-128217519D01*
X110594568Y-128165520D01*
X110553059Y-128103768D01*
X110506346Y-128035336D01*
X110480718Y-127997860D01*
X110436490Y-127932156D01*
X110398570Y-127874492D01*
X110368980Y-127828014D01*
X110349743Y-127795865D01*
X110342881Y-127781190D01*
X110347649Y-127773230D01*
X110367593Y-127749446D01*
X110400313Y-127713451D01*
X110442805Y-127668295D01*
X110492065Y-127617028D01*
X110545091Y-127562701D01*
X110598877Y-127508364D01*
X110650421Y-127457067D01*
X110696720Y-127411859D01*
X110734769Y-127375792D01*
X110761565Y-127351914D01*
X110774105Y-127343278D01*
X110781066Y-127346636D01*
X110806627Y-127362210D01*
X110847874Y-127388715D01*
X110901837Y-127424210D01*
X110965542Y-127466750D01*
X111036016Y-127514395D01*
X111287662Y-127685512D01*
X111707188Y-127512570D01*
X111764036Y-127211018D01*
X111820885Y-126909466D01*
X112448540Y-126909466D01*
X112505389Y-127211018D01*
D10*
X184479000Y-66802000D02*
X184479000Y-68802000D01*
X184479000Y-64802000D02*
X184479000Y-65702000D01*
X185404000Y-63802000D02*
G75*
G03*
X185404000Y-63802000I-925000J0D01*
G01*
X185404000Y-69802000D02*
G75*
G03*
X185404000Y-69802000I-925000J0D01*
G01*
D12*
X184654000Y-66802000D02*
G75*
G03*
X184654000Y-66802000I-175000J0D01*
G01*
D10*
X183729000Y-67477000D02*
G75*
G02*
X185154000Y-67552000I750000J675000D01*
G01*
G36*
X113978047Y-138218040D02*
G01*
X113983802Y-138226625D01*
X114004365Y-138260346D01*
X114038179Y-138317200D01*
X114083950Y-138394968D01*
X114140383Y-138491432D01*
X114206184Y-138604371D01*
X114280058Y-138731568D01*
X114360711Y-138870803D01*
X114446848Y-139019857D01*
X114537175Y-139176512D01*
X114561947Y-139219521D01*
X114659900Y-139389575D01*
X114758509Y-139560754D01*
X114855760Y-139729562D01*
X114949638Y-139892503D01*
X115038131Y-140046082D01*
X115119222Y-140186801D01*
X115190898Y-140311166D01*
X115251144Y-140415680D01*
X115297947Y-140496847D01*
X115519030Y-140880171D01*
X112419076Y-140880171D01*
X112290921Y-140880159D01*
X111985500Y-140880042D01*
X111689432Y-140879802D01*
X111404159Y-140879444D01*
X111131123Y-140878976D01*
X110871765Y-140878403D01*
X110627527Y-140877732D01*
X110399849Y-140876968D01*
X110190174Y-140876119D01*
X109999943Y-140875189D01*
X109830597Y-140874186D01*
X109683578Y-140873115D01*
X109560327Y-140871983D01*
X109462286Y-140870796D01*
X109390896Y-140869559D01*
X109347598Y-140868280D01*
X109333835Y-140866963D01*
X109344054Y-140860304D01*
X109379311Y-140839083D01*
X109437221Y-140804920D01*
X109515430Y-140759171D01*
X109611583Y-140703190D01*
X109723323Y-140638333D01*
X109848296Y-140565954D01*
X109984146Y-140487409D01*
X110128518Y-140404054D01*
X110279056Y-140317243D01*
X110433405Y-140228332D01*
X110589210Y-140138676D01*
X110744116Y-140049629D01*
X110895766Y-139962548D01*
X111041806Y-139878788D01*
X111179881Y-139799703D01*
X111307634Y-139726649D01*
X111422711Y-139660981D01*
X111522756Y-139604054D01*
X111605414Y-139557224D01*
X111668329Y-139521846D01*
X111709147Y-139499274D01*
X111725511Y-139490864D01*
X111736189Y-139492949D01*
X111768358Y-139511908D01*
X111814221Y-139547032D01*
X111868740Y-139594669D01*
X111917845Y-139642356D01*
X111980389Y-139707316D01*
X112050368Y-139783155D01*
X112124196Y-139865698D01*
X112198285Y-139950768D01*
X112269048Y-140034190D01*
X112332898Y-140111789D01*
X112386247Y-140179389D01*
X112425509Y-140232814D01*
X112447095Y-140267889D01*
X112461506Y-140293505D01*
X112500643Y-140346516D01*
X112550958Y-140402912D01*
X112605276Y-140455462D01*
X112656424Y-140496930D01*
X112697227Y-140520086D01*
X112742292Y-140525438D01*
X112802426Y-140510645D01*
X112859579Y-140476726D01*
X112903933Y-140428053D01*
X112911613Y-140415425D01*
X112921392Y-140394743D01*
X112927765Y-140369854D01*
X112931142Y-140335409D01*
X112931931Y-140286062D01*
X112930541Y-140216464D01*
X112927381Y-140121268D01*
X112925116Y-140066202D01*
X112920304Y-139979117D01*
X112914625Y-139902899D01*
X112908608Y-139844249D01*
X112902783Y-139809866D01*
X112888679Y-139770588D01*
X112846866Y-139693240D01*
X112781895Y-139601591D01*
X112692970Y-139494567D01*
X112579300Y-139371090D01*
X112529972Y-139319066D01*
X112472938Y-139257696D01*
X112425864Y-139205665D01*
X112392624Y-139167266D01*
X112377089Y-139146796D01*
X112375492Y-139143546D01*
X112373577Y-139129553D01*
X112383145Y-139114039D01*
X112408115Y-139093659D01*
X112452406Y-139065071D01*
X112519938Y-139024932D01*
X112577347Y-138991422D01*
X112682992Y-138930123D01*
X112766171Y-138882509D01*
X112829678Y-138847033D01*
X112876306Y-138822149D01*
X112908850Y-138806313D01*
X112930104Y-138797977D01*
X112952097Y-138788728D01*
X112964951Y-138776307D01*
X112966154Y-138773378D01*
X112984961Y-138757084D01*
X113019335Y-138736098D01*
X113073719Y-138706810D01*
X113113874Y-138744192D01*
X113128057Y-138759336D01*
X113161055Y-138800493D01*
X113201346Y-138855445D01*
X113243182Y-138916531D01*
X113332336Y-139051489D01*
X113328837Y-139401362D01*
X113325339Y-139751235D01*
X113274393Y-139800733D01*
X113257274Y-139818379D01*
X113202376Y-139897660D01*
X113170330Y-139991935D01*
X113159412Y-140105780D01*
X113162123Y-140166779D01*
X113181261Y-140274378D01*
X113216141Y-140372583D01*
X113263742Y-140451382D01*
X113296795Y-140480114D01*
X113355549Y-140501937D01*
X113422061Y-140504454D01*
X113487816Y-140488828D01*
X113544301Y-140456220D01*
X113583003Y-140407793D01*
X113584270Y-140405168D01*
X113607663Y-140357225D01*
X113632439Y-140307122D01*
X113653472Y-140260087D01*
X113683644Y-140180810D01*
X113716932Y-140083072D01*
X113752179Y-139971228D01*
X113788229Y-139849634D01*
X113823925Y-139722645D01*
X113858110Y-139594616D01*
X113889627Y-139469902D01*
X113917320Y-139352859D01*
X113940032Y-139247843D01*
X113956606Y-139159209D01*
X113965885Y-139091312D01*
X113966714Y-139048507D01*
X113964847Y-139038782D01*
X113946658Y-138989556D01*
X113912907Y-138923699D01*
X113866555Y-138847165D01*
X113848764Y-138819585D01*
X113777282Y-138707122D01*
X113716520Y-138608772D01*
X113667817Y-138526832D01*
X113632514Y-138463605D01*
X113611952Y-138421390D01*
X113607469Y-138402487D01*
X113607988Y-138401820D01*
X113626545Y-138388205D01*
X113666202Y-138363319D01*
X113721526Y-138330476D01*
X113787084Y-138292988D01*
X113792626Y-138289876D01*
X113863807Y-138250712D01*
X113913381Y-138225736D01*
X113945906Y-138213158D01*
X113965942Y-138211189D01*
X113978047Y-138218040D01*
G37*
D11*
X113978047Y-138218040D02*
X113983802Y-138226625D01*
X114004365Y-138260346D01*
X114038179Y-138317200D01*
X114083950Y-138394968D01*
X114140383Y-138491432D01*
X114206184Y-138604371D01*
X114280058Y-138731568D01*
X114360711Y-138870803D01*
X114446848Y-139019857D01*
X114537175Y-139176512D01*
X114561947Y-139219521D01*
X114659900Y-139389575D01*
X114758509Y-139560754D01*
X114855760Y-139729562D01*
X114949638Y-139892503D01*
X115038131Y-140046082D01*
X115119222Y-140186801D01*
X115190898Y-140311166D01*
X115251144Y-140415680D01*
X115297947Y-140496847D01*
X115519030Y-140880171D01*
X112419076Y-140880171D01*
X112290921Y-140880159D01*
X111985500Y-140880042D01*
X111689432Y-140879802D01*
X111404159Y-140879444D01*
X111131123Y-140878976D01*
X110871765Y-140878403D01*
X110627527Y-140877732D01*
X110399849Y-140876968D01*
X110190174Y-140876119D01*
X109999943Y-140875189D01*
X109830597Y-140874186D01*
X109683578Y-140873115D01*
X109560327Y-140871983D01*
X109462286Y-140870796D01*
X109390896Y-140869559D01*
X109347598Y-140868280D01*
X109333835Y-140866963D01*
X109344054Y-140860304D01*
X109379311Y-140839083D01*
X109437221Y-140804920D01*
X109515430Y-140759171D01*
X109611583Y-140703190D01*
X109723323Y-140638333D01*
X109848296Y-140565954D01*
X109984146Y-140487409D01*
X110128518Y-140404054D01*
X110279056Y-140317243D01*
X110433405Y-140228332D01*
X110589210Y-140138676D01*
X110744116Y-140049629D01*
X110895766Y-139962548D01*
X111041806Y-139878788D01*
X111179881Y-139799703D01*
X111307634Y-139726649D01*
X111422711Y-139660981D01*
X111522756Y-139604054D01*
X111605414Y-139557224D01*
X111668329Y-139521846D01*
X111709147Y-139499274D01*
X111725511Y-139490864D01*
X111736189Y-139492949D01*
X111768358Y-139511908D01*
X111814221Y-139547032D01*
X111868740Y-139594669D01*
X111917845Y-139642356D01*
X111980389Y-139707316D01*
X112050368Y-139783155D01*
X112124196Y-139865698D01*
X112198285Y-139950768D01*
X112269048Y-140034190D01*
X112332898Y-140111789D01*
X112386247Y-140179389D01*
X112425509Y-140232814D01*
X112447095Y-140267889D01*
X112461506Y-140293505D01*
X112500643Y-140346516D01*
X112550958Y-140402912D01*
X112605276Y-140455462D01*
X112656424Y-140496930D01*
X112697227Y-140520086D01*
X112742292Y-140525438D01*
X112802426Y-140510645D01*
X112859579Y-140476726D01*
X112903933Y-140428053D01*
X112911613Y-140415425D01*
X112921392Y-140394743D01*
X112927765Y-140369854D01*
X112931142Y-140335409D01*
X112931931Y-140286062D01*
X112930541Y-140216464D01*
X112927381Y-140121268D01*
X112925116Y-140066202D01*
X112920304Y-139979117D01*
X112914625Y-139902899D01*
X112908608Y-139844249D01*
X112902783Y-139809866D01*
X112888679Y-139770588D01*
X112846866Y-139693240D01*
X112781895Y-139601591D01*
X112692970Y-139494567D01*
X112579300Y-139371090D01*
X112529972Y-139319066D01*
X112472938Y-139257696D01*
X112425864Y-139205665D01*
X112392624Y-139167266D01*
X112377089Y-139146796D01*
X112375492Y-139143546D01*
X112373577Y-139129553D01*
X112383145Y-139114039D01*
X112408115Y-139093659D01*
X112452406Y-139065071D01*
X112519938Y-139024932D01*
X112577347Y-138991422D01*
X112682992Y-138930123D01*
X112766171Y-138882509D01*
X112829678Y-138847033D01*
X112876306Y-138822149D01*
X112908850Y-138806313D01*
X112930104Y-138797977D01*
X112952097Y-138788728D01*
X112964951Y-138776307D01*
X112966154Y-138773378D01*
X112984961Y-138757084D01*
X113019335Y-138736098D01*
X113073719Y-138706810D01*
X113113874Y-138744192D01*
X113128057Y-138759336D01*
X113161055Y-138800493D01*
X113201346Y-138855445D01*
X113243182Y-138916531D01*
X113332336Y-139051489D01*
X113328837Y-139401362D01*
X113325339Y-139751235D01*
X113274393Y-139800733D01*
X113257274Y-139818379D01*
X113202376Y-139897660D01*
X113170330Y-139991935D01*
X113159412Y-140105780D01*
X113162123Y-140166779D01*
X113181261Y-140274378D01*
X113216141Y-140372583D01*
X113263742Y-140451382D01*
X113296795Y-140480114D01*
X113355549Y-140501937D01*
X113422061Y-140504454D01*
X113487816Y-140488828D01*
X113544301Y-140456220D01*
X113583003Y-140407793D01*
X113584270Y-140405168D01*
X113607663Y-140357225D01*
X113632439Y-140307122D01*
X113653472Y-140260087D01*
X113683644Y-140180810D01*
X113716932Y-140083072D01*
X113752179Y-139971228D01*
X113788229Y-139849634D01*
X113823925Y-139722645D01*
X113858110Y-139594616D01*
X113889627Y-139469902D01*
X113917320Y-139352859D01*
X113940032Y-139247843D01*
X113956606Y-139159209D01*
X113965885Y-139091312D01*
X113966714Y-139048507D01*
X113964847Y-139038782D01*
X113946658Y-138989556D01*
X113912907Y-138923699D01*
X113866555Y-138847165D01*
X113848764Y-138819585D01*
X113777282Y-138707122D01*
X113716520Y-138608772D01*
X113667817Y-138526832D01*
X113632514Y-138463605D01*
X113611952Y-138421390D01*
X113607469Y-138402487D01*
X113607988Y-138401820D01*
X113626545Y-138388205D01*
X113666202Y-138363319D01*
X113721526Y-138330476D01*
X113787084Y-138292988D01*
X113792626Y-138289876D01*
X113863807Y-138250712D01*
X113913381Y-138225736D01*
X113945906Y-138213158D01*
X113965942Y-138211189D01*
X113978047Y-138218040D01*
G36*
X110350836Y-138164363D02*
G01*
X110365023Y-138178032D01*
X110406392Y-138219719D01*
X110461107Y-138276472D01*
X110526510Y-138345397D01*
X110599943Y-138423599D01*
X110678746Y-138508182D01*
X110760260Y-138596253D01*
X110841827Y-138684916D01*
X110920788Y-138771276D01*
X110994483Y-138852439D01*
X111060254Y-138925510D01*
X111115441Y-138987594D01*
X111157386Y-139035795D01*
X111183431Y-139067220D01*
X111190915Y-139078974D01*
X111188346Y-139080272D01*
X111163785Y-139093978D01*
X111115204Y-139121613D01*
X111044652Y-139161998D01*
X110954173Y-139213955D01*
X110845815Y-139276305D01*
X110721624Y-139347871D01*
X110583645Y-139427475D01*
X110433926Y-139513938D01*
X110274513Y-139606083D01*
X110107451Y-139702732D01*
X110045008Y-139738867D01*
X109880883Y-139833806D01*
X109725358Y-139923714D01*
X109580454Y-140007424D01*
X109448195Y-140083771D01*
X109330604Y-140151589D01*
X109229702Y-140209711D01*
X109147513Y-140256971D01*
X109086059Y-140292203D01*
X109047364Y-140314242D01*
X109033449Y-140321920D01*
X109034075Y-140317831D01*
X109045493Y-140294330D01*
X109066493Y-140256786D01*
X109079376Y-140234564D01*
X109106772Y-140187173D01*
X109147087Y-140117377D01*
X109199009Y-140027444D01*
X109261231Y-139919642D01*
X109332443Y-139796240D01*
X109411335Y-139659506D01*
X109496598Y-139511709D01*
X109586924Y-139355117D01*
X109681002Y-139192000D01*
X109773121Y-139032323D01*
X109862680Y-138877187D01*
X109946893Y-138731412D01*
X110024497Y-138597183D01*
X110094225Y-138476685D01*
X110154814Y-138372102D01*
X110204998Y-138285619D01*
X110243512Y-138219421D01*
X110269092Y-138175693D01*
X110280472Y-138156619D01*
X110303820Y-138120201D01*
X110350836Y-138164363D01*
G37*
X110350836Y-138164363D02*
X110365023Y-138178032D01*
X110406392Y-138219719D01*
X110461107Y-138276472D01*
X110526510Y-138345397D01*
X110599943Y-138423599D01*
X110678746Y-138508182D01*
X110760260Y-138596253D01*
X110841827Y-138684916D01*
X110920788Y-138771276D01*
X110994483Y-138852439D01*
X111060254Y-138925510D01*
X111115441Y-138987594D01*
X111157386Y-139035795D01*
X111183431Y-139067220D01*
X111190915Y-139078974D01*
X111188346Y-139080272D01*
X111163785Y-139093978D01*
X111115204Y-139121613D01*
X111044652Y-139161998D01*
X110954173Y-139213955D01*
X110845815Y-139276305D01*
X110721624Y-139347871D01*
X110583645Y-139427475D01*
X110433926Y-139513938D01*
X110274513Y-139606083D01*
X110107451Y-139702732D01*
X110045008Y-139738867D01*
X109880883Y-139833806D01*
X109725358Y-139923714D01*
X109580454Y-140007424D01*
X109448195Y-140083771D01*
X109330604Y-140151589D01*
X109229702Y-140209711D01*
X109147513Y-140256971D01*
X109086059Y-140292203D01*
X109047364Y-140314242D01*
X109033449Y-140321920D01*
X109034075Y-140317831D01*
X109045493Y-140294330D01*
X109066493Y-140256786D01*
X109079376Y-140234564D01*
X109106772Y-140187173D01*
X109147087Y-140117377D01*
X109199009Y-140027444D01*
X109261231Y-139919642D01*
X109332443Y-139796240D01*
X109411335Y-139659506D01*
X109496598Y-139511709D01*
X109586924Y-139355117D01*
X109681002Y-139192000D01*
X109773121Y-139032323D01*
X109862680Y-138877187D01*
X109946893Y-138731412D01*
X110024497Y-138597183D01*
X110094225Y-138476685D01*
X110154814Y-138372102D01*
X110204998Y-138285619D01*
X110243512Y-138219421D01*
X110269092Y-138175693D01*
X110280472Y-138156619D01*
X110303820Y-138120201D01*
X110350836Y-138164363D01*
G36*
X112113560Y-134995175D02*
G01*
X112125093Y-135012511D01*
X112150500Y-135054162D01*
X112188507Y-135117911D01*
X112237837Y-135201545D01*
X112297213Y-135302849D01*
X112365359Y-135419609D01*
X112441000Y-135549608D01*
X112522859Y-135690633D01*
X112609660Y-135840468D01*
X112700126Y-135996900D01*
X112792982Y-136157713D01*
X112886951Y-136320693D01*
X112980757Y-136483624D01*
X113073124Y-136644292D01*
X113162776Y-136800482D01*
X113248436Y-136949980D01*
X113328828Y-137090571D01*
X113402677Y-137220040D01*
X113468705Y-137336172D01*
X113525637Y-137436752D01*
X113572197Y-137519567D01*
X113607108Y-137582400D01*
X113629094Y-137623037D01*
X113636879Y-137639264D01*
X113636887Y-137639388D01*
X113624333Y-137656416D01*
X113588258Y-137685279D01*
X113532417Y-137723247D01*
X113460561Y-137767587D01*
X113412373Y-137795952D01*
X113343032Y-137835396D01*
X113294734Y-137860254D01*
X113264242Y-137871924D01*
X113248320Y-137871806D01*
X113243732Y-137861297D01*
X113243382Y-137859583D01*
X113230268Y-137838682D01*
X113202000Y-137803139D01*
X113163786Y-137759583D01*
X113146155Y-137740875D01*
X113091482Y-137690512D01*
X113031022Y-137647465D01*
X112961182Y-137610473D01*
X112878370Y-137578273D01*
X112778992Y-137549602D01*
X112659455Y-137523198D01*
X112516166Y-137497800D01*
X112345531Y-137472145D01*
X112149134Y-137443227D01*
X111959274Y-137412173D01*
X111793260Y-137381044D01*
X111647382Y-137348942D01*
X111517927Y-137314969D01*
X111401183Y-137278226D01*
X111293440Y-137237817D01*
X111190985Y-137192843D01*
X111115688Y-137155754D01*
X111043765Y-137116725D01*
X110986886Y-137081882D01*
X110949499Y-137053965D01*
X110936049Y-137035714D01*
X110936446Y-137034370D01*
X110947280Y-137012862D01*
X110971845Y-136967822D01*
X111008685Y-136901772D01*
X111056347Y-136817233D01*
X111113376Y-136716727D01*
X111178318Y-136602776D01*
X111249719Y-136477901D01*
X111326124Y-136344624D01*
X111406079Y-136205467D01*
X111488130Y-136062951D01*
X111570822Y-135919598D01*
X111652701Y-135777930D01*
X111732313Y-135640468D01*
X111808204Y-135509734D01*
X111878919Y-135388250D01*
X111943004Y-135278538D01*
X111999004Y-135183118D01*
X112045466Y-135104514D01*
X112080935Y-135045245D01*
X112103957Y-135007835D01*
X112113077Y-134994805D01*
X112113560Y-134995175D01*
G37*
X112113560Y-134995175D02*
X112125093Y-135012511D01*
X112150500Y-135054162D01*
X112188507Y-135117911D01*
X112237837Y-135201545D01*
X112297213Y-135302849D01*
X112365359Y-135419609D01*
X112441000Y-135549608D01*
X112522859Y-135690633D01*
X112609660Y-135840468D01*
X112700126Y-135996900D01*
X112792982Y-136157713D01*
X112886951Y-136320693D01*
X112980757Y-136483624D01*
X113073124Y-136644292D01*
X113162776Y-136800482D01*
X113248436Y-136949980D01*
X113328828Y-137090571D01*
X113402677Y-137220040D01*
X113468705Y-137336172D01*
X113525637Y-137436752D01*
X113572197Y-137519567D01*
X113607108Y-137582400D01*
X113629094Y-137623037D01*
X113636879Y-137639264D01*
X113636887Y-137639388D01*
X113624333Y-137656416D01*
X113588258Y-137685279D01*
X113532417Y-137723247D01*
X113460561Y-137767587D01*
X113412373Y-137795952D01*
X113343032Y-137835396D01*
X113294734Y-137860254D01*
X113264242Y-137871924D01*
X113248320Y-137871806D01*
X113243732Y-137861297D01*
X113243382Y-137859583D01*
X113230268Y-137838682D01*
X113202000Y-137803139D01*
X113163786Y-137759583D01*
X113146155Y-137740875D01*
X113091482Y-137690512D01*
X113031022Y-137647465D01*
X112961182Y-137610473D01*
X112878370Y-137578273D01*
X112778992Y-137549602D01*
X112659455Y-137523198D01*
X112516166Y-137497800D01*
X112345531Y-137472145D01*
X112149134Y-137443227D01*
X111959274Y-137412173D01*
X111793260Y-137381044D01*
X111647382Y-137348942D01*
X111517927Y-137314969D01*
X111401183Y-137278226D01*
X111293440Y-137237817D01*
X111190985Y-137192843D01*
X111115688Y-137155754D01*
X111043765Y-137116725D01*
X110986886Y-137081882D01*
X110949499Y-137053965D01*
X110936049Y-137035714D01*
X110936446Y-137034370D01*
X110947280Y-137012862D01*
X110971845Y-136967822D01*
X111008685Y-136901772D01*
X111056347Y-136817233D01*
X111113376Y-136716727D01*
X111178318Y-136602776D01*
X111249719Y-136477901D01*
X111326124Y-136344624D01*
X111406079Y-136205467D01*
X111488130Y-136062951D01*
X111570822Y-135919598D01*
X111652701Y-135777930D01*
X111732313Y-135640468D01*
X111808204Y-135509734D01*
X111878919Y-135388250D01*
X111943004Y-135278538D01*
X111999004Y-135183118D01*
X112045466Y-135104514D01*
X112080935Y-135045245D01*
X112103957Y-135007835D01*
X112113077Y-134994805D01*
X112113560Y-134995175D01*
M02*
