G04 #@! TF.GenerationSoftware,KiCad,Pcbnew,5.99.0-unknown-43514a1~86~ubuntu18.04.1*
G04 #@! TF.CreationDate,2020-02-15T13:58:03+00:00*
G04 #@! TF.ProjectId,TX_BOARD,54585f42-4f41-4524-942e-6b696361645f,rev?*
G04 #@! TF.SameCoordinates,Original*
G04 #@! TF.FileFunction,Paste,Bot*
G04 #@! TF.FilePolarity,Positive*
%FSLAX46Y46*%
G04 Gerber Fmt 4.6, Leading zero omitted, Abs format (unit mm)*
G04 Created by KiCad (PCBNEW 5.99.0-unknown-43514a1~86~ubuntu18.04.1) date 2020-02-15 13:58:03*
%MOMM*%
%LPD*%
G01*
G04 APERTURE LIST*
%ADD10R,0.900000X1.200000*%
G04 APERTURE END LIST*
G36*
X153584529Y-100178554D02*
G01*
X153663607Y-100231393D01*
X153716446Y-100310471D01*
X153735000Y-100403750D01*
X153735000Y-100891250D01*
X153716446Y-100984529D01*
X153663607Y-101063607D01*
X153584529Y-101116446D01*
X153491250Y-101135000D01*
X152578750Y-101135000D01*
X152485471Y-101116446D01*
X152406393Y-101063607D01*
X152353554Y-100984529D01*
X152335000Y-100891250D01*
X152335000Y-100403750D01*
X152353554Y-100310471D01*
X152406393Y-100231393D01*
X152485471Y-100178554D01*
X152578750Y-100160000D01*
X153491250Y-100160000D01*
X153584529Y-100178554D01*
G37*
G36*
X153584529Y-102053554D02*
G01*
X153663607Y-102106393D01*
X153716446Y-102185471D01*
X153735000Y-102278750D01*
X153735000Y-102766250D01*
X153716446Y-102859529D01*
X153663607Y-102938607D01*
X153584529Y-102991446D01*
X153491250Y-103010000D01*
X152578750Y-103010000D01*
X152485471Y-102991446D01*
X152406393Y-102938607D01*
X152353554Y-102859529D01*
X152335000Y-102766250D01*
X152335000Y-102278750D01*
X152353554Y-102185471D01*
X152406393Y-102106393D01*
X152485471Y-102053554D01*
X152578750Y-102035000D01*
X153491250Y-102035000D01*
X153584529Y-102053554D01*
G37*
G36*
X156124529Y-100129554D02*
G01*
X156203607Y-100182393D01*
X156256446Y-100261471D01*
X156275000Y-100354750D01*
X156275000Y-100842250D01*
X156256446Y-100935529D01*
X156203607Y-101014607D01*
X156124529Y-101067446D01*
X156031250Y-101086000D01*
X155118750Y-101086000D01*
X155025471Y-101067446D01*
X154946393Y-101014607D01*
X154893554Y-100935529D01*
X154875000Y-100842250D01*
X154875000Y-100354750D01*
X154893554Y-100261471D01*
X154946393Y-100182393D01*
X155025471Y-100129554D01*
X155118750Y-100111000D01*
X156031250Y-100111000D01*
X156124529Y-100129554D01*
G37*
G36*
X156124529Y-102004554D02*
G01*
X156203607Y-102057393D01*
X156256446Y-102136471D01*
X156275000Y-102229750D01*
X156275000Y-102717250D01*
X156256446Y-102810529D01*
X156203607Y-102889607D01*
X156124529Y-102942446D01*
X156031250Y-102961000D01*
X155118750Y-102961000D01*
X155025471Y-102942446D01*
X154946393Y-102889607D01*
X154893554Y-102810529D01*
X154875000Y-102717250D01*
X154875000Y-102229750D01*
X154893554Y-102136471D01*
X154946393Y-102057393D01*
X155025471Y-102004554D01*
X155118750Y-101986000D01*
X156031250Y-101986000D01*
X156124529Y-102004554D01*
G37*
D10*
X183389000Y-74676000D03*
X186689000Y-74676000D03*
G36*
X166157529Y-100129554D02*
G01*
X166236607Y-100182393D01*
X166289446Y-100261471D01*
X166308000Y-100354750D01*
X166308000Y-100842250D01*
X166289446Y-100935529D01*
X166236607Y-101014607D01*
X166157529Y-101067446D01*
X166064250Y-101086000D01*
X165151750Y-101086000D01*
X165058471Y-101067446D01*
X164979393Y-101014607D01*
X164926554Y-100935529D01*
X164908000Y-100842250D01*
X164908000Y-100354750D01*
X164926554Y-100261471D01*
X164979393Y-100182393D01*
X165058471Y-100129554D01*
X165151750Y-100111000D01*
X166064250Y-100111000D01*
X166157529Y-100129554D01*
G37*
G36*
X166157529Y-102004554D02*
G01*
X166236607Y-102057393D01*
X166289446Y-102136471D01*
X166308000Y-102229750D01*
X166308000Y-102717250D01*
X166289446Y-102810529D01*
X166236607Y-102889607D01*
X166157529Y-102942446D01*
X166064250Y-102961000D01*
X165151750Y-102961000D01*
X165058471Y-102942446D01*
X164979393Y-102889607D01*
X164926554Y-102810529D01*
X164908000Y-102717250D01*
X164908000Y-102229750D01*
X164926554Y-102136471D01*
X164979393Y-102057393D01*
X165058471Y-102004554D01*
X165151750Y-101986000D01*
X166064250Y-101986000D01*
X166157529Y-102004554D01*
G37*
G36*
X161204529Y-100129554D02*
G01*
X161283607Y-100182393D01*
X161336446Y-100261471D01*
X161355000Y-100354750D01*
X161355000Y-100842250D01*
X161336446Y-100935529D01*
X161283607Y-101014607D01*
X161204529Y-101067446D01*
X161111250Y-101086000D01*
X160198750Y-101086000D01*
X160105471Y-101067446D01*
X160026393Y-101014607D01*
X159973554Y-100935529D01*
X159955000Y-100842250D01*
X159955000Y-100354750D01*
X159973554Y-100261471D01*
X160026393Y-100182393D01*
X160105471Y-100129554D01*
X160198750Y-100111000D01*
X161111250Y-100111000D01*
X161204529Y-100129554D01*
G37*
G36*
X161204529Y-102004554D02*
G01*
X161283607Y-102057393D01*
X161336446Y-102136471D01*
X161355000Y-102229750D01*
X161355000Y-102717250D01*
X161336446Y-102810529D01*
X161283607Y-102889607D01*
X161204529Y-102942446D01*
X161111250Y-102961000D01*
X160198750Y-102961000D01*
X160105471Y-102942446D01*
X160026393Y-102889607D01*
X159973554Y-102810529D01*
X159955000Y-102717250D01*
X159955000Y-102229750D01*
X159973554Y-102136471D01*
X160026393Y-102057393D01*
X160105471Y-102004554D01*
X160198750Y-101986000D01*
X161111250Y-101986000D01*
X161204529Y-102004554D01*
G37*
G36*
X160278529Y-105934554D02*
G01*
X160357607Y-105987393D01*
X160410446Y-106066471D01*
X160429000Y-106159750D01*
X160429000Y-107072250D01*
X160410446Y-107165529D01*
X160357607Y-107244607D01*
X160278529Y-107297446D01*
X160185250Y-107316000D01*
X159697750Y-107316000D01*
X159604471Y-107297446D01*
X159525393Y-107244607D01*
X159472554Y-107165529D01*
X159454000Y-107072250D01*
X159454000Y-106159750D01*
X159472554Y-106066471D01*
X159525393Y-105987393D01*
X159604471Y-105934554D01*
X159697750Y-105916000D01*
X160185250Y-105916000D01*
X160278529Y-105934554D01*
G37*
G36*
X158403529Y-105934554D02*
G01*
X158482607Y-105987393D01*
X158535446Y-106066471D01*
X158554000Y-106159750D01*
X158554000Y-107072250D01*
X158535446Y-107165529D01*
X158482607Y-107244607D01*
X158403529Y-107297446D01*
X158310250Y-107316000D01*
X157822750Y-107316000D01*
X157729471Y-107297446D01*
X157650393Y-107244607D01*
X157597554Y-107165529D01*
X157579000Y-107072250D01*
X157579000Y-106159750D01*
X157597554Y-106066471D01*
X157650393Y-105987393D01*
X157729471Y-105934554D01*
X157822750Y-105916000D01*
X158310250Y-105916000D01*
X158403529Y-105934554D01*
G37*
G36*
X163744529Y-100129554D02*
G01*
X163823607Y-100182393D01*
X163876446Y-100261471D01*
X163895000Y-100354750D01*
X163895000Y-100842250D01*
X163876446Y-100935529D01*
X163823607Y-101014607D01*
X163744529Y-101067446D01*
X163651250Y-101086000D01*
X162738750Y-101086000D01*
X162645471Y-101067446D01*
X162566393Y-101014607D01*
X162513554Y-100935529D01*
X162495000Y-100842250D01*
X162495000Y-100354750D01*
X162513554Y-100261471D01*
X162566393Y-100182393D01*
X162645471Y-100129554D01*
X162738750Y-100111000D01*
X163651250Y-100111000D01*
X163744529Y-100129554D01*
G37*
G36*
X163744529Y-102004554D02*
G01*
X163823607Y-102057393D01*
X163876446Y-102136471D01*
X163895000Y-102229750D01*
X163895000Y-102717250D01*
X163876446Y-102810529D01*
X163823607Y-102889607D01*
X163744529Y-102942446D01*
X163651250Y-102961000D01*
X162738750Y-102961000D01*
X162645471Y-102942446D01*
X162566393Y-102889607D01*
X162513554Y-102810529D01*
X162495000Y-102717250D01*
X162495000Y-102229750D01*
X162513554Y-102136471D01*
X162566393Y-102057393D01*
X162645471Y-102004554D01*
X162738750Y-101986000D01*
X163651250Y-101986000D01*
X163744529Y-102004554D01*
G37*
G36*
X158664529Y-100129554D02*
G01*
X158743607Y-100182393D01*
X158796446Y-100261471D01*
X158815000Y-100354750D01*
X158815000Y-100842250D01*
X158796446Y-100935529D01*
X158743607Y-101014607D01*
X158664529Y-101067446D01*
X158571250Y-101086000D01*
X157658750Y-101086000D01*
X157565471Y-101067446D01*
X157486393Y-101014607D01*
X157433554Y-100935529D01*
X157415000Y-100842250D01*
X157415000Y-100354750D01*
X157433554Y-100261471D01*
X157486393Y-100182393D01*
X157565471Y-100129554D01*
X157658750Y-100111000D01*
X158571250Y-100111000D01*
X158664529Y-100129554D01*
G37*
G36*
X158664529Y-102004554D02*
G01*
X158743607Y-102057393D01*
X158796446Y-102136471D01*
X158815000Y-102229750D01*
X158815000Y-102717250D01*
X158796446Y-102810529D01*
X158743607Y-102889607D01*
X158664529Y-102942446D01*
X158571250Y-102961000D01*
X157658750Y-102961000D01*
X157565471Y-102942446D01*
X157486393Y-102889607D01*
X157433554Y-102810529D01*
X157415000Y-102717250D01*
X157415000Y-102229750D01*
X157433554Y-102136471D01*
X157486393Y-102057393D01*
X157565471Y-102004554D01*
X157658750Y-101986000D01*
X158571250Y-101986000D01*
X158664529Y-102004554D01*
G37*
G36*
X122081529Y-59008554D02*
G01*
X122160607Y-59061393D01*
X122213446Y-59140471D01*
X122232000Y-59233750D01*
X122232000Y-60146250D01*
X122213446Y-60239529D01*
X122160607Y-60318607D01*
X122081529Y-60371446D01*
X121988250Y-60390000D01*
X121500750Y-60390000D01*
X121407471Y-60371446D01*
X121328393Y-60318607D01*
X121275554Y-60239529D01*
X121257000Y-60146250D01*
X121257000Y-59233750D01*
X121275554Y-59140471D01*
X121328393Y-59061393D01*
X121407471Y-59008554D01*
X121500750Y-58990000D01*
X121988250Y-58990000D01*
X122081529Y-59008554D01*
G37*
G36*
X123956529Y-59008554D02*
G01*
X124035607Y-59061393D01*
X124088446Y-59140471D01*
X124107000Y-59233750D01*
X124107000Y-60146250D01*
X124088446Y-60239529D01*
X124035607Y-60318607D01*
X123956529Y-60371446D01*
X123863250Y-60390000D01*
X123375750Y-60390000D01*
X123282471Y-60371446D01*
X123203393Y-60318607D01*
X123150554Y-60239529D01*
X123132000Y-60146250D01*
X123132000Y-59233750D01*
X123150554Y-59140471D01*
X123203393Y-59061393D01*
X123282471Y-59008554D01*
X123375750Y-58990000D01*
X123863250Y-58990000D01*
X123956529Y-59008554D01*
G37*
G36*
X123956529Y-56468554D02*
G01*
X124035607Y-56521393D01*
X124088446Y-56600471D01*
X124107000Y-56693750D01*
X124107000Y-57606250D01*
X124088446Y-57699529D01*
X124035607Y-57778607D01*
X123956529Y-57831446D01*
X123863250Y-57850000D01*
X123375750Y-57850000D01*
X123282471Y-57831446D01*
X123203393Y-57778607D01*
X123150554Y-57699529D01*
X123132000Y-57606250D01*
X123132000Y-56693750D01*
X123150554Y-56600471D01*
X123203393Y-56521393D01*
X123282471Y-56468554D01*
X123375750Y-56450000D01*
X123863250Y-56450000D01*
X123956529Y-56468554D01*
G37*
G36*
X122081529Y-56468554D02*
G01*
X122160607Y-56521393D01*
X122213446Y-56600471D01*
X122232000Y-56693750D01*
X122232000Y-57606250D01*
X122213446Y-57699529D01*
X122160607Y-57778607D01*
X122081529Y-57831446D01*
X121988250Y-57850000D01*
X121500750Y-57850000D01*
X121407471Y-57831446D01*
X121328393Y-57778607D01*
X121275554Y-57699529D01*
X121257000Y-57606250D01*
X121257000Y-56693750D01*
X121275554Y-56600471D01*
X121328393Y-56521393D01*
X121407471Y-56468554D01*
X121500750Y-56450000D01*
X121988250Y-56450000D01*
X122081529Y-56468554D01*
G37*
G36*
X117643529Y-84367054D02*
G01*
X117722607Y-84419893D01*
X117775446Y-84498971D01*
X117794000Y-84592250D01*
X117794000Y-85079750D01*
X117775446Y-85173029D01*
X117722607Y-85252107D01*
X117643529Y-85304946D01*
X117550250Y-85323500D01*
X116637750Y-85323500D01*
X116544471Y-85304946D01*
X116465393Y-85252107D01*
X116412554Y-85173029D01*
X116394000Y-85079750D01*
X116394000Y-84592250D01*
X116412554Y-84498971D01*
X116465393Y-84419893D01*
X116544471Y-84367054D01*
X116637750Y-84348500D01*
X117550250Y-84348500D01*
X117643529Y-84367054D01*
G37*
G36*
X117643529Y-86242054D02*
G01*
X117722607Y-86294893D01*
X117775446Y-86373971D01*
X117794000Y-86467250D01*
X117794000Y-86954750D01*
X117775446Y-87048029D01*
X117722607Y-87127107D01*
X117643529Y-87179946D01*
X117550250Y-87198500D01*
X116637750Y-87198500D01*
X116544471Y-87179946D01*
X116465393Y-87127107D01*
X116412554Y-87048029D01*
X116394000Y-86954750D01*
X116394000Y-86467250D01*
X116412554Y-86373971D01*
X116465393Y-86294893D01*
X116544471Y-86242054D01*
X116637750Y-86223500D01*
X117550250Y-86223500D01*
X117643529Y-86242054D01*
G37*
G36*
X110531529Y-84318554D02*
G01*
X110610607Y-84371393D01*
X110663446Y-84450471D01*
X110682000Y-84543750D01*
X110682000Y-85031250D01*
X110663446Y-85124529D01*
X110610607Y-85203607D01*
X110531529Y-85256446D01*
X110438250Y-85275000D01*
X109525750Y-85275000D01*
X109432471Y-85256446D01*
X109353393Y-85203607D01*
X109300554Y-85124529D01*
X109282000Y-85031250D01*
X109282000Y-84543750D01*
X109300554Y-84450471D01*
X109353393Y-84371393D01*
X109432471Y-84318554D01*
X109525750Y-84300000D01*
X110438250Y-84300000D01*
X110531529Y-84318554D01*
G37*
G36*
X110531529Y-86193554D02*
G01*
X110610607Y-86246393D01*
X110663446Y-86325471D01*
X110682000Y-86418750D01*
X110682000Y-86906250D01*
X110663446Y-86999529D01*
X110610607Y-87078607D01*
X110531529Y-87131446D01*
X110438250Y-87150000D01*
X109525750Y-87150000D01*
X109432471Y-87131446D01*
X109353393Y-87078607D01*
X109300554Y-86999529D01*
X109282000Y-86906250D01*
X109282000Y-86418750D01*
X109300554Y-86325471D01*
X109353393Y-86246393D01*
X109432471Y-86193554D01*
X109525750Y-86175000D01*
X110438250Y-86175000D01*
X110531529Y-86193554D01*
G37*
G36*
X113960529Y-84318554D02*
G01*
X114039607Y-84371393D01*
X114092446Y-84450471D01*
X114111000Y-84543750D01*
X114111000Y-85031250D01*
X114092446Y-85124529D01*
X114039607Y-85203607D01*
X113960529Y-85256446D01*
X113867250Y-85275000D01*
X112954750Y-85275000D01*
X112861471Y-85256446D01*
X112782393Y-85203607D01*
X112729554Y-85124529D01*
X112711000Y-85031250D01*
X112711000Y-84543750D01*
X112729554Y-84450471D01*
X112782393Y-84371393D01*
X112861471Y-84318554D01*
X112954750Y-84300000D01*
X113867250Y-84300000D01*
X113960529Y-84318554D01*
G37*
G36*
X113960529Y-86193554D02*
G01*
X114039607Y-86246393D01*
X114092446Y-86325471D01*
X114111000Y-86418750D01*
X114111000Y-86906250D01*
X114092446Y-86999529D01*
X114039607Y-87078607D01*
X113960529Y-87131446D01*
X113867250Y-87150000D01*
X112954750Y-87150000D01*
X112861471Y-87131446D01*
X112782393Y-87078607D01*
X112729554Y-86999529D01*
X112711000Y-86906250D01*
X112711000Y-86418750D01*
X112729554Y-86325471D01*
X112782393Y-86246393D01*
X112861471Y-86193554D01*
X112954750Y-86175000D01*
X113867250Y-86175000D01*
X113960529Y-86193554D01*
G37*
X175259000Y-74676000D03*
X171959000Y-74676000D03*
X175259000Y-78486000D03*
X171959000Y-78486000D03*
X186689000Y-78486000D03*
X183389000Y-78486000D03*
G36*
X129828529Y-53674554D02*
G01*
X129907607Y-53727393D01*
X129960446Y-53806471D01*
X129979000Y-53899750D01*
X129979000Y-54812250D01*
X129960446Y-54905529D01*
X129907607Y-54984607D01*
X129828529Y-55037446D01*
X129735250Y-55056000D01*
X129247750Y-55056000D01*
X129154471Y-55037446D01*
X129075393Y-54984607D01*
X129022554Y-54905529D01*
X129004000Y-54812250D01*
X129004000Y-53899750D01*
X129022554Y-53806471D01*
X129075393Y-53727393D01*
X129154471Y-53674554D01*
X129247750Y-53656000D01*
X129735250Y-53656000D01*
X129828529Y-53674554D01*
G37*
G36*
X131703529Y-53674554D02*
G01*
X131782607Y-53727393D01*
X131835446Y-53806471D01*
X131854000Y-53899750D01*
X131854000Y-54812250D01*
X131835446Y-54905529D01*
X131782607Y-54984607D01*
X131703529Y-55037446D01*
X131610250Y-55056000D01*
X131122750Y-55056000D01*
X131029471Y-55037446D01*
X130950393Y-54984607D01*
X130897554Y-54905529D01*
X130879000Y-54812250D01*
X130879000Y-53899750D01*
X130897554Y-53806471D01*
X130950393Y-53727393D01*
X131029471Y-53674554D01*
X131122750Y-53656000D01*
X131610250Y-53656000D01*
X131703529Y-53674554D01*
G37*
G36*
X139988529Y-53674554D02*
G01*
X140067607Y-53727393D01*
X140120446Y-53806471D01*
X140139000Y-53899750D01*
X140139000Y-54812250D01*
X140120446Y-54905529D01*
X140067607Y-54984607D01*
X139988529Y-55037446D01*
X139895250Y-55056000D01*
X139407750Y-55056000D01*
X139314471Y-55037446D01*
X139235393Y-54984607D01*
X139182554Y-54905529D01*
X139164000Y-54812250D01*
X139164000Y-53899750D01*
X139182554Y-53806471D01*
X139235393Y-53727393D01*
X139314471Y-53674554D01*
X139407750Y-53656000D01*
X139895250Y-53656000D01*
X139988529Y-53674554D01*
G37*
G36*
X141863529Y-53674554D02*
G01*
X141942607Y-53727393D01*
X141995446Y-53806471D01*
X142014000Y-53899750D01*
X142014000Y-54812250D01*
X141995446Y-54905529D01*
X141942607Y-54984607D01*
X141863529Y-55037446D01*
X141770250Y-55056000D01*
X141282750Y-55056000D01*
X141189471Y-55037446D01*
X141110393Y-54984607D01*
X141057554Y-54905529D01*
X141039000Y-54812250D01*
X141039000Y-53899750D01*
X141057554Y-53806471D01*
X141110393Y-53727393D01*
X141189471Y-53674554D01*
X141282750Y-53656000D01*
X141770250Y-53656000D01*
X141863529Y-53674554D01*
G37*
G36*
X150148529Y-53674554D02*
G01*
X150227607Y-53727393D01*
X150280446Y-53806471D01*
X150299000Y-53899750D01*
X150299000Y-54812250D01*
X150280446Y-54905529D01*
X150227607Y-54984607D01*
X150148529Y-55037446D01*
X150055250Y-55056000D01*
X149567750Y-55056000D01*
X149474471Y-55037446D01*
X149395393Y-54984607D01*
X149342554Y-54905529D01*
X149324000Y-54812250D01*
X149324000Y-53899750D01*
X149342554Y-53806471D01*
X149395393Y-53727393D01*
X149474471Y-53674554D01*
X149567750Y-53656000D01*
X150055250Y-53656000D01*
X150148529Y-53674554D01*
G37*
G36*
X152023529Y-53674554D02*
G01*
X152102607Y-53727393D01*
X152155446Y-53806471D01*
X152174000Y-53899750D01*
X152174000Y-54812250D01*
X152155446Y-54905529D01*
X152102607Y-54984607D01*
X152023529Y-55037446D01*
X151930250Y-55056000D01*
X151442750Y-55056000D01*
X151349471Y-55037446D01*
X151270393Y-54984607D01*
X151217554Y-54905529D01*
X151199000Y-54812250D01*
X151199000Y-53899750D01*
X151217554Y-53806471D01*
X151270393Y-53727393D01*
X151349471Y-53674554D01*
X151442750Y-53656000D01*
X151930250Y-53656000D01*
X152023529Y-53674554D01*
G37*
G36*
X160308529Y-53674554D02*
G01*
X160387607Y-53727393D01*
X160440446Y-53806471D01*
X160459000Y-53899750D01*
X160459000Y-54812250D01*
X160440446Y-54905529D01*
X160387607Y-54984607D01*
X160308529Y-55037446D01*
X160215250Y-55056000D01*
X159727750Y-55056000D01*
X159634471Y-55037446D01*
X159555393Y-54984607D01*
X159502554Y-54905529D01*
X159484000Y-54812250D01*
X159484000Y-53899750D01*
X159502554Y-53806471D01*
X159555393Y-53727393D01*
X159634471Y-53674554D01*
X159727750Y-53656000D01*
X160215250Y-53656000D01*
X160308529Y-53674554D01*
G37*
G36*
X162183529Y-53674554D02*
G01*
X162262607Y-53727393D01*
X162315446Y-53806471D01*
X162334000Y-53899750D01*
X162334000Y-54812250D01*
X162315446Y-54905529D01*
X162262607Y-54984607D01*
X162183529Y-55037446D01*
X162090250Y-55056000D01*
X161602750Y-55056000D01*
X161509471Y-55037446D01*
X161430393Y-54984607D01*
X161377554Y-54905529D01*
X161359000Y-54812250D01*
X161359000Y-53899750D01*
X161377554Y-53806471D01*
X161430393Y-53727393D01*
X161509471Y-53674554D01*
X161602750Y-53656000D01*
X162090250Y-53656000D01*
X162183529Y-53674554D01*
G37*
G36*
X129828529Y-58754554D02*
G01*
X129907607Y-58807393D01*
X129960446Y-58886471D01*
X129979000Y-58979750D01*
X129979000Y-59892250D01*
X129960446Y-59985529D01*
X129907607Y-60064607D01*
X129828529Y-60117446D01*
X129735250Y-60136000D01*
X129247750Y-60136000D01*
X129154471Y-60117446D01*
X129075393Y-60064607D01*
X129022554Y-59985529D01*
X129004000Y-59892250D01*
X129004000Y-58979750D01*
X129022554Y-58886471D01*
X129075393Y-58807393D01*
X129154471Y-58754554D01*
X129247750Y-58736000D01*
X129735250Y-58736000D01*
X129828529Y-58754554D01*
G37*
G36*
X131703529Y-58754554D02*
G01*
X131782607Y-58807393D01*
X131835446Y-58886471D01*
X131854000Y-58979750D01*
X131854000Y-59892250D01*
X131835446Y-59985529D01*
X131782607Y-60064607D01*
X131703529Y-60117446D01*
X131610250Y-60136000D01*
X131122750Y-60136000D01*
X131029471Y-60117446D01*
X130950393Y-60064607D01*
X130897554Y-59985529D01*
X130879000Y-59892250D01*
X130879000Y-58979750D01*
X130897554Y-58886471D01*
X130950393Y-58807393D01*
X131029471Y-58754554D01*
X131122750Y-58736000D01*
X131610250Y-58736000D01*
X131703529Y-58754554D01*
G37*
G36*
X139988529Y-58754554D02*
G01*
X140067607Y-58807393D01*
X140120446Y-58886471D01*
X140139000Y-58979750D01*
X140139000Y-59892250D01*
X140120446Y-59985529D01*
X140067607Y-60064607D01*
X139988529Y-60117446D01*
X139895250Y-60136000D01*
X139407750Y-60136000D01*
X139314471Y-60117446D01*
X139235393Y-60064607D01*
X139182554Y-59985529D01*
X139164000Y-59892250D01*
X139164000Y-58979750D01*
X139182554Y-58886471D01*
X139235393Y-58807393D01*
X139314471Y-58754554D01*
X139407750Y-58736000D01*
X139895250Y-58736000D01*
X139988529Y-58754554D01*
G37*
G36*
X141863529Y-58754554D02*
G01*
X141942607Y-58807393D01*
X141995446Y-58886471D01*
X142014000Y-58979750D01*
X142014000Y-59892250D01*
X141995446Y-59985529D01*
X141942607Y-60064607D01*
X141863529Y-60117446D01*
X141770250Y-60136000D01*
X141282750Y-60136000D01*
X141189471Y-60117446D01*
X141110393Y-60064607D01*
X141057554Y-59985529D01*
X141039000Y-59892250D01*
X141039000Y-58979750D01*
X141057554Y-58886471D01*
X141110393Y-58807393D01*
X141189471Y-58754554D01*
X141282750Y-58736000D01*
X141770250Y-58736000D01*
X141863529Y-58754554D01*
G37*
G36*
X150148529Y-58754554D02*
G01*
X150227607Y-58807393D01*
X150280446Y-58886471D01*
X150299000Y-58979750D01*
X150299000Y-59892250D01*
X150280446Y-59985529D01*
X150227607Y-60064607D01*
X150148529Y-60117446D01*
X150055250Y-60136000D01*
X149567750Y-60136000D01*
X149474471Y-60117446D01*
X149395393Y-60064607D01*
X149342554Y-59985529D01*
X149324000Y-59892250D01*
X149324000Y-58979750D01*
X149342554Y-58886471D01*
X149395393Y-58807393D01*
X149474471Y-58754554D01*
X149567750Y-58736000D01*
X150055250Y-58736000D01*
X150148529Y-58754554D01*
G37*
G36*
X152023529Y-58754554D02*
G01*
X152102607Y-58807393D01*
X152155446Y-58886471D01*
X152174000Y-58979750D01*
X152174000Y-59892250D01*
X152155446Y-59985529D01*
X152102607Y-60064607D01*
X152023529Y-60117446D01*
X151930250Y-60136000D01*
X151442750Y-60136000D01*
X151349471Y-60117446D01*
X151270393Y-60064607D01*
X151217554Y-59985529D01*
X151199000Y-59892250D01*
X151199000Y-58979750D01*
X151217554Y-58886471D01*
X151270393Y-58807393D01*
X151349471Y-58754554D01*
X151442750Y-58736000D01*
X151930250Y-58736000D01*
X152023529Y-58754554D01*
G37*
G36*
X160308529Y-58754554D02*
G01*
X160387607Y-58807393D01*
X160440446Y-58886471D01*
X160459000Y-58979750D01*
X160459000Y-59892250D01*
X160440446Y-59985529D01*
X160387607Y-60064607D01*
X160308529Y-60117446D01*
X160215250Y-60136000D01*
X159727750Y-60136000D01*
X159634471Y-60117446D01*
X159555393Y-60064607D01*
X159502554Y-59985529D01*
X159484000Y-59892250D01*
X159484000Y-58979750D01*
X159502554Y-58886471D01*
X159555393Y-58807393D01*
X159634471Y-58754554D01*
X159727750Y-58736000D01*
X160215250Y-58736000D01*
X160308529Y-58754554D01*
G37*
G36*
X162183529Y-58754554D02*
G01*
X162262607Y-58807393D01*
X162315446Y-58886471D01*
X162334000Y-58979750D01*
X162334000Y-59892250D01*
X162315446Y-59985529D01*
X162262607Y-60064607D01*
X162183529Y-60117446D01*
X162090250Y-60136000D01*
X161602750Y-60136000D01*
X161509471Y-60117446D01*
X161430393Y-60064607D01*
X161377554Y-59985529D01*
X161359000Y-59892250D01*
X161359000Y-58979750D01*
X161377554Y-58886471D01*
X161430393Y-58807393D01*
X161509471Y-58754554D01*
X161602750Y-58736000D01*
X162090250Y-58736000D01*
X162183529Y-58754554D01*
G37*
G36*
X129828529Y-73994554D02*
G01*
X129907607Y-74047393D01*
X129960446Y-74126471D01*
X129979000Y-74219750D01*
X129979000Y-75132250D01*
X129960446Y-75225529D01*
X129907607Y-75304607D01*
X129828529Y-75357446D01*
X129735250Y-75376000D01*
X129247750Y-75376000D01*
X129154471Y-75357446D01*
X129075393Y-75304607D01*
X129022554Y-75225529D01*
X129004000Y-75132250D01*
X129004000Y-74219750D01*
X129022554Y-74126471D01*
X129075393Y-74047393D01*
X129154471Y-73994554D01*
X129247750Y-73976000D01*
X129735250Y-73976000D01*
X129828529Y-73994554D01*
G37*
G36*
X131703529Y-73994554D02*
G01*
X131782607Y-74047393D01*
X131835446Y-74126471D01*
X131854000Y-74219750D01*
X131854000Y-75132250D01*
X131835446Y-75225529D01*
X131782607Y-75304607D01*
X131703529Y-75357446D01*
X131610250Y-75376000D01*
X131122750Y-75376000D01*
X131029471Y-75357446D01*
X130950393Y-75304607D01*
X130897554Y-75225529D01*
X130879000Y-75132250D01*
X130879000Y-74219750D01*
X130897554Y-74126471D01*
X130950393Y-74047393D01*
X131029471Y-73994554D01*
X131122750Y-73976000D01*
X131610250Y-73976000D01*
X131703529Y-73994554D01*
G37*
G36*
X139988529Y-73994554D02*
G01*
X140067607Y-74047393D01*
X140120446Y-74126471D01*
X140139000Y-74219750D01*
X140139000Y-75132250D01*
X140120446Y-75225529D01*
X140067607Y-75304607D01*
X139988529Y-75357446D01*
X139895250Y-75376000D01*
X139407750Y-75376000D01*
X139314471Y-75357446D01*
X139235393Y-75304607D01*
X139182554Y-75225529D01*
X139164000Y-75132250D01*
X139164000Y-74219750D01*
X139182554Y-74126471D01*
X139235393Y-74047393D01*
X139314471Y-73994554D01*
X139407750Y-73976000D01*
X139895250Y-73976000D01*
X139988529Y-73994554D01*
G37*
G36*
X141863529Y-73994554D02*
G01*
X141942607Y-74047393D01*
X141995446Y-74126471D01*
X142014000Y-74219750D01*
X142014000Y-75132250D01*
X141995446Y-75225529D01*
X141942607Y-75304607D01*
X141863529Y-75357446D01*
X141770250Y-75376000D01*
X141282750Y-75376000D01*
X141189471Y-75357446D01*
X141110393Y-75304607D01*
X141057554Y-75225529D01*
X141039000Y-75132250D01*
X141039000Y-74219750D01*
X141057554Y-74126471D01*
X141110393Y-74047393D01*
X141189471Y-73994554D01*
X141282750Y-73976000D01*
X141770250Y-73976000D01*
X141863529Y-73994554D01*
G37*
G36*
X150148529Y-73994554D02*
G01*
X150227607Y-74047393D01*
X150280446Y-74126471D01*
X150299000Y-74219750D01*
X150299000Y-75132250D01*
X150280446Y-75225529D01*
X150227607Y-75304607D01*
X150148529Y-75357446D01*
X150055250Y-75376000D01*
X149567750Y-75376000D01*
X149474471Y-75357446D01*
X149395393Y-75304607D01*
X149342554Y-75225529D01*
X149324000Y-75132250D01*
X149324000Y-74219750D01*
X149342554Y-74126471D01*
X149395393Y-74047393D01*
X149474471Y-73994554D01*
X149567750Y-73976000D01*
X150055250Y-73976000D01*
X150148529Y-73994554D01*
G37*
G36*
X152023529Y-73994554D02*
G01*
X152102607Y-74047393D01*
X152155446Y-74126471D01*
X152174000Y-74219750D01*
X152174000Y-75132250D01*
X152155446Y-75225529D01*
X152102607Y-75304607D01*
X152023529Y-75357446D01*
X151930250Y-75376000D01*
X151442750Y-75376000D01*
X151349471Y-75357446D01*
X151270393Y-75304607D01*
X151217554Y-75225529D01*
X151199000Y-75132250D01*
X151199000Y-74219750D01*
X151217554Y-74126471D01*
X151270393Y-74047393D01*
X151349471Y-73994554D01*
X151442750Y-73976000D01*
X151930250Y-73976000D01*
X152023529Y-73994554D01*
G37*
G36*
X160308529Y-73994554D02*
G01*
X160387607Y-74047393D01*
X160440446Y-74126471D01*
X160459000Y-74219750D01*
X160459000Y-75132250D01*
X160440446Y-75225529D01*
X160387607Y-75304607D01*
X160308529Y-75357446D01*
X160215250Y-75376000D01*
X159727750Y-75376000D01*
X159634471Y-75357446D01*
X159555393Y-75304607D01*
X159502554Y-75225529D01*
X159484000Y-75132250D01*
X159484000Y-74219750D01*
X159502554Y-74126471D01*
X159555393Y-74047393D01*
X159634471Y-73994554D01*
X159727750Y-73976000D01*
X160215250Y-73976000D01*
X160308529Y-73994554D01*
G37*
G36*
X162183529Y-73994554D02*
G01*
X162262607Y-74047393D01*
X162315446Y-74126471D01*
X162334000Y-74219750D01*
X162334000Y-75132250D01*
X162315446Y-75225529D01*
X162262607Y-75304607D01*
X162183529Y-75357446D01*
X162090250Y-75376000D01*
X161602750Y-75376000D01*
X161509471Y-75357446D01*
X161430393Y-75304607D01*
X161377554Y-75225529D01*
X161359000Y-75132250D01*
X161359000Y-74219750D01*
X161377554Y-74126471D01*
X161430393Y-74047393D01*
X161509471Y-73994554D01*
X161602750Y-73976000D01*
X162090250Y-73976000D01*
X162183529Y-73994554D01*
G37*
G36*
X131703529Y-89234554D02*
G01*
X131782607Y-89287393D01*
X131835446Y-89366471D01*
X131854000Y-89459750D01*
X131854000Y-90372250D01*
X131835446Y-90465529D01*
X131782607Y-90544607D01*
X131703529Y-90597446D01*
X131610250Y-90616000D01*
X131122750Y-90616000D01*
X131029471Y-90597446D01*
X130950393Y-90544607D01*
X130897554Y-90465529D01*
X130879000Y-90372250D01*
X130879000Y-89459750D01*
X130897554Y-89366471D01*
X130950393Y-89287393D01*
X131029471Y-89234554D01*
X131122750Y-89216000D01*
X131610250Y-89216000D01*
X131703529Y-89234554D01*
G37*
G36*
X129828529Y-89234554D02*
G01*
X129907607Y-89287393D01*
X129960446Y-89366471D01*
X129979000Y-89459750D01*
X129979000Y-90372250D01*
X129960446Y-90465529D01*
X129907607Y-90544607D01*
X129828529Y-90597446D01*
X129735250Y-90616000D01*
X129247750Y-90616000D01*
X129154471Y-90597446D01*
X129075393Y-90544607D01*
X129022554Y-90465529D01*
X129004000Y-90372250D01*
X129004000Y-89459750D01*
X129022554Y-89366471D01*
X129075393Y-89287393D01*
X129154471Y-89234554D01*
X129247750Y-89216000D01*
X129735250Y-89216000D01*
X129828529Y-89234554D01*
G37*
G36*
X141863529Y-89234554D02*
G01*
X141942607Y-89287393D01*
X141995446Y-89366471D01*
X142014000Y-89459750D01*
X142014000Y-90372250D01*
X141995446Y-90465529D01*
X141942607Y-90544607D01*
X141863529Y-90597446D01*
X141770250Y-90616000D01*
X141282750Y-90616000D01*
X141189471Y-90597446D01*
X141110393Y-90544607D01*
X141057554Y-90465529D01*
X141039000Y-90372250D01*
X141039000Y-89459750D01*
X141057554Y-89366471D01*
X141110393Y-89287393D01*
X141189471Y-89234554D01*
X141282750Y-89216000D01*
X141770250Y-89216000D01*
X141863529Y-89234554D01*
G37*
G36*
X139988529Y-89234554D02*
G01*
X140067607Y-89287393D01*
X140120446Y-89366471D01*
X140139000Y-89459750D01*
X140139000Y-90372250D01*
X140120446Y-90465529D01*
X140067607Y-90544607D01*
X139988529Y-90597446D01*
X139895250Y-90616000D01*
X139407750Y-90616000D01*
X139314471Y-90597446D01*
X139235393Y-90544607D01*
X139182554Y-90465529D01*
X139164000Y-90372250D01*
X139164000Y-89459750D01*
X139182554Y-89366471D01*
X139235393Y-89287393D01*
X139314471Y-89234554D01*
X139407750Y-89216000D01*
X139895250Y-89216000D01*
X139988529Y-89234554D01*
G37*
G36*
X152023529Y-89234554D02*
G01*
X152102607Y-89287393D01*
X152155446Y-89366471D01*
X152174000Y-89459750D01*
X152174000Y-90372250D01*
X152155446Y-90465529D01*
X152102607Y-90544607D01*
X152023529Y-90597446D01*
X151930250Y-90616000D01*
X151442750Y-90616000D01*
X151349471Y-90597446D01*
X151270393Y-90544607D01*
X151217554Y-90465529D01*
X151199000Y-90372250D01*
X151199000Y-89459750D01*
X151217554Y-89366471D01*
X151270393Y-89287393D01*
X151349471Y-89234554D01*
X151442750Y-89216000D01*
X151930250Y-89216000D01*
X152023529Y-89234554D01*
G37*
G36*
X150148529Y-89234554D02*
G01*
X150227607Y-89287393D01*
X150280446Y-89366471D01*
X150299000Y-89459750D01*
X150299000Y-90372250D01*
X150280446Y-90465529D01*
X150227607Y-90544607D01*
X150148529Y-90597446D01*
X150055250Y-90616000D01*
X149567750Y-90616000D01*
X149474471Y-90597446D01*
X149395393Y-90544607D01*
X149342554Y-90465529D01*
X149324000Y-90372250D01*
X149324000Y-89459750D01*
X149342554Y-89366471D01*
X149395393Y-89287393D01*
X149474471Y-89234554D01*
X149567750Y-89216000D01*
X150055250Y-89216000D01*
X150148529Y-89234554D01*
G37*
G36*
X162183529Y-89234554D02*
G01*
X162262607Y-89287393D01*
X162315446Y-89366471D01*
X162334000Y-89459750D01*
X162334000Y-90372250D01*
X162315446Y-90465529D01*
X162262607Y-90544607D01*
X162183529Y-90597446D01*
X162090250Y-90616000D01*
X161602750Y-90616000D01*
X161509471Y-90597446D01*
X161430393Y-90544607D01*
X161377554Y-90465529D01*
X161359000Y-90372250D01*
X161359000Y-89459750D01*
X161377554Y-89366471D01*
X161430393Y-89287393D01*
X161509471Y-89234554D01*
X161602750Y-89216000D01*
X162090250Y-89216000D01*
X162183529Y-89234554D01*
G37*
G36*
X160308529Y-89234554D02*
G01*
X160387607Y-89287393D01*
X160440446Y-89366471D01*
X160459000Y-89459750D01*
X160459000Y-90372250D01*
X160440446Y-90465529D01*
X160387607Y-90544607D01*
X160308529Y-90597446D01*
X160215250Y-90616000D01*
X159727750Y-90616000D01*
X159634471Y-90597446D01*
X159555393Y-90544607D01*
X159502554Y-90465529D01*
X159484000Y-90372250D01*
X159484000Y-89459750D01*
X159502554Y-89366471D01*
X159555393Y-89287393D01*
X159634471Y-89234554D01*
X159727750Y-89216000D01*
X160215250Y-89216000D01*
X160308529Y-89234554D01*
G37*
G36*
X160278529Y-109872554D02*
G01*
X160357607Y-109925393D01*
X160410446Y-110004471D01*
X160429000Y-110097750D01*
X160429000Y-111010250D01*
X160410446Y-111103529D01*
X160357607Y-111182607D01*
X160278529Y-111235446D01*
X160185250Y-111254000D01*
X159697750Y-111254000D01*
X159604471Y-111235446D01*
X159525393Y-111182607D01*
X159472554Y-111103529D01*
X159454000Y-111010250D01*
X159454000Y-110097750D01*
X159472554Y-110004471D01*
X159525393Y-109925393D01*
X159604471Y-109872554D01*
X159697750Y-109854000D01*
X160185250Y-109854000D01*
X160278529Y-109872554D01*
G37*
G36*
X158403529Y-109872554D02*
G01*
X158482607Y-109925393D01*
X158535446Y-110004471D01*
X158554000Y-110097750D01*
X158554000Y-111010250D01*
X158535446Y-111103529D01*
X158482607Y-111182607D01*
X158403529Y-111235446D01*
X158310250Y-111254000D01*
X157822750Y-111254000D01*
X157729471Y-111235446D01*
X157650393Y-111182607D01*
X157597554Y-111103529D01*
X157579000Y-111010250D01*
X157579000Y-110097750D01*
X157597554Y-110004471D01*
X157650393Y-109925393D01*
X157729471Y-109872554D01*
X157822750Y-109854000D01*
X158310250Y-109854000D01*
X158403529Y-109872554D01*
G37*
G36*
X114925671Y-56494030D02*
G01*
X115006777Y-56548223D01*
X115060970Y-56629329D01*
X115080000Y-56724999D01*
X115080000Y-57575001D01*
X115060970Y-57670671D01*
X115006777Y-57751777D01*
X114925671Y-57805970D01*
X114830001Y-57825000D01*
X113929999Y-57825000D01*
X113834329Y-57805970D01*
X113753223Y-57751777D01*
X113699030Y-57670671D01*
X113680000Y-57575001D01*
X113680000Y-56724999D01*
X113699030Y-56629329D01*
X113753223Y-56548223D01*
X113834329Y-56494030D01*
X113929999Y-56475000D01*
X114830001Y-56475000D01*
X114925671Y-56494030D01*
G37*
G36*
X112225671Y-56494030D02*
G01*
X112306777Y-56548223D01*
X112360970Y-56629329D01*
X112380000Y-56724999D01*
X112380000Y-57575001D01*
X112360970Y-57670671D01*
X112306777Y-57751777D01*
X112225671Y-57805970D01*
X112130001Y-57825000D01*
X111229999Y-57825000D01*
X111134329Y-57805970D01*
X111053223Y-57751777D01*
X110999030Y-57670671D01*
X110980000Y-57575001D01*
X110980000Y-56724999D01*
X110999030Y-56629329D01*
X111053223Y-56548223D01*
X111134329Y-56494030D01*
X111229999Y-56475000D01*
X112130001Y-56475000D01*
X112225671Y-56494030D01*
G37*
G36*
X120005671Y-56494030D02*
G01*
X120086777Y-56548223D01*
X120140970Y-56629329D01*
X120160000Y-56724999D01*
X120160000Y-57575001D01*
X120140970Y-57670671D01*
X120086777Y-57751777D01*
X120005671Y-57805970D01*
X119910001Y-57825000D01*
X119009999Y-57825000D01*
X118914329Y-57805970D01*
X118833223Y-57751777D01*
X118779030Y-57670671D01*
X118760000Y-57575001D01*
X118760000Y-56724999D01*
X118779030Y-56629329D01*
X118833223Y-56548223D01*
X118914329Y-56494030D01*
X119009999Y-56475000D01*
X119910001Y-56475000D01*
X120005671Y-56494030D01*
G37*
G36*
X117305671Y-56494030D02*
G01*
X117386777Y-56548223D01*
X117440970Y-56629329D01*
X117460000Y-56724999D01*
X117460000Y-57575001D01*
X117440970Y-57670671D01*
X117386777Y-57751777D01*
X117305671Y-57805970D01*
X117210001Y-57825000D01*
X116309999Y-57825000D01*
X116214329Y-57805970D01*
X116133223Y-57751777D01*
X116079030Y-57670671D01*
X116060000Y-57575001D01*
X116060000Y-56724999D01*
X116079030Y-56629329D01*
X116133223Y-56548223D01*
X116214329Y-56494030D01*
X116309999Y-56475000D01*
X117210001Y-56475000D01*
X117305671Y-56494030D01*
G37*
M02*
