M48
INCH,TZ
T1C0.0157
T2C0.0276
T3C0.0295
T4C0.0315
T5C0.0394
T6C0.0400
T7C0.0433
T8C0.1260
%
G90
G05
T1
X55200Y-32600
X55800Y-37000
X57900Y-34668
X58400Y-32400
X61400Y-29200
X63400Y-32600
X65000Y-29200
X65000Y-44400
X68000Y-28000
X68400Y-34600
X70182Y-27727
X72600Y-28200
X72600Y-32800
T2
X71350Y-30900
X71350Y-33900
X71350Y-35896
X71350Y-37900
X74350Y-30900
X74350Y-33900
X74354Y-35904
X74354Y-37904
X71346Y-22396
X71346Y-24396
X71350Y-26400
X71350Y-29400
X74350Y-22400
X74350Y-24404
X74350Y-26400
X74350Y-29400
X66846Y-22396
X66846Y-24396
X66850Y-26400
X66850Y-29400
X69850Y-22400
X69850Y-24404
X69850Y-26400
X69850Y-29400
X66850Y-30900
X66850Y-33900
X66850Y-35896
X66850Y-37900
X69850Y-30900
X69850Y-33900
X69854Y-35904
X69854Y-37904
T3
X43600Y-37950
X43600Y-38450
X43600Y-38950
X46100Y-35600
X46100Y-36100
X46100Y-36600
X46100Y-37950
X46100Y-38450
X46100Y-38950
X43600Y-35600
X43600Y-36100
X43600Y-36600
T4
X61150Y-41975
X64150Y-41975
X61150Y-43525
X64150Y-43525
T5
X49350Y-25400
X53350Y-21400
X56050Y-42975
X56050Y-43975
X66306Y-41775
X66700Y-43940
X69850Y-39625
X70243Y-41775
X71231Y-41800
X71625Y-43965
X74775Y-39650
X75169Y-41800
X54150Y-40975
X54150Y-41975
X54150Y-42975
X54150Y-43975
X53350Y-25400
X57350Y-21400
X47725Y-20975
X48725Y-20975
X61350Y-37400
X65350Y-33400
X61350Y-25400
X65350Y-21400
X57350Y-31400
X61350Y-27400
X57350Y-37400
X61350Y-33400
X49350Y-31400
X53350Y-27400
X61350Y-31400
X65350Y-27400
X53350Y-37400
X57350Y-33400
X53350Y-31400
X57350Y-27400
X49350Y-37400
X53350Y-33400
X57350Y-25400
X61350Y-21400
T6
X47000Y-42000
X47000Y-43000
X48000Y-42000
X48000Y-43000
X49000Y-42000
X49000Y-43000
X50000Y-42000
X50000Y-43000
X51000Y-42000
X51000Y-43000
T7
X44000Y-24500
X45000Y-24500
X46000Y-24500
T8
X77500Y-43500
X41500Y-43500
X77500Y-21500
X41500Y-21500
T0
M30
