G04 #@! TF.GenerationSoftware,KiCad,Pcbnew,5.99.0-unknown-43514a1~86~ubuntu18.04.1*
G04 #@! TF.CreationDate,2020-06-17T19:02:55+01:00*
G04 #@! TF.ProjectId,TX_BOARD,54585f42-4f41-4524-942e-6b696361645f,rev?*
G04 #@! TF.SameCoordinates,Original*
G04 #@! TF.FileFunction,Soldermask,Top*
G04 #@! TF.FilePolarity,Negative*
%FSLAX46Y46*%
G04 Gerber Fmt 4.6, Leading zero omitted, Abs format (unit mm)*
G04 Created by KiCad (PCBNEW 5.99.0-unknown-43514a1~86~ubuntu18.04.1) date 2020-06-17 19:02:55*
%MOMM*%
%LPD*%
G01*
G04 APERTURE LIST*
%ADD10O,3.000000X2.500000*%
%ADD11O,2.500000X3.000000*%
%ADD12O,1.700000X1.700000*%
%ADD13R,1.700000X1.700000*%
%ADD14C,1.400000*%
%ADD15R,1.400000X1.400000*%
%ADD16R,1.200000X0.900000*%
%ADD17C,1.700000*%
%ADD18R,2.000000X2.000000*%
%ADD19R,4.000000X5.400000*%
%ADD20R,1.500000X1.050000*%
%ADD21O,1.500000X1.050000*%
%ADD22C,6.400000*%
%ADD23O,1.600000X1.600000*%
%ADD24R,1.600000X1.600000*%
%ADD25R,1.050000X1.500000*%
%ADD26O,1.050000X1.500000*%
%ADD27C,1.620000*%
%ADD28O,1.600000X2.500000*%
%ADD29O,3.500000X7.000000*%
%ADD30R,3.500000X3.500000*%
%ADD31O,1.905000X2.000000*%
%ADD32R,1.905000X2.000000*%
%ADD33C,6.000000*%
%ADD34R,0.900000X1.200000*%
G04 APERTURE END LIST*
G36*
X112780529Y-145241554D02*
G01*
X112859607Y-145294393D01*
X112912446Y-145373471D01*
X112931000Y-145466750D01*
X112931000Y-146379250D01*
X112912446Y-146472529D01*
X112859607Y-146551607D01*
X112780529Y-146604446D01*
X112687250Y-146623000D01*
X112199750Y-146623000D01*
X112106471Y-146604446D01*
X112027393Y-146551607D01*
X111974554Y-146472529D01*
X111956000Y-146379250D01*
X111956000Y-145466750D01*
X111974554Y-145373471D01*
X112027393Y-145294393D01*
X112106471Y-145241554D01*
X112199750Y-145223000D01*
X112687250Y-145223000D01*
X112780529Y-145241554D01*
G37*
G36*
X110905529Y-145241554D02*
G01*
X110984607Y-145294393D01*
X111037446Y-145373471D01*
X111056000Y-145466750D01*
X111056000Y-146379250D01*
X111037446Y-146472529D01*
X110984607Y-146551607D01*
X110905529Y-146604446D01*
X110812250Y-146623000D01*
X110324750Y-146623000D01*
X110231471Y-146604446D01*
X110152393Y-146551607D01*
X110099554Y-146472529D01*
X110081000Y-146379250D01*
X110081000Y-145466750D01*
X110099554Y-145373471D01*
X110152393Y-145294393D01*
X110231471Y-145241554D01*
X110324750Y-145223000D01*
X110812250Y-145223000D01*
X110905529Y-145241554D01*
G37*
G36*
X112780529Y-142701554D02*
G01*
X112859607Y-142754393D01*
X112912446Y-142833471D01*
X112931000Y-142926750D01*
X112931000Y-143839250D01*
X112912446Y-143932529D01*
X112859607Y-144011607D01*
X112780529Y-144064446D01*
X112687250Y-144083000D01*
X112199750Y-144083000D01*
X112106471Y-144064446D01*
X112027393Y-144011607D01*
X111974554Y-143932529D01*
X111956000Y-143839250D01*
X111956000Y-142926750D01*
X111974554Y-142833471D01*
X112027393Y-142754393D01*
X112106471Y-142701554D01*
X112199750Y-142683000D01*
X112687250Y-142683000D01*
X112780529Y-142701554D01*
G37*
G36*
X110905529Y-142701554D02*
G01*
X110984607Y-142754393D01*
X111037446Y-142833471D01*
X111056000Y-142926750D01*
X111056000Y-143839250D01*
X111037446Y-143932529D01*
X110984607Y-144011607D01*
X110905529Y-144064446D01*
X110812250Y-144083000D01*
X110324750Y-144083000D01*
X110231471Y-144064446D01*
X110152393Y-144011607D01*
X110099554Y-143932529D01*
X110081000Y-143839250D01*
X110081000Y-142926750D01*
X110099554Y-142833471D01*
X110152393Y-142754393D01*
X110231471Y-142701554D01*
X110324750Y-142683000D01*
X110812250Y-142683000D01*
X110905529Y-142701554D01*
G37*
D10*
X157480000Y-55245000D03*
X162560000Y-55245000D03*
D11*
X164720000Y-67955000D03*
X160020000Y-67945000D03*
X155320000Y-67905000D03*
D12*
X173990000Y-72390000D03*
D13*
X176530000Y-72390000D03*
G36*
X175264529Y-116158554D02*
G01*
X175343607Y-116211393D01*
X175396446Y-116290471D01*
X175415000Y-116383750D01*
X175415000Y-117296250D01*
X175396446Y-117389529D01*
X175343607Y-117468607D01*
X175264529Y-117521446D01*
X175171250Y-117540000D01*
X174683750Y-117540000D01*
X174590471Y-117521446D01*
X174511393Y-117468607D01*
X174458554Y-117389529D01*
X174440000Y-117296250D01*
X174440000Y-116383750D01*
X174458554Y-116290471D01*
X174511393Y-116211393D01*
X174590471Y-116158554D01*
X174683750Y-116140000D01*
X175171250Y-116140000D01*
X175264529Y-116158554D01*
G37*
G36*
X173389529Y-116158554D02*
G01*
X173468607Y-116211393D01*
X173521446Y-116290471D01*
X173540000Y-116383750D01*
X173540000Y-117296250D01*
X173521446Y-117389529D01*
X173468607Y-117468607D01*
X173389529Y-117521446D01*
X173296250Y-117540000D01*
X172808750Y-117540000D01*
X172715471Y-117521446D01*
X172636393Y-117468607D01*
X172583554Y-117389529D01*
X172565000Y-117296250D01*
X172565000Y-116383750D01*
X172583554Y-116290471D01*
X172636393Y-116211393D01*
X172715471Y-116158554D01*
X172808750Y-116140000D01*
X173296250Y-116140000D01*
X173389529Y-116158554D01*
G37*
D14*
X160274001Y-83058000D03*
X150104001Y-83068000D03*
X155184001Y-83068000D03*
X160274001Y-75438000D03*
X150114001Y-75438000D03*
X155204001Y-75438000D03*
X167894001Y-83058000D03*
D15*
X167894001Y-75438000D03*
D16*
X172720001Y-81025000D03*
X172720001Y-77725000D03*
D17*
X128440001Y-114110000D03*
X125340001Y-116910000D03*
D14*
X160405000Y-105704002D03*
X150235000Y-105714002D03*
X155315000Y-105714002D03*
X160405000Y-98084002D03*
X150245000Y-98084002D03*
X155335000Y-98084002D03*
X168025000Y-105704002D03*
D15*
X168025000Y-98084002D03*
G36*
X126293404Y-126711418D02*
G01*
X126342067Y-126743934D01*
X126374583Y-126792597D01*
X126386001Y-126850000D01*
X126386001Y-127150000D01*
X126374583Y-127207403D01*
X126342067Y-127256066D01*
X126293404Y-127288582D01*
X126236001Y-127300000D01*
X124886001Y-127300000D01*
X124828598Y-127288582D01*
X124779935Y-127256066D01*
X124747419Y-127207403D01*
X124736001Y-127150000D01*
X124736001Y-126850000D01*
X124747419Y-126792597D01*
X124779935Y-126743934D01*
X124828598Y-126711418D01*
X124886001Y-126700000D01*
X126236001Y-126700000D01*
X126293404Y-126711418D01*
G37*
G36*
X126293404Y-127981418D02*
G01*
X126342067Y-128013934D01*
X126374583Y-128062597D01*
X126386001Y-128120000D01*
X126386001Y-128420000D01*
X126374583Y-128477403D01*
X126342067Y-128526066D01*
X126293404Y-128558582D01*
X126236001Y-128570000D01*
X124886001Y-128570000D01*
X124828598Y-128558582D01*
X124779935Y-128526066D01*
X124747419Y-128477403D01*
X124736001Y-128420000D01*
X124736001Y-128120000D01*
X124747419Y-128062597D01*
X124779935Y-128013934D01*
X124828598Y-127981418D01*
X124886001Y-127970000D01*
X126236001Y-127970000D01*
X126293404Y-127981418D01*
G37*
G36*
X126293404Y-129251418D02*
G01*
X126342067Y-129283934D01*
X126374583Y-129332597D01*
X126386001Y-129390000D01*
X126386001Y-129690000D01*
X126374583Y-129747403D01*
X126342067Y-129796066D01*
X126293404Y-129828582D01*
X126236001Y-129840000D01*
X124886001Y-129840000D01*
X124828598Y-129828582D01*
X124779935Y-129796066D01*
X124747419Y-129747403D01*
X124736001Y-129690000D01*
X124736001Y-129390000D01*
X124747419Y-129332597D01*
X124779935Y-129283934D01*
X124828598Y-129251418D01*
X124886001Y-129240000D01*
X126236001Y-129240000D01*
X126293404Y-129251418D01*
G37*
G36*
X126293404Y-130521418D02*
G01*
X126342067Y-130553934D01*
X126374583Y-130602597D01*
X126386001Y-130660000D01*
X126386001Y-130960000D01*
X126374583Y-131017403D01*
X126342067Y-131066066D01*
X126293404Y-131098582D01*
X126236001Y-131110000D01*
X124886001Y-131110000D01*
X124828598Y-131098582D01*
X124779935Y-131066066D01*
X124747419Y-131017403D01*
X124736001Y-130960000D01*
X124736001Y-130660000D01*
X124747419Y-130602597D01*
X124779935Y-130553934D01*
X124828598Y-130521418D01*
X124886001Y-130510000D01*
X126236001Y-130510000D01*
X126293404Y-130521418D01*
G37*
G36*
X121043404Y-130521418D02*
G01*
X121092067Y-130553934D01*
X121124583Y-130602597D01*
X121136001Y-130660000D01*
X121136001Y-130960000D01*
X121124583Y-131017403D01*
X121092067Y-131066066D01*
X121043404Y-131098582D01*
X120986001Y-131110000D01*
X119636001Y-131110000D01*
X119578598Y-131098582D01*
X119529935Y-131066066D01*
X119497419Y-131017403D01*
X119486001Y-130960000D01*
X119486001Y-130660000D01*
X119497419Y-130602597D01*
X119529935Y-130553934D01*
X119578598Y-130521418D01*
X119636001Y-130510000D01*
X120986001Y-130510000D01*
X121043404Y-130521418D01*
G37*
G36*
X121043404Y-129251418D02*
G01*
X121092067Y-129283934D01*
X121124583Y-129332597D01*
X121136001Y-129390000D01*
X121136001Y-129690000D01*
X121124583Y-129747403D01*
X121092067Y-129796066D01*
X121043404Y-129828582D01*
X120986001Y-129840000D01*
X119636001Y-129840000D01*
X119578598Y-129828582D01*
X119529935Y-129796066D01*
X119497419Y-129747403D01*
X119486001Y-129690000D01*
X119486001Y-129390000D01*
X119497419Y-129332597D01*
X119529935Y-129283934D01*
X119578598Y-129251418D01*
X119636001Y-129240000D01*
X120986001Y-129240000D01*
X121043404Y-129251418D01*
G37*
G36*
X121043404Y-127981418D02*
G01*
X121092067Y-128013934D01*
X121124583Y-128062597D01*
X121136001Y-128120000D01*
X121136001Y-128420000D01*
X121124583Y-128477403D01*
X121092067Y-128526066D01*
X121043404Y-128558582D01*
X120986001Y-128570000D01*
X119636001Y-128570000D01*
X119578598Y-128558582D01*
X119529935Y-128526066D01*
X119497419Y-128477403D01*
X119486001Y-128420000D01*
X119486001Y-128120000D01*
X119497419Y-128062597D01*
X119529935Y-128013934D01*
X119578598Y-127981418D01*
X119636001Y-127970000D01*
X120986001Y-127970000D01*
X121043404Y-127981418D01*
G37*
G36*
X121043404Y-126711418D02*
G01*
X121092067Y-126743934D01*
X121124583Y-126792597D01*
X121136001Y-126850000D01*
X121136001Y-127150000D01*
X121124583Y-127207403D01*
X121092067Y-127256066D01*
X121043404Y-127288582D01*
X120986001Y-127300000D01*
X119636001Y-127300000D01*
X119578598Y-127288582D01*
X119529935Y-127256066D01*
X119497419Y-127207403D01*
X119486001Y-127150000D01*
X119486001Y-126850000D01*
X119497419Y-126792597D01*
X119529935Y-126743934D01*
X119578598Y-126711418D01*
X119636001Y-126700000D01*
X120986001Y-126700000D01*
X121043404Y-126711418D01*
G37*
G36*
X118114530Y-134065554D02*
G01*
X118193608Y-134118393D01*
X118246447Y-134197471D01*
X118265001Y-134290750D01*
X118265001Y-135203250D01*
X118246447Y-135296529D01*
X118193608Y-135375607D01*
X118114530Y-135428446D01*
X118021251Y-135447000D01*
X117533751Y-135447000D01*
X117440472Y-135428446D01*
X117361394Y-135375607D01*
X117308555Y-135296529D01*
X117290001Y-135203250D01*
X117290001Y-134290750D01*
X117308555Y-134197471D01*
X117361394Y-134118393D01*
X117440472Y-134065554D01*
X117533751Y-134047000D01*
X118021251Y-134047000D01*
X118114530Y-134065554D01*
G37*
G36*
X116239530Y-134065554D02*
G01*
X116318608Y-134118393D01*
X116371447Y-134197471D01*
X116390001Y-134290750D01*
X116390001Y-135203250D01*
X116371447Y-135296529D01*
X116318608Y-135375607D01*
X116239530Y-135428446D01*
X116146251Y-135447000D01*
X115658751Y-135447000D01*
X115565472Y-135428446D01*
X115486394Y-135375607D01*
X115433555Y-135296529D01*
X115415001Y-135203250D01*
X115415001Y-134290750D01*
X115433555Y-134197471D01*
X115486394Y-134118393D01*
X115565472Y-134065554D01*
X115658751Y-134047000D01*
X116146251Y-134047000D01*
X116239530Y-134065554D01*
G37*
G36*
X118114530Y-136605554D02*
G01*
X118193608Y-136658393D01*
X118246447Y-136737471D01*
X118265001Y-136830750D01*
X118265001Y-137743250D01*
X118246447Y-137836529D01*
X118193608Y-137915607D01*
X118114530Y-137968446D01*
X118021251Y-137987000D01*
X117533751Y-137987000D01*
X117440472Y-137968446D01*
X117361394Y-137915607D01*
X117308555Y-137836529D01*
X117290001Y-137743250D01*
X117290001Y-136830750D01*
X117308555Y-136737471D01*
X117361394Y-136658393D01*
X117440472Y-136605554D01*
X117533751Y-136587000D01*
X118021251Y-136587000D01*
X118114530Y-136605554D01*
G37*
G36*
X116239530Y-136605554D02*
G01*
X116318608Y-136658393D01*
X116371447Y-136737471D01*
X116390001Y-136830750D01*
X116390001Y-137743250D01*
X116371447Y-137836529D01*
X116318608Y-137915607D01*
X116239530Y-137968446D01*
X116146251Y-137987000D01*
X115658751Y-137987000D01*
X115565472Y-137968446D01*
X115486394Y-137915607D01*
X115433555Y-137836529D01*
X115415001Y-137743250D01*
X115415001Y-136830750D01*
X115433555Y-136737471D01*
X115486394Y-136658393D01*
X115565472Y-136605554D01*
X115658751Y-136587000D01*
X116146251Y-136587000D01*
X116239530Y-136605554D01*
G37*
D18*
X120709001Y-136017000D03*
X124909001Y-136017000D03*
D19*
X132934001Y-143510000D03*
X144434001Y-143510000D03*
X144434001Y-128778000D03*
X132934001Y-128778000D03*
D17*
X157416001Y-129883000D03*
X149416001Y-140843000D03*
G36*
X138420672Y-79354030D02*
G01*
X138501778Y-79408223D01*
X138555971Y-79489329D01*
X138575001Y-79584999D01*
X138575001Y-80435001D01*
X138555971Y-80530671D01*
X138501778Y-80611777D01*
X138420672Y-80665970D01*
X138325002Y-80685000D01*
X137425000Y-80685000D01*
X137329330Y-80665970D01*
X137248224Y-80611777D01*
X137194031Y-80530671D01*
X137175001Y-80435001D01*
X137175001Y-79584999D01*
X137194031Y-79489329D01*
X137248224Y-79408223D01*
X137329330Y-79354030D01*
X137425000Y-79335000D01*
X138325002Y-79335000D01*
X138420672Y-79354030D01*
G37*
G36*
X135720672Y-79354030D02*
G01*
X135801778Y-79408223D01*
X135855971Y-79489329D01*
X135875001Y-79584999D01*
X135875001Y-80435001D01*
X135855971Y-80530671D01*
X135801778Y-80611777D01*
X135720672Y-80665970D01*
X135625002Y-80685000D01*
X134725000Y-80685000D01*
X134629330Y-80665970D01*
X134548224Y-80611777D01*
X134494031Y-80530671D01*
X134475001Y-80435001D01*
X134475001Y-79584999D01*
X134494031Y-79489329D01*
X134548224Y-79408223D01*
X134629330Y-79354030D01*
X134725000Y-79335000D01*
X135625002Y-79335000D01*
X135720672Y-79354030D01*
G37*
G36*
X140800672Y-79354030D02*
G01*
X140881778Y-79408223D01*
X140935971Y-79489329D01*
X140955001Y-79584999D01*
X140955001Y-80435001D01*
X140935971Y-80530671D01*
X140881778Y-80611777D01*
X140800672Y-80665970D01*
X140705002Y-80685000D01*
X139805000Y-80685000D01*
X139709330Y-80665970D01*
X139628224Y-80611777D01*
X139574031Y-80530671D01*
X139555001Y-80435001D01*
X139555001Y-79584999D01*
X139574031Y-79489329D01*
X139628224Y-79408223D01*
X139709330Y-79354030D01*
X139805000Y-79335000D01*
X140705002Y-79335000D01*
X140800672Y-79354030D01*
G37*
G36*
X143500672Y-79354030D02*
G01*
X143581778Y-79408223D01*
X143635971Y-79489329D01*
X143655001Y-79584999D01*
X143655001Y-80435001D01*
X143635971Y-80530671D01*
X143581778Y-80611777D01*
X143500672Y-80665970D01*
X143405002Y-80685000D01*
X142505000Y-80685000D01*
X142409330Y-80665970D01*
X142328224Y-80611777D01*
X142274031Y-80530671D01*
X142255001Y-80435001D01*
X142255001Y-79584999D01*
X142274031Y-79489329D01*
X142328224Y-79408223D01*
X142409330Y-79354030D01*
X142505000Y-79335000D01*
X143405002Y-79335000D01*
X143500672Y-79354030D01*
G37*
G36*
X101604530Y-135208554D02*
G01*
X101683608Y-135261393D01*
X101736447Y-135340471D01*
X101755001Y-135433750D01*
X101755001Y-136346250D01*
X101736447Y-136439529D01*
X101683608Y-136518607D01*
X101604530Y-136571446D01*
X101511251Y-136590000D01*
X101023751Y-136590000D01*
X100930472Y-136571446D01*
X100851394Y-136518607D01*
X100798555Y-136439529D01*
X100780001Y-136346250D01*
X100780001Y-135433750D01*
X100798555Y-135340471D01*
X100851394Y-135261393D01*
X100930472Y-135208554D01*
X101023751Y-135190000D01*
X101511251Y-135190000D01*
X101604530Y-135208554D01*
G37*
G36*
X99729530Y-135208554D02*
G01*
X99808608Y-135261393D01*
X99861447Y-135340471D01*
X99880001Y-135433750D01*
X99880001Y-136346250D01*
X99861447Y-136439529D01*
X99808608Y-136518607D01*
X99729530Y-136571446D01*
X99636251Y-136590000D01*
X99148751Y-136590000D01*
X99055472Y-136571446D01*
X98976394Y-136518607D01*
X98923555Y-136439529D01*
X98905001Y-136346250D01*
X98905001Y-135433750D01*
X98923555Y-135340471D01*
X98976394Y-135261393D01*
X99055472Y-135208554D01*
X99148751Y-135190000D01*
X99636251Y-135190000D01*
X99729530Y-135208554D01*
G37*
G36*
X98339530Y-91273554D02*
G01*
X98418608Y-91326393D01*
X98471447Y-91405471D01*
X98490001Y-91498750D01*
X98490001Y-91986250D01*
X98471447Y-92079529D01*
X98418608Y-92158607D01*
X98339530Y-92211446D01*
X98246251Y-92230000D01*
X97333751Y-92230000D01*
X97240472Y-92211446D01*
X97161394Y-92158607D01*
X97108555Y-92079529D01*
X97090001Y-91986250D01*
X97090001Y-91498750D01*
X97108555Y-91405471D01*
X97161394Y-91326393D01*
X97240472Y-91273554D01*
X97333751Y-91255000D01*
X98246251Y-91255000D01*
X98339530Y-91273554D01*
G37*
G36*
X98339530Y-89398554D02*
G01*
X98418608Y-89451393D01*
X98471447Y-89530471D01*
X98490001Y-89623750D01*
X98490001Y-90111250D01*
X98471447Y-90204529D01*
X98418608Y-90283607D01*
X98339530Y-90336446D01*
X98246251Y-90355000D01*
X97333751Y-90355000D01*
X97240472Y-90336446D01*
X97161394Y-90283607D01*
X97108555Y-90204529D01*
X97090001Y-90111250D01*
X97090001Y-89623750D01*
X97108555Y-89530471D01*
X97161394Y-89451393D01*
X97240472Y-89398554D01*
X97333751Y-89380000D01*
X98246251Y-89380000D01*
X98339530Y-89398554D01*
G37*
G36*
X111039530Y-91273554D02*
G01*
X111118608Y-91326393D01*
X111171447Y-91405471D01*
X111190001Y-91498750D01*
X111190001Y-91986250D01*
X111171447Y-92079529D01*
X111118608Y-92158607D01*
X111039530Y-92211446D01*
X110946251Y-92230000D01*
X110033751Y-92230000D01*
X109940472Y-92211446D01*
X109861394Y-92158607D01*
X109808555Y-92079529D01*
X109790001Y-91986250D01*
X109790001Y-91498750D01*
X109808555Y-91405471D01*
X109861394Y-91326393D01*
X109940472Y-91273554D01*
X110033751Y-91255000D01*
X110946251Y-91255000D01*
X111039530Y-91273554D01*
G37*
G36*
X111039530Y-89398554D02*
G01*
X111118608Y-89451393D01*
X111171447Y-89530471D01*
X111190001Y-89623750D01*
X111190001Y-90111250D01*
X111171447Y-90204529D01*
X111118608Y-90283607D01*
X111039530Y-90336446D01*
X110946251Y-90355000D01*
X110033751Y-90355000D01*
X109940472Y-90336446D01*
X109861394Y-90283607D01*
X109808555Y-90204529D01*
X109790001Y-90111250D01*
X109790001Y-89623750D01*
X109808555Y-89530471D01*
X109861394Y-89451393D01*
X109940472Y-89398554D01*
X110033751Y-89380000D01*
X110946251Y-89380000D01*
X111039530Y-89398554D01*
G37*
G36*
X123739530Y-91273554D02*
G01*
X123818608Y-91326393D01*
X123871447Y-91405471D01*
X123890001Y-91498750D01*
X123890001Y-91986250D01*
X123871447Y-92079529D01*
X123818608Y-92158607D01*
X123739530Y-92211446D01*
X123646251Y-92230000D01*
X122733751Y-92230000D01*
X122640472Y-92211446D01*
X122561394Y-92158607D01*
X122508555Y-92079529D01*
X122490001Y-91986250D01*
X122490001Y-91498750D01*
X122508555Y-91405471D01*
X122561394Y-91326393D01*
X122640472Y-91273554D01*
X122733751Y-91255000D01*
X123646251Y-91255000D01*
X123739530Y-91273554D01*
G37*
G36*
X123739530Y-89398554D02*
G01*
X123818608Y-89451393D01*
X123871447Y-89530471D01*
X123890001Y-89623750D01*
X123890001Y-90111250D01*
X123871447Y-90204529D01*
X123818608Y-90283607D01*
X123739530Y-90336446D01*
X123646251Y-90355000D01*
X122733751Y-90355000D01*
X122640472Y-90336446D01*
X122561394Y-90283607D01*
X122508555Y-90204529D01*
X122490001Y-90111250D01*
X122490001Y-89623750D01*
X122508555Y-89530471D01*
X122561394Y-89451393D01*
X122640472Y-89398554D01*
X122733751Y-89380000D01*
X123646251Y-89380000D01*
X123739530Y-89398554D01*
G37*
G36*
X136439530Y-91273554D02*
G01*
X136518608Y-91326393D01*
X136571447Y-91405471D01*
X136590001Y-91498750D01*
X136590001Y-91986250D01*
X136571447Y-92079529D01*
X136518608Y-92158607D01*
X136439530Y-92211446D01*
X136346251Y-92230000D01*
X135433751Y-92230000D01*
X135340472Y-92211446D01*
X135261394Y-92158607D01*
X135208555Y-92079529D01*
X135190001Y-91986250D01*
X135190001Y-91498750D01*
X135208555Y-91405471D01*
X135261394Y-91326393D01*
X135340472Y-91273554D01*
X135433751Y-91255000D01*
X136346251Y-91255000D01*
X136439530Y-91273554D01*
G37*
G36*
X136439530Y-89398554D02*
G01*
X136518608Y-89451393D01*
X136571447Y-89530471D01*
X136590001Y-89623750D01*
X136590001Y-90111250D01*
X136571447Y-90204529D01*
X136518608Y-90283607D01*
X136439530Y-90336446D01*
X136346251Y-90355000D01*
X135433751Y-90355000D01*
X135340472Y-90336446D01*
X135261394Y-90283607D01*
X135208555Y-90204529D01*
X135190001Y-90111250D01*
X135190001Y-89623750D01*
X135208555Y-89530471D01*
X135261394Y-89451393D01*
X135340472Y-89398554D01*
X135433751Y-89380000D01*
X136346251Y-89380000D01*
X136439530Y-89398554D01*
G37*
G36*
X98339530Y-101433554D02*
G01*
X98418608Y-101486393D01*
X98471447Y-101565471D01*
X98490001Y-101658750D01*
X98490001Y-102146250D01*
X98471447Y-102239529D01*
X98418608Y-102318607D01*
X98339530Y-102371446D01*
X98246251Y-102390000D01*
X97333751Y-102390000D01*
X97240472Y-102371446D01*
X97161394Y-102318607D01*
X97108555Y-102239529D01*
X97090001Y-102146250D01*
X97090001Y-101658750D01*
X97108555Y-101565471D01*
X97161394Y-101486393D01*
X97240472Y-101433554D01*
X97333751Y-101415000D01*
X98246251Y-101415000D01*
X98339530Y-101433554D01*
G37*
G36*
X98339530Y-99558554D02*
G01*
X98418608Y-99611393D01*
X98471447Y-99690471D01*
X98490001Y-99783750D01*
X98490001Y-100271250D01*
X98471447Y-100364529D01*
X98418608Y-100443607D01*
X98339530Y-100496446D01*
X98246251Y-100515000D01*
X97333751Y-100515000D01*
X97240472Y-100496446D01*
X97161394Y-100443607D01*
X97108555Y-100364529D01*
X97090001Y-100271250D01*
X97090001Y-99783750D01*
X97108555Y-99690471D01*
X97161394Y-99611393D01*
X97240472Y-99558554D01*
X97333751Y-99540000D01*
X98246251Y-99540000D01*
X98339530Y-99558554D01*
G37*
G36*
X111039530Y-101433554D02*
G01*
X111118608Y-101486393D01*
X111171447Y-101565471D01*
X111190001Y-101658750D01*
X111190001Y-102146250D01*
X111171447Y-102239529D01*
X111118608Y-102318607D01*
X111039530Y-102371446D01*
X110946251Y-102390000D01*
X110033751Y-102390000D01*
X109940472Y-102371446D01*
X109861394Y-102318607D01*
X109808555Y-102239529D01*
X109790001Y-102146250D01*
X109790001Y-101658750D01*
X109808555Y-101565471D01*
X109861394Y-101486393D01*
X109940472Y-101433554D01*
X110033751Y-101415000D01*
X110946251Y-101415000D01*
X111039530Y-101433554D01*
G37*
G36*
X111039530Y-99558554D02*
G01*
X111118608Y-99611393D01*
X111171447Y-99690471D01*
X111190001Y-99783750D01*
X111190001Y-100271250D01*
X111171447Y-100364529D01*
X111118608Y-100443607D01*
X111039530Y-100496446D01*
X110946251Y-100515000D01*
X110033751Y-100515000D01*
X109940472Y-100496446D01*
X109861394Y-100443607D01*
X109808555Y-100364529D01*
X109790001Y-100271250D01*
X109790001Y-99783750D01*
X109808555Y-99690471D01*
X109861394Y-99611393D01*
X109940472Y-99558554D01*
X110033751Y-99540000D01*
X110946251Y-99540000D01*
X111039530Y-99558554D01*
G37*
G36*
X123739530Y-101433554D02*
G01*
X123818608Y-101486393D01*
X123871447Y-101565471D01*
X123890001Y-101658750D01*
X123890001Y-102146250D01*
X123871447Y-102239529D01*
X123818608Y-102318607D01*
X123739530Y-102371446D01*
X123646251Y-102390000D01*
X122733751Y-102390000D01*
X122640472Y-102371446D01*
X122561394Y-102318607D01*
X122508555Y-102239529D01*
X122490001Y-102146250D01*
X122490001Y-101658750D01*
X122508555Y-101565471D01*
X122561394Y-101486393D01*
X122640472Y-101433554D01*
X122733751Y-101415000D01*
X123646251Y-101415000D01*
X123739530Y-101433554D01*
G37*
G36*
X123739530Y-99558554D02*
G01*
X123818608Y-99611393D01*
X123871447Y-99690471D01*
X123890001Y-99783750D01*
X123890001Y-100271250D01*
X123871447Y-100364529D01*
X123818608Y-100443607D01*
X123739530Y-100496446D01*
X123646251Y-100515000D01*
X122733751Y-100515000D01*
X122640472Y-100496446D01*
X122561394Y-100443607D01*
X122508555Y-100364529D01*
X122490001Y-100271250D01*
X122490001Y-99783750D01*
X122508555Y-99690471D01*
X122561394Y-99611393D01*
X122640472Y-99558554D01*
X122733751Y-99540000D01*
X123646251Y-99540000D01*
X123739530Y-99558554D01*
G37*
G36*
X136439530Y-101433554D02*
G01*
X136518608Y-101486393D01*
X136571447Y-101565471D01*
X136590001Y-101658750D01*
X136590001Y-102146250D01*
X136571447Y-102239529D01*
X136518608Y-102318607D01*
X136439530Y-102371446D01*
X136346251Y-102390000D01*
X135433751Y-102390000D01*
X135340472Y-102371446D01*
X135261394Y-102318607D01*
X135208555Y-102239529D01*
X135190001Y-102146250D01*
X135190001Y-101658750D01*
X135208555Y-101565471D01*
X135261394Y-101486393D01*
X135340472Y-101433554D01*
X135433751Y-101415000D01*
X136346251Y-101415000D01*
X136439530Y-101433554D01*
G37*
G36*
X136439530Y-99558554D02*
G01*
X136518608Y-99611393D01*
X136571447Y-99690471D01*
X136590001Y-99783750D01*
X136590001Y-100271250D01*
X136571447Y-100364529D01*
X136518608Y-100443607D01*
X136439530Y-100496446D01*
X136346251Y-100515000D01*
X135433751Y-100515000D01*
X135340472Y-100496446D01*
X135261394Y-100443607D01*
X135208555Y-100364529D01*
X135190001Y-100271250D01*
X135190001Y-99783750D01*
X135208555Y-99690471D01*
X135261394Y-99611393D01*
X135340472Y-99558554D01*
X135433751Y-99540000D01*
X136346251Y-99540000D01*
X136439530Y-99558554D01*
G37*
G36*
X98339530Y-112863554D02*
G01*
X98418608Y-112916393D01*
X98471447Y-112995471D01*
X98490001Y-113088750D01*
X98490001Y-113576250D01*
X98471447Y-113669529D01*
X98418608Y-113748607D01*
X98339530Y-113801446D01*
X98246251Y-113820000D01*
X97333751Y-113820000D01*
X97240472Y-113801446D01*
X97161394Y-113748607D01*
X97108555Y-113669529D01*
X97090001Y-113576250D01*
X97090001Y-113088750D01*
X97108555Y-112995471D01*
X97161394Y-112916393D01*
X97240472Y-112863554D01*
X97333751Y-112845000D01*
X98246251Y-112845000D01*
X98339530Y-112863554D01*
G37*
G36*
X98339530Y-110988554D02*
G01*
X98418608Y-111041393D01*
X98471447Y-111120471D01*
X98490001Y-111213750D01*
X98490001Y-111701250D01*
X98471447Y-111794529D01*
X98418608Y-111873607D01*
X98339530Y-111926446D01*
X98246251Y-111945000D01*
X97333751Y-111945000D01*
X97240472Y-111926446D01*
X97161394Y-111873607D01*
X97108555Y-111794529D01*
X97090001Y-111701250D01*
X97090001Y-111213750D01*
X97108555Y-111120471D01*
X97161394Y-111041393D01*
X97240472Y-110988554D01*
X97333751Y-110970000D01*
X98246251Y-110970000D01*
X98339530Y-110988554D01*
G37*
G36*
X111039530Y-112863554D02*
G01*
X111118608Y-112916393D01*
X111171447Y-112995471D01*
X111190001Y-113088750D01*
X111190001Y-113576250D01*
X111171447Y-113669529D01*
X111118608Y-113748607D01*
X111039530Y-113801446D01*
X110946251Y-113820000D01*
X110033751Y-113820000D01*
X109940472Y-113801446D01*
X109861394Y-113748607D01*
X109808555Y-113669529D01*
X109790001Y-113576250D01*
X109790001Y-113088750D01*
X109808555Y-112995471D01*
X109861394Y-112916393D01*
X109940472Y-112863554D01*
X110033751Y-112845000D01*
X110946251Y-112845000D01*
X111039530Y-112863554D01*
G37*
G36*
X111039530Y-110988554D02*
G01*
X111118608Y-111041393D01*
X111171447Y-111120471D01*
X111190001Y-111213750D01*
X111190001Y-111701250D01*
X111171447Y-111794529D01*
X111118608Y-111873607D01*
X111039530Y-111926446D01*
X110946251Y-111945000D01*
X110033751Y-111945000D01*
X109940472Y-111926446D01*
X109861394Y-111873607D01*
X109808555Y-111794529D01*
X109790001Y-111701250D01*
X109790001Y-111213750D01*
X109808555Y-111120471D01*
X109861394Y-111041393D01*
X109940472Y-110988554D01*
X110033751Y-110970000D01*
X110946251Y-110970000D01*
X111039530Y-110988554D01*
G37*
G36*
X123739530Y-112863554D02*
G01*
X123818608Y-112916393D01*
X123871447Y-112995471D01*
X123890001Y-113088750D01*
X123890001Y-113576250D01*
X123871447Y-113669529D01*
X123818608Y-113748607D01*
X123739530Y-113801446D01*
X123646251Y-113820000D01*
X122733751Y-113820000D01*
X122640472Y-113801446D01*
X122561394Y-113748607D01*
X122508555Y-113669529D01*
X122490001Y-113576250D01*
X122490001Y-113088750D01*
X122508555Y-112995471D01*
X122561394Y-112916393D01*
X122640472Y-112863554D01*
X122733751Y-112845000D01*
X123646251Y-112845000D01*
X123739530Y-112863554D01*
G37*
G36*
X123739530Y-110988554D02*
G01*
X123818608Y-111041393D01*
X123871447Y-111120471D01*
X123890001Y-111213750D01*
X123890001Y-111701250D01*
X123871447Y-111794529D01*
X123818608Y-111873607D01*
X123739530Y-111926446D01*
X123646251Y-111945000D01*
X122733751Y-111945000D01*
X122640472Y-111926446D01*
X122561394Y-111873607D01*
X122508555Y-111794529D01*
X122490001Y-111701250D01*
X122490001Y-111213750D01*
X122508555Y-111120471D01*
X122561394Y-111041393D01*
X122640472Y-110988554D01*
X122733751Y-110970000D01*
X123646251Y-110970000D01*
X123739530Y-110988554D01*
G37*
G36*
X136439530Y-112863554D02*
G01*
X136518608Y-112916393D01*
X136571447Y-112995471D01*
X136590001Y-113088750D01*
X136590001Y-113576250D01*
X136571447Y-113669529D01*
X136518608Y-113748607D01*
X136439530Y-113801446D01*
X136346251Y-113820000D01*
X135433751Y-113820000D01*
X135340472Y-113801446D01*
X135261394Y-113748607D01*
X135208555Y-113669529D01*
X135190001Y-113576250D01*
X135190001Y-113088750D01*
X135208555Y-112995471D01*
X135261394Y-112916393D01*
X135340472Y-112863554D01*
X135433751Y-112845000D01*
X136346251Y-112845000D01*
X136439530Y-112863554D01*
G37*
G36*
X136439530Y-110988554D02*
G01*
X136518608Y-111041393D01*
X136571447Y-111120471D01*
X136590001Y-111213750D01*
X136590001Y-111701250D01*
X136571447Y-111794529D01*
X136518608Y-111873607D01*
X136439530Y-111926446D01*
X136346251Y-111945000D01*
X135433751Y-111945000D01*
X135340472Y-111926446D01*
X135261394Y-111873607D01*
X135208555Y-111794529D01*
X135190001Y-111701250D01*
X135190001Y-111213750D01*
X135208555Y-111120471D01*
X135261394Y-111041393D01*
X135340472Y-110988554D01*
X135433751Y-110970000D01*
X136346251Y-110970000D01*
X136439530Y-110988554D01*
G37*
G36*
X98339530Y-114798554D02*
G01*
X98418608Y-114851393D01*
X98471447Y-114930471D01*
X98490001Y-115023750D01*
X98490001Y-115511250D01*
X98471447Y-115604529D01*
X98418608Y-115683607D01*
X98339530Y-115736446D01*
X98246251Y-115755000D01*
X97333751Y-115755000D01*
X97240472Y-115736446D01*
X97161394Y-115683607D01*
X97108555Y-115604529D01*
X97090001Y-115511250D01*
X97090001Y-115023750D01*
X97108555Y-114930471D01*
X97161394Y-114851393D01*
X97240472Y-114798554D01*
X97333751Y-114780000D01*
X98246251Y-114780000D01*
X98339530Y-114798554D01*
G37*
G36*
X98339530Y-116673554D02*
G01*
X98418608Y-116726393D01*
X98471447Y-116805471D01*
X98490001Y-116898750D01*
X98490001Y-117386250D01*
X98471447Y-117479529D01*
X98418608Y-117558607D01*
X98339530Y-117611446D01*
X98246251Y-117630000D01*
X97333751Y-117630000D01*
X97240472Y-117611446D01*
X97161394Y-117558607D01*
X97108555Y-117479529D01*
X97090001Y-117386250D01*
X97090001Y-116898750D01*
X97108555Y-116805471D01*
X97161394Y-116726393D01*
X97240472Y-116673554D01*
X97333751Y-116655000D01*
X98246251Y-116655000D01*
X98339530Y-116673554D01*
G37*
G36*
X111039530Y-114798554D02*
G01*
X111118608Y-114851393D01*
X111171447Y-114930471D01*
X111190001Y-115023750D01*
X111190001Y-115511250D01*
X111171447Y-115604529D01*
X111118608Y-115683607D01*
X111039530Y-115736446D01*
X110946251Y-115755000D01*
X110033751Y-115755000D01*
X109940472Y-115736446D01*
X109861394Y-115683607D01*
X109808555Y-115604529D01*
X109790001Y-115511250D01*
X109790001Y-115023750D01*
X109808555Y-114930471D01*
X109861394Y-114851393D01*
X109940472Y-114798554D01*
X110033751Y-114780000D01*
X110946251Y-114780000D01*
X111039530Y-114798554D01*
G37*
G36*
X111039530Y-116673554D02*
G01*
X111118608Y-116726393D01*
X111171447Y-116805471D01*
X111190001Y-116898750D01*
X111190001Y-117386250D01*
X111171447Y-117479529D01*
X111118608Y-117558607D01*
X111039530Y-117611446D01*
X110946251Y-117630000D01*
X110033751Y-117630000D01*
X109940472Y-117611446D01*
X109861394Y-117558607D01*
X109808555Y-117479529D01*
X109790001Y-117386250D01*
X109790001Y-116898750D01*
X109808555Y-116805471D01*
X109861394Y-116726393D01*
X109940472Y-116673554D01*
X110033751Y-116655000D01*
X110946251Y-116655000D01*
X111039530Y-116673554D01*
G37*
G36*
X123739530Y-114798554D02*
G01*
X123818608Y-114851393D01*
X123871447Y-114930471D01*
X123890001Y-115023750D01*
X123890001Y-115511250D01*
X123871447Y-115604529D01*
X123818608Y-115683607D01*
X123739530Y-115736446D01*
X123646251Y-115755000D01*
X122733751Y-115755000D01*
X122640472Y-115736446D01*
X122561394Y-115683607D01*
X122508555Y-115604529D01*
X122490001Y-115511250D01*
X122490001Y-115023750D01*
X122508555Y-114930471D01*
X122561394Y-114851393D01*
X122640472Y-114798554D01*
X122733751Y-114780000D01*
X123646251Y-114780000D01*
X123739530Y-114798554D01*
G37*
G36*
X123739530Y-116673554D02*
G01*
X123818608Y-116726393D01*
X123871447Y-116805471D01*
X123890001Y-116898750D01*
X123890001Y-117386250D01*
X123871447Y-117479529D01*
X123818608Y-117558607D01*
X123739530Y-117611446D01*
X123646251Y-117630000D01*
X122733751Y-117630000D01*
X122640472Y-117611446D01*
X122561394Y-117558607D01*
X122508555Y-117479529D01*
X122490001Y-117386250D01*
X122490001Y-116898750D01*
X122508555Y-116805471D01*
X122561394Y-116726393D01*
X122640472Y-116673554D01*
X122733751Y-116655000D01*
X123646251Y-116655000D01*
X123739530Y-116673554D01*
G37*
G36*
X136439530Y-114798554D02*
G01*
X136518608Y-114851393D01*
X136571447Y-114930471D01*
X136590001Y-115023750D01*
X136590001Y-115511250D01*
X136571447Y-115604529D01*
X136518608Y-115683607D01*
X136439530Y-115736446D01*
X136346251Y-115755000D01*
X135433751Y-115755000D01*
X135340472Y-115736446D01*
X135261394Y-115683607D01*
X135208555Y-115604529D01*
X135190001Y-115511250D01*
X135190001Y-115023750D01*
X135208555Y-114930471D01*
X135261394Y-114851393D01*
X135340472Y-114798554D01*
X135433751Y-114780000D01*
X136346251Y-114780000D01*
X136439530Y-114798554D01*
G37*
G36*
X136439530Y-116673554D02*
G01*
X136518608Y-116726393D01*
X136571447Y-116805471D01*
X136590001Y-116898750D01*
X136590001Y-117386250D01*
X136571447Y-117479529D01*
X136518608Y-117558607D01*
X136439530Y-117611446D01*
X136346251Y-117630000D01*
X135433751Y-117630000D01*
X135340472Y-117611446D01*
X135261394Y-117558607D01*
X135208555Y-117479529D01*
X135190001Y-117386250D01*
X135190001Y-116898750D01*
X135208555Y-116805471D01*
X135261394Y-116726393D01*
X135340472Y-116673554D01*
X135433751Y-116655000D01*
X136346251Y-116655000D01*
X136439530Y-116673554D01*
G37*
D16*
X172720001Y-102615000D03*
X172720001Y-99315000D03*
X171450001Y-114680000D03*
X171450001Y-111380000D03*
D14*
X160278000Y-94401002D03*
X150108000Y-94411002D03*
X155188000Y-94411002D03*
X160278000Y-86781002D03*
X150118000Y-86781002D03*
X155208000Y-86781002D03*
X167898000Y-94401002D03*
D15*
X167898000Y-86781002D03*
D14*
X160532000Y-116880002D03*
X150362000Y-116890002D03*
X155442000Y-116890002D03*
X160532000Y-109260002D03*
X150372000Y-109260002D03*
X155462000Y-109260002D03*
X168152000Y-116880002D03*
D15*
X168152000Y-109260002D03*
D17*
X103040001Y-91671002D03*
X99940001Y-94471002D03*
X115740001Y-91671002D03*
X112640001Y-94471002D03*
X128440001Y-91671002D03*
X125340001Y-94471002D03*
X141140001Y-91671002D03*
X138040001Y-94471002D03*
X103040001Y-102680000D03*
X99940001Y-105480000D03*
X115740001Y-102680000D03*
X112640001Y-105480000D03*
X128440001Y-102680000D03*
X125340001Y-105480000D03*
X141140001Y-102680000D03*
X138040001Y-105480000D03*
X141140001Y-114110000D03*
X138040001Y-116910000D03*
D20*
X177419001Y-100584000D03*
D21*
X177419001Y-103124000D03*
X177419001Y-101854000D03*
D20*
X177419001Y-89154000D03*
D21*
X177419001Y-91694000D03*
X177419001Y-90424000D03*
D20*
X177673001Y-78105000D03*
D21*
X177673001Y-80645000D03*
X177673001Y-79375000D03*
G36*
X173269530Y-106513554D02*
G01*
X173348608Y-106566393D01*
X173401447Y-106645471D01*
X173420001Y-106738750D01*
X173420001Y-107226250D01*
X173401447Y-107319529D01*
X173348608Y-107398607D01*
X173269530Y-107451446D01*
X173176251Y-107470000D01*
X172263751Y-107470000D01*
X172170472Y-107451446D01*
X172091394Y-107398607D01*
X172038555Y-107319529D01*
X172020001Y-107226250D01*
X172020001Y-106738750D01*
X172038555Y-106645471D01*
X172091394Y-106566393D01*
X172170472Y-106513554D01*
X172263751Y-106495000D01*
X173176251Y-106495000D01*
X173269530Y-106513554D01*
G37*
G36*
X173269530Y-104638554D02*
G01*
X173348608Y-104691393D01*
X173401447Y-104770471D01*
X173420001Y-104863750D01*
X173420001Y-105351250D01*
X173401447Y-105444529D01*
X173348608Y-105523607D01*
X173269530Y-105576446D01*
X173176251Y-105595000D01*
X172263751Y-105595000D01*
X172170472Y-105576446D01*
X172091394Y-105523607D01*
X172038555Y-105444529D01*
X172020001Y-105351250D01*
X172020001Y-104863750D01*
X172038555Y-104770471D01*
X172091394Y-104691393D01*
X172170472Y-104638554D01*
X172263751Y-104620000D01*
X173176251Y-104620000D01*
X173269530Y-104638554D01*
G37*
G36*
X173269530Y-95718554D02*
G01*
X173348608Y-95771393D01*
X173401447Y-95850471D01*
X173420001Y-95943750D01*
X173420001Y-96431250D01*
X173401447Y-96524529D01*
X173348608Y-96603607D01*
X173269530Y-96656446D01*
X173176251Y-96675000D01*
X172263751Y-96675000D01*
X172170472Y-96656446D01*
X172091394Y-96603607D01*
X172038555Y-96524529D01*
X172020001Y-96431250D01*
X172020001Y-95943750D01*
X172038555Y-95850471D01*
X172091394Y-95771393D01*
X172170472Y-95718554D01*
X172263751Y-95700000D01*
X173176251Y-95700000D01*
X173269530Y-95718554D01*
G37*
G36*
X173269530Y-93843554D02*
G01*
X173348608Y-93896393D01*
X173401447Y-93975471D01*
X173420001Y-94068750D01*
X173420001Y-94556250D01*
X173401447Y-94649529D01*
X173348608Y-94728607D01*
X173269530Y-94781446D01*
X173176251Y-94800000D01*
X172263751Y-94800000D01*
X172170472Y-94781446D01*
X172091394Y-94728607D01*
X172038555Y-94649529D01*
X172020001Y-94556250D01*
X172020001Y-94068750D01*
X172038555Y-93975471D01*
X172091394Y-93896393D01*
X172170472Y-93843554D01*
X172263751Y-93825000D01*
X173176251Y-93825000D01*
X173269530Y-93843554D01*
G37*
G36*
X173269530Y-84923554D02*
G01*
X173348608Y-84976393D01*
X173401447Y-85055471D01*
X173420001Y-85148750D01*
X173420001Y-85636250D01*
X173401447Y-85729529D01*
X173348608Y-85808607D01*
X173269530Y-85861446D01*
X173176251Y-85880000D01*
X172263751Y-85880000D01*
X172170472Y-85861446D01*
X172091394Y-85808607D01*
X172038555Y-85729529D01*
X172020001Y-85636250D01*
X172020001Y-85148750D01*
X172038555Y-85055471D01*
X172091394Y-84976393D01*
X172170472Y-84923554D01*
X172263751Y-84905000D01*
X173176251Y-84905000D01*
X173269530Y-84923554D01*
G37*
G36*
X173269530Y-83048554D02*
G01*
X173348608Y-83101393D01*
X173401447Y-83180471D01*
X173420001Y-83273750D01*
X173420001Y-83761250D01*
X173401447Y-83854529D01*
X173348608Y-83933607D01*
X173269530Y-83986446D01*
X173176251Y-84005000D01*
X172263751Y-84005000D01*
X172170472Y-83986446D01*
X172091394Y-83933607D01*
X172038555Y-83854529D01*
X172020001Y-83761250D01*
X172020001Y-83273750D01*
X172038555Y-83180471D01*
X172091394Y-83101393D01*
X172170472Y-83048554D01*
X172263751Y-83030000D01*
X173176251Y-83030000D01*
X173269530Y-83048554D01*
G37*
G36*
X105197530Y-120737554D02*
G01*
X105276608Y-120790393D01*
X105329447Y-120869471D01*
X105348001Y-120962750D01*
X105348001Y-121450250D01*
X105329447Y-121543529D01*
X105276608Y-121622607D01*
X105197530Y-121675446D01*
X105104251Y-121694000D01*
X104191751Y-121694000D01*
X104098472Y-121675446D01*
X104019394Y-121622607D01*
X103966555Y-121543529D01*
X103948001Y-121450250D01*
X103948001Y-120962750D01*
X103966555Y-120869471D01*
X104019394Y-120790393D01*
X104098472Y-120737554D01*
X104191751Y-120719000D01*
X105104251Y-120719000D01*
X105197530Y-120737554D01*
G37*
G36*
X105197530Y-118862554D02*
G01*
X105276608Y-118915393D01*
X105329447Y-118994471D01*
X105348001Y-119087750D01*
X105348001Y-119575250D01*
X105329447Y-119668529D01*
X105276608Y-119747607D01*
X105197530Y-119800446D01*
X105104251Y-119819000D01*
X104191751Y-119819000D01*
X104098472Y-119800446D01*
X104019394Y-119747607D01*
X103966555Y-119668529D01*
X103948001Y-119575250D01*
X103948001Y-119087750D01*
X103966555Y-118994471D01*
X104019394Y-118915393D01*
X104098472Y-118862554D01*
X104191751Y-118844000D01*
X105104251Y-118844000D01*
X105197530Y-118862554D01*
G37*
G36*
X102530530Y-118862554D02*
G01*
X102609608Y-118915393D01*
X102662447Y-118994471D01*
X102681001Y-119087750D01*
X102681001Y-119575250D01*
X102662447Y-119668529D01*
X102609608Y-119747607D01*
X102530530Y-119800446D01*
X102437251Y-119819000D01*
X101524751Y-119819000D01*
X101431472Y-119800446D01*
X101352394Y-119747607D01*
X101299555Y-119668529D01*
X101281001Y-119575250D01*
X101281001Y-119087750D01*
X101299555Y-118994471D01*
X101352394Y-118915393D01*
X101431472Y-118862554D01*
X101524751Y-118844000D01*
X102437251Y-118844000D01*
X102530530Y-118862554D01*
G37*
G36*
X102530530Y-120737554D02*
G01*
X102609608Y-120790393D01*
X102662447Y-120869471D01*
X102681001Y-120962750D01*
X102681001Y-121450250D01*
X102662447Y-121543529D01*
X102609608Y-121622607D01*
X102530530Y-121675446D01*
X102437251Y-121694000D01*
X101524751Y-121694000D01*
X101431472Y-121675446D01*
X101352394Y-121622607D01*
X101299555Y-121543529D01*
X101281001Y-121450250D01*
X101281001Y-120962750D01*
X101299555Y-120869471D01*
X101352394Y-120790393D01*
X101431472Y-120737554D01*
X101524751Y-120719000D01*
X102437251Y-120719000D01*
X102530530Y-120737554D01*
G37*
G36*
X122589529Y-65358554D02*
G01*
X122668607Y-65411393D01*
X122721446Y-65490471D01*
X122740000Y-65583750D01*
X122740000Y-66496250D01*
X122721446Y-66589529D01*
X122668607Y-66668607D01*
X122589529Y-66721446D01*
X122496250Y-66740000D01*
X122008750Y-66740000D01*
X121915471Y-66721446D01*
X121836393Y-66668607D01*
X121783554Y-66589529D01*
X121765000Y-66496250D01*
X121765000Y-65583750D01*
X121783554Y-65490471D01*
X121836393Y-65411393D01*
X121915471Y-65358554D01*
X122008750Y-65340000D01*
X122496250Y-65340000D01*
X122589529Y-65358554D01*
G37*
G36*
X124464529Y-65358554D02*
G01*
X124543607Y-65411393D01*
X124596446Y-65490471D01*
X124615000Y-65583750D01*
X124615000Y-66496250D01*
X124596446Y-66589529D01*
X124543607Y-66668607D01*
X124464529Y-66721446D01*
X124371250Y-66740000D01*
X123883750Y-66740000D01*
X123790471Y-66721446D01*
X123711393Y-66668607D01*
X123658554Y-66589529D01*
X123640000Y-66496250D01*
X123640000Y-65583750D01*
X123658554Y-65490471D01*
X123711393Y-65411393D01*
X123790471Y-65358554D01*
X123883750Y-65340000D01*
X124371250Y-65340000D01*
X124464529Y-65358554D01*
G37*
G36*
X98459530Y-71708554D02*
G01*
X98538608Y-71761393D01*
X98591447Y-71840471D01*
X98610001Y-71933750D01*
X98610001Y-72846250D01*
X98591447Y-72939529D01*
X98538608Y-73018607D01*
X98459530Y-73071446D01*
X98366251Y-73090000D01*
X97878751Y-73090000D01*
X97785472Y-73071446D01*
X97706394Y-73018607D01*
X97653555Y-72939529D01*
X97635001Y-72846250D01*
X97635001Y-71933750D01*
X97653555Y-71840471D01*
X97706394Y-71761393D01*
X97785472Y-71708554D01*
X97878751Y-71690000D01*
X98366251Y-71690000D01*
X98459530Y-71708554D01*
G37*
G36*
X100334530Y-71708554D02*
G01*
X100413608Y-71761393D01*
X100466447Y-71840471D01*
X100485001Y-71933750D01*
X100485001Y-72846250D01*
X100466447Y-72939529D01*
X100413608Y-73018607D01*
X100334530Y-73071446D01*
X100241251Y-73090000D01*
X99753751Y-73090000D01*
X99660472Y-73071446D01*
X99581394Y-73018607D01*
X99528555Y-72939529D01*
X99510001Y-72846250D01*
X99510001Y-71933750D01*
X99528555Y-71840471D01*
X99581394Y-71761393D01*
X99660472Y-71708554D01*
X99753751Y-71690000D01*
X100241251Y-71690000D01*
X100334530Y-71708554D01*
G37*
D17*
X119000001Y-75248000D03*
X119000001Y-83248000D03*
X113500001Y-75248000D03*
X124460001Y-83248000D03*
X103885001Y-83248000D03*
X103885001Y-75248000D03*
X109385001Y-83248000D03*
X98425001Y-75248000D03*
D22*
X184150001Y-57150000D03*
X92710001Y-148590000D03*
X184150001Y-148590000D03*
X92710001Y-57150000D03*
G36*
X101604530Y-126318554D02*
G01*
X101683608Y-126371393D01*
X101736447Y-126450471D01*
X101755001Y-126543750D01*
X101755001Y-127456250D01*
X101736447Y-127549529D01*
X101683608Y-127628607D01*
X101604530Y-127681446D01*
X101511251Y-127700000D01*
X101023751Y-127700000D01*
X100930472Y-127681446D01*
X100851394Y-127628607D01*
X100798555Y-127549529D01*
X100780001Y-127456250D01*
X100780001Y-126543750D01*
X100798555Y-126450471D01*
X100851394Y-126371393D01*
X100930472Y-126318554D01*
X101023751Y-126300000D01*
X101511251Y-126300000D01*
X101604530Y-126318554D01*
G37*
G36*
X99729530Y-126318554D02*
G01*
X99808608Y-126371393D01*
X99861447Y-126450471D01*
X99880001Y-126543750D01*
X99880001Y-127456250D01*
X99861447Y-127549529D01*
X99808608Y-127628607D01*
X99729530Y-127681446D01*
X99636251Y-127700000D01*
X99148751Y-127700000D01*
X99055472Y-127681446D01*
X98976394Y-127628607D01*
X98923555Y-127549529D01*
X98905001Y-127456250D01*
X98905001Y-126543750D01*
X98923555Y-126450471D01*
X98976394Y-126371393D01*
X99055472Y-126318554D01*
X99148751Y-126300000D01*
X99636251Y-126300000D01*
X99729530Y-126318554D01*
G37*
D23*
X117475001Y-72390000D03*
D24*
X125095001Y-72390000D03*
D23*
X102235001Y-72390000D03*
D24*
X109855001Y-72390000D03*
G36*
X122589529Y-67898554D02*
G01*
X122668607Y-67951393D01*
X122721446Y-68030471D01*
X122740000Y-68123750D01*
X122740000Y-69036250D01*
X122721446Y-69129529D01*
X122668607Y-69208607D01*
X122589529Y-69261446D01*
X122496250Y-69280000D01*
X122008750Y-69280000D01*
X121915471Y-69261446D01*
X121836393Y-69208607D01*
X121783554Y-69129529D01*
X121765000Y-69036250D01*
X121765000Y-68123750D01*
X121783554Y-68030471D01*
X121836393Y-67951393D01*
X121915471Y-67898554D01*
X122008750Y-67880000D01*
X122496250Y-67880000D01*
X122589529Y-67898554D01*
G37*
G36*
X124464529Y-67898554D02*
G01*
X124543607Y-67951393D01*
X124596446Y-68030471D01*
X124615000Y-68123750D01*
X124615000Y-69036250D01*
X124596446Y-69129529D01*
X124543607Y-69208607D01*
X124464529Y-69261446D01*
X124371250Y-69280000D01*
X123883750Y-69280000D01*
X123790471Y-69261446D01*
X123711393Y-69208607D01*
X123658554Y-69129529D01*
X123640000Y-69036250D01*
X123640000Y-68123750D01*
X123658554Y-68030471D01*
X123711393Y-67951393D01*
X123790471Y-67898554D01*
X123883750Y-67880000D01*
X124371250Y-67880000D01*
X124464529Y-67898554D01*
G37*
G36*
X98459530Y-69168554D02*
G01*
X98538608Y-69221393D01*
X98591447Y-69300471D01*
X98610001Y-69393750D01*
X98610001Y-70306250D01*
X98591447Y-70399529D01*
X98538608Y-70478607D01*
X98459530Y-70531446D01*
X98366251Y-70550000D01*
X97878751Y-70550000D01*
X97785472Y-70531446D01*
X97706394Y-70478607D01*
X97653555Y-70399529D01*
X97635001Y-70306250D01*
X97635001Y-69393750D01*
X97653555Y-69300471D01*
X97706394Y-69221393D01*
X97785472Y-69168554D01*
X97878751Y-69150000D01*
X98366251Y-69150000D01*
X98459530Y-69168554D01*
G37*
G36*
X100334530Y-69168554D02*
G01*
X100413608Y-69221393D01*
X100466447Y-69300471D01*
X100485001Y-69393750D01*
X100485001Y-70306250D01*
X100466447Y-70399529D01*
X100413608Y-70478607D01*
X100334530Y-70531446D01*
X100241251Y-70550000D01*
X99753751Y-70550000D01*
X99660472Y-70531446D01*
X99581394Y-70478607D01*
X99528555Y-70399529D01*
X99510001Y-70306250D01*
X99510001Y-69393750D01*
X99528555Y-69300471D01*
X99581394Y-69221393D01*
X99660472Y-69168554D01*
X99753751Y-69150000D01*
X100241251Y-69150000D01*
X100334530Y-69168554D01*
G37*
D16*
X172720001Y-91947000D03*
X172720001Y-88647000D03*
G36*
X101604530Y-123778554D02*
G01*
X101683608Y-123831393D01*
X101736447Y-123910471D01*
X101755001Y-124003750D01*
X101755001Y-124916250D01*
X101736447Y-125009529D01*
X101683608Y-125088607D01*
X101604530Y-125141446D01*
X101511251Y-125160000D01*
X101023751Y-125160000D01*
X100930472Y-125141446D01*
X100851394Y-125088607D01*
X100798555Y-125009529D01*
X100780001Y-124916250D01*
X100780001Y-124003750D01*
X100798555Y-123910471D01*
X100851394Y-123831393D01*
X100930472Y-123778554D01*
X101023751Y-123760000D01*
X101511251Y-123760000D01*
X101604530Y-123778554D01*
G37*
G36*
X99729530Y-123778554D02*
G01*
X99808608Y-123831393D01*
X99861447Y-123910471D01*
X99880001Y-124003750D01*
X99880001Y-124916250D01*
X99861447Y-125009529D01*
X99808608Y-125088607D01*
X99729530Y-125141446D01*
X99636251Y-125160000D01*
X99148751Y-125160000D01*
X99055472Y-125141446D01*
X98976394Y-125088607D01*
X98923555Y-125009529D01*
X98905001Y-124916250D01*
X98905001Y-124003750D01*
X98923555Y-123910471D01*
X98976394Y-123831393D01*
X99055472Y-123778554D01*
X99148751Y-123760000D01*
X99636251Y-123760000D01*
X99729530Y-123778554D01*
G37*
G36*
X101604530Y-137748554D02*
G01*
X101683608Y-137801393D01*
X101736447Y-137880471D01*
X101755001Y-137973750D01*
X101755001Y-138886250D01*
X101736447Y-138979529D01*
X101683608Y-139058607D01*
X101604530Y-139111446D01*
X101511251Y-139130000D01*
X101023751Y-139130000D01*
X100930472Y-139111446D01*
X100851394Y-139058607D01*
X100798555Y-138979529D01*
X100780001Y-138886250D01*
X100780001Y-137973750D01*
X100798555Y-137880471D01*
X100851394Y-137801393D01*
X100930472Y-137748554D01*
X101023751Y-137730000D01*
X101511251Y-137730000D01*
X101604530Y-137748554D01*
G37*
G36*
X99729530Y-137748554D02*
G01*
X99808608Y-137801393D01*
X99861447Y-137880471D01*
X99880001Y-137973750D01*
X99880001Y-138886250D01*
X99861447Y-138979529D01*
X99808608Y-139058607D01*
X99729530Y-139111446D01*
X99636251Y-139130000D01*
X99148751Y-139130000D01*
X99055472Y-139111446D01*
X98976394Y-139058607D01*
X98923555Y-138979529D01*
X98905001Y-138886250D01*
X98905001Y-137973750D01*
X98923555Y-137880471D01*
X98976394Y-137801393D01*
X99055472Y-137748554D01*
X99148751Y-137730000D01*
X99636251Y-137730000D01*
X99729530Y-137748554D01*
G37*
D17*
X115740001Y-114110000D03*
X112640001Y-116910000D03*
X103040001Y-114110000D03*
X99940001Y-116910000D03*
G36*
X129320530Y-135462554D02*
G01*
X129399608Y-135515393D01*
X129452447Y-135594471D01*
X129471001Y-135687750D01*
X129471001Y-136600250D01*
X129452447Y-136693529D01*
X129399608Y-136772607D01*
X129320530Y-136825446D01*
X129227251Y-136844000D01*
X128739751Y-136844000D01*
X128646472Y-136825446D01*
X128567394Y-136772607D01*
X128514555Y-136693529D01*
X128496001Y-136600250D01*
X128496001Y-135687750D01*
X128514555Y-135594471D01*
X128567394Y-135515393D01*
X128646472Y-135462554D01*
X128739751Y-135444000D01*
X129227251Y-135444000D01*
X129320530Y-135462554D01*
G37*
G36*
X131195530Y-135462554D02*
G01*
X131274608Y-135515393D01*
X131327447Y-135594471D01*
X131346001Y-135687750D01*
X131346001Y-136600250D01*
X131327447Y-136693529D01*
X131274608Y-136772607D01*
X131195530Y-136825446D01*
X131102251Y-136844000D01*
X130614751Y-136844000D01*
X130521472Y-136825446D01*
X130442394Y-136772607D01*
X130389555Y-136693529D01*
X130371001Y-136600250D01*
X130371001Y-135687750D01*
X130389555Y-135594471D01*
X130442394Y-135515393D01*
X130521472Y-135462554D01*
X130614751Y-135444000D01*
X131102251Y-135444000D01*
X131195530Y-135462554D01*
G37*
G36*
X163109530Y-123053554D02*
G01*
X163188608Y-123106393D01*
X163241447Y-123185471D01*
X163260001Y-123278750D01*
X163260001Y-123766250D01*
X163241447Y-123859529D01*
X163188608Y-123938607D01*
X163109530Y-123991446D01*
X163016251Y-124010000D01*
X162103751Y-124010000D01*
X162010472Y-123991446D01*
X161931394Y-123938607D01*
X161878555Y-123859529D01*
X161860001Y-123766250D01*
X161860001Y-123278750D01*
X161878555Y-123185471D01*
X161931394Y-123106393D01*
X162010472Y-123053554D01*
X162103751Y-123035000D01*
X163016251Y-123035000D01*
X163109530Y-123053554D01*
G37*
G36*
X163109530Y-124928554D02*
G01*
X163188608Y-124981393D01*
X163241447Y-125060471D01*
X163260001Y-125153750D01*
X163260001Y-125641250D01*
X163241447Y-125734529D01*
X163188608Y-125813607D01*
X163109530Y-125866446D01*
X163016251Y-125885000D01*
X162103751Y-125885000D01*
X162010472Y-125866446D01*
X161931394Y-125813607D01*
X161878555Y-125734529D01*
X161860001Y-125641250D01*
X161860001Y-125153750D01*
X161878555Y-125060471D01*
X161931394Y-124981393D01*
X162010472Y-124928554D01*
X162103751Y-124910000D01*
X163016251Y-124910000D01*
X163109530Y-124928554D01*
G37*
G36*
X165649530Y-123053554D02*
G01*
X165728608Y-123106393D01*
X165781447Y-123185471D01*
X165800001Y-123278750D01*
X165800001Y-123766250D01*
X165781447Y-123859529D01*
X165728608Y-123938607D01*
X165649530Y-123991446D01*
X165556251Y-124010000D01*
X164643751Y-124010000D01*
X164550472Y-123991446D01*
X164471394Y-123938607D01*
X164418555Y-123859529D01*
X164400001Y-123766250D01*
X164400001Y-123278750D01*
X164418555Y-123185471D01*
X164471394Y-123106393D01*
X164550472Y-123053554D01*
X164643751Y-123035000D01*
X165556251Y-123035000D01*
X165649530Y-123053554D01*
G37*
G36*
X165649530Y-124928554D02*
G01*
X165728608Y-124981393D01*
X165781447Y-125060471D01*
X165800001Y-125153750D01*
X165800001Y-125641250D01*
X165781447Y-125734529D01*
X165728608Y-125813607D01*
X165649530Y-125866446D01*
X165556251Y-125885000D01*
X164643751Y-125885000D01*
X164550472Y-125866446D01*
X164471394Y-125813607D01*
X164418555Y-125734529D01*
X164400001Y-125641250D01*
X164400001Y-125153750D01*
X164418555Y-125060471D01*
X164471394Y-124981393D01*
X164550472Y-124928554D01*
X164643751Y-124910000D01*
X165556251Y-124910000D01*
X165649530Y-124928554D01*
G37*
G36*
X168189530Y-123053554D02*
G01*
X168268608Y-123106393D01*
X168321447Y-123185471D01*
X168340001Y-123278750D01*
X168340001Y-123766250D01*
X168321447Y-123859529D01*
X168268608Y-123938607D01*
X168189530Y-123991446D01*
X168096251Y-124010000D01*
X167183751Y-124010000D01*
X167090472Y-123991446D01*
X167011394Y-123938607D01*
X166958555Y-123859529D01*
X166940001Y-123766250D01*
X166940001Y-123278750D01*
X166958555Y-123185471D01*
X167011394Y-123106393D01*
X167090472Y-123053554D01*
X167183751Y-123035000D01*
X168096251Y-123035000D01*
X168189530Y-123053554D01*
G37*
G36*
X168189530Y-124928554D02*
G01*
X168268608Y-124981393D01*
X168321447Y-125060471D01*
X168340001Y-125153750D01*
X168340001Y-125641250D01*
X168321447Y-125734529D01*
X168268608Y-125813607D01*
X168189530Y-125866446D01*
X168096251Y-125885000D01*
X167183751Y-125885000D01*
X167090472Y-125866446D01*
X167011394Y-125813607D01*
X166958555Y-125734529D01*
X166940001Y-125641250D01*
X166940001Y-125153750D01*
X166958555Y-125060471D01*
X167011394Y-124981393D01*
X167090472Y-124928554D01*
X167183751Y-124910000D01*
X168096251Y-124910000D01*
X168189530Y-124928554D01*
G37*
D25*
X162654201Y-130773500D03*
D26*
X165194201Y-130773500D03*
X163924201Y-130773500D03*
D25*
X168178701Y-130773500D03*
D26*
X170718701Y-130773500D03*
X169448701Y-130773500D03*
D25*
X173703201Y-130773500D03*
D26*
X176243201Y-130773500D03*
X174973201Y-130773500D03*
G36*
X163109530Y-119243554D02*
G01*
X163188608Y-119296393D01*
X163241447Y-119375471D01*
X163260001Y-119468750D01*
X163260001Y-119956250D01*
X163241447Y-120049529D01*
X163188608Y-120128607D01*
X163109530Y-120181446D01*
X163016251Y-120200000D01*
X162103751Y-120200000D01*
X162010472Y-120181446D01*
X161931394Y-120128607D01*
X161878555Y-120049529D01*
X161860001Y-119956250D01*
X161860001Y-119468750D01*
X161878555Y-119375471D01*
X161931394Y-119296393D01*
X162010472Y-119243554D01*
X162103751Y-119225000D01*
X163016251Y-119225000D01*
X163109530Y-119243554D01*
G37*
G36*
X163109530Y-121118554D02*
G01*
X163188608Y-121171393D01*
X163241447Y-121250471D01*
X163260001Y-121343750D01*
X163260001Y-121831250D01*
X163241447Y-121924529D01*
X163188608Y-122003607D01*
X163109530Y-122056446D01*
X163016251Y-122075000D01*
X162103751Y-122075000D01*
X162010472Y-122056446D01*
X161931394Y-122003607D01*
X161878555Y-121924529D01*
X161860001Y-121831250D01*
X161860001Y-121343750D01*
X161878555Y-121250471D01*
X161931394Y-121171393D01*
X162010472Y-121118554D01*
X162103751Y-121100000D01*
X163016251Y-121100000D01*
X163109530Y-121118554D01*
G37*
G36*
X165649530Y-119243554D02*
G01*
X165728608Y-119296393D01*
X165781447Y-119375471D01*
X165800001Y-119468750D01*
X165800001Y-119956250D01*
X165781447Y-120049529D01*
X165728608Y-120128607D01*
X165649530Y-120181446D01*
X165556251Y-120200000D01*
X164643751Y-120200000D01*
X164550472Y-120181446D01*
X164471394Y-120128607D01*
X164418555Y-120049529D01*
X164400001Y-119956250D01*
X164400001Y-119468750D01*
X164418555Y-119375471D01*
X164471394Y-119296393D01*
X164550472Y-119243554D01*
X164643751Y-119225000D01*
X165556251Y-119225000D01*
X165649530Y-119243554D01*
G37*
G36*
X165649530Y-121118554D02*
G01*
X165728608Y-121171393D01*
X165781447Y-121250471D01*
X165800001Y-121343750D01*
X165800001Y-121831250D01*
X165781447Y-121924529D01*
X165728608Y-122003607D01*
X165649530Y-122056446D01*
X165556251Y-122075000D01*
X164643751Y-122075000D01*
X164550472Y-122056446D01*
X164471394Y-122003607D01*
X164418555Y-121924529D01*
X164400001Y-121831250D01*
X164400001Y-121343750D01*
X164418555Y-121250471D01*
X164471394Y-121171393D01*
X164550472Y-121118554D01*
X164643751Y-121100000D01*
X165556251Y-121100000D01*
X165649530Y-121118554D01*
G37*
G36*
X168189530Y-119243554D02*
G01*
X168268608Y-119296393D01*
X168321447Y-119375471D01*
X168340001Y-119468750D01*
X168340001Y-119956250D01*
X168321447Y-120049529D01*
X168268608Y-120128607D01*
X168189530Y-120181446D01*
X168096251Y-120200000D01*
X167183751Y-120200000D01*
X167090472Y-120181446D01*
X167011394Y-120128607D01*
X166958555Y-120049529D01*
X166940001Y-119956250D01*
X166940001Y-119468750D01*
X166958555Y-119375471D01*
X167011394Y-119296393D01*
X167090472Y-119243554D01*
X167183751Y-119225000D01*
X168096251Y-119225000D01*
X168189530Y-119243554D01*
G37*
G36*
X168189530Y-121118554D02*
G01*
X168268608Y-121171393D01*
X168321447Y-121250471D01*
X168340001Y-121343750D01*
X168340001Y-121831250D01*
X168321447Y-121924529D01*
X168268608Y-122003607D01*
X168189530Y-122056446D01*
X168096251Y-122075000D01*
X167183751Y-122075000D01*
X167090472Y-122056446D01*
X167011394Y-122003607D01*
X166958555Y-121924529D01*
X166940001Y-121831250D01*
X166940001Y-121343750D01*
X166958555Y-121250471D01*
X167011394Y-121171393D01*
X167090472Y-121118554D01*
X167183751Y-121100000D01*
X168096251Y-121100000D01*
X168189530Y-121118554D01*
G37*
D27*
X179070001Y-114300000D03*
X176570001Y-109300000D03*
X174070001Y-114300000D03*
G36*
X126166404Y-140300418D02*
G01*
X126215067Y-140332934D01*
X126247583Y-140381597D01*
X126259001Y-140439000D01*
X126259001Y-140739000D01*
X126247583Y-140796403D01*
X126215067Y-140845066D01*
X126166404Y-140877582D01*
X126109001Y-140889000D01*
X124459001Y-140889000D01*
X124401598Y-140877582D01*
X124352935Y-140845066D01*
X124320419Y-140796403D01*
X124309001Y-140739000D01*
X124309001Y-140439000D01*
X124320419Y-140381597D01*
X124352935Y-140332934D01*
X124401598Y-140300418D01*
X124459001Y-140289000D01*
X126109001Y-140289000D01*
X126166404Y-140300418D01*
G37*
G36*
X126166404Y-141570418D02*
G01*
X126215067Y-141602934D01*
X126247583Y-141651597D01*
X126259001Y-141709000D01*
X126259001Y-142009000D01*
X126247583Y-142066403D01*
X126215067Y-142115066D01*
X126166404Y-142147582D01*
X126109001Y-142159000D01*
X124459001Y-142159000D01*
X124401598Y-142147582D01*
X124352935Y-142115066D01*
X124320419Y-142066403D01*
X124309001Y-142009000D01*
X124309001Y-141709000D01*
X124320419Y-141651597D01*
X124352935Y-141602934D01*
X124401598Y-141570418D01*
X124459001Y-141559000D01*
X126109001Y-141559000D01*
X126166404Y-141570418D01*
G37*
G36*
X126166404Y-142840418D02*
G01*
X126215067Y-142872934D01*
X126247583Y-142921597D01*
X126259001Y-142979000D01*
X126259001Y-143279000D01*
X126247583Y-143336403D01*
X126215067Y-143385066D01*
X126166404Y-143417582D01*
X126109001Y-143429000D01*
X124459001Y-143429000D01*
X124401598Y-143417582D01*
X124352935Y-143385066D01*
X124320419Y-143336403D01*
X124309001Y-143279000D01*
X124309001Y-142979000D01*
X124320419Y-142921597D01*
X124352935Y-142872934D01*
X124401598Y-142840418D01*
X124459001Y-142829000D01*
X126109001Y-142829000D01*
X126166404Y-142840418D01*
G37*
G36*
X126166404Y-144110418D02*
G01*
X126215067Y-144142934D01*
X126247583Y-144191597D01*
X126259001Y-144249000D01*
X126259001Y-144549000D01*
X126247583Y-144606403D01*
X126215067Y-144655066D01*
X126166404Y-144687582D01*
X126109001Y-144699000D01*
X124459001Y-144699000D01*
X124401598Y-144687582D01*
X124352935Y-144655066D01*
X124320419Y-144606403D01*
X124309001Y-144549000D01*
X124309001Y-144249000D01*
X124320419Y-144191597D01*
X124352935Y-144142934D01*
X124401598Y-144110418D01*
X124459001Y-144099000D01*
X126109001Y-144099000D01*
X126166404Y-144110418D01*
G37*
G36*
X121216404Y-144110418D02*
G01*
X121265067Y-144142934D01*
X121297583Y-144191597D01*
X121309001Y-144249000D01*
X121309001Y-144549000D01*
X121297583Y-144606403D01*
X121265067Y-144655066D01*
X121216404Y-144687582D01*
X121159001Y-144699000D01*
X119509001Y-144699000D01*
X119451598Y-144687582D01*
X119402935Y-144655066D01*
X119370419Y-144606403D01*
X119359001Y-144549000D01*
X119359001Y-144249000D01*
X119370419Y-144191597D01*
X119402935Y-144142934D01*
X119451598Y-144110418D01*
X119509001Y-144099000D01*
X121159001Y-144099000D01*
X121216404Y-144110418D01*
G37*
G36*
X121216404Y-142840418D02*
G01*
X121265067Y-142872934D01*
X121297583Y-142921597D01*
X121309001Y-142979000D01*
X121309001Y-143279000D01*
X121297583Y-143336403D01*
X121265067Y-143385066D01*
X121216404Y-143417582D01*
X121159001Y-143429000D01*
X119509001Y-143429000D01*
X119451598Y-143417582D01*
X119402935Y-143385066D01*
X119370419Y-143336403D01*
X119359001Y-143279000D01*
X119359001Y-142979000D01*
X119370419Y-142921597D01*
X119402935Y-142872934D01*
X119451598Y-142840418D01*
X119509001Y-142829000D01*
X121159001Y-142829000D01*
X121216404Y-142840418D01*
G37*
G36*
X121216404Y-141570418D02*
G01*
X121265067Y-141602934D01*
X121297583Y-141651597D01*
X121309001Y-141709000D01*
X121309001Y-142009000D01*
X121297583Y-142066403D01*
X121265067Y-142115066D01*
X121216404Y-142147582D01*
X121159001Y-142159000D01*
X119509001Y-142159000D01*
X119451598Y-142147582D01*
X119402935Y-142115066D01*
X119370419Y-142066403D01*
X119359001Y-142009000D01*
X119359001Y-141709000D01*
X119370419Y-141651597D01*
X119402935Y-141602934D01*
X119451598Y-141570418D01*
X119509001Y-141559000D01*
X121159001Y-141559000D01*
X121216404Y-141570418D01*
G37*
G36*
X121216404Y-140300418D02*
G01*
X121265067Y-140332934D01*
X121297583Y-140381597D01*
X121309001Y-140439000D01*
X121309001Y-140739000D01*
X121297583Y-140796403D01*
X121265067Y-140845066D01*
X121216404Y-140877582D01*
X121159001Y-140889000D01*
X119509001Y-140889000D01*
X119451598Y-140877582D01*
X119402935Y-140845066D01*
X119370419Y-140796403D01*
X119359001Y-140739000D01*
X119359001Y-140439000D01*
X119370419Y-140381597D01*
X119402935Y-140332934D01*
X119451598Y-140300418D01*
X119509001Y-140289000D01*
X121159001Y-140289000D01*
X121216404Y-140300418D01*
G37*
D28*
X109220001Y-66040000D03*
X111760001Y-66040000D03*
D29*
X116840001Y-60960000D03*
X106680001Y-60960000D03*
G36*
X170353099Y-62580457D02*
G01*
X170532403Y-62640872D01*
X170694527Y-62738419D01*
X170831892Y-62868537D01*
X170938073Y-63025143D01*
X171008106Y-63200913D01*
X171040000Y-63435000D01*
X171040000Y-65185000D01*
X171019543Y-65373099D01*
X170959128Y-65552403D01*
X170861581Y-65714527D01*
X170731463Y-65851892D01*
X170574857Y-65958073D01*
X170399087Y-66028106D01*
X170165000Y-66060000D01*
X168415000Y-66060000D01*
X168226901Y-66039543D01*
X168047597Y-65979128D01*
X167885473Y-65881581D01*
X167748108Y-65751463D01*
X167641927Y-65594857D01*
X167571894Y-65419087D01*
X167540000Y-65185000D01*
X167540000Y-63435000D01*
X167560457Y-63246901D01*
X167620872Y-63067597D01*
X167718419Y-62905473D01*
X167848537Y-62768108D01*
X168005143Y-62661927D01*
X168180913Y-62591894D01*
X168415000Y-62560000D01*
X170165000Y-62560000D01*
X170353099Y-62580457D01*
G37*
G36*
X175162962Y-59830216D02*
G01*
X175326599Y-59889776D01*
X175472091Y-59985467D01*
X175591592Y-60112131D01*
X175678662Y-60262940D01*
X175728606Y-60429764D01*
X175740000Y-60560000D01*
X175740000Y-62060000D01*
X175719784Y-62232962D01*
X175660224Y-62396599D01*
X175564533Y-62542091D01*
X175437869Y-62661592D01*
X175287060Y-62748662D01*
X175120236Y-62798606D01*
X174990000Y-62810000D01*
X172990000Y-62810000D01*
X172817038Y-62789784D01*
X172653401Y-62730224D01*
X172507909Y-62634533D01*
X172388408Y-62507869D01*
X172301338Y-62357060D01*
X172251394Y-62190236D01*
X172240000Y-62060000D01*
X172240000Y-60560000D01*
X172260216Y-60387038D01*
X172319776Y-60223401D01*
X172415467Y-60077909D01*
X172542131Y-59958408D01*
X172692940Y-59871338D01*
X172859764Y-59821394D01*
X172990000Y-59810000D01*
X174990000Y-59810000D01*
X175162962Y-59830216D01*
G37*
D30*
X173990000Y-67310000D03*
D31*
X141859001Y-76214500D03*
X139319001Y-76214500D03*
D32*
X136779001Y-76214500D03*
D33*
X139319001Y-59404500D03*
X169486701Y-146313500D03*
D12*
X106680000Y-149733000D03*
X104140000Y-149733000D03*
X106680000Y-147193000D03*
X104140000Y-147193000D03*
X106680000Y-144653000D03*
X104140000Y-144653000D03*
X106680000Y-142113000D03*
X104140000Y-142113000D03*
X106680000Y-139573000D03*
X104140000Y-139573000D03*
X106680000Y-137033000D03*
X104140000Y-137033000D03*
X106680000Y-134493000D03*
X104140000Y-134493000D03*
X106680000Y-131953000D03*
D13*
X104140000Y-131953000D03*
G36*
X150499530Y-125683554D02*
G01*
X150578608Y-125736393D01*
X150631447Y-125815471D01*
X150650001Y-125908750D01*
X150650001Y-126821250D01*
X150631447Y-126914529D01*
X150578608Y-126993607D01*
X150499530Y-127046446D01*
X150406251Y-127065000D01*
X149918751Y-127065000D01*
X149825472Y-127046446D01*
X149746394Y-126993607D01*
X149693555Y-126914529D01*
X149675001Y-126821250D01*
X149675001Y-125908750D01*
X149693555Y-125815471D01*
X149746394Y-125736393D01*
X149825472Y-125683554D01*
X149918751Y-125665000D01*
X150406251Y-125665000D01*
X150499530Y-125683554D01*
G37*
G36*
X148624530Y-125683554D02*
G01*
X148703608Y-125736393D01*
X148756447Y-125815471D01*
X148775001Y-125908750D01*
X148775001Y-126821250D01*
X148756447Y-126914529D01*
X148703608Y-126993607D01*
X148624530Y-127046446D01*
X148531251Y-127065000D01*
X148043751Y-127065000D01*
X147950472Y-127046446D01*
X147871394Y-126993607D01*
X147818555Y-126914529D01*
X147800001Y-126821250D01*
X147800001Y-125908750D01*
X147818555Y-125815471D01*
X147871394Y-125736393D01*
X147950472Y-125683554D01*
X148043751Y-125665000D01*
X148531251Y-125665000D01*
X148624530Y-125683554D01*
G37*
G36*
X154309530Y-145368554D02*
G01*
X154388608Y-145421393D01*
X154441447Y-145500471D01*
X154460001Y-145593750D01*
X154460001Y-146506250D01*
X154441447Y-146599529D01*
X154388608Y-146678607D01*
X154309530Y-146731446D01*
X154216251Y-146750000D01*
X153728751Y-146750000D01*
X153635472Y-146731446D01*
X153556394Y-146678607D01*
X153503555Y-146599529D01*
X153485001Y-146506250D01*
X153485001Y-145593750D01*
X153503555Y-145500471D01*
X153556394Y-145421393D01*
X153635472Y-145368554D01*
X153728751Y-145350000D01*
X154216251Y-145350000D01*
X154309530Y-145368554D01*
G37*
G36*
X152434530Y-145368554D02*
G01*
X152513608Y-145421393D01*
X152566447Y-145500471D01*
X152585001Y-145593750D01*
X152585001Y-146506250D01*
X152566447Y-146599529D01*
X152513608Y-146678607D01*
X152434530Y-146731446D01*
X152341251Y-146750000D01*
X151853751Y-146750000D01*
X151760472Y-146731446D01*
X151681394Y-146678607D01*
X151628555Y-146599529D01*
X151610001Y-146506250D01*
X151610001Y-145593750D01*
X151628555Y-145500471D01*
X151681394Y-145421393D01*
X151760472Y-145368554D01*
X151853751Y-145350000D01*
X152341251Y-145350000D01*
X152434530Y-145368554D01*
G37*
G36*
X159389530Y-125683554D02*
G01*
X159468608Y-125736393D01*
X159521447Y-125815471D01*
X159540001Y-125908750D01*
X159540001Y-126821250D01*
X159521447Y-126914529D01*
X159468608Y-126993607D01*
X159389530Y-127046446D01*
X159296251Y-127065000D01*
X158808751Y-127065000D01*
X158715472Y-127046446D01*
X158636394Y-126993607D01*
X158583555Y-126914529D01*
X158565001Y-126821250D01*
X158565001Y-125908750D01*
X158583555Y-125815471D01*
X158636394Y-125736393D01*
X158715472Y-125683554D01*
X158808751Y-125665000D01*
X159296251Y-125665000D01*
X159389530Y-125683554D01*
G37*
G36*
X157514530Y-125683554D02*
G01*
X157593608Y-125736393D01*
X157646447Y-125815471D01*
X157665001Y-125908750D01*
X157665001Y-126821250D01*
X157646447Y-126914529D01*
X157593608Y-126993607D01*
X157514530Y-127046446D01*
X157421251Y-127065000D01*
X156933751Y-127065000D01*
X156840472Y-127046446D01*
X156761394Y-126993607D01*
X156708555Y-126914529D01*
X156690001Y-126821250D01*
X156690001Y-125908750D01*
X156708555Y-125815471D01*
X156761394Y-125736393D01*
X156840472Y-125683554D01*
X156933751Y-125665000D01*
X157421251Y-125665000D01*
X157514530Y-125683554D01*
G37*
D34*
X152020001Y-126365000D03*
X155320001Y-126365000D03*
G36*
X99729530Y-128858554D02*
G01*
X99808608Y-128911393D01*
X99861447Y-128990471D01*
X99880001Y-129083750D01*
X99880001Y-129996250D01*
X99861447Y-130089529D01*
X99808608Y-130168607D01*
X99729530Y-130221446D01*
X99636251Y-130240000D01*
X99148751Y-130240000D01*
X99055472Y-130221446D01*
X98976394Y-130168607D01*
X98923555Y-130089529D01*
X98905001Y-129996250D01*
X98905001Y-129083750D01*
X98923555Y-128990471D01*
X98976394Y-128911393D01*
X99055472Y-128858554D01*
X99148751Y-128840000D01*
X99636251Y-128840000D01*
X99729530Y-128858554D01*
G37*
G36*
X101604530Y-128858554D02*
G01*
X101683608Y-128911393D01*
X101736447Y-128990471D01*
X101755001Y-129083750D01*
X101755001Y-129996250D01*
X101736447Y-130089529D01*
X101683608Y-130168607D01*
X101604530Y-130221446D01*
X101511251Y-130240000D01*
X101023751Y-130240000D01*
X100930472Y-130221446D01*
X100851394Y-130168607D01*
X100798555Y-130089529D01*
X100780001Y-129996250D01*
X100780001Y-129083750D01*
X100798555Y-128990471D01*
X100851394Y-128911393D01*
X100930472Y-128858554D01*
X101023751Y-128840000D01*
X101511251Y-128840000D01*
X101604530Y-128858554D01*
G37*
G36*
X101604530Y-132668554D02*
G01*
X101683608Y-132721393D01*
X101736447Y-132800471D01*
X101755001Y-132893750D01*
X101755001Y-133806250D01*
X101736447Y-133899529D01*
X101683608Y-133978607D01*
X101604530Y-134031446D01*
X101511251Y-134050000D01*
X101023751Y-134050000D01*
X100930472Y-134031446D01*
X100851394Y-133978607D01*
X100798555Y-133899529D01*
X100780001Y-133806250D01*
X100780001Y-132893750D01*
X100798555Y-132800471D01*
X100851394Y-132721393D01*
X100930472Y-132668554D01*
X101023751Y-132650000D01*
X101511251Y-132650000D01*
X101604530Y-132668554D01*
G37*
G36*
X99729530Y-132668554D02*
G01*
X99808608Y-132721393D01*
X99861447Y-132800471D01*
X99880001Y-132893750D01*
X99880001Y-133806250D01*
X99861447Y-133899529D01*
X99808608Y-133978607D01*
X99729530Y-134031446D01*
X99636251Y-134050000D01*
X99148751Y-134050000D01*
X99055472Y-134031446D01*
X98976394Y-133978607D01*
X98923555Y-133899529D01*
X98905001Y-133806250D01*
X98905001Y-132893750D01*
X98923555Y-132800471D01*
X98976394Y-132721393D01*
X99055472Y-132668554D01*
X99148751Y-132650000D01*
X99636251Y-132650000D01*
X99729530Y-132668554D01*
G37*
G36*
X170387404Y-118989418D02*
G01*
X170436067Y-119021934D01*
X170468583Y-119070597D01*
X170480001Y-119128000D01*
X170480001Y-120778000D01*
X170468583Y-120835403D01*
X170436067Y-120884066D01*
X170387404Y-120916582D01*
X170330001Y-120928000D01*
X170030001Y-120928000D01*
X169972598Y-120916582D01*
X169923935Y-120884066D01*
X169891419Y-120835403D01*
X169880001Y-120778000D01*
X169880001Y-119128000D01*
X169891419Y-119070597D01*
X169923935Y-119021934D01*
X169972598Y-118989418D01*
X170030001Y-118978000D01*
X170330001Y-118978000D01*
X170387404Y-118989418D01*
G37*
G36*
X171657404Y-118989418D02*
G01*
X171706067Y-119021934D01*
X171738583Y-119070597D01*
X171750001Y-119128000D01*
X171750001Y-120778000D01*
X171738583Y-120835403D01*
X171706067Y-120884066D01*
X171657404Y-120916582D01*
X171600001Y-120928000D01*
X171300001Y-120928000D01*
X171242598Y-120916582D01*
X171193935Y-120884066D01*
X171161419Y-120835403D01*
X171150001Y-120778000D01*
X171150001Y-119128000D01*
X171161419Y-119070597D01*
X171193935Y-119021934D01*
X171242598Y-118989418D01*
X171300001Y-118978000D01*
X171600001Y-118978000D01*
X171657404Y-118989418D01*
G37*
G36*
X172927404Y-118989418D02*
G01*
X172976067Y-119021934D01*
X173008583Y-119070597D01*
X173020001Y-119128000D01*
X173020001Y-120778000D01*
X173008583Y-120835403D01*
X172976067Y-120884066D01*
X172927404Y-120916582D01*
X172870001Y-120928000D01*
X172570001Y-120928000D01*
X172512598Y-120916582D01*
X172463935Y-120884066D01*
X172431419Y-120835403D01*
X172420001Y-120778000D01*
X172420001Y-119128000D01*
X172431419Y-119070597D01*
X172463935Y-119021934D01*
X172512598Y-118989418D01*
X172570001Y-118978000D01*
X172870001Y-118978000D01*
X172927404Y-118989418D01*
G37*
G36*
X174197404Y-118989418D02*
G01*
X174246067Y-119021934D01*
X174278583Y-119070597D01*
X174290001Y-119128000D01*
X174290001Y-120778000D01*
X174278583Y-120835403D01*
X174246067Y-120884066D01*
X174197404Y-120916582D01*
X174140001Y-120928000D01*
X173840001Y-120928000D01*
X173782598Y-120916582D01*
X173733935Y-120884066D01*
X173701419Y-120835403D01*
X173690001Y-120778000D01*
X173690001Y-119128000D01*
X173701419Y-119070597D01*
X173733935Y-119021934D01*
X173782598Y-118989418D01*
X173840001Y-118978000D01*
X174140001Y-118978000D01*
X174197404Y-118989418D01*
G37*
G36*
X175467404Y-118989418D02*
G01*
X175516067Y-119021934D01*
X175548583Y-119070597D01*
X175560001Y-119128000D01*
X175560001Y-120778000D01*
X175548583Y-120835403D01*
X175516067Y-120884066D01*
X175467404Y-120916582D01*
X175410001Y-120928000D01*
X175110001Y-120928000D01*
X175052598Y-120916582D01*
X175003935Y-120884066D01*
X174971419Y-120835403D01*
X174960001Y-120778000D01*
X174960001Y-119128000D01*
X174971419Y-119070597D01*
X175003935Y-119021934D01*
X175052598Y-118989418D01*
X175110001Y-118978000D01*
X175410001Y-118978000D01*
X175467404Y-118989418D01*
G37*
G36*
X176737404Y-118989418D02*
G01*
X176786067Y-119021934D01*
X176818583Y-119070597D01*
X176830001Y-119128000D01*
X176830001Y-120778000D01*
X176818583Y-120835403D01*
X176786067Y-120884066D01*
X176737404Y-120916582D01*
X176680001Y-120928000D01*
X176380001Y-120928000D01*
X176322598Y-120916582D01*
X176273935Y-120884066D01*
X176241419Y-120835403D01*
X176230001Y-120778000D01*
X176230001Y-119128000D01*
X176241419Y-119070597D01*
X176273935Y-119021934D01*
X176322598Y-118989418D01*
X176380001Y-118978000D01*
X176680001Y-118978000D01*
X176737404Y-118989418D01*
G37*
G36*
X178007404Y-118989418D02*
G01*
X178056067Y-119021934D01*
X178088583Y-119070597D01*
X178100001Y-119128000D01*
X178100001Y-120778000D01*
X178088583Y-120835403D01*
X178056067Y-120884066D01*
X178007404Y-120916582D01*
X177950001Y-120928000D01*
X177650001Y-120928000D01*
X177592598Y-120916582D01*
X177543935Y-120884066D01*
X177511419Y-120835403D01*
X177500001Y-120778000D01*
X177500001Y-119128000D01*
X177511419Y-119070597D01*
X177543935Y-119021934D01*
X177592598Y-118989418D01*
X177650001Y-118978000D01*
X177950001Y-118978000D01*
X178007404Y-118989418D01*
G37*
G36*
X178007404Y-123939418D02*
G01*
X178056067Y-123971934D01*
X178088583Y-124020597D01*
X178100001Y-124078000D01*
X178100001Y-125728000D01*
X178088583Y-125785403D01*
X178056067Y-125834066D01*
X178007404Y-125866582D01*
X177950001Y-125878000D01*
X177650001Y-125878000D01*
X177592598Y-125866582D01*
X177543935Y-125834066D01*
X177511419Y-125785403D01*
X177500001Y-125728000D01*
X177500001Y-124078000D01*
X177511419Y-124020597D01*
X177543935Y-123971934D01*
X177592598Y-123939418D01*
X177650001Y-123928000D01*
X177950001Y-123928000D01*
X178007404Y-123939418D01*
G37*
G36*
X176737404Y-123939418D02*
G01*
X176786067Y-123971934D01*
X176818583Y-124020597D01*
X176830001Y-124078000D01*
X176830001Y-125728000D01*
X176818583Y-125785403D01*
X176786067Y-125834066D01*
X176737404Y-125866582D01*
X176680001Y-125878000D01*
X176380001Y-125878000D01*
X176322598Y-125866582D01*
X176273935Y-125834066D01*
X176241419Y-125785403D01*
X176230001Y-125728000D01*
X176230001Y-124078000D01*
X176241419Y-124020597D01*
X176273935Y-123971934D01*
X176322598Y-123939418D01*
X176380001Y-123928000D01*
X176680001Y-123928000D01*
X176737404Y-123939418D01*
G37*
G36*
X175467404Y-123939418D02*
G01*
X175516067Y-123971934D01*
X175548583Y-124020597D01*
X175560001Y-124078000D01*
X175560001Y-125728000D01*
X175548583Y-125785403D01*
X175516067Y-125834066D01*
X175467404Y-125866582D01*
X175410001Y-125878000D01*
X175110001Y-125878000D01*
X175052598Y-125866582D01*
X175003935Y-125834066D01*
X174971419Y-125785403D01*
X174960001Y-125728000D01*
X174960001Y-124078000D01*
X174971419Y-124020597D01*
X175003935Y-123971934D01*
X175052598Y-123939418D01*
X175110001Y-123928000D01*
X175410001Y-123928000D01*
X175467404Y-123939418D01*
G37*
G36*
X174197404Y-123939418D02*
G01*
X174246067Y-123971934D01*
X174278583Y-124020597D01*
X174290001Y-124078000D01*
X174290001Y-125728000D01*
X174278583Y-125785403D01*
X174246067Y-125834066D01*
X174197404Y-125866582D01*
X174140001Y-125878000D01*
X173840001Y-125878000D01*
X173782598Y-125866582D01*
X173733935Y-125834066D01*
X173701419Y-125785403D01*
X173690001Y-125728000D01*
X173690001Y-124078000D01*
X173701419Y-124020597D01*
X173733935Y-123971934D01*
X173782598Y-123939418D01*
X173840001Y-123928000D01*
X174140001Y-123928000D01*
X174197404Y-123939418D01*
G37*
G36*
X172927404Y-123939418D02*
G01*
X172976067Y-123971934D01*
X173008583Y-124020597D01*
X173020001Y-124078000D01*
X173020001Y-125728000D01*
X173008583Y-125785403D01*
X172976067Y-125834066D01*
X172927404Y-125866582D01*
X172870001Y-125878000D01*
X172570001Y-125878000D01*
X172512598Y-125866582D01*
X172463935Y-125834066D01*
X172431419Y-125785403D01*
X172420001Y-125728000D01*
X172420001Y-124078000D01*
X172431419Y-124020597D01*
X172463935Y-123971934D01*
X172512598Y-123939418D01*
X172570001Y-123928000D01*
X172870001Y-123928000D01*
X172927404Y-123939418D01*
G37*
G36*
X171657404Y-123939418D02*
G01*
X171706067Y-123971934D01*
X171738583Y-124020597D01*
X171750001Y-124078000D01*
X171750001Y-125728000D01*
X171738583Y-125785403D01*
X171706067Y-125834066D01*
X171657404Y-125866582D01*
X171600001Y-125878000D01*
X171300001Y-125878000D01*
X171242598Y-125866582D01*
X171193935Y-125834066D01*
X171161419Y-125785403D01*
X171150001Y-125728000D01*
X171150001Y-124078000D01*
X171161419Y-124020597D01*
X171193935Y-123971934D01*
X171242598Y-123939418D01*
X171300001Y-123928000D01*
X171600001Y-123928000D01*
X171657404Y-123939418D01*
G37*
G36*
X170387404Y-123939418D02*
G01*
X170436067Y-123971934D01*
X170468583Y-124020597D01*
X170480001Y-124078000D01*
X170480001Y-125728000D01*
X170468583Y-125785403D01*
X170436067Y-125834066D01*
X170387404Y-125866582D01*
X170330001Y-125878000D01*
X170030001Y-125878000D01*
X169972598Y-125866582D01*
X169923935Y-125834066D01*
X169891419Y-125785403D01*
X169880001Y-125728000D01*
X169880001Y-124078000D01*
X169891419Y-124020597D01*
X169923935Y-123971934D01*
X169972598Y-123939418D01*
X170030001Y-123928000D01*
X170330001Y-123928000D01*
X170387404Y-123939418D01*
G37*
M02*
