G04 #@! TF.GenerationSoftware,KiCad,Pcbnew,5.99.0-unknown-43514a1~86~ubuntu18.04.1*
G04 #@! TF.CreationDate,2020-02-15T13:58:03+00:00*
G04 #@! TF.ProjectId,TX_BOARD,54585f42-4f41-4524-942e-6b696361645f,rev?*
G04 #@! TF.SameCoordinates,Original*
G04 #@! TF.FileFunction,Legend,Bot*
G04 #@! TF.FilePolarity,Positive*
%FSLAX46Y46*%
G04 Gerber Fmt 4.6, Leading zero omitted, Abs format (unit mm)*
G04 Created by KiCad (PCBNEW 5.99.0-unknown-43514a1~86~ubuntu18.04.1) date 2020-02-15 13:58:03*
%MOMM*%
%LPD*%
G01*
G04 APERTURE LIST*
%ADD10C,0.120000*%
%ADD11C,0.150000*%
G04 APERTURE END LIST*
D10*
X152325000Y-101843578D02*
X152325000Y-101326422D01*
X153745000Y-101843578D02*
X153745000Y-101326422D01*
X154865000Y-101794578D02*
X154865000Y-101277422D01*
X156285000Y-101794578D02*
X156285000Y-101277422D01*
X187289000Y-73676000D02*
X183389000Y-73676000D01*
X187289000Y-75676000D02*
X183389000Y-75676000D01*
X187289000Y-73676000D02*
X187289000Y-75676000D01*
X164898000Y-101794578D02*
X164898000Y-101277422D01*
X166318000Y-101794578D02*
X166318000Y-101277422D01*
X159945000Y-101794578D02*
X159945000Y-101277422D01*
X161365000Y-101794578D02*
X161365000Y-101277422D01*
X158745422Y-105906000D02*
X159262578Y-105906000D01*
X158745422Y-107326000D02*
X159262578Y-107326000D01*
X162485000Y-101794578D02*
X162485000Y-101277422D01*
X163905000Y-101794578D02*
X163905000Y-101277422D01*
X157405000Y-101794578D02*
X157405000Y-101277422D01*
X158825000Y-101794578D02*
X158825000Y-101277422D01*
X122940578Y-60400000D02*
X122423422Y-60400000D01*
X122940578Y-58980000D02*
X122423422Y-58980000D01*
X122423422Y-56440000D02*
X122940578Y-56440000D01*
X122423422Y-57860000D02*
X122940578Y-57860000D01*
X116384000Y-86032078D02*
X116384000Y-85514922D01*
X117804000Y-86032078D02*
X117804000Y-85514922D01*
X109272000Y-85983578D02*
X109272000Y-85466422D01*
X110692000Y-85983578D02*
X110692000Y-85466422D01*
X112701000Y-85983578D02*
X112701000Y-85466422D01*
X114121000Y-85983578D02*
X114121000Y-85466422D01*
X171359000Y-75676000D02*
X175259000Y-75676000D01*
X171359000Y-73676000D02*
X175259000Y-73676000D01*
X171359000Y-75676000D02*
X171359000Y-73676000D01*
X171359000Y-79486000D02*
X175259000Y-79486000D01*
X171359000Y-77486000D02*
X175259000Y-77486000D01*
X171359000Y-79486000D02*
X171359000Y-77486000D01*
X182789000Y-79486000D02*
X186689000Y-79486000D01*
X182789000Y-77486000D02*
X186689000Y-77486000D01*
X182789000Y-79486000D02*
X182789000Y-77486000D01*
X130687578Y-55066000D02*
X130170422Y-55066000D01*
X130687578Y-53646000D02*
X130170422Y-53646000D01*
X140847578Y-55066000D02*
X140330422Y-55066000D01*
X140847578Y-53646000D02*
X140330422Y-53646000D01*
X151007578Y-55066000D02*
X150490422Y-55066000D01*
X151007578Y-53646000D02*
X150490422Y-53646000D01*
X161167578Y-55066000D02*
X160650422Y-55066000D01*
X161167578Y-53646000D02*
X160650422Y-53646000D01*
X130687578Y-60146000D02*
X130170422Y-60146000D01*
X130687578Y-58726000D02*
X130170422Y-58726000D01*
X140847578Y-60146000D02*
X140330422Y-60146000D01*
X140847578Y-58726000D02*
X140330422Y-58726000D01*
X151007578Y-60146000D02*
X150490422Y-60146000D01*
X151007578Y-58726000D02*
X150490422Y-58726000D01*
X161167578Y-60146000D02*
X160650422Y-60146000D01*
X161167578Y-58726000D02*
X160650422Y-58726000D01*
X130687578Y-75386000D02*
X130170422Y-75386000D01*
X130687578Y-73966000D02*
X130170422Y-73966000D01*
X140847578Y-75386000D02*
X140330422Y-75386000D01*
X140847578Y-73966000D02*
X140330422Y-73966000D01*
X151007578Y-75386000D02*
X150490422Y-75386000D01*
X151007578Y-73966000D02*
X150490422Y-73966000D01*
X161167578Y-75386000D02*
X160650422Y-75386000D01*
X161167578Y-73966000D02*
X160650422Y-73966000D01*
X130170422Y-89206000D02*
X130687578Y-89206000D01*
X130170422Y-90626000D02*
X130687578Y-90626000D01*
X140330422Y-89206000D02*
X140847578Y-89206000D01*
X140330422Y-90626000D02*
X140847578Y-90626000D01*
X150490422Y-89206000D02*
X151007578Y-89206000D01*
X150490422Y-90626000D02*
X151007578Y-90626000D01*
X160650422Y-89206000D02*
X161167578Y-89206000D01*
X160650422Y-90626000D02*
X161167578Y-90626000D01*
X158745422Y-109844000D02*
X159262578Y-109844000D01*
X158745422Y-111264000D02*
X159262578Y-111264000D01*
X110720000Y-56215000D02*
X114630000Y-56215000D01*
X110720000Y-58085000D02*
X110720000Y-56215000D01*
X114630000Y-58085000D02*
X110720000Y-58085000D01*
X115800000Y-56215000D02*
X119710000Y-56215000D01*
X115800000Y-58085000D02*
X115800000Y-56215000D01*
X119710000Y-58085000D02*
X115800000Y-58085000D01*
D11*
X153550857Y-99512380D02*
X153884190Y-99036190D01*
X154122285Y-99512380D02*
X154122285Y-98512380D01*
X153741333Y-98512380D01*
X153646095Y-98560000D01*
X153598476Y-98607619D01*
X153550857Y-98702857D01*
X153550857Y-98845714D01*
X153598476Y-98940952D01*
X153646095Y-98988571D01*
X153741333Y-99036190D01*
X154122285Y-99036190D01*
X152598476Y-99512380D02*
X153169904Y-99512380D01*
X152884190Y-99512380D02*
X152884190Y-98512380D01*
X152979428Y-98655238D01*
X153074666Y-98750476D01*
X153169904Y-98798095D01*
X151646095Y-99512380D02*
X152217523Y-99512380D01*
X151931809Y-99512380D02*
X151931809Y-98512380D01*
X152027047Y-98655238D01*
X152122285Y-98750476D01*
X152217523Y-98798095D01*
X156598857Y-99511880D02*
X156932190Y-99035690D01*
X157170285Y-99511880D02*
X157170285Y-98511880D01*
X156789333Y-98511880D01*
X156694095Y-98559500D01*
X156646476Y-98607119D01*
X156598857Y-98702357D01*
X156598857Y-98845214D01*
X156646476Y-98940452D01*
X156694095Y-98988071D01*
X156789333Y-99035690D01*
X157170285Y-99035690D01*
X155646476Y-99511880D02*
X156217904Y-99511880D01*
X155932190Y-99511880D02*
X155932190Y-98511880D01*
X156027428Y-98654738D01*
X156122666Y-98749976D01*
X156217904Y-98797595D01*
X155027428Y-98511880D02*
X154932190Y-98511880D01*
X154836952Y-98559500D01*
X154789333Y-98607119D01*
X154741714Y-98702357D01*
X154694095Y-98892833D01*
X154694095Y-99130928D01*
X154741714Y-99321404D01*
X154789333Y-99416642D01*
X154836952Y-99464261D01*
X154932190Y-99511880D01*
X155027428Y-99511880D01*
X155122666Y-99464261D01*
X155170285Y-99416642D01*
X155217904Y-99321404D01*
X155265523Y-99130928D01*
X155265523Y-98892833D01*
X155217904Y-98702357D01*
X155170285Y-98607119D01*
X155122666Y-98559500D01*
X155027428Y-98511880D01*
X185777095Y-73128380D02*
X185777095Y-72128380D01*
X185539000Y-72128380D01*
X185396142Y-72176000D01*
X185300904Y-72271238D01*
X185253285Y-72366476D01*
X185205666Y-72556952D01*
X185205666Y-72699809D01*
X185253285Y-72890285D01*
X185300904Y-72985523D01*
X185396142Y-73080761D01*
X185539000Y-73128380D01*
X185777095Y-73128380D01*
X184348523Y-72461714D02*
X184348523Y-73128380D01*
X184586619Y-72080761D02*
X184824714Y-72795047D01*
X184205666Y-72795047D01*
X165774666Y-99511880D02*
X166108000Y-99035690D01*
X166346095Y-99511880D02*
X166346095Y-98511880D01*
X165965142Y-98511880D01*
X165869904Y-98559500D01*
X165822285Y-98607119D01*
X165774666Y-98702357D01*
X165774666Y-98845214D01*
X165822285Y-98940452D01*
X165869904Y-98988071D01*
X165965142Y-99035690D01*
X166346095Y-99035690D01*
X165298476Y-99511880D02*
X165108000Y-99511880D01*
X165012761Y-99464261D01*
X164965142Y-99416642D01*
X164869904Y-99273785D01*
X164822285Y-99083309D01*
X164822285Y-98702357D01*
X164869904Y-98607119D01*
X164917523Y-98559500D01*
X165012761Y-98511880D01*
X165203238Y-98511880D01*
X165298476Y-98559500D01*
X165346095Y-98607119D01*
X165393714Y-98702357D01*
X165393714Y-98940452D01*
X165346095Y-99035690D01*
X165298476Y-99083309D01*
X165203238Y-99130928D01*
X165012761Y-99130928D01*
X164917523Y-99083309D01*
X164869904Y-99035690D01*
X164822285Y-98940452D01*
X160821666Y-99448380D02*
X161155000Y-98972190D01*
X161393095Y-99448380D02*
X161393095Y-98448380D01*
X161012142Y-98448380D01*
X160916904Y-98496000D01*
X160869285Y-98543619D01*
X160821666Y-98638857D01*
X160821666Y-98781714D01*
X160869285Y-98876952D01*
X160916904Y-98924571D01*
X161012142Y-98972190D01*
X161393095Y-98972190D01*
X159964523Y-98781714D02*
X159964523Y-99448380D01*
X160202619Y-98400761D02*
X160440714Y-99115047D01*
X159821666Y-99115047D01*
X161647142Y-104417333D02*
X161694761Y-104369714D01*
X161742380Y-104226857D01*
X161742380Y-104131619D01*
X161694761Y-103988761D01*
X161599523Y-103893523D01*
X161504285Y-103845904D01*
X161313809Y-103798285D01*
X161170952Y-103798285D01*
X160980476Y-103845904D01*
X160885238Y-103893523D01*
X160790000Y-103988761D01*
X160742380Y-104131619D01*
X160742380Y-104226857D01*
X160790000Y-104369714D01*
X160837619Y-104417333D01*
X161742380Y-105369714D02*
X161742380Y-104798285D01*
X161742380Y-105084000D02*
X160742380Y-105084000D01*
X160885238Y-104988761D01*
X160980476Y-104893523D01*
X161028095Y-104798285D01*
X163361666Y-99448380D02*
X163695000Y-98972190D01*
X163933095Y-99448380D02*
X163933095Y-98448380D01*
X163552142Y-98448380D01*
X163456904Y-98496000D01*
X163409285Y-98543619D01*
X163361666Y-98638857D01*
X163361666Y-98781714D01*
X163409285Y-98876952D01*
X163456904Y-98924571D01*
X163552142Y-98972190D01*
X163933095Y-98972190D01*
X162790238Y-98876952D02*
X162885476Y-98829333D01*
X162933095Y-98781714D01*
X162980714Y-98686476D01*
X162980714Y-98638857D01*
X162933095Y-98543619D01*
X162885476Y-98496000D01*
X162790238Y-98448380D01*
X162599761Y-98448380D01*
X162504523Y-98496000D01*
X162456904Y-98543619D01*
X162409285Y-98638857D01*
X162409285Y-98686476D01*
X162456904Y-98781714D01*
X162504523Y-98829333D01*
X162599761Y-98876952D01*
X162790238Y-98876952D01*
X162885476Y-98924571D01*
X162933095Y-98972190D01*
X162980714Y-99067428D01*
X162980714Y-99257904D01*
X162933095Y-99353142D01*
X162885476Y-99400761D01*
X162790238Y-99448380D01*
X162599761Y-99448380D01*
X162504523Y-99400761D01*
X162456904Y-99353142D01*
X162409285Y-99257904D01*
X162409285Y-99067428D01*
X162456904Y-98972190D01*
X162504523Y-98924571D01*
X162599761Y-98876952D01*
X158662666Y-99511880D02*
X158996000Y-99035690D01*
X159234095Y-99511880D02*
X159234095Y-98511880D01*
X158853142Y-98511880D01*
X158757904Y-98559500D01*
X158710285Y-98607119D01*
X158662666Y-98702357D01*
X158662666Y-98845214D01*
X158710285Y-98940452D01*
X158757904Y-98988071D01*
X158853142Y-99035690D01*
X159234095Y-99035690D01*
X158329333Y-98511880D02*
X157662666Y-98511880D01*
X158091238Y-99511880D01*
X125642666Y-60142380D02*
X125976000Y-59666190D01*
X126214095Y-60142380D02*
X126214095Y-59142380D01*
X125833142Y-59142380D01*
X125737904Y-59190000D01*
X125690285Y-59237619D01*
X125642666Y-59332857D01*
X125642666Y-59475714D01*
X125690285Y-59570952D01*
X125737904Y-59618571D01*
X125833142Y-59666190D01*
X126214095Y-59666190D01*
X124785523Y-59142380D02*
X124976000Y-59142380D01*
X125071238Y-59190000D01*
X125118857Y-59237619D01*
X125214095Y-59380476D01*
X125261714Y-59570952D01*
X125261714Y-59951904D01*
X125214095Y-60047142D01*
X125166476Y-60094761D01*
X125071238Y-60142380D01*
X124880761Y-60142380D01*
X124785523Y-60094761D01*
X124737904Y-60047142D01*
X124690285Y-59951904D01*
X124690285Y-59713809D01*
X124737904Y-59618571D01*
X124785523Y-59570952D01*
X124880761Y-59523333D01*
X125071238Y-59523333D01*
X125166476Y-59570952D01*
X125214095Y-59618571D01*
X125261714Y-59713809D01*
X125642666Y-57602380D02*
X125976000Y-57126190D01*
X126214095Y-57602380D02*
X126214095Y-56602380D01*
X125833142Y-56602380D01*
X125737904Y-56650000D01*
X125690285Y-56697619D01*
X125642666Y-56792857D01*
X125642666Y-56935714D01*
X125690285Y-57030952D01*
X125737904Y-57078571D01*
X125833142Y-57126190D01*
X126214095Y-57126190D01*
X124737904Y-56602380D02*
X125214095Y-56602380D01*
X125261714Y-57078571D01*
X125214095Y-57030952D01*
X125118857Y-56983333D01*
X124880761Y-56983333D01*
X124785523Y-57030952D01*
X124737904Y-57078571D01*
X124690285Y-57173809D01*
X124690285Y-57411904D01*
X124737904Y-57507142D01*
X124785523Y-57554761D01*
X124880761Y-57602380D01*
X125118857Y-57602380D01*
X125214095Y-57554761D01*
X125261714Y-57507142D01*
X119196380Y-85606833D02*
X118720190Y-85273500D01*
X119196380Y-85035404D02*
X118196380Y-85035404D01*
X118196380Y-85416357D01*
X118244000Y-85511595D01*
X118291619Y-85559214D01*
X118386857Y-85606833D01*
X118529714Y-85606833D01*
X118624952Y-85559214D01*
X118672571Y-85511595D01*
X118720190Y-85416357D01*
X118720190Y-85035404D01*
X118196380Y-85940166D02*
X118196380Y-86559214D01*
X118577333Y-86225880D01*
X118577333Y-86368738D01*
X118624952Y-86463976D01*
X118672571Y-86511595D01*
X118767809Y-86559214D01*
X119005904Y-86559214D01*
X119101142Y-86511595D01*
X119148761Y-86463976D01*
X119196380Y-86368738D01*
X119196380Y-86083023D01*
X119148761Y-85987785D01*
X119101142Y-85940166D01*
X112084380Y-85558333D02*
X111608190Y-85225000D01*
X112084380Y-84986904D02*
X111084380Y-84986904D01*
X111084380Y-85367857D01*
X111132000Y-85463095D01*
X111179619Y-85510714D01*
X111274857Y-85558333D01*
X111417714Y-85558333D01*
X111512952Y-85510714D01*
X111560571Y-85463095D01*
X111608190Y-85367857D01*
X111608190Y-84986904D01*
X111179619Y-85939285D02*
X111132000Y-85986904D01*
X111084380Y-86082142D01*
X111084380Y-86320238D01*
X111132000Y-86415476D01*
X111179619Y-86463095D01*
X111274857Y-86510714D01*
X111370095Y-86510714D01*
X111512952Y-86463095D01*
X112084380Y-85891666D01*
X112084380Y-86510714D01*
X115513380Y-85558333D02*
X115037190Y-85225000D01*
X115513380Y-84986904D02*
X114513380Y-84986904D01*
X114513380Y-85367857D01*
X114561000Y-85463095D01*
X114608619Y-85510714D01*
X114703857Y-85558333D01*
X114846714Y-85558333D01*
X114941952Y-85510714D01*
X114989571Y-85463095D01*
X115037190Y-85367857D01*
X115037190Y-84986904D01*
X115513380Y-86510714D02*
X115513380Y-85939285D01*
X115513380Y-86225000D02*
X114513380Y-86225000D01*
X114656238Y-86129761D01*
X114751476Y-86034523D01*
X114799095Y-85939285D01*
X174347095Y-73096380D02*
X174347095Y-72096380D01*
X174109000Y-72096380D01*
X173966142Y-72144000D01*
X173870904Y-72239238D01*
X173823285Y-72334476D01*
X173775666Y-72524952D01*
X173775666Y-72667809D01*
X173823285Y-72858285D01*
X173870904Y-72953523D01*
X173966142Y-73048761D01*
X174109000Y-73096380D01*
X174347095Y-73096380D01*
X173442333Y-72096380D02*
X172823285Y-72096380D01*
X173156619Y-72477333D01*
X173013761Y-72477333D01*
X172918523Y-72524952D01*
X172870904Y-72572571D01*
X172823285Y-72667809D01*
X172823285Y-72905904D01*
X172870904Y-73001142D01*
X172918523Y-73048761D01*
X173013761Y-73096380D01*
X173299476Y-73096380D01*
X173394714Y-73048761D01*
X173442333Y-73001142D01*
X174347095Y-80938380D02*
X174347095Y-79938380D01*
X174109000Y-79938380D01*
X173966142Y-79986000D01*
X173870904Y-80081238D01*
X173823285Y-80176476D01*
X173775666Y-80366952D01*
X173775666Y-80509809D01*
X173823285Y-80700285D01*
X173870904Y-80795523D01*
X173966142Y-80890761D01*
X174109000Y-80938380D01*
X174347095Y-80938380D01*
X173394714Y-80033619D02*
X173347095Y-79986000D01*
X173251857Y-79938380D01*
X173013761Y-79938380D01*
X172918523Y-79986000D01*
X172870904Y-80033619D01*
X172823285Y-80128857D01*
X172823285Y-80224095D01*
X172870904Y-80366952D01*
X173442333Y-80938380D01*
X172823285Y-80938380D01*
X185777095Y-80938380D02*
X185777095Y-79938380D01*
X185539000Y-79938380D01*
X185396142Y-79986000D01*
X185300904Y-80081238D01*
X185253285Y-80176476D01*
X185205666Y-80366952D01*
X185205666Y-80509809D01*
X185253285Y-80700285D01*
X185300904Y-80795523D01*
X185396142Y-80890761D01*
X185539000Y-80938380D01*
X185777095Y-80938380D01*
X184253285Y-80938380D02*
X184824714Y-80938380D01*
X184539000Y-80938380D02*
X184539000Y-79938380D01*
X184634238Y-80081238D01*
X184729476Y-80176476D01*
X184824714Y-80224095D01*
X131071857Y-53063142D02*
X131119476Y-53110761D01*
X131262333Y-53158380D01*
X131357571Y-53158380D01*
X131500428Y-53110761D01*
X131595666Y-53015523D01*
X131643285Y-52920285D01*
X131690904Y-52729809D01*
X131690904Y-52586952D01*
X131643285Y-52396476D01*
X131595666Y-52301238D01*
X131500428Y-52206000D01*
X131357571Y-52158380D01*
X131262333Y-52158380D01*
X131119476Y-52206000D01*
X131071857Y-52253619D01*
X130738523Y-52158380D02*
X130071857Y-52158380D01*
X130500428Y-53158380D01*
X129500428Y-52158380D02*
X129405190Y-52158380D01*
X129309952Y-52206000D01*
X129262333Y-52253619D01*
X129214714Y-52348857D01*
X129167095Y-52539333D01*
X129167095Y-52777428D01*
X129214714Y-52967904D01*
X129262333Y-53063142D01*
X129309952Y-53110761D01*
X129405190Y-53158380D01*
X129500428Y-53158380D01*
X129595666Y-53110761D01*
X129643285Y-53063142D01*
X129690904Y-52967904D01*
X129738523Y-52777428D01*
X129738523Y-52539333D01*
X129690904Y-52348857D01*
X129643285Y-52253619D01*
X129595666Y-52206000D01*
X129500428Y-52158380D01*
X141231857Y-53063142D02*
X141279476Y-53110761D01*
X141422333Y-53158380D01*
X141517571Y-53158380D01*
X141660428Y-53110761D01*
X141755666Y-53015523D01*
X141803285Y-52920285D01*
X141850904Y-52729809D01*
X141850904Y-52586952D01*
X141803285Y-52396476D01*
X141755666Y-52301238D01*
X141660428Y-52206000D01*
X141517571Y-52158380D01*
X141422333Y-52158380D01*
X141279476Y-52206000D01*
X141231857Y-52253619D01*
X140374714Y-52158380D02*
X140565190Y-52158380D01*
X140660428Y-52206000D01*
X140708047Y-52253619D01*
X140803285Y-52396476D01*
X140850904Y-52586952D01*
X140850904Y-52967904D01*
X140803285Y-53063142D01*
X140755666Y-53110761D01*
X140660428Y-53158380D01*
X140469952Y-53158380D01*
X140374714Y-53110761D01*
X140327095Y-53063142D01*
X140279476Y-52967904D01*
X140279476Y-52729809D01*
X140327095Y-52634571D01*
X140374714Y-52586952D01*
X140469952Y-52539333D01*
X140660428Y-52539333D01*
X140755666Y-52586952D01*
X140803285Y-52634571D01*
X140850904Y-52729809D01*
X139803285Y-53158380D02*
X139612809Y-53158380D01*
X139517571Y-53110761D01*
X139469952Y-53063142D01*
X139374714Y-52920285D01*
X139327095Y-52729809D01*
X139327095Y-52348857D01*
X139374714Y-52253619D01*
X139422333Y-52206000D01*
X139517571Y-52158380D01*
X139708047Y-52158380D01*
X139803285Y-52206000D01*
X139850904Y-52253619D01*
X139898523Y-52348857D01*
X139898523Y-52586952D01*
X139850904Y-52682190D01*
X139803285Y-52729809D01*
X139708047Y-52777428D01*
X139517571Y-52777428D01*
X139422333Y-52729809D01*
X139374714Y-52682190D01*
X139327095Y-52586952D01*
X151391857Y-53063142D02*
X151439476Y-53110761D01*
X151582333Y-53158380D01*
X151677571Y-53158380D01*
X151820428Y-53110761D01*
X151915666Y-53015523D01*
X151963285Y-52920285D01*
X152010904Y-52729809D01*
X152010904Y-52586952D01*
X151963285Y-52396476D01*
X151915666Y-52301238D01*
X151820428Y-52206000D01*
X151677571Y-52158380D01*
X151582333Y-52158380D01*
X151439476Y-52206000D01*
X151391857Y-52253619D01*
X150534714Y-52158380D02*
X150725190Y-52158380D01*
X150820428Y-52206000D01*
X150868047Y-52253619D01*
X150963285Y-52396476D01*
X151010904Y-52586952D01*
X151010904Y-52967904D01*
X150963285Y-53063142D01*
X150915666Y-53110761D01*
X150820428Y-53158380D01*
X150629952Y-53158380D01*
X150534714Y-53110761D01*
X150487095Y-53063142D01*
X150439476Y-52967904D01*
X150439476Y-52729809D01*
X150487095Y-52634571D01*
X150534714Y-52586952D01*
X150629952Y-52539333D01*
X150820428Y-52539333D01*
X150915666Y-52586952D01*
X150963285Y-52634571D01*
X151010904Y-52729809D01*
X149868047Y-52586952D02*
X149963285Y-52539333D01*
X150010904Y-52491714D01*
X150058523Y-52396476D01*
X150058523Y-52348857D01*
X150010904Y-52253619D01*
X149963285Y-52206000D01*
X149868047Y-52158380D01*
X149677571Y-52158380D01*
X149582333Y-52206000D01*
X149534714Y-52253619D01*
X149487095Y-52348857D01*
X149487095Y-52396476D01*
X149534714Y-52491714D01*
X149582333Y-52539333D01*
X149677571Y-52586952D01*
X149868047Y-52586952D01*
X149963285Y-52634571D01*
X150010904Y-52682190D01*
X150058523Y-52777428D01*
X150058523Y-52967904D01*
X150010904Y-53063142D01*
X149963285Y-53110761D01*
X149868047Y-53158380D01*
X149677571Y-53158380D01*
X149582333Y-53110761D01*
X149534714Y-53063142D01*
X149487095Y-52967904D01*
X149487095Y-52777428D01*
X149534714Y-52682190D01*
X149582333Y-52634571D01*
X149677571Y-52586952D01*
X161551857Y-53063142D02*
X161599476Y-53110761D01*
X161742333Y-53158380D01*
X161837571Y-53158380D01*
X161980428Y-53110761D01*
X162075666Y-53015523D01*
X162123285Y-52920285D01*
X162170904Y-52729809D01*
X162170904Y-52586952D01*
X162123285Y-52396476D01*
X162075666Y-52301238D01*
X161980428Y-52206000D01*
X161837571Y-52158380D01*
X161742333Y-52158380D01*
X161599476Y-52206000D01*
X161551857Y-52253619D01*
X160694714Y-52158380D02*
X160885190Y-52158380D01*
X160980428Y-52206000D01*
X161028047Y-52253619D01*
X161123285Y-52396476D01*
X161170904Y-52586952D01*
X161170904Y-52967904D01*
X161123285Y-53063142D01*
X161075666Y-53110761D01*
X160980428Y-53158380D01*
X160789952Y-53158380D01*
X160694714Y-53110761D01*
X160647095Y-53063142D01*
X160599476Y-52967904D01*
X160599476Y-52729809D01*
X160647095Y-52634571D01*
X160694714Y-52586952D01*
X160789952Y-52539333D01*
X160980428Y-52539333D01*
X161075666Y-52586952D01*
X161123285Y-52634571D01*
X161170904Y-52729809D01*
X160266142Y-52158380D02*
X159599476Y-52158380D01*
X160028047Y-53158380D01*
X131071857Y-58143142D02*
X131119476Y-58190761D01*
X131262333Y-58238380D01*
X131357571Y-58238380D01*
X131500428Y-58190761D01*
X131595666Y-58095523D01*
X131643285Y-58000285D01*
X131690904Y-57809809D01*
X131690904Y-57666952D01*
X131643285Y-57476476D01*
X131595666Y-57381238D01*
X131500428Y-57286000D01*
X131357571Y-57238380D01*
X131262333Y-57238380D01*
X131119476Y-57286000D01*
X131071857Y-57333619D01*
X130214714Y-57238380D02*
X130405190Y-57238380D01*
X130500428Y-57286000D01*
X130548047Y-57333619D01*
X130643285Y-57476476D01*
X130690904Y-57666952D01*
X130690904Y-58047904D01*
X130643285Y-58143142D01*
X130595666Y-58190761D01*
X130500428Y-58238380D01*
X130309952Y-58238380D01*
X130214714Y-58190761D01*
X130167095Y-58143142D01*
X130119476Y-58047904D01*
X130119476Y-57809809D01*
X130167095Y-57714571D01*
X130214714Y-57666952D01*
X130309952Y-57619333D01*
X130500428Y-57619333D01*
X130595666Y-57666952D01*
X130643285Y-57714571D01*
X130690904Y-57809809D01*
X129262333Y-57238380D02*
X129452809Y-57238380D01*
X129548047Y-57286000D01*
X129595666Y-57333619D01*
X129690904Y-57476476D01*
X129738523Y-57666952D01*
X129738523Y-58047904D01*
X129690904Y-58143142D01*
X129643285Y-58190761D01*
X129548047Y-58238380D01*
X129357571Y-58238380D01*
X129262333Y-58190761D01*
X129214714Y-58143142D01*
X129167095Y-58047904D01*
X129167095Y-57809809D01*
X129214714Y-57714571D01*
X129262333Y-57666952D01*
X129357571Y-57619333D01*
X129548047Y-57619333D01*
X129643285Y-57666952D01*
X129690904Y-57714571D01*
X129738523Y-57809809D01*
X141231857Y-58143142D02*
X141279476Y-58190761D01*
X141422333Y-58238380D01*
X141517571Y-58238380D01*
X141660428Y-58190761D01*
X141755666Y-58095523D01*
X141803285Y-58000285D01*
X141850904Y-57809809D01*
X141850904Y-57666952D01*
X141803285Y-57476476D01*
X141755666Y-57381238D01*
X141660428Y-57286000D01*
X141517571Y-57238380D01*
X141422333Y-57238380D01*
X141279476Y-57286000D01*
X141231857Y-57333619D01*
X140374714Y-57238380D02*
X140565190Y-57238380D01*
X140660428Y-57286000D01*
X140708047Y-57333619D01*
X140803285Y-57476476D01*
X140850904Y-57666952D01*
X140850904Y-58047904D01*
X140803285Y-58143142D01*
X140755666Y-58190761D01*
X140660428Y-58238380D01*
X140469952Y-58238380D01*
X140374714Y-58190761D01*
X140327095Y-58143142D01*
X140279476Y-58047904D01*
X140279476Y-57809809D01*
X140327095Y-57714571D01*
X140374714Y-57666952D01*
X140469952Y-57619333D01*
X140660428Y-57619333D01*
X140755666Y-57666952D01*
X140803285Y-57714571D01*
X140850904Y-57809809D01*
X139374714Y-57238380D02*
X139850904Y-57238380D01*
X139898523Y-57714571D01*
X139850904Y-57666952D01*
X139755666Y-57619333D01*
X139517571Y-57619333D01*
X139422333Y-57666952D01*
X139374714Y-57714571D01*
X139327095Y-57809809D01*
X139327095Y-58047904D01*
X139374714Y-58143142D01*
X139422333Y-58190761D01*
X139517571Y-58238380D01*
X139755666Y-58238380D01*
X139850904Y-58190761D01*
X139898523Y-58143142D01*
X151391857Y-58143142D02*
X151439476Y-58190761D01*
X151582333Y-58238380D01*
X151677571Y-58238380D01*
X151820428Y-58190761D01*
X151915666Y-58095523D01*
X151963285Y-58000285D01*
X152010904Y-57809809D01*
X152010904Y-57666952D01*
X151963285Y-57476476D01*
X151915666Y-57381238D01*
X151820428Y-57286000D01*
X151677571Y-57238380D01*
X151582333Y-57238380D01*
X151439476Y-57286000D01*
X151391857Y-57333619D01*
X150534714Y-57238380D02*
X150725190Y-57238380D01*
X150820428Y-57286000D01*
X150868047Y-57333619D01*
X150963285Y-57476476D01*
X151010904Y-57666952D01*
X151010904Y-58047904D01*
X150963285Y-58143142D01*
X150915666Y-58190761D01*
X150820428Y-58238380D01*
X150629952Y-58238380D01*
X150534714Y-58190761D01*
X150487095Y-58143142D01*
X150439476Y-58047904D01*
X150439476Y-57809809D01*
X150487095Y-57714571D01*
X150534714Y-57666952D01*
X150629952Y-57619333D01*
X150820428Y-57619333D01*
X150915666Y-57666952D01*
X150963285Y-57714571D01*
X151010904Y-57809809D01*
X149582333Y-57571714D02*
X149582333Y-58238380D01*
X149820428Y-57190761D02*
X150058523Y-57905047D01*
X149439476Y-57905047D01*
X161551857Y-58143142D02*
X161599476Y-58190761D01*
X161742333Y-58238380D01*
X161837571Y-58238380D01*
X161980428Y-58190761D01*
X162075666Y-58095523D01*
X162123285Y-58000285D01*
X162170904Y-57809809D01*
X162170904Y-57666952D01*
X162123285Y-57476476D01*
X162075666Y-57381238D01*
X161980428Y-57286000D01*
X161837571Y-57238380D01*
X161742333Y-57238380D01*
X161599476Y-57286000D01*
X161551857Y-57333619D01*
X160694714Y-57238380D02*
X160885190Y-57238380D01*
X160980428Y-57286000D01*
X161028047Y-57333619D01*
X161123285Y-57476476D01*
X161170904Y-57666952D01*
X161170904Y-58047904D01*
X161123285Y-58143142D01*
X161075666Y-58190761D01*
X160980428Y-58238380D01*
X160789952Y-58238380D01*
X160694714Y-58190761D01*
X160647095Y-58143142D01*
X160599476Y-58047904D01*
X160599476Y-57809809D01*
X160647095Y-57714571D01*
X160694714Y-57666952D01*
X160789952Y-57619333D01*
X160980428Y-57619333D01*
X161075666Y-57666952D01*
X161123285Y-57714571D01*
X161170904Y-57809809D01*
X160266142Y-57238380D02*
X159647095Y-57238380D01*
X159980428Y-57619333D01*
X159837571Y-57619333D01*
X159742333Y-57666952D01*
X159694714Y-57714571D01*
X159647095Y-57809809D01*
X159647095Y-58047904D01*
X159694714Y-58143142D01*
X159742333Y-58190761D01*
X159837571Y-58238380D01*
X160123285Y-58238380D01*
X160218523Y-58190761D01*
X160266142Y-58143142D01*
X131071857Y-73383142D02*
X131119476Y-73430761D01*
X131262333Y-73478380D01*
X131357571Y-73478380D01*
X131500428Y-73430761D01*
X131595666Y-73335523D01*
X131643285Y-73240285D01*
X131690904Y-73049809D01*
X131690904Y-72906952D01*
X131643285Y-72716476D01*
X131595666Y-72621238D01*
X131500428Y-72526000D01*
X131357571Y-72478380D01*
X131262333Y-72478380D01*
X131119476Y-72526000D01*
X131071857Y-72573619D01*
X130214714Y-72478380D02*
X130405190Y-72478380D01*
X130500428Y-72526000D01*
X130548047Y-72573619D01*
X130643285Y-72716476D01*
X130690904Y-72906952D01*
X130690904Y-73287904D01*
X130643285Y-73383142D01*
X130595666Y-73430761D01*
X130500428Y-73478380D01*
X130309952Y-73478380D01*
X130214714Y-73430761D01*
X130167095Y-73383142D01*
X130119476Y-73287904D01*
X130119476Y-73049809D01*
X130167095Y-72954571D01*
X130214714Y-72906952D01*
X130309952Y-72859333D01*
X130500428Y-72859333D01*
X130595666Y-72906952D01*
X130643285Y-72954571D01*
X130690904Y-73049809D01*
X129738523Y-72573619D02*
X129690904Y-72526000D01*
X129595666Y-72478380D01*
X129357571Y-72478380D01*
X129262333Y-72526000D01*
X129214714Y-72573619D01*
X129167095Y-72668857D01*
X129167095Y-72764095D01*
X129214714Y-72906952D01*
X129786142Y-73478380D01*
X129167095Y-73478380D01*
X141231857Y-73383142D02*
X141279476Y-73430761D01*
X141422333Y-73478380D01*
X141517571Y-73478380D01*
X141660428Y-73430761D01*
X141755666Y-73335523D01*
X141803285Y-73240285D01*
X141850904Y-73049809D01*
X141850904Y-72906952D01*
X141803285Y-72716476D01*
X141755666Y-72621238D01*
X141660428Y-72526000D01*
X141517571Y-72478380D01*
X141422333Y-72478380D01*
X141279476Y-72526000D01*
X141231857Y-72573619D01*
X140374714Y-72478380D02*
X140565190Y-72478380D01*
X140660428Y-72526000D01*
X140708047Y-72573619D01*
X140803285Y-72716476D01*
X140850904Y-72906952D01*
X140850904Y-73287904D01*
X140803285Y-73383142D01*
X140755666Y-73430761D01*
X140660428Y-73478380D01*
X140469952Y-73478380D01*
X140374714Y-73430761D01*
X140327095Y-73383142D01*
X140279476Y-73287904D01*
X140279476Y-73049809D01*
X140327095Y-72954571D01*
X140374714Y-72906952D01*
X140469952Y-72859333D01*
X140660428Y-72859333D01*
X140755666Y-72906952D01*
X140803285Y-72954571D01*
X140850904Y-73049809D01*
X139327095Y-73478380D02*
X139898523Y-73478380D01*
X139612809Y-73478380D02*
X139612809Y-72478380D01*
X139708047Y-72621238D01*
X139803285Y-72716476D01*
X139898523Y-72764095D01*
X151391857Y-73383142D02*
X151439476Y-73430761D01*
X151582333Y-73478380D01*
X151677571Y-73478380D01*
X151820428Y-73430761D01*
X151915666Y-73335523D01*
X151963285Y-73240285D01*
X152010904Y-73049809D01*
X152010904Y-72906952D01*
X151963285Y-72716476D01*
X151915666Y-72621238D01*
X151820428Y-72526000D01*
X151677571Y-72478380D01*
X151582333Y-72478380D01*
X151439476Y-72526000D01*
X151391857Y-72573619D01*
X150534714Y-72478380D02*
X150725190Y-72478380D01*
X150820428Y-72526000D01*
X150868047Y-72573619D01*
X150963285Y-72716476D01*
X151010904Y-72906952D01*
X151010904Y-73287904D01*
X150963285Y-73383142D01*
X150915666Y-73430761D01*
X150820428Y-73478380D01*
X150629952Y-73478380D01*
X150534714Y-73430761D01*
X150487095Y-73383142D01*
X150439476Y-73287904D01*
X150439476Y-73049809D01*
X150487095Y-72954571D01*
X150534714Y-72906952D01*
X150629952Y-72859333D01*
X150820428Y-72859333D01*
X150915666Y-72906952D01*
X150963285Y-72954571D01*
X151010904Y-73049809D01*
X149820428Y-72478380D02*
X149725190Y-72478380D01*
X149629952Y-72526000D01*
X149582333Y-72573619D01*
X149534714Y-72668857D01*
X149487095Y-72859333D01*
X149487095Y-73097428D01*
X149534714Y-73287904D01*
X149582333Y-73383142D01*
X149629952Y-73430761D01*
X149725190Y-73478380D01*
X149820428Y-73478380D01*
X149915666Y-73430761D01*
X149963285Y-73383142D01*
X150010904Y-73287904D01*
X150058523Y-73097428D01*
X150058523Y-72859333D01*
X150010904Y-72668857D01*
X149963285Y-72573619D01*
X149915666Y-72526000D01*
X149820428Y-72478380D01*
X161551857Y-73383142D02*
X161599476Y-73430761D01*
X161742333Y-73478380D01*
X161837571Y-73478380D01*
X161980428Y-73430761D01*
X162075666Y-73335523D01*
X162123285Y-73240285D01*
X162170904Y-73049809D01*
X162170904Y-72906952D01*
X162123285Y-72716476D01*
X162075666Y-72621238D01*
X161980428Y-72526000D01*
X161837571Y-72478380D01*
X161742333Y-72478380D01*
X161599476Y-72526000D01*
X161551857Y-72573619D01*
X160647095Y-72478380D02*
X161123285Y-72478380D01*
X161170904Y-72954571D01*
X161123285Y-72906952D01*
X161028047Y-72859333D01*
X160789952Y-72859333D01*
X160694714Y-72906952D01*
X160647095Y-72954571D01*
X160599476Y-73049809D01*
X160599476Y-73287904D01*
X160647095Y-73383142D01*
X160694714Y-73430761D01*
X160789952Y-73478380D01*
X161028047Y-73478380D01*
X161123285Y-73430761D01*
X161170904Y-73383142D01*
X160123285Y-73478380D02*
X159932809Y-73478380D01*
X159837571Y-73430761D01*
X159789952Y-73383142D01*
X159694714Y-73240285D01*
X159647095Y-73049809D01*
X159647095Y-72668857D01*
X159694714Y-72573619D01*
X159742333Y-72526000D01*
X159837571Y-72478380D01*
X160028047Y-72478380D01*
X160123285Y-72526000D01*
X160170904Y-72573619D01*
X160218523Y-72668857D01*
X160218523Y-72906952D01*
X160170904Y-73002190D01*
X160123285Y-73049809D01*
X160028047Y-73097428D01*
X159837571Y-73097428D01*
X159742333Y-73049809D01*
X159694714Y-73002190D01*
X159647095Y-72906952D01*
X131071857Y-91923142D02*
X131119476Y-91970761D01*
X131262333Y-92018380D01*
X131357571Y-92018380D01*
X131500428Y-91970761D01*
X131595666Y-91875523D01*
X131643285Y-91780285D01*
X131690904Y-91589809D01*
X131690904Y-91446952D01*
X131643285Y-91256476D01*
X131595666Y-91161238D01*
X131500428Y-91066000D01*
X131357571Y-91018380D01*
X131262333Y-91018380D01*
X131119476Y-91066000D01*
X131071857Y-91113619D01*
X130167095Y-91018380D02*
X130643285Y-91018380D01*
X130690904Y-91494571D01*
X130643285Y-91446952D01*
X130548047Y-91399333D01*
X130309952Y-91399333D01*
X130214714Y-91446952D01*
X130167095Y-91494571D01*
X130119476Y-91589809D01*
X130119476Y-91827904D01*
X130167095Y-91923142D01*
X130214714Y-91970761D01*
X130309952Y-92018380D01*
X130548047Y-92018380D01*
X130643285Y-91970761D01*
X130690904Y-91923142D01*
X129548047Y-91446952D02*
X129643285Y-91399333D01*
X129690904Y-91351714D01*
X129738523Y-91256476D01*
X129738523Y-91208857D01*
X129690904Y-91113619D01*
X129643285Y-91066000D01*
X129548047Y-91018380D01*
X129357571Y-91018380D01*
X129262333Y-91066000D01*
X129214714Y-91113619D01*
X129167095Y-91208857D01*
X129167095Y-91256476D01*
X129214714Y-91351714D01*
X129262333Y-91399333D01*
X129357571Y-91446952D01*
X129548047Y-91446952D01*
X129643285Y-91494571D01*
X129690904Y-91542190D01*
X129738523Y-91637428D01*
X129738523Y-91827904D01*
X129690904Y-91923142D01*
X129643285Y-91970761D01*
X129548047Y-92018380D01*
X129357571Y-92018380D01*
X129262333Y-91970761D01*
X129214714Y-91923142D01*
X129167095Y-91827904D01*
X129167095Y-91637428D01*
X129214714Y-91542190D01*
X129262333Y-91494571D01*
X129357571Y-91446952D01*
X141231857Y-91923142D02*
X141279476Y-91970761D01*
X141422333Y-92018380D01*
X141517571Y-92018380D01*
X141660428Y-91970761D01*
X141755666Y-91875523D01*
X141803285Y-91780285D01*
X141850904Y-91589809D01*
X141850904Y-91446952D01*
X141803285Y-91256476D01*
X141755666Y-91161238D01*
X141660428Y-91066000D01*
X141517571Y-91018380D01*
X141422333Y-91018380D01*
X141279476Y-91066000D01*
X141231857Y-91113619D01*
X140327095Y-91018380D02*
X140803285Y-91018380D01*
X140850904Y-91494571D01*
X140803285Y-91446952D01*
X140708047Y-91399333D01*
X140469952Y-91399333D01*
X140374714Y-91446952D01*
X140327095Y-91494571D01*
X140279476Y-91589809D01*
X140279476Y-91827904D01*
X140327095Y-91923142D01*
X140374714Y-91970761D01*
X140469952Y-92018380D01*
X140708047Y-92018380D01*
X140803285Y-91970761D01*
X140850904Y-91923142D01*
X139946142Y-91018380D02*
X139279476Y-91018380D01*
X139708047Y-92018380D01*
X151391857Y-91923142D02*
X151439476Y-91970761D01*
X151582333Y-92018380D01*
X151677571Y-92018380D01*
X151820428Y-91970761D01*
X151915666Y-91875523D01*
X151963285Y-91780285D01*
X152010904Y-91589809D01*
X152010904Y-91446952D01*
X151963285Y-91256476D01*
X151915666Y-91161238D01*
X151820428Y-91066000D01*
X151677571Y-91018380D01*
X151582333Y-91018380D01*
X151439476Y-91066000D01*
X151391857Y-91113619D01*
X150487095Y-91018380D02*
X150963285Y-91018380D01*
X151010904Y-91494571D01*
X150963285Y-91446952D01*
X150868047Y-91399333D01*
X150629952Y-91399333D01*
X150534714Y-91446952D01*
X150487095Y-91494571D01*
X150439476Y-91589809D01*
X150439476Y-91827904D01*
X150487095Y-91923142D01*
X150534714Y-91970761D01*
X150629952Y-92018380D01*
X150868047Y-92018380D01*
X150963285Y-91970761D01*
X151010904Y-91923142D01*
X149582333Y-91018380D02*
X149772809Y-91018380D01*
X149868047Y-91066000D01*
X149915666Y-91113619D01*
X150010904Y-91256476D01*
X150058523Y-91446952D01*
X150058523Y-91827904D01*
X150010904Y-91923142D01*
X149963285Y-91970761D01*
X149868047Y-92018380D01*
X149677571Y-92018380D01*
X149582333Y-91970761D01*
X149534714Y-91923142D01*
X149487095Y-91827904D01*
X149487095Y-91589809D01*
X149534714Y-91494571D01*
X149582333Y-91446952D01*
X149677571Y-91399333D01*
X149868047Y-91399333D01*
X149963285Y-91446952D01*
X150010904Y-91494571D01*
X150058523Y-91589809D01*
X161551857Y-91923142D02*
X161599476Y-91970761D01*
X161742333Y-92018380D01*
X161837571Y-92018380D01*
X161980428Y-91970761D01*
X162075666Y-91875523D01*
X162123285Y-91780285D01*
X162170904Y-91589809D01*
X162170904Y-91446952D01*
X162123285Y-91256476D01*
X162075666Y-91161238D01*
X161980428Y-91066000D01*
X161837571Y-91018380D01*
X161742333Y-91018380D01*
X161599476Y-91066000D01*
X161551857Y-91113619D01*
X160647095Y-91018380D02*
X161123285Y-91018380D01*
X161170904Y-91494571D01*
X161123285Y-91446952D01*
X161028047Y-91399333D01*
X160789952Y-91399333D01*
X160694714Y-91446952D01*
X160647095Y-91494571D01*
X160599476Y-91589809D01*
X160599476Y-91827904D01*
X160647095Y-91923142D01*
X160694714Y-91970761D01*
X160789952Y-92018380D01*
X161028047Y-92018380D01*
X161123285Y-91970761D01*
X161170904Y-91923142D01*
X159694714Y-91018380D02*
X160170904Y-91018380D01*
X160218523Y-91494571D01*
X160170904Y-91446952D01*
X160075666Y-91399333D01*
X159837571Y-91399333D01*
X159742333Y-91446952D01*
X159694714Y-91494571D01*
X159647095Y-91589809D01*
X159647095Y-91827904D01*
X159694714Y-91923142D01*
X159742333Y-91970761D01*
X159837571Y-92018380D01*
X160075666Y-92018380D01*
X160170904Y-91970761D01*
X160218523Y-91923142D01*
X161647142Y-112546333D02*
X161694761Y-112498714D01*
X161742380Y-112355857D01*
X161742380Y-112260619D01*
X161694761Y-112117761D01*
X161599523Y-112022523D01*
X161504285Y-111974904D01*
X161313809Y-111927285D01*
X161170952Y-111927285D01*
X160980476Y-111974904D01*
X160885238Y-112022523D01*
X160790000Y-112117761D01*
X160742380Y-112260619D01*
X160742380Y-112355857D01*
X160790000Y-112498714D01*
X160837619Y-112546333D01*
X161075714Y-113403476D02*
X161742380Y-113403476D01*
X160694761Y-113165380D02*
X161409047Y-112927285D01*
X161409047Y-113546333D01*
X113196666Y-59257142D02*
X113244285Y-59304761D01*
X113387142Y-59352380D01*
X113482380Y-59352380D01*
X113625238Y-59304761D01*
X113720476Y-59209523D01*
X113768095Y-59114285D01*
X113815714Y-58923809D01*
X113815714Y-58780952D01*
X113768095Y-58590476D01*
X113720476Y-58495238D01*
X113625238Y-58400000D01*
X113482380Y-58352380D01*
X113387142Y-58352380D01*
X113244285Y-58400000D01*
X113196666Y-58447619D01*
X112863333Y-58352380D02*
X112244285Y-58352380D01*
X112577619Y-58733333D01*
X112434761Y-58733333D01*
X112339523Y-58780952D01*
X112291904Y-58828571D01*
X112244285Y-58923809D01*
X112244285Y-59161904D01*
X112291904Y-59257142D01*
X112339523Y-59304761D01*
X112434761Y-59352380D01*
X112720476Y-59352380D01*
X112815714Y-59304761D01*
X112863333Y-59257142D01*
X118276666Y-59257142D02*
X118324285Y-59304761D01*
X118467142Y-59352380D01*
X118562380Y-59352380D01*
X118705238Y-59304761D01*
X118800476Y-59209523D01*
X118848095Y-59114285D01*
X118895714Y-58923809D01*
X118895714Y-58780952D01*
X118848095Y-58590476D01*
X118800476Y-58495238D01*
X118705238Y-58400000D01*
X118562380Y-58352380D01*
X118467142Y-58352380D01*
X118324285Y-58400000D01*
X118276666Y-58447619D01*
X117895714Y-58447619D02*
X117848095Y-58400000D01*
X117752857Y-58352380D01*
X117514761Y-58352380D01*
X117419523Y-58400000D01*
X117371904Y-58447619D01*
X117324285Y-58542857D01*
X117324285Y-58638095D01*
X117371904Y-58780952D01*
X117943333Y-59352380D01*
X117324285Y-59352380D01*
M02*
