M48
INCH,TZ
T1C0.0157
T2C0.0276
T3C0.0295
T4C0.0315
T5C0.0350
T6C0.0354
T7C0.0394
T8C0.0433
T9C0.0791
T10C0.1260
%
G90
G05
T1
X38000Y-49000
X38000Y-50000
X38000Y-52000
X38000Y-53000
X38000Y-54000
X38000Y-55000
X38000Y-57000
X38000Y-58000
X38000Y-59000
X38000Y-22000
X38000Y-23000
X38000Y-24000
X38000Y-25000
X38000Y-26000
X38000Y-27000
X38000Y-28000
X38000Y-29000
X38000Y-30000
X38000Y-31000
X38000Y-32000
X38000Y-34000
X38000Y-37000
X38000Y-38000
X38000Y-41000
X38000Y-42000
X38000Y-47000
X39000Y-48000
X39000Y-56000
X39000Y-57000
X39000Y-58000
X39000Y-59000
X39000Y-22000
X39000Y-23000
X39000Y-24000
X39000Y-25000
X39000Y-26000
X39000Y-31000
X39000Y-32000
X39000Y-34000
X39000Y-38000
X39000Y-47000
X39315Y-56449
X40000Y-22000
X40000Y-23000
X40000Y-24000
X40000Y-25000
X40000Y-26000
X40000Y-30000
X40000Y-31000
X40000Y-32000
X40000Y-34000
X40000Y-37000
X40000Y-41000
X41000Y-51000
X41000Y-22000
X41000Y-23000
X41000Y-24000
X41000Y-25000
X41000Y-26000
X41000Y-28000
X41000Y-31000
X41000Y-32000
X41000Y-34000
X41000Y-35000
X41000Y-37000
X41000Y-38000
X41000Y-41000
X41000Y-42000
X41000Y-43000
X41000Y-44000
X41000Y-49000
X41000Y-50000
X42000Y-50000
X42000Y-51000
X42000Y-22000
X42000Y-26000
X42000Y-28000
X42000Y-31000
X42000Y-34000
X42000Y-36000
X42000Y-37000
X42000Y-38000
X42000Y-39000
X42000Y-40000
X42000Y-41000
X42000Y-42000
X42000Y-43000
X42000Y-44000
X42000Y-45000
X42000Y-47000
X42000Y-49000
X43000Y-50000
X43000Y-55000
X43000Y-56000
X43000Y-57000
X43000Y-22000
X43000Y-23000
X43000Y-24000
X43000Y-25000
X43000Y-27000
X43000Y-31000
X43000Y-35000
X43000Y-36000
X43000Y-37000
X43000Y-38000
X43000Y-41000
X43000Y-42000
X43000Y-43000
X43000Y-47000
X43000Y-49000
X43000Y-58000
X43000Y-59000
X43457Y-50206
X44000Y-27000
X44000Y-28000
X44000Y-29000
X44000Y-22000
X44000Y-23000
X44000Y-24000
X44000Y-25000
X44000Y-38000
X44000Y-41000
X44000Y-43000
X44000Y-47000
X44000Y-49000
X44000Y-52000
X44000Y-53000
X44000Y-54000
X44000Y-55000
X44000Y-58000
X44000Y-59000
X44730Y-50570
X44976Y-51157
X45000Y-27000
X45000Y-28000
X45000Y-29000
X45000Y-22000
X45000Y-23000
X45000Y-24000
X45000Y-25000
X45000Y-32000
X45000Y-37000
X45000Y-41000
X45000Y-52000
X45000Y-53000
X45000Y-54000
X45000Y-55000
X45000Y-56000
X45000Y-57000
X45000Y-58000
X45000Y-59000
X45250Y-48400
X45550Y-49300
X46000Y-27000
X46000Y-32000
X46000Y-22000
X46000Y-31000
X46000Y-37000
X46000Y-38000
X46000Y-41000
X46000Y-42000
X46000Y-46000
X46000Y-47000
X46000Y-49000
X46000Y-50000
X46000Y-51000
X46000Y-52000
X46000Y-58000
X46000Y-59000
X46500Y-55000
X46500Y-56500
X47000Y-27000
X47000Y-40000
X47000Y-22000
X47000Y-23000
X47000Y-24000
X47000Y-25000
X47000Y-28000
X47000Y-31000
X47000Y-32000
X47000Y-36000
X47000Y-37000
X47000Y-38000
X47000Y-39000
X47000Y-41000
X47000Y-42000
X47000Y-43000
X47000Y-44000
X47000Y-45000
X47000Y-46000
X47000Y-47000
X47000Y-49067
X47000Y-59000
X47500Y-52500
X47500Y-54500
X48000Y-32000
X48000Y-22000
X48000Y-23000
X48000Y-24000
X48000Y-25000
X48000Y-28000
X48000Y-30000
X48000Y-37000
X48000Y-38000
X48000Y-41000
X48000Y-42000
X48000Y-43000
X48000Y-47000
X48000Y-49067
X48000Y-59000
X49000Y-22000
X49000Y-23000
X49000Y-24000
X49000Y-25000
X49000Y-30000
X49000Y-32000
X49000Y-38000
X49000Y-41000
X49000Y-43000
X49000Y-47000
X49000Y-49067
X49000Y-58000
X49000Y-59000
X50000Y-50000
X50000Y-51000
X50000Y-56000
X50000Y-57000
X50000Y-22000
X50000Y-23000
X50000Y-24000
X50000Y-25000
X50000Y-27000
X50000Y-30000
X50000Y-41000
X50000Y-47000
X50000Y-52000
X50000Y-53000
X50000Y-54000
X50000Y-58000
X50000Y-59000
X51000Y-22000
X51000Y-23000
X51000Y-24000
X51000Y-25000
X51000Y-26000
X51000Y-27000
X51000Y-28000
X51000Y-38000
X51000Y-41000
X51000Y-42000
X51000Y-47000
X51000Y-50000
X51000Y-51000
X51000Y-52000
X51000Y-53000
X51000Y-55000
X51000Y-59000
X51500Y-54500
X52000Y-22000
X52000Y-23000
X52000Y-24000
X52000Y-25000
X52000Y-26000
X52000Y-27000
X52000Y-28000
X52000Y-29000
X52000Y-30000
X52000Y-31000
X52000Y-32000
X52000Y-36000
X52000Y-38000
X52000Y-39000
X52000Y-40000
X52000Y-41000
X52000Y-42000
X52000Y-46000
X52000Y-47000
X53000Y-22000
X53000Y-23000
X53000Y-24000
X53000Y-25000
X53000Y-26000
X53000Y-27000
X53000Y-38000
X53000Y-39000
X53000Y-41000
X53000Y-43000
X53000Y-47000
X53000Y-53000
X53000Y-54000
X53000Y-55000
X53000Y-58000
X54000Y-22000
X54000Y-25000
X54000Y-26000
X54000Y-38000
X54000Y-43000
X54000Y-47000
X54000Y-50000
X54000Y-51000
X54000Y-52000
X54000Y-53000
X54000Y-54000
X54000Y-55000
X54000Y-56000
X54000Y-57000
X54000Y-58000
X55000Y-25000
X55000Y-29000
X55000Y-43000
X55000Y-47000
X55000Y-50000
X55000Y-51000
X55000Y-52000
X55000Y-53000
X55000Y-54000
X55000Y-55000
X55000Y-56000
X55000Y-57000
X55000Y-58000
X55100Y-25500
X56000Y-22000
X56000Y-28000
X56000Y-29000
X56000Y-38000
X56000Y-44000
X56000Y-47000
X56000Y-53000
X56000Y-54000
X56000Y-55000
X56000Y-58000
X56400Y-27400
X57000Y-22000
X57000Y-23000
X57000Y-26000
X57000Y-27000
X57000Y-28000
X57000Y-29000
X57000Y-30000
X57000Y-31000
X57000Y-32000
X57000Y-38000
X57000Y-39000
X57000Y-40000
X57000Y-41000
X57000Y-42000
X57000Y-44000
X57000Y-45000
X57000Y-53000
X57000Y-54000
X57000Y-55000
X57000Y-58000
X58000Y-23000
X58000Y-22000
X58000Y-25000
X58000Y-26000
X58000Y-27000
X58000Y-28000
X58000Y-29000
X58000Y-30000
X58000Y-31000
X58000Y-33000
X58000Y-38000
X58000Y-39000
X58000Y-40000
X58000Y-41000
X58000Y-42000
X58000Y-44000
X58000Y-52000
X58000Y-53000
X58000Y-54000
X58000Y-55000
X58000Y-57000
X58000Y-58000
X59000Y-23000
X59000Y-22000
X59000Y-24000
X59000Y-25000
X59000Y-26000
X59000Y-27000
X59000Y-28000
X59000Y-29000
X59000Y-32000
X59000Y-40000
X59000Y-41000
X59000Y-47000
X59000Y-48000
X59000Y-51000
X59000Y-52000
X59000Y-53000
X59000Y-54000
X59000Y-57000
X59000Y-58000
X60000Y-22000
X60000Y-23000
X60000Y-24000
X60000Y-25000
X60000Y-26000
X60000Y-27000
X60000Y-28000
X60000Y-29000
X60000Y-30000
X60000Y-32000
X60000Y-35000
X60000Y-39000
X60000Y-40000
X60000Y-41000
X60000Y-44000
X60000Y-45000
X60000Y-47000
X60000Y-48000
X60000Y-51000
X60000Y-52000
X60000Y-53000
X60000Y-54000
X60000Y-55000
X61000Y-22000
X61000Y-23000
X61000Y-24000
X61000Y-25000
X61000Y-28000
X61000Y-29000
X61000Y-31000
X61000Y-35000
X61000Y-36000
X61000Y-40000
X61000Y-41000
X61000Y-44000
X61000Y-45000
X61000Y-47000
X61000Y-51000
X61000Y-52000
X61000Y-53000
X61000Y-54000
X61000Y-55000
X61000Y-56000
X61000Y-57000
X61000Y-58000
X61050Y-48800
X61100Y-48000
X61965Y-45009
X62000Y-23000
X62000Y-24000
X62000Y-25000
X62000Y-28000
X62000Y-29000
X62000Y-30000
X62000Y-32000
X62000Y-33000
X62000Y-34000
X62000Y-40000
X62000Y-41000
X62000Y-44000
X62000Y-46000
X62000Y-52000
X62000Y-53000
X62000Y-54000
X62000Y-55000
X62000Y-56000
X62000Y-57000
X62000Y-58000
X62650Y-44550
X62685Y-57685
X62685Y-45052
X62750Y-46650
X63000Y-25000
X63000Y-22000
X63000Y-23000
X63000Y-24000
X63000Y-28000
X63000Y-29000
X63000Y-32000
X63000Y-35000
X63000Y-36000
X63000Y-40000
X63000Y-41000
X63000Y-52000
X63000Y-53000
X63000Y-54000
X63000Y-55000
X63000Y-56000
X63000Y-57000
X64000Y-25000
X64000Y-23000
X64000Y-24000
X64000Y-28000
X64000Y-29000
X64000Y-30000
X64000Y-32000
X64000Y-35000
X64000Y-36000
X64000Y-37000
X64000Y-39000
X64000Y-40000
X64000Y-41000
X64000Y-53000
X64000Y-54000
X64000Y-55000
X64000Y-56000
X64007Y-59006
X64050Y-46650
X64350Y-42350
X64350Y-44650
X64550Y-45050
X65000Y-24000
X65000Y-25000
X65000Y-59000
X65000Y-22000
X65000Y-23000
X65000Y-28000
X65000Y-29000
X65000Y-31000
X65000Y-32000
X65000Y-34000
X65000Y-35000
X65000Y-36000
X65000Y-37000
X65000Y-37900
X65000Y-39000
X65000Y-40000
X65000Y-41000
X65000Y-42000
X65000Y-43000
X65000Y-44000
X65000Y-45000
X65000Y-46000
X65000Y-53000
X65000Y-54000
X65000Y-55000
X65000Y-58000
X65400Y-34250
X65500Y-49100
X65850Y-37900
X66000Y-22000
X66000Y-23000
X66000Y-24000
X66000Y-31000
X66000Y-32000
X66000Y-33450
X66000Y-36000
X66000Y-40000
X66000Y-41000
X66000Y-44000
X66000Y-45000
X66000Y-53000
X66000Y-54000
X66000Y-55000
X66000Y-59000
X66250Y-46650
X66400Y-50550
X66550Y-49150
X66700Y-42350
X66950Y-50350
X67000Y-22000
X67000Y-23000
X67000Y-24000
X67000Y-28000
X67000Y-29000
X67000Y-30000
X67000Y-31000
X67000Y-32000
X67000Y-33000
X67000Y-34000
X67000Y-35000
X67000Y-36000
X67000Y-37000
X67000Y-38000
X67000Y-39000
X67000Y-40000
X67000Y-41000
X67000Y-42000
X67000Y-43000
X67000Y-53000
X67000Y-54000
X67000Y-55000
X67050Y-37450
X67500Y-46550
X68000Y-23000
X68000Y-25000
X68000Y-59000
X68000Y-22000
X68000Y-24000
X68000Y-28000
X68000Y-29000
X68000Y-30000
X68000Y-43000
X68000Y-44000
X68000Y-53000
X68000Y-54000
X68000Y-55000
X68600Y-37450
X69000Y-58000
X69000Y-59000
X69000Y-22000
X69000Y-23000
X69000Y-25000
X69000Y-30000
X69000Y-31035
X69000Y-32000
X69000Y-33000
X69000Y-34000
X69000Y-35000
X69000Y-36000
X69000Y-37000
X69000Y-38000
X69000Y-39000
X69000Y-40000
X69000Y-41000
X69000Y-42000
X69000Y-44000
X69000Y-53000
X69000Y-54000
X69000Y-55000
X69000Y-57000
X69350Y-46000
X70000Y-25000
X70000Y-57000
X70000Y-58000
X70000Y-22000
X70000Y-23000
X70000Y-24000
X70000Y-27000
X70000Y-30000
X70000Y-33000
X70000Y-34000
X70000Y-37000
X70000Y-38000
X70000Y-39000
X70000Y-42000
X70000Y-46365
X70000Y-53000
X70000Y-54000
X70000Y-55000
X70000Y-59000
X71000Y-57000
X71000Y-22000
X71000Y-23000
X71000Y-24000
X71000Y-25000
X71000Y-58000
X71000Y-59000
T2
X59098Y-37170
X59102Y-34166
X61098Y-37170
X61106Y-34166
X63102Y-34166
X63102Y-37166
X66102Y-34166
X66102Y-37166
X59148Y-41620
X59152Y-38616
X61148Y-41620
X61156Y-38616
X63152Y-38616
X63152Y-41616
X66152Y-38616
X66152Y-41616
X59198Y-46020
X59202Y-43016
X61198Y-46020
X61206Y-43016
X63202Y-43016
X63202Y-46016
X66202Y-43016
X66202Y-46016
X59096Y-32704
X59100Y-29700
X61096Y-32704
X61104Y-29700
X63100Y-29700
X63100Y-32700
X66100Y-29700
X66100Y-32700
T3
X69850Y-35100
X69850Y-35600
X69850Y-36100
X64037Y-51486
X64537Y-51486
X65037Y-51486
X69950Y-30750
X69950Y-31250
X69950Y-31750
X68387Y-51486
X68887Y-51486
X69387Y-51486
X69850Y-39600
X69850Y-40100
X69850Y-40600
X66212Y-51486
X66712Y-51486
X67212Y-51486
T4
X40250Y-28500
X43250Y-28500
X46250Y-28500
X49250Y-28500
T5
X43000Y-26000
X44000Y-26000
T6
X68531Y-45000
X69516Y-43031
X70500Y-45000
T7
X54346Y-46028
X55567Y-44925
X39346Y-37193
X40567Y-36091
X44346Y-41528
X45567Y-40425
X38750Y-29625
X40900Y-29625
X40900Y-32775
X43065Y-32775
X49346Y-46028
X50567Y-44925
X68500Y-28500
X69500Y-28500
X49346Y-37193
X50567Y-36091
X39346Y-41528
X40567Y-40425
X41000Y-51950
X41000Y-52950
X41000Y-53950
X41000Y-54950
X41000Y-55950
X41000Y-56950
X41000Y-57950
X41000Y-58950
X42000Y-51950
X42000Y-52950
X42000Y-53950
X42000Y-54950
X42000Y-55950
X42000Y-56950
X42000Y-57950
X42000Y-58950
X44346Y-46028
X45567Y-44925
X49346Y-41528
X50567Y-40425
X54346Y-41528
X55567Y-40425
X44346Y-37193
X45567Y-36091
X58825Y-55450
X61975Y-51135
X44685Y-29625
X46850Y-29625
X46850Y-32775
X49000Y-32775
X54346Y-37193
X55567Y-36091
X39346Y-46028
X40567Y-44925
T8
X53850Y-30006
X54850Y-30006
X55850Y-30006
T9
X42000Y-24000
X46000Y-24000
T10
X54850Y-23388
X72500Y-58500
X72500Y-22500
X36500Y-22500
X66727Y-57604
X36500Y-58500
T2
G00X62157Y-21750
M15
G01X61843Y-21750
M16
G05
G00X64157Y-21750
M15
G01X63843Y-21750
M16
G05
T7
G00X66650Y-24925
M15
G01X66650Y-25713
M16
G05
G00X68894Y-24138
M15
G01X68106Y-24138
M16
G05
G00X68894Y-26500
M15
G01X68106Y-26500
M16
G05
G00X61150Y-26902
M15
G01X61150Y-26567
M16
G05
G00X63000Y-26917
M15
G01X63000Y-26583
M16
G05
G00X64850Y-26921
M15
G01X64850Y-26587
M16
G05
T0
M30
