G04 #@! TF.GenerationSoftware,KiCad,Pcbnew,5.99.0-unknown-43514a1~86~ubuntu18.04.1*
G04 #@! TF.CreationDate,2020-06-17T19:02:55+01:00*
G04 #@! TF.ProjectId,TX_BOARD,54585f42-4f41-4524-942e-6b696361645f,rev?*
G04 #@! TF.SameCoordinates,Original*
G04 #@! TF.FileFunction,Soldermask,Bot*
G04 #@! TF.FilePolarity,Negative*
%FSLAX46Y46*%
G04 Gerber Fmt 4.6, Leading zero omitted, Abs format (unit mm)*
G04 Created by KiCad (PCBNEW 5.99.0-unknown-43514a1~86~ubuntu18.04.1) date 2020-06-17 19:02:55*
%MOMM*%
%LPD*%
G01*
G04 APERTURE LIST*
%ADD10O,3.000000X2.500000*%
%ADD11O,2.500000X3.000000*%
%ADD12O,1.700000X1.700000*%
%ADD13R,1.700000X1.700000*%
%ADD14C,1.400000*%
%ADD15R,1.400000X1.400000*%
%ADD16C,1.700000*%
%ADD17R,1.500000X1.050000*%
%ADD18O,1.500000X1.050000*%
%ADD19C,6.400000*%
%ADD20O,1.600000X1.600000*%
%ADD21R,1.600000X1.600000*%
%ADD22R,1.050000X1.500000*%
%ADD23O,1.050000X1.500000*%
%ADD24C,1.620000*%
%ADD25O,1.600000X2.500000*%
%ADD26O,3.500000X7.000000*%
%ADD27R,3.500000X3.500000*%
%ADD28O,1.905000X2.000000*%
%ADD29R,1.905000X2.000000*%
%ADD30C,6.000000*%
G04 APERTURE END LIST*
D10*
X157480000Y-55245000D03*
X162560000Y-55245000D03*
D11*
X164720000Y-67955000D03*
X160020000Y-67945000D03*
X155320000Y-67905000D03*
D12*
X173990000Y-72390000D03*
D13*
X176530000Y-72390000D03*
D14*
X160274001Y-83058000D03*
X150104001Y-83068000D03*
X155184001Y-83068000D03*
X160274001Y-75438000D03*
X150114001Y-75438000D03*
X155204001Y-75438000D03*
X167894001Y-83058000D03*
D15*
X167894001Y-75438000D03*
D16*
X128440001Y-114110000D03*
X125340001Y-116910000D03*
D14*
X160405000Y-105704002D03*
X150235000Y-105714002D03*
X155315000Y-105714002D03*
X160405000Y-98084002D03*
X150245000Y-98084002D03*
X155335000Y-98084002D03*
X168025000Y-105704002D03*
D15*
X168025000Y-98084002D03*
D16*
X157416001Y-129883000D03*
X149416001Y-140843000D03*
D14*
X160278000Y-94401002D03*
X150108000Y-94411002D03*
X155188000Y-94411002D03*
X160278000Y-86781002D03*
X150118000Y-86781002D03*
X155208000Y-86781002D03*
X167898000Y-94401002D03*
D15*
X167898000Y-86781002D03*
D14*
X160532000Y-116880002D03*
X150362000Y-116890002D03*
X155442000Y-116890002D03*
X160532000Y-109260002D03*
X150372000Y-109260002D03*
X155462000Y-109260002D03*
X168152000Y-116880002D03*
D15*
X168152000Y-109260002D03*
D16*
X103040001Y-91671002D03*
X99940001Y-94471002D03*
X115740001Y-91671002D03*
X112640001Y-94471002D03*
X128440001Y-91671002D03*
X125340001Y-94471002D03*
X141140001Y-91671002D03*
X138040001Y-94471002D03*
X103040001Y-102680000D03*
X99940001Y-105480000D03*
X115740001Y-102680000D03*
X112640001Y-105480000D03*
X128440001Y-102680000D03*
X125340001Y-105480000D03*
X141140001Y-102680000D03*
X138040001Y-105480000D03*
X141140001Y-114110000D03*
X138040001Y-116910000D03*
D17*
X177419001Y-100584000D03*
D18*
X177419001Y-103124000D03*
X177419001Y-101854000D03*
D17*
X177419001Y-89154000D03*
D18*
X177419001Y-91694000D03*
X177419001Y-90424000D03*
D17*
X177673001Y-78105000D03*
D18*
X177673001Y-80645000D03*
X177673001Y-79375000D03*
D16*
X119000001Y-75248000D03*
X119000001Y-83248000D03*
X113500001Y-75248000D03*
X124460001Y-83248000D03*
X103885001Y-83248000D03*
X103885001Y-75248000D03*
X109385001Y-83248000D03*
X98425001Y-75248000D03*
D19*
X184150001Y-57150000D03*
X92710001Y-148590000D03*
X184150001Y-148590000D03*
X92710001Y-57150000D03*
D20*
X117475001Y-72390000D03*
D21*
X125095001Y-72390000D03*
D20*
X102235001Y-72390000D03*
D21*
X109855001Y-72390000D03*
D16*
X115740001Y-114110000D03*
X112640001Y-116910000D03*
X103040001Y-114110000D03*
X99940001Y-116910000D03*
D22*
X162654201Y-130773500D03*
D23*
X165194201Y-130773500D03*
X163924201Y-130773500D03*
D22*
X168178701Y-130773500D03*
D23*
X170718701Y-130773500D03*
X169448701Y-130773500D03*
D22*
X173703201Y-130773500D03*
D23*
X176243201Y-130773500D03*
X174973201Y-130773500D03*
D24*
X179070001Y-114300000D03*
X176570001Y-109300000D03*
X174070001Y-114300000D03*
D25*
X109220001Y-66040000D03*
X111760001Y-66040000D03*
D26*
X116840001Y-60960000D03*
X106680001Y-60960000D03*
G36*
X170353099Y-62580457D02*
G01*
X170532403Y-62640872D01*
X170694527Y-62738419D01*
X170831892Y-62868537D01*
X170938073Y-63025143D01*
X171008106Y-63200913D01*
X171040000Y-63435000D01*
X171040000Y-65185000D01*
X171019543Y-65373099D01*
X170959128Y-65552403D01*
X170861581Y-65714527D01*
X170731463Y-65851892D01*
X170574857Y-65958073D01*
X170399087Y-66028106D01*
X170165000Y-66060000D01*
X168415000Y-66060000D01*
X168226901Y-66039543D01*
X168047597Y-65979128D01*
X167885473Y-65881581D01*
X167748108Y-65751463D01*
X167641927Y-65594857D01*
X167571894Y-65419087D01*
X167540000Y-65185000D01*
X167540000Y-63435000D01*
X167560457Y-63246901D01*
X167620872Y-63067597D01*
X167718419Y-62905473D01*
X167848537Y-62768108D01*
X168005143Y-62661927D01*
X168180913Y-62591894D01*
X168415000Y-62560000D01*
X170165000Y-62560000D01*
X170353099Y-62580457D01*
G37*
G36*
X175162962Y-59830216D02*
G01*
X175326599Y-59889776D01*
X175472091Y-59985467D01*
X175591592Y-60112131D01*
X175678662Y-60262940D01*
X175728606Y-60429764D01*
X175740000Y-60560000D01*
X175740000Y-62060000D01*
X175719784Y-62232962D01*
X175660224Y-62396599D01*
X175564533Y-62542091D01*
X175437869Y-62661592D01*
X175287060Y-62748662D01*
X175120236Y-62798606D01*
X174990000Y-62810000D01*
X172990000Y-62810000D01*
X172817038Y-62789784D01*
X172653401Y-62730224D01*
X172507909Y-62634533D01*
X172388408Y-62507869D01*
X172301338Y-62357060D01*
X172251394Y-62190236D01*
X172240000Y-62060000D01*
X172240000Y-60560000D01*
X172260216Y-60387038D01*
X172319776Y-60223401D01*
X172415467Y-60077909D01*
X172542131Y-59958408D01*
X172692940Y-59871338D01*
X172859764Y-59821394D01*
X172990000Y-59810000D01*
X174990000Y-59810000D01*
X175162962Y-59830216D01*
G37*
D27*
X173990000Y-67310000D03*
D28*
X141859001Y-76214500D03*
X139319001Y-76214500D03*
D29*
X136779001Y-76214500D03*
D30*
X139319001Y-59404500D03*
X169486701Y-146313500D03*
D12*
X106680000Y-149733000D03*
X104140000Y-149733000D03*
X106680000Y-147193000D03*
X104140000Y-147193000D03*
X106680000Y-144653000D03*
X104140000Y-144653000D03*
X106680000Y-142113000D03*
X104140000Y-142113000D03*
X106680000Y-139573000D03*
X104140000Y-139573000D03*
X106680000Y-137033000D03*
X104140000Y-137033000D03*
X106680000Y-134493000D03*
X104140000Y-134493000D03*
X106680000Y-131953000D03*
D13*
X104140000Y-131953000D03*
M02*
